G04 #@! TF.GenerationSoftware,KiCad,Pcbnew,(5.1.2)-1*
G04 #@! TF.CreationDate,2020-02-07T16:14:24+02:00*
G04 #@! TF.ProjectId,PCB,5043422e-6b69-4636-9164-5f7063625858,rev?*
G04 #@! TF.SameCoordinates,Original*
G04 #@! TF.FileFunction,Copper,L1,Top*
G04 #@! TF.FilePolarity,Positive*
%FSLAX46Y46*%
G04 Gerber Fmt 4.6, Leading zero omitted, Abs format (unit mm)*
G04 Created by KiCad (PCBNEW (5.1.2)-1) date 2020-02-07 16:14:24*
%MOMM*%
%LPD*%
G04 APERTURE LIST*
%ADD10C,1.600000*%
%ADD11C,1.524000*%
%ADD12C,0.800000*%
%ADD13C,7.000000*%
%ADD14C,3.000000*%
%ADD15C,0.100000*%
%ADD16C,3.160000*%
%ADD17O,3.160000X4.100000*%
%ADD18R,1.905000X2.000000*%
%ADD19O,1.905000X2.000000*%
%ADD20R,2.000000X2.000000*%
%ADD21C,2.000000*%
%ADD22R,1.600000X1.600000*%
%ADD23R,2.200000X2.200000*%
%ADD24O,2.200000X2.200000*%
%ADD25R,2.400000X2.400000*%
%ADD26O,2.400000X2.400000*%
%ADD27O,1.600000X1.400000*%
%ADD28R,1.700000X1.700000*%
%ADD29O,1.700000X1.700000*%
%ADD30C,2.050000*%
%ADD31C,2.250000*%
%ADD32O,1.600000X1.600000*%
%ADD33C,1.500000*%
%ADD34O,1.050000X1.500000*%
%ADD35R,1.050000X1.500000*%
%ADD36R,2.000000X1.905000*%
%ADD37O,2.000000X1.905000*%
%ADD38C,1.740000*%
%ADD39O,1.740000X2.200000*%
%ADD40C,1.270000*%
%ADD41C,0.600000*%
%ADD42C,1.000000*%
%ADD43C,0.300000*%
%ADD44C,2.000000*%
G04 APERTURE END LIST*
D10*
X148376000Y-72898000D03*
X150876000Y-72898000D03*
D11*
X147674000Y-76454000D03*
X147674000Y-78454000D03*
X147674000Y-80454000D03*
X147674000Y-82454000D03*
X147674000Y-84454000D03*
X147674000Y-86454000D03*
X147674000Y-88454000D03*
X147674000Y-90454000D03*
X133858000Y-90454000D03*
X133858000Y-88454000D03*
X133858000Y-86454000D03*
X133858000Y-84454000D03*
X133858000Y-82454000D03*
X133858000Y-80454000D03*
X133858000Y-78454000D03*
X133858000Y-76454000D03*
D12*
X137746155Y-21003845D03*
X135890000Y-20235000D03*
X134033845Y-21003845D03*
X133265000Y-22860000D03*
X134033845Y-24716155D03*
X135890000Y-25485000D03*
X137746155Y-24716155D03*
X138515000Y-22860000D03*
D13*
X135890000Y-22860000D03*
D12*
X138000155Y-96187845D03*
X136144000Y-95419000D03*
X134287845Y-96187845D03*
X133519000Y-98044000D03*
X134287845Y-99900155D03*
X136144000Y-100669000D03*
X138000155Y-99900155D03*
X138769000Y-98044000D03*
D13*
X136144000Y-98044000D03*
D12*
X53418155Y-20749845D03*
X51562000Y-19981000D03*
X49705845Y-20749845D03*
X48937000Y-22606000D03*
X49705845Y-24462155D03*
X51562000Y-25231000D03*
X53418155Y-24462155D03*
X54187000Y-22606000D03*
D13*
X51562000Y-22606000D03*
D12*
X53418155Y-96441845D03*
X51562000Y-95673000D03*
X49705845Y-96441845D03*
X48937000Y-98298000D03*
X49705845Y-100154155D03*
X51562000Y-100923000D03*
X53418155Y-100154155D03*
X54187000Y-98298000D03*
D13*
X51562000Y-98298000D03*
D14*
X164760000Y-96060000D03*
X164760000Y-24660000D03*
D11*
X95631000Y-34844000D03*
X95631000Y-32304000D03*
X95631000Y-21544000D03*
X95631000Y-24084000D03*
X77131000Y-34844000D03*
X77131000Y-32304000D03*
X77131000Y-24084000D03*
X77131000Y-21544000D03*
D15*
G36*
X71839504Y-94471204D02*
G01*
X71863773Y-94474804D01*
X71887571Y-94480765D01*
X71910671Y-94489030D01*
X71932849Y-94499520D01*
X71953893Y-94512133D01*
X71973598Y-94526747D01*
X71991777Y-94543223D01*
X72008253Y-94561402D01*
X72022867Y-94581107D01*
X72035480Y-94602151D01*
X72045970Y-94624329D01*
X72054235Y-94647429D01*
X72060196Y-94671227D01*
X72063796Y-94695496D01*
X72065000Y-94720000D01*
X72065000Y-98320000D01*
X72063796Y-98344504D01*
X72060196Y-98368773D01*
X72054235Y-98392571D01*
X72045970Y-98415671D01*
X72035480Y-98437849D01*
X72022867Y-98458893D01*
X72008253Y-98478598D01*
X71991777Y-98496777D01*
X71973598Y-98513253D01*
X71953893Y-98527867D01*
X71932849Y-98540480D01*
X71910671Y-98550970D01*
X71887571Y-98559235D01*
X71863773Y-98565196D01*
X71839504Y-98568796D01*
X71815000Y-98570000D01*
X69155000Y-98570000D01*
X69130496Y-98568796D01*
X69106227Y-98565196D01*
X69082429Y-98559235D01*
X69059329Y-98550970D01*
X69037151Y-98540480D01*
X69016107Y-98527867D01*
X68996402Y-98513253D01*
X68978223Y-98496777D01*
X68961747Y-98478598D01*
X68947133Y-98458893D01*
X68934520Y-98437849D01*
X68924030Y-98415671D01*
X68915765Y-98392571D01*
X68909804Y-98368773D01*
X68906204Y-98344504D01*
X68905000Y-98320000D01*
X68905000Y-94720000D01*
X68906204Y-94695496D01*
X68909804Y-94671227D01*
X68915765Y-94647429D01*
X68924030Y-94624329D01*
X68934520Y-94602151D01*
X68947133Y-94581107D01*
X68961747Y-94561402D01*
X68978223Y-94543223D01*
X68996402Y-94526747D01*
X69016107Y-94512133D01*
X69037151Y-94499520D01*
X69059329Y-94489030D01*
X69082429Y-94480765D01*
X69106227Y-94474804D01*
X69130496Y-94471204D01*
X69155000Y-94470000D01*
X71815000Y-94470000D01*
X71839504Y-94471204D01*
X71839504Y-94471204D01*
G37*
D16*
X70485000Y-96520000D03*
D17*
X66525000Y-96520000D03*
X62565000Y-96520000D03*
X58605000Y-96520000D03*
D10*
X121920000Y-69850000D03*
X121920000Y-72350000D03*
D18*
X141605000Y-52070000D03*
D19*
X144145000Y-52070000D03*
X146685000Y-52070000D03*
D10*
X123150000Y-81915000D03*
X120650000Y-81915000D03*
X99862000Y-72898000D03*
X102362000Y-72898000D03*
X104394000Y-79970000D03*
X104394000Y-77470000D03*
X104394000Y-85090000D03*
X104394000Y-87590000D03*
X120650000Y-78740000D03*
X123150000Y-78740000D03*
D20*
X54610000Y-44450000D03*
D21*
X59610000Y-44450000D03*
D22*
X64135000Y-31750000D03*
D10*
X64135000Y-29750000D03*
X71120000Y-31750000D03*
X71120000Y-29250000D03*
X141605000Y-45720000D03*
X146605000Y-45720000D03*
X144685000Y-58420000D03*
D22*
X146685000Y-58420000D03*
D10*
X99695000Y-26670000D03*
X99695000Y-24170000D03*
X106045000Y-24670000D03*
D22*
X106045000Y-26670000D03*
X118745000Y-26670000D03*
D10*
X118745000Y-24670000D03*
X125095000Y-26670000D03*
X125095000Y-24170000D03*
X135255000Y-39330000D03*
X135255000Y-36830000D03*
D22*
X140335000Y-36830000D03*
D10*
X140335000Y-34830000D03*
D23*
X64770000Y-74930000D03*
D24*
X64770000Y-64770000D03*
D23*
X58420000Y-74930000D03*
D24*
X58420000Y-64770000D03*
X71120000Y-72390000D03*
D23*
X71120000Y-62230000D03*
D24*
X52070000Y-72390000D03*
D23*
X52070000Y-62230000D03*
D25*
X54610000Y-54610000D03*
D26*
X69850000Y-54610000D03*
D22*
X109220000Y-60960000D03*
D27*
X116840000Y-93980000D03*
X109220000Y-63500000D03*
X116840000Y-91440000D03*
X109220000Y-66040000D03*
X116840000Y-88900000D03*
X109220000Y-68580000D03*
X116840000Y-86360000D03*
X109220000Y-71120000D03*
X116840000Y-83820000D03*
X109220000Y-73660000D03*
X116840000Y-81280000D03*
X109220000Y-76200000D03*
X116840000Y-78740000D03*
X109220000Y-78740000D03*
X116840000Y-76200000D03*
X109220000Y-81280000D03*
X116840000Y-73660000D03*
X109220000Y-83820000D03*
X116840000Y-71120000D03*
X109220000Y-86360000D03*
X116840000Y-68580000D03*
X109220000Y-88900000D03*
X116840000Y-66040000D03*
X109220000Y-91440000D03*
X116840000Y-63500000D03*
X109220000Y-93980000D03*
X116840000Y-60960000D03*
D28*
X130175000Y-31750000D03*
D29*
X130175000Y-34290000D03*
X130175000Y-36830000D03*
D30*
X147574000Y-97790000D03*
D31*
X145034000Y-100330000D03*
X150114000Y-100330000D03*
X150114000Y-95250000D03*
X145034000Y-95250000D03*
D28*
X83820000Y-45974000D03*
D29*
X86360000Y-45974000D03*
X88900000Y-45974000D03*
X91440000Y-45974000D03*
D10*
X107315000Y-45720000D03*
D32*
X107315000Y-55880000D03*
D33*
X97790000Y-80010000D03*
X97790000Y-84890000D03*
D10*
X118110000Y-99060000D03*
D32*
X107950000Y-99060000D03*
D34*
X116840000Y-35560000D03*
X115570000Y-35560000D03*
D35*
X118110000Y-35560000D03*
D36*
X105410000Y-35560000D03*
D37*
X105410000Y-38100000D03*
X105410000Y-40640000D03*
D32*
X116840000Y-41910000D03*
D10*
X116840000Y-52070000D03*
X111760000Y-35560000D03*
D32*
X111760000Y-45720000D03*
D10*
X86360000Y-41910000D03*
X83860000Y-41910000D03*
X139700000Y-64770000D03*
D32*
X149860000Y-64770000D03*
D15*
G36*
X102498505Y-97580204D02*
G01*
X102522773Y-97583804D01*
X102546572Y-97589765D01*
X102569671Y-97598030D01*
X102591850Y-97608520D01*
X102612893Y-97621132D01*
X102632599Y-97635747D01*
X102650777Y-97652223D01*
X102667253Y-97670401D01*
X102681868Y-97690107D01*
X102694480Y-97711150D01*
X102704970Y-97733329D01*
X102713235Y-97756428D01*
X102719196Y-97780227D01*
X102722796Y-97804495D01*
X102724000Y-97828999D01*
X102724000Y-99529001D01*
X102722796Y-99553505D01*
X102719196Y-99577773D01*
X102713235Y-99601572D01*
X102704970Y-99624671D01*
X102694480Y-99646850D01*
X102681868Y-99667893D01*
X102667253Y-99687599D01*
X102650777Y-99705777D01*
X102632599Y-99722253D01*
X102612893Y-99736868D01*
X102591850Y-99749480D01*
X102569671Y-99759970D01*
X102546572Y-99768235D01*
X102522773Y-99774196D01*
X102498505Y-99777796D01*
X102474001Y-99779000D01*
X101233999Y-99779000D01*
X101209495Y-99777796D01*
X101185227Y-99774196D01*
X101161428Y-99768235D01*
X101138329Y-99759970D01*
X101116150Y-99749480D01*
X101095107Y-99736868D01*
X101075401Y-99722253D01*
X101057223Y-99705777D01*
X101040747Y-99687599D01*
X101026132Y-99667893D01*
X101013520Y-99646850D01*
X101003030Y-99624671D01*
X100994765Y-99601572D01*
X100988804Y-99577773D01*
X100985204Y-99553505D01*
X100984000Y-99529001D01*
X100984000Y-97828999D01*
X100985204Y-97804495D01*
X100988804Y-97780227D01*
X100994765Y-97756428D01*
X101003030Y-97733329D01*
X101013520Y-97711150D01*
X101026132Y-97690107D01*
X101040747Y-97670401D01*
X101057223Y-97652223D01*
X101075401Y-97635747D01*
X101095107Y-97621132D01*
X101116150Y-97608520D01*
X101138329Y-97598030D01*
X101161428Y-97589765D01*
X101185227Y-97583804D01*
X101209495Y-97580204D01*
X101233999Y-97579000D01*
X102474001Y-97579000D01*
X102498505Y-97580204D01*
X102498505Y-97580204D01*
G37*
D38*
X101854000Y-98679000D03*
D39*
X99314000Y-98679000D03*
D28*
X105029000Y-60960000D03*
D29*
X105029000Y-63500000D03*
X105029000Y-66040000D03*
X105029000Y-68580000D03*
D40*
X58420000Y-64770000D02*
X64770000Y-64770000D01*
D41*
X116840000Y-81280000D02*
X114844999Y-79284999D01*
X114844999Y-79284999D02*
X114300000Y-78740000D01*
X111760000Y-76200000D02*
X109220000Y-76200000D01*
X114300000Y-78740000D02*
X111760000Y-76200000D01*
X117475000Y-81915000D02*
X116840000Y-81280000D01*
X120650000Y-81915000D02*
X117475000Y-81915000D01*
X105410000Y-43815000D02*
X105410000Y-40640000D01*
X107315000Y-45720000D02*
X105410000Y-43815000D01*
D42*
X141605000Y-52070000D02*
X141605000Y-38100000D01*
X141605000Y-38100000D02*
X140335000Y-36830000D01*
X121285000Y-45720000D02*
X107315000Y-45720000D01*
X140335000Y-36830000D02*
X130175000Y-36830000D01*
X130175000Y-36830000D02*
X121285000Y-45720000D01*
D41*
X102362000Y-50673000D02*
X107315000Y-45720000D01*
X102362000Y-72644000D02*
X102362000Y-50673000D01*
X109220000Y-76200000D02*
X105918000Y-76200000D01*
X105918000Y-76200000D02*
X102362000Y-72644000D01*
D43*
X104394000Y-80010000D02*
X97790000Y-80010000D01*
X109220000Y-81280000D02*
X105664000Y-81280000D01*
X105664000Y-81280000D02*
X104394000Y-80010000D01*
X104594000Y-84890000D02*
X97790000Y-84890000D01*
X109220000Y-83820000D02*
X105664000Y-83820000D01*
X105664000Y-83820000D02*
X104594000Y-84890000D01*
D41*
X116840000Y-78740000D02*
X119380000Y-78740000D01*
X119380000Y-78740000D02*
X120650000Y-78740000D01*
D40*
X52070000Y-60880000D02*
X52070000Y-62230000D01*
X53260000Y-59690000D02*
X52070000Y-60880000D01*
X54610000Y-58340000D02*
X54610000Y-54610000D01*
X53260000Y-59690000D02*
X54610000Y-58340000D01*
X54530000Y-58420000D02*
X53260000Y-59690000D01*
X68660000Y-58420000D02*
X54530000Y-58420000D01*
X71120000Y-62230000D02*
X71120000Y-60880000D01*
X71120000Y-60880000D02*
X68660000Y-58420000D01*
X64135000Y-31750000D02*
X54610000Y-41275000D01*
X54610000Y-50800000D02*
X54610000Y-54610000D01*
X54610000Y-41275000D02*
X54610000Y-50800000D01*
X76877000Y-31750000D02*
X64135000Y-31750000D01*
X77131000Y-32004000D02*
X76877000Y-31750000D01*
X77131000Y-32004000D02*
X77131000Y-34544000D01*
D41*
X146685000Y-52070000D02*
X146685000Y-67945000D01*
X146685000Y-67945000D02*
X146685000Y-68707000D01*
X146685000Y-68707000D02*
X150876000Y-72898000D01*
X150876000Y-79252000D02*
X147674000Y-82454000D01*
X150876000Y-72898000D02*
X150876000Y-79252000D01*
D40*
X68580000Y-74930000D02*
X71120000Y-72390000D01*
X64770000Y-74930000D02*
X68580000Y-74930000D01*
X70300000Y-96520000D02*
X66340000Y-96520000D01*
X66340000Y-96520000D02*
X66340000Y-79675000D01*
X66340000Y-79675000D02*
X64770000Y-78105000D01*
X64770000Y-78105000D02*
X64770000Y-74930000D01*
X58420000Y-92990000D02*
X58420000Y-74930000D01*
X58420000Y-93980000D02*
X58420000Y-96520000D01*
X58420000Y-92990000D02*
X58420000Y-93980000D01*
X54610000Y-74930000D02*
X52070000Y-72390000D01*
X58420000Y-74930000D02*
X54610000Y-74930000D01*
X58420000Y-96520000D02*
X62380000Y-96520000D01*
D43*
X105918000Y-90678000D02*
X96774000Y-90678000D01*
X109220000Y-93980000D02*
X105918000Y-90678000D01*
X96774000Y-90678000D02*
X88900000Y-82804000D01*
X88900000Y-82804000D02*
X88900000Y-50800000D01*
X88900000Y-50800000D02*
X88900000Y-45974000D01*
X126872000Y-91440000D02*
X133858000Y-84454000D01*
X116840000Y-91440000D02*
X126872000Y-91440000D01*
X86360000Y-82296000D02*
X86360000Y-50800000D01*
X116840000Y-95250000D02*
X115887500Y-96202500D01*
X116840000Y-93980000D02*
X116840000Y-95250000D01*
X115887500Y-96202500D02*
X108902500Y-96202500D01*
X108902500Y-96202500D02*
X104902000Y-92202000D01*
X104902000Y-92202000D02*
X96266000Y-92202000D01*
X96266000Y-92202000D02*
X86360000Y-82296000D01*
X86360000Y-50800000D02*
X86360000Y-45974000D01*
X133134001Y-81177999D02*
X133858000Y-80454000D01*
X133134001Y-81241999D02*
X133134001Y-81177999D01*
X125476000Y-88900000D02*
X133134001Y-81241999D01*
X116840000Y-88900000D02*
X125476000Y-88900000D01*
X109220000Y-68580000D02*
X110490000Y-67310000D01*
X134530000Y-67310000D02*
X147674000Y-80454000D01*
X110490000Y-67310000D02*
X134530000Y-67310000D01*
X125952000Y-86360000D02*
X133858000Y-78454000D01*
X116840000Y-86360000D02*
X125952000Y-86360000D01*
X126142000Y-90170000D02*
X133858000Y-82454000D01*
X115570000Y-90170000D02*
X126142000Y-90170000D01*
X114808000Y-89408000D02*
X115570000Y-90170000D01*
X116840000Y-83820000D02*
X114808000Y-85852000D01*
X114808000Y-85852000D02*
X114808000Y-89408000D01*
X109220000Y-71120000D02*
X110490000Y-69850000D01*
X110490000Y-69850000D02*
X121920000Y-69850000D01*
X120142000Y-99060000D02*
X118110000Y-99060000D01*
X127508000Y-99060000D02*
X120142000Y-99060000D01*
X135890000Y-90678000D02*
X127508000Y-99060000D01*
X135890000Y-75184000D02*
X135890000Y-90678000D01*
X121920000Y-69850000D02*
X130556000Y-69850000D01*
X130556000Y-69850000D02*
X135890000Y-75184000D01*
X127602000Y-92710000D02*
X133858000Y-86454000D01*
X109220000Y-86360000D02*
X115570000Y-92710000D01*
X115570000Y-92710000D02*
X127602000Y-92710000D01*
D41*
X117940000Y-66040000D02*
X116840000Y-66040000D01*
X137298630Y-66040000D02*
X117940000Y-66040000D01*
X139700000Y-64770000D02*
X138568630Y-64770000D01*
X138568630Y-64770000D02*
X137298630Y-66040000D01*
D43*
X147674000Y-98452000D02*
X147574000Y-98552000D01*
D44*
X147674000Y-97690000D02*
X147574000Y-97790000D01*
X147674000Y-90700000D02*
X147674000Y-97690000D01*
D41*
X116840000Y-60960000D02*
X116840000Y-52070000D01*
X101346000Y-41910000D02*
X90805000Y-41910000D01*
X105410000Y-38100000D02*
X105156000Y-38100000D01*
X105156000Y-38100000D02*
X101346000Y-41910000D01*
X83820000Y-44824000D02*
X83820000Y-45974000D01*
X90805000Y-41910000D02*
X86734000Y-41910000D01*
X86734000Y-41910000D02*
X83820000Y-44824000D01*
X116840000Y-41910000D02*
X116840000Y-35560000D01*
X115570000Y-35560000D02*
X105410000Y-35560000D01*
D43*
X101981000Y-98679000D02*
X101600000Y-99060000D01*
X107950000Y-99060000D02*
X107569000Y-98679000D01*
X102235000Y-99060000D02*
X101854000Y-98679000D01*
X107950000Y-99060000D02*
X102235000Y-99060000D01*
X109220000Y-63500000D02*
X105156000Y-63500000D01*
X109220000Y-66040000D02*
X105156000Y-66040000D01*
D40*
X95631000Y-32004000D02*
X95631000Y-34544000D01*
X113030000Y-26670000D02*
X107315000Y-26670000D01*
X125095000Y-26670000D02*
X113030000Y-26670000D01*
X130175000Y-31750000D02*
X125095000Y-26670000D01*
X157480000Y-31750000D02*
X130175000Y-31750000D01*
X164760000Y-24660000D02*
X164570000Y-24660000D01*
X164570000Y-24660000D02*
X157480000Y-31750000D01*
D41*
X164760000Y-49870000D02*
X164760000Y-24660000D01*
X149860000Y-64770000D02*
X164760000Y-49870000D01*
D40*
X107315000Y-26670000D02*
X99695000Y-26670000D01*
X95631000Y-30734000D02*
X99695000Y-26670000D01*
X95631000Y-33528000D02*
X95631000Y-30988000D01*
D41*
X107315000Y-59055000D02*
X109220000Y-60960000D01*
X107315000Y-55880000D02*
X107315000Y-59055000D01*
D43*
X105156000Y-60960000D02*
X109220000Y-60960000D01*
M02*
