M48
; DRILL file {KiCad (5.1.2)-1} date 07-Feb-20 4:14:48 PM
; FORMAT={-:-/ absolute / inch / decimal}
; #@! TF.CreationDate,2020-02-07T16:14:48+02:00
; #@! TF.GenerationSoftware,Kicad,Pcbnew,(5.1.2)-1
; #@! TF.FileFunction,Plated,1,2,PTH
FMAT,2
INCH
T1C0.0197
T2C0.0295
T3C0.0300
T4C0.0315
T5C0.0394
T6C0.0433
T7C0.0472
T8C0.0591
T9C0.0669
T10C0.0787
T11C0.1378
%
G90
G05
T1
X5.2467Y-0.9
X5.2769Y-0.8269
X5.2769Y-0.9731
X5.35Y-0.7967
X5.35Y-1.0033
X5.4231Y-0.8269
X5.4231Y-0.9731
X5.4533Y-0.9
X5.2567Y-3.86
X5.2869Y-3.7869
X5.2869Y-3.9331
X5.36Y-3.7567
X5.36Y-3.9633
X5.4331Y-3.7869
X5.4331Y-3.9331
X5.4633Y-3.86
X1.9267Y-0.89
X1.9569Y-0.8169
X1.9569Y-0.9631
X2.03Y-0.7867
X2.03Y-0.9933
X2.1031Y-0.8169
X2.1031Y-0.9631
X2.1333Y-0.89
X1.9267Y-3.87
X1.9569Y-3.7969
X1.9569Y-3.9431
X2.03Y-3.7667
X2.03Y-3.9733
X2.1031Y-3.7969
X2.1031Y-3.9431
X2.1333Y-3.87
T2
X4.55Y-1.4
X4.6Y-1.4
X4.65Y-1.4
T3
X3.0367Y-0.8482
X3.0367Y-0.9482
X3.0367Y-1.2718
X3.0367Y-1.3718
X3.765Y-0.8482
X3.765Y-0.9482
X3.765Y-1.2718
X3.765Y-1.3718
X5.27Y-3.01
X5.27Y-3.0887
X5.27Y-3.1675
X5.27Y-3.2462
X5.27Y-3.325
X5.27Y-3.4037
X5.27Y-3.4824
X5.27Y-3.5612
X5.8139Y-3.01
X5.8139Y-3.0887
X5.8139Y-3.1675
X5.8139Y-3.2462
X5.8139Y-3.325
X5.8139Y-3.4037
X5.8139Y-3.4824
X5.8139Y-3.5612
T4
X4.225Y-1.8
X4.225Y-2.2
X3.3016Y-1.65
X3.4Y-1.65
X5.575Y-1.8
X5.7719Y-1.8
X4.675Y-0.9713
X4.675Y-1.05
X2.8Y-1.1516
X2.8Y-1.25
X4.925Y-0.9516
X4.925Y-1.05
X5.525Y-1.3713
X5.525Y-1.45
X4.6Y-1.65
X4.6Y-2.05
X4.75Y-3.1
X4.8484Y-3.1
X3.85Y-3.15
X3.85Y-3.3421
X5.325Y-1.45
X5.325Y-1.5484
X3.9316Y-2.87
X4.03Y-2.87
X5.8416Y-2.87
X5.94Y-2.87
X4.11Y-3.35
X4.11Y-3.4484
X5.5Y-2.55
X5.9Y-2.55
X4.25Y-3.9
X4.65Y-3.9
X3.925Y-0.9516
X3.925Y-1.05
X2.525Y-1.1713
X2.525Y-1.25
X4.3Y-2.4
X4.3Y-2.5
X4.3Y-2.6
X4.3Y-2.7
X4.3Y-2.8
X4.3Y-2.9
X4.3Y-3.0
X4.3Y-3.1
X4.3Y-3.2
X4.3Y-3.3
X4.3Y-3.4
X4.3Y-3.5
X4.3Y-3.6
X4.3Y-3.7
X4.6Y-2.4
X4.6Y-2.5
X4.6Y-2.6
X4.6Y-2.7
X4.6Y-2.8
X4.6Y-2.9
X4.6Y-3.0
X4.6Y-3.1
X4.6Y-3.2
X4.6Y-3.3
X4.6Y-3.4
X4.6Y-3.5
X4.6Y-3.6
X4.6Y-3.7
X4.4Y-1.4
X4.4Y-1.8
X4.175Y-0.9713
X4.175Y-1.05
X5.6963Y-2.3
X5.775Y-2.3
X4.11Y-3.05
X4.11Y-3.1484
X4.75Y-3.225
X4.8484Y-3.225
X4.8Y-2.75
X4.8Y-2.8484
T5
X5.125Y-1.25
X5.125Y-1.35
X5.125Y-1.45
X2.15Y-1.75
X2.3469Y-1.75
X4.135Y-2.4
X4.135Y-2.5
X4.135Y-2.6
X4.135Y-2.7
X3.3Y-1.81
X3.4Y-1.81
X3.5Y-1.81
X3.6Y-1.81
T6
X2.05Y-2.45
X2.05Y-2.85
X4.15Y-1.4
X4.15Y-1.5
X4.15Y-1.6
X5.575Y-2.05
X5.675Y-2.05
X5.775Y-2.05
X2.55Y-2.55
X2.55Y-2.95
X2.8Y-2.45
X2.8Y-2.85
X2.3Y-2.55
X2.3Y-2.95
T7
X2.15Y-2.15
X2.75Y-2.15
X3.91Y-3.885
X4.01Y-3.885
T8
X5.81Y-3.85
T9
X2.3073Y-3.8
X2.4632Y-3.8
X2.6191Y-3.8
X2.775Y-3.8
X5.71Y-3.75
X5.71Y-3.95
X5.91Y-3.75
X5.91Y-3.95
T10
X6.4866Y-0.9709
X6.4866Y-3.7819
T11
X5.35Y-0.9
X5.36Y-3.86
X2.03Y-0.89
X2.03Y-3.87
T0
M30
