M48
; DRILL file {KiCad (5.1.2)-1} date 29-Jan-20 8:57:43 PM
; FORMAT={-:-/ absolute / inch / decimal}
; #@! TF.CreationDate,2020-01-29T20:57:43+02:00
; #@! TF.GenerationSoftware,Kicad,Pcbnew,(5.1.2)-1
; #@! TF.FileFunction,Plated,1,2,PTH
FMAT,2
INCH
T1C0.0197
T2C0.0295
T3C0.0315
T4C0.0394
T5C0.0433
T6C0.0472
T7C0.0591
T8C0.0669
T9C0.0787
T10C0.0984
%
G90
G05
T1
X5.2762Y-0.85
X5.2978Y-0.7978
X5.2978Y-0.9022
X5.35Y-0.7762
X5.35Y-0.9238
X5.4022Y-0.7978
X5.4022Y-0.9022
X5.4238Y-0.85
X3.9508Y-3.9
X4.0Y-3.9
X1.9262Y-3.9
X1.9478Y-3.8478
X1.9478Y-3.9522
X2.0Y-3.8262
X2.0Y-3.9738
X2.0522Y-3.8478
X2.0522Y-3.9522
X2.0738Y-3.9
X5.2762Y-3.9
X5.2978Y-3.8478
X5.2978Y-3.9522
X5.35Y-3.8262
X5.35Y-3.9738
X5.4022Y-3.8478
X5.4022Y-3.9522
X5.4238Y-3.9
X1.9262Y-0.85
X1.9478Y-0.7978
X1.9478Y-0.9022
X2.0Y-0.7762
X2.0Y-0.9238
X2.0522Y-0.7978
X2.0522Y-0.9022
X2.0738Y-0.85
T2
X4.55Y-1.4
X4.6Y-1.4
X4.65Y-1.4
T3
X5.575Y-1.8
X5.7719Y-1.8
X4.11Y-3.35
X4.11Y-3.4484
X3.85Y-3.15
X3.85Y-3.3421
X4.3Y-2.4
X4.3Y-2.5
X4.3Y-2.6
X4.3Y-2.7
X4.3Y-2.8
X4.3Y-2.9
X4.3Y-3.0
X4.3Y-3.1
X4.3Y-3.2
X4.3Y-3.3
X4.3Y-3.4
X4.3Y-3.5
X4.3Y-3.6
X4.3Y-3.7
X4.6Y-2.4
X4.6Y-2.5
X4.6Y-2.6
X4.6Y-2.7
X4.6Y-2.8
X4.6Y-2.9
X4.6Y-3.0
X4.6Y-3.1
X4.6Y-3.2
X4.6Y-3.3
X4.6Y-3.4
X4.6Y-3.5
X4.6Y-3.6
X4.6Y-3.7
X3.975Y-1.05
X3.975Y-1.1484
X3.4Y-1.7266
X3.4Y-1.825
X5.325Y-1.3516
X5.325Y-1.45
X5.248Y-3.54
X5.3267Y-3.54
X5.4055Y-3.54
X5.4842Y-3.54
X5.5629Y-3.54
X5.6417Y-3.54
X5.7204Y-3.54
X5.7992Y-3.54
X4.75Y-3.05
X4.8484Y-3.05
X4.25Y-3.9
X4.65Y-3.9
X4.75Y-0.9516
X4.75Y-1.05
X4.6Y-1.65
X4.6Y-2.05
X5.6963Y-2.3
X5.775Y-2.3
X5.93Y-3.35
X5.93Y-3.4484
X5.2488Y-2.99
X5.3276Y-2.99
X5.4063Y-2.99
X5.485Y-2.99
X5.5638Y-2.99
X5.6425Y-2.99
X5.7213Y-2.99
X5.8Y-2.99
X4.225Y-1.05
X4.225Y-1.1287
X4.8Y-2.75
X4.8Y-2.8484
X4.225Y-1.8
X4.225Y-2.2
X4.75Y-3.225
X4.8484Y-3.225
X2.425Y-0.95
X2.425Y-1.0287
X4.4Y-1.4
X4.4Y-1.8
X4.5Y-0.9713
X4.5Y-1.05
X2.725Y-0.95
X2.725Y-1.0484
X4.0016Y-2.87
X4.1Y-2.87
X4.11Y-3.05
X4.11Y-3.1484
X5.525Y-1.3713
X5.525Y-1.45
T4
X3.025Y-1.4
X3.025Y-1.5
X2.2Y-1.75
X2.3969Y-1.75
X3.3Y-2.0
X3.4Y-2.0
X3.5Y-2.0
X3.6Y-2.0
X3.775Y-1.4
X3.775Y-1.5
X4.8Y-2.45
X4.8Y-2.55
X3.025Y-0.95
X3.025Y-1.05
X3.775Y-0.95
X3.775Y-1.05
X5.125Y-1.25
X5.125Y-1.35
X5.125Y-1.45
T5
X2.55Y-2.55
X2.55Y-2.95
X5.575Y-2.05
X5.675Y-2.05
X5.775Y-2.05
X2.3Y-2.55
X2.3Y-2.95
X4.15Y-1.4
X4.15Y-1.5
X4.15Y-1.6
X2.8Y-2.45
X2.8Y-2.85
X2.05Y-2.45
X2.05Y-2.85
T6
X2.15Y-2.15
X2.75Y-2.15
T7
X5.8Y-3.85
T8
X5.7Y-3.75
X5.7Y-3.95
X5.9Y-3.75
X5.9Y-3.95
X2.3073Y-3.8
X2.4632Y-3.8
X2.6191Y-3.8
X2.775Y-3.8
T9
X6.4866Y-0.9709
X6.4866Y-3.7819
T10
X2.0Y-0.85
X5.35Y-0.85
X2.0Y-3.9
X5.35Y-3.9
T0
M30
