G04 #@! TF.GenerationSoftware,KiCad,Pcbnew,(5.1.2)-1*
G04 #@! TF.CreationDate,2020-01-29T20:57:53+02:00*
G04 #@! TF.ProjectId,PCB,5043422e-6b69-4636-9164-5f7063625858,rev?*
G04 #@! TF.SameCoordinates,Original*
G04 #@! TF.FileFunction,Copper,L1,Top*
G04 #@! TF.FilePolarity,Positive*
%FSLAX46Y46*%
G04 Gerber Fmt 4.6, Leading zero omitted, Abs format (unit mm)*
G04 Created by KiCad (PCBNEW (5.1.2)-1) date 2020-01-29 20:57:53*
%MOMM*%
%LPD*%
G04 APERTURE LIST*
%ADD10C,3.000000*%
%ADD11C,0.800000*%
%ADD12C,5.000000*%
%ADD13C,0.100000*%
%ADD14C,3.160000*%
%ADD15O,3.160000X4.100000*%
%ADD16C,1.600000*%
%ADD17O,0.800000X1.300000*%
%ADD18R,1.905000X2.000000*%
%ADD19O,1.905000X2.000000*%
%ADD20R,2.000000X2.000000*%
%ADD21C,2.000000*%
%ADD22R,1.600000X1.600000*%
%ADD23R,2.200000X2.200000*%
%ADD24O,2.200000X2.200000*%
%ADD25R,2.400000X2.400000*%
%ADD26O,2.400000X2.400000*%
%ADD27O,1.600000X1.400000*%
%ADD28O,1.700000X1.700000*%
%ADD29R,1.700000X1.700000*%
%ADD30O,1.350000X1.350000*%
%ADD31R,1.350000X1.350000*%
%ADD32C,2.050000*%
%ADD33C,2.250000*%
%ADD34O,1.600000X1.600000*%
%ADD35C,1.500000*%
%ADD36O,1.050000X1.500000*%
%ADD37R,1.050000X1.500000*%
%ADD38R,2.000000X1.905000*%
%ADD39O,2.000000X1.905000*%
%ADD40C,1.270000*%
%ADD41C,0.600000*%
%ADD42C,1.000000*%
%ADD43C,0.300000*%
%ADD44C,2.000000*%
G04 APERTURE END LIST*
D10*
X164760000Y-96060000D03*
X164760000Y-24660000D03*
D11*
X137215825Y-97734175D03*
X135890000Y-97185000D03*
X134564175Y-97734175D03*
X134015000Y-99060000D03*
X134564175Y-100385825D03*
X135890000Y-100935000D03*
X137215825Y-100385825D03*
X137765000Y-99060000D03*
D12*
X135890000Y-99060000D03*
D11*
X52125825Y-97734175D03*
X50800000Y-97185000D03*
X49474175Y-97734175D03*
X48925000Y-99060000D03*
X49474175Y-100385825D03*
X50800000Y-100935000D03*
X52125825Y-100385825D03*
X52675000Y-99060000D03*
D12*
X50800000Y-99060000D03*
D11*
X52125825Y-20264175D03*
X50800000Y-19715000D03*
X49474175Y-20264175D03*
X48925000Y-21590000D03*
X49474175Y-22915825D03*
X50800000Y-23465000D03*
X52125825Y-22915825D03*
X52675000Y-21590000D03*
D12*
X50800000Y-21590000D03*
D11*
X137215825Y-20264175D03*
X135890000Y-19715000D03*
X134564175Y-20264175D03*
X134015000Y-21590000D03*
X134564175Y-22915825D03*
X135890000Y-23465000D03*
X137215825Y-22915825D03*
X137765000Y-21590000D03*
D12*
X135890000Y-21590000D03*
D13*
G36*
X71839504Y-94471204D02*
G01*
X71863773Y-94474804D01*
X71887571Y-94480765D01*
X71910671Y-94489030D01*
X71932849Y-94499520D01*
X71953893Y-94512133D01*
X71973598Y-94526747D01*
X71991777Y-94543223D01*
X72008253Y-94561402D01*
X72022867Y-94581107D01*
X72035480Y-94602151D01*
X72045970Y-94624329D01*
X72054235Y-94647429D01*
X72060196Y-94671227D01*
X72063796Y-94695496D01*
X72065000Y-94720000D01*
X72065000Y-98320000D01*
X72063796Y-98344504D01*
X72060196Y-98368773D01*
X72054235Y-98392571D01*
X72045970Y-98415671D01*
X72035480Y-98437849D01*
X72022867Y-98458893D01*
X72008253Y-98478598D01*
X71991777Y-98496777D01*
X71973598Y-98513253D01*
X71953893Y-98527867D01*
X71932849Y-98540480D01*
X71910671Y-98550970D01*
X71887571Y-98559235D01*
X71863773Y-98565196D01*
X71839504Y-98568796D01*
X71815000Y-98570000D01*
X69155000Y-98570000D01*
X69130496Y-98568796D01*
X69106227Y-98565196D01*
X69082429Y-98559235D01*
X69059329Y-98550970D01*
X69037151Y-98540480D01*
X69016107Y-98527867D01*
X68996402Y-98513253D01*
X68978223Y-98496777D01*
X68961747Y-98478598D01*
X68947133Y-98458893D01*
X68934520Y-98437849D01*
X68924030Y-98415671D01*
X68915765Y-98392571D01*
X68909804Y-98368773D01*
X68906204Y-98344504D01*
X68905000Y-98320000D01*
X68905000Y-94720000D01*
X68906204Y-94695496D01*
X68909804Y-94671227D01*
X68915765Y-94647429D01*
X68924030Y-94624329D01*
X68934520Y-94602151D01*
X68947133Y-94581107D01*
X68961747Y-94561402D01*
X68978223Y-94543223D01*
X68996402Y-94526747D01*
X69016107Y-94512133D01*
X69037151Y-94499520D01*
X69059329Y-94489030D01*
X69082429Y-94480765D01*
X69106227Y-94474804D01*
X69130496Y-94471204D01*
X69155000Y-94470000D01*
X71815000Y-94470000D01*
X71839504Y-94471204D01*
X71839504Y-94471204D01*
G37*
D14*
X70485000Y-96520000D03*
D15*
X66525000Y-96520000D03*
X62565000Y-96520000D03*
X58605000Y-96520000D03*
D16*
X121920000Y-69850000D03*
X121920000Y-72350000D03*
D13*
G36*
X101819603Y-98410963D02*
G01*
X101839018Y-98413843D01*
X101858057Y-98418612D01*
X101876537Y-98425224D01*
X101894279Y-98433616D01*
X101911114Y-98443706D01*
X101926879Y-98455398D01*
X101941421Y-98468579D01*
X101954602Y-98483121D01*
X101966294Y-98498886D01*
X101976384Y-98515721D01*
X101984776Y-98533463D01*
X101991388Y-98551943D01*
X101996157Y-98570982D01*
X101999037Y-98590397D01*
X102000000Y-98610000D01*
X102000000Y-99510000D01*
X101999037Y-99529603D01*
X101996157Y-99549018D01*
X101991388Y-99568057D01*
X101984776Y-99586537D01*
X101976384Y-99604279D01*
X101966294Y-99621114D01*
X101954602Y-99636879D01*
X101941421Y-99651421D01*
X101926879Y-99664602D01*
X101911114Y-99676294D01*
X101894279Y-99686384D01*
X101876537Y-99694776D01*
X101858057Y-99701388D01*
X101839018Y-99706157D01*
X101819603Y-99709037D01*
X101800000Y-99710000D01*
X101400000Y-99710000D01*
X101380397Y-99709037D01*
X101360982Y-99706157D01*
X101341943Y-99701388D01*
X101323463Y-99694776D01*
X101305721Y-99686384D01*
X101288886Y-99676294D01*
X101273121Y-99664602D01*
X101258579Y-99651421D01*
X101245398Y-99636879D01*
X101233706Y-99621114D01*
X101223616Y-99604279D01*
X101215224Y-99586537D01*
X101208612Y-99568057D01*
X101203843Y-99549018D01*
X101200963Y-99529603D01*
X101200000Y-99510000D01*
X101200000Y-98610000D01*
X101200963Y-98590397D01*
X101203843Y-98570982D01*
X101208612Y-98551943D01*
X101215224Y-98533463D01*
X101223616Y-98515721D01*
X101233706Y-98498886D01*
X101245398Y-98483121D01*
X101258579Y-98468579D01*
X101273121Y-98455398D01*
X101288886Y-98443706D01*
X101305721Y-98433616D01*
X101323463Y-98425224D01*
X101341943Y-98418612D01*
X101360982Y-98413843D01*
X101380397Y-98410963D01*
X101400000Y-98410000D01*
X101800000Y-98410000D01*
X101819603Y-98410963D01*
X101819603Y-98410963D01*
G37*
D11*
X101600000Y-99060000D03*
D17*
X100350000Y-99060000D03*
D18*
X141605000Y-52070000D03*
D19*
X144145000Y-52070000D03*
X146685000Y-52070000D03*
D16*
X123150000Y-81915000D03*
X120650000Y-81915000D03*
X101640000Y-72898000D03*
X104140000Y-72898000D03*
X104394000Y-79970000D03*
X104394000Y-77470000D03*
X104394000Y-85090000D03*
X104394000Y-87590000D03*
X120650000Y-77470000D03*
X123150000Y-77470000D03*
D20*
X55880000Y-44450000D03*
D21*
X60880000Y-44450000D03*
D22*
X61595000Y-24130000D03*
D16*
X61595000Y-26130000D03*
X69215000Y-24130000D03*
X69215000Y-26630000D03*
X141605000Y-45720000D03*
X146605000Y-45720000D03*
X144685000Y-58420000D03*
D22*
X146685000Y-58420000D03*
D16*
X100965000Y-26670000D03*
X100965000Y-29170000D03*
X107315000Y-28670000D03*
D22*
X107315000Y-26670000D03*
X114300000Y-26670000D03*
D16*
X114300000Y-24670000D03*
X120650000Y-26670000D03*
X120650000Y-24170000D03*
X150622000Y-87590000D03*
X150622000Y-85090000D03*
X135255000Y-34330000D03*
X135255000Y-36830000D03*
D22*
X140335000Y-36830000D03*
D16*
X140335000Y-34830000D03*
D23*
X64770000Y-74930000D03*
D24*
X64770000Y-64770000D03*
D23*
X58420000Y-74930000D03*
D24*
X58420000Y-64770000D03*
X71120000Y-72390000D03*
D23*
X71120000Y-62230000D03*
D24*
X52070000Y-72390000D03*
D23*
X52070000Y-62230000D03*
D25*
X54610000Y-54610000D03*
D26*
X69850000Y-54610000D03*
D22*
X109220000Y-60960000D03*
D27*
X116840000Y-93980000D03*
X109220000Y-63500000D03*
X116840000Y-91440000D03*
X109220000Y-66040000D03*
X116840000Y-88900000D03*
X109220000Y-68580000D03*
X116840000Y-86360000D03*
X109220000Y-71120000D03*
X116840000Y-83820000D03*
X109220000Y-73660000D03*
X116840000Y-81280000D03*
X109220000Y-76200000D03*
X116840000Y-78740000D03*
X109220000Y-78740000D03*
X116840000Y-76200000D03*
X109220000Y-81280000D03*
X116840000Y-73660000D03*
X109220000Y-83820000D03*
X116840000Y-71120000D03*
X109220000Y-86360000D03*
X116840000Y-68580000D03*
X109220000Y-88900000D03*
X116840000Y-66040000D03*
X109220000Y-91440000D03*
X116840000Y-63500000D03*
X109220000Y-93980000D03*
X116840000Y-60960000D03*
D28*
X76835000Y-24130000D03*
D29*
X76835000Y-26670000D03*
X76835000Y-38100000D03*
D28*
X76835000Y-35560000D03*
X95885000Y-26670000D03*
D29*
X95885000Y-24130000D03*
X95885000Y-35560000D03*
D28*
X95885000Y-38100000D03*
D30*
X133320000Y-75947171D03*
X135320000Y-75947171D03*
X137320000Y-75947171D03*
X139320000Y-75947171D03*
X141320000Y-75947171D03*
X143320000Y-75947171D03*
X145320000Y-75947171D03*
D31*
X147320000Y-75947171D03*
D29*
X130175000Y-31750000D03*
D28*
X130175000Y-34290000D03*
X130175000Y-36830000D03*
D31*
X147298700Y-89917171D03*
D30*
X145298700Y-89917171D03*
X143298700Y-89917171D03*
X141298700Y-89917171D03*
X139298700Y-89917171D03*
X137298700Y-89917171D03*
X135298700Y-89917171D03*
X133298700Y-89917171D03*
D32*
X147320000Y-97790000D03*
D33*
X149860000Y-100330000D03*
X149860000Y-95250000D03*
X144780000Y-95250000D03*
X144780000Y-100330000D03*
D29*
X83820000Y-50800000D03*
D28*
X86360000Y-50800000D03*
X88900000Y-50800000D03*
X91440000Y-50800000D03*
D16*
X107315000Y-45720000D03*
D34*
X107315000Y-55880000D03*
D35*
X97790000Y-80010000D03*
X97790000Y-84890000D03*
D16*
X118110000Y-99060000D03*
D34*
X107950000Y-99060000D03*
D36*
X116840000Y-35560000D03*
X115570000Y-35560000D03*
D37*
X118110000Y-35560000D03*
D38*
X105410000Y-35560000D03*
D39*
X105410000Y-38100000D03*
X105410000Y-40640000D03*
D34*
X116840000Y-41910000D03*
D16*
X116840000Y-52070000D03*
X111760000Y-35560000D03*
D34*
X111760000Y-45720000D03*
D16*
X86360000Y-46355000D03*
X86360000Y-43855000D03*
D29*
X121920000Y-62230000D03*
D28*
X121920000Y-64770000D03*
D40*
X95885000Y-24130000D02*
X95885000Y-26670000D01*
X95885000Y-26670000D02*
X97155000Y-26670000D01*
X99695000Y-26670000D02*
X100965000Y-26670000D01*
X100965000Y-26670000D02*
X107315000Y-26670000D01*
X99695000Y-26670000D02*
X97155000Y-26670000D01*
X113030000Y-26670000D02*
X107315000Y-26670000D01*
X125095000Y-26670000D02*
X113030000Y-26670000D01*
X130175000Y-31750000D02*
X125095000Y-26670000D01*
X157480000Y-31750000D02*
X130175000Y-31750000D01*
X164760000Y-24660000D02*
X164570000Y-24660000D01*
X164570000Y-24660000D02*
X157480000Y-31750000D01*
X58420000Y-64770000D02*
X64770000Y-64770000D01*
D41*
X116840000Y-81280000D02*
X114844999Y-79284999D01*
X114844999Y-79284999D02*
X114300000Y-78740000D01*
X111760000Y-76200000D02*
X109220000Y-76200000D01*
X114300000Y-78740000D02*
X111760000Y-76200000D01*
X117475000Y-81915000D02*
X116840000Y-81280000D01*
X120650000Y-81915000D02*
X117475000Y-81915000D01*
X105410000Y-43815000D02*
X105410000Y-40640000D01*
X107315000Y-45720000D02*
X105410000Y-43815000D01*
D42*
X141605000Y-52070000D02*
X141605000Y-38100000D01*
X141605000Y-38100000D02*
X140335000Y-36830000D01*
X121285000Y-45720000D02*
X107315000Y-45720000D01*
X140335000Y-36830000D02*
X130175000Y-36830000D01*
X130175000Y-36830000D02*
X121285000Y-45720000D01*
D41*
X104140000Y-48895000D02*
X107315000Y-45720000D01*
X104140000Y-73025000D02*
X104140000Y-48895000D01*
X109220000Y-76200000D02*
X107315000Y-76200000D01*
X107315000Y-76200000D02*
X104140000Y-73025000D01*
D43*
X104394000Y-80010000D02*
X97790000Y-80010000D01*
X109220000Y-81280000D02*
X105664000Y-81280000D01*
X105664000Y-81280000D02*
X104394000Y-80010000D01*
X104594000Y-84890000D02*
X97790000Y-84890000D01*
X109220000Y-83820000D02*
X105664000Y-83820000D01*
X105664000Y-83820000D02*
X104594000Y-84890000D01*
D41*
X119380000Y-78740000D02*
X120650000Y-77470000D01*
X116840000Y-78740000D02*
X119380000Y-78740000D01*
D40*
X52070000Y-60880000D02*
X52070000Y-62230000D01*
X53260000Y-59690000D02*
X52070000Y-60880000D01*
X54610000Y-58340000D02*
X54610000Y-54610000D01*
X53260000Y-59690000D02*
X54610000Y-58340000D01*
X59055000Y-24130000D02*
X61595000Y-24130000D01*
X55880000Y-33020000D02*
X55880000Y-27305000D01*
X55880000Y-27305000D02*
X59055000Y-24130000D01*
X54610000Y-50800000D02*
X55880000Y-49530000D01*
X54610000Y-54610000D02*
X54610000Y-50800000D01*
X55880000Y-49530000D02*
X55880000Y-41910000D01*
X55880000Y-41910000D02*
X55880000Y-33020000D01*
X61595000Y-24130000D02*
X69215000Y-24130000D01*
X74295000Y-24130000D02*
X76835000Y-24130000D01*
X76835000Y-24130000D02*
X76835000Y-26670000D01*
X69215000Y-24130000D02*
X74295000Y-24130000D01*
X54530000Y-58420000D02*
X53260000Y-59690000D01*
X68660000Y-58420000D02*
X54530000Y-58420000D01*
X71120000Y-62230000D02*
X71120000Y-60880000D01*
X71120000Y-60880000D02*
X68660000Y-58420000D01*
D41*
X139298700Y-88793300D02*
X139298700Y-89917171D01*
X139954000Y-88138000D02*
X139298700Y-88793300D01*
X143002000Y-88137999D02*
X139954000Y-88138000D01*
X147574001Y-88137999D02*
X143002000Y-88137999D01*
X152654000Y-83058000D02*
X147574001Y-88137999D01*
X152654000Y-73914000D02*
X152654000Y-83058000D01*
X146685000Y-52070000D02*
X146685000Y-67945000D01*
X146685000Y-67945000D02*
X152654000Y-73914000D01*
D40*
X68580000Y-74930000D02*
X71120000Y-72390000D01*
X64770000Y-74930000D02*
X68580000Y-74930000D01*
X70300000Y-96520000D02*
X66340000Y-96520000D01*
X66340000Y-96520000D02*
X66340000Y-79675000D01*
X66340000Y-79675000D02*
X64770000Y-78105000D01*
X64770000Y-78105000D02*
X64770000Y-74930000D01*
X58420000Y-92990000D02*
X58420000Y-74930000D01*
X58420000Y-93980000D02*
X58420000Y-96520000D01*
X58420000Y-92990000D02*
X58420000Y-93980000D01*
X54610000Y-74930000D02*
X52070000Y-72390000D01*
X58420000Y-74930000D02*
X54610000Y-74930000D01*
X58420000Y-96520000D02*
X62380000Y-96520000D01*
D41*
X107315000Y-59055000D02*
X109220000Y-60960000D01*
X107315000Y-55880000D02*
X107315000Y-59055000D01*
D43*
X88900000Y-82804000D02*
X88900000Y-50800000D01*
X96774000Y-90678000D02*
X88900000Y-82804000D01*
X109220000Y-93980000D02*
X105918000Y-90678000D01*
X105918000Y-90678000D02*
X96774000Y-90678000D01*
X121920000Y-91440000D02*
X116840000Y-91440000D01*
X123952000Y-91440000D02*
X128270000Y-87122000D01*
X121920000Y-91440000D02*
X123952000Y-91440000D01*
X128270000Y-87122000D02*
X128270000Y-75946000D01*
X128270000Y-75946000D02*
X129794000Y-74422000D01*
X129794000Y-74422000D02*
X137933529Y-74422000D01*
X137933529Y-74422000D02*
X139458700Y-75947171D01*
X86360000Y-82296000D02*
X86360000Y-50800000D01*
X116840000Y-95250000D02*
X115570000Y-96520000D01*
X116840000Y-93980000D02*
X116840000Y-95250000D01*
X115570000Y-96520000D02*
X109220000Y-96520000D01*
X109220000Y-96520000D02*
X104902000Y-92202000D01*
X104902000Y-92202000D02*
X96266000Y-92202000D01*
X96266000Y-92202000D02*
X86360000Y-82296000D01*
X120650000Y-88900000D02*
X116840000Y-88900000D01*
X121412000Y-88900000D02*
X126238000Y-84074000D01*
X120650000Y-88900000D02*
X121412000Y-88900000D01*
X126238000Y-84074000D02*
X126238000Y-74930000D01*
X126238000Y-74930000D02*
X128778000Y-72390000D01*
X128778000Y-72390000D02*
X139901529Y-72390000D01*
X139901529Y-72390000D02*
X143458700Y-75947171D01*
X137795000Y-89420871D02*
X137298700Y-89917171D01*
X138938000Y-87122000D02*
X137795000Y-88265000D01*
X110490000Y-67310000D02*
X144018000Y-67310000D01*
X109220000Y-68580000D02*
X110490000Y-67310000D01*
X144018000Y-67310000D02*
X151130000Y-74422000D01*
X151130000Y-74422000D02*
X151130000Y-82550000D01*
X151130000Y-82550000D02*
X146558000Y-87122000D01*
X137795000Y-88265000D02*
X137795000Y-89420871D01*
X146558000Y-87122000D02*
X138938000Y-87122000D01*
X145458700Y-75608700D02*
X145458700Y-75947171D01*
X121412000Y-86360000D02*
X125222000Y-82550000D01*
X116840000Y-86360000D02*
X121412000Y-86360000D01*
X125222000Y-82550000D02*
X125222000Y-74422000D01*
X125222000Y-74422000D02*
X128270000Y-71374000D01*
X128270000Y-71374000D02*
X141224000Y-71374000D01*
X141224000Y-71374000D02*
X145458700Y-75608700D01*
X141458700Y-75947171D02*
X141108700Y-75947171D01*
X114300000Y-86360000D02*
X114300000Y-88900000D01*
X129286000Y-73406000D02*
X138917529Y-73406000D01*
X138917529Y-73406000D02*
X141458700Y-75947171D01*
X127254000Y-75438000D02*
X129286000Y-73406000D01*
X127254000Y-85598000D02*
X127254000Y-75438000D01*
X122682000Y-90170000D02*
X127254000Y-85598000D01*
X121285000Y-90170000D02*
X122682000Y-90170000D01*
X121285000Y-90170000D02*
X120650000Y-90170000D01*
X120650000Y-90170000D02*
X115570000Y-90170000D01*
X114300000Y-88900000D02*
X115570000Y-90170000D01*
X116840000Y-83820000D02*
X114300000Y-86360000D01*
X120142000Y-99060000D02*
X118110000Y-99060000D01*
X120396000Y-99060000D02*
X120142000Y-99060000D01*
X133350000Y-86106000D02*
X120396000Y-99060000D01*
X110490000Y-69850000D02*
X145034000Y-69850000D01*
X109220000Y-71120000D02*
X110490000Y-69850000D01*
X145034000Y-69850000D02*
X150114000Y-74930000D01*
X150114000Y-74930000D02*
X150114000Y-82042000D01*
X150114000Y-82042000D02*
X146050000Y-86106000D01*
X146050000Y-86106000D02*
X133350000Y-86106000D01*
X137458700Y-79965300D02*
X137458700Y-75947171D01*
X124714000Y-92710000D02*
X137458700Y-79965300D01*
X109220000Y-86360000D02*
X115570000Y-92710000D01*
X115570000Y-92710000D02*
X124714000Y-92710000D01*
D44*
X147320000Y-89938471D02*
X147298700Y-89917171D01*
X147320000Y-97790000D02*
X147320000Y-89938471D01*
D41*
X116840000Y-60960000D02*
X116840000Y-52070000D01*
X83820000Y-48895000D02*
X83820000Y-50800000D01*
X86360000Y-46355000D02*
X83820000Y-48895000D01*
X99695000Y-38100000D02*
X91440000Y-46355000D01*
X91440000Y-46355000D02*
X86360000Y-46355000D01*
X105410000Y-38100000D02*
X99695000Y-38100000D01*
X116840000Y-41910000D02*
X116840000Y-35560000D01*
X115570000Y-35560000D02*
X105410000Y-35560000D01*
D43*
X107950000Y-99060000D02*
X101600000Y-99060000D01*
X109220000Y-63500000D02*
X110320000Y-63500000D01*
X110320000Y-63500000D02*
X111590000Y-62230000D01*
X111590000Y-62230000D02*
X121920000Y-62230000D01*
X121285000Y-64770000D02*
X121920000Y-64135000D01*
X111590000Y-64770000D02*
X121920000Y-64770000D01*
X109220000Y-66040000D02*
X110320000Y-66040000D01*
X110320000Y-66040000D02*
X111590000Y-64770000D01*
M02*
