G04 #@! TF.GenerationSoftware,KiCad,Pcbnew,(5.1.2)-1*
G04 #@! TF.CreationDate,2020-01-29T21:10:47+02:00*
G04 #@! TF.ProjectId,PCB,5043422e-6b69-4636-9164-5f7063625858,rev?*
G04 #@! TF.SameCoordinates,Original*
G04 #@! TF.FileFunction,Legend,Top*
G04 #@! TF.FilePolarity,Positive*
%FSLAX46Y46*%
G04 Gerber Fmt 4.6, Leading zero omitted, Abs format (unit mm)*
G04 Created by KiCad (PCBNEW (5.1.2)-1) date 2020-01-29 21:10:47*
%MOMM*%
%LPD*%
G04 APERTURE LIST*
%ADD10C,0.300000*%
%ADD11C,0.150000*%
%ADD12C,0.120000*%
G04 APERTURE END LIST*
D10*
X124587142Y-63313571D02*
X125444285Y-63313571D01*
X125015714Y-64813571D02*
X125015714Y-63313571D01*
X125801428Y-63313571D02*
X126801428Y-64813571D01*
X126801428Y-63313571D02*
X125801428Y-64813571D01*
X125480000Y-62273571D02*
X124980000Y-61559285D01*
X124622857Y-62273571D02*
X124622857Y-60773571D01*
X125194285Y-60773571D01*
X125337142Y-60845000D01*
X125408571Y-60916428D01*
X125480000Y-61059285D01*
X125480000Y-61273571D01*
X125408571Y-61416428D01*
X125337142Y-61487857D01*
X125194285Y-61559285D01*
X124622857Y-61559285D01*
X125980000Y-60773571D02*
X126980000Y-62273571D01*
X126980000Y-60773571D02*
X125980000Y-62273571D01*
D11*
X152813095Y-101131666D02*
X153289285Y-101131666D01*
X152717857Y-101417380D02*
X153051190Y-100417380D01*
X153384523Y-101417380D01*
X153717857Y-100750714D02*
X153717857Y-101417380D01*
X153717857Y-100845952D02*
X153765476Y-100798333D01*
X153860714Y-100750714D01*
X154003571Y-100750714D01*
X154098809Y-100798333D01*
X154146428Y-100893571D01*
X154146428Y-101417380D01*
X154479761Y-100750714D02*
X154860714Y-100750714D01*
X154622619Y-100417380D02*
X154622619Y-101274523D01*
X154670238Y-101369761D01*
X154765476Y-101417380D01*
X154860714Y-101417380D01*
X155575000Y-101369761D02*
X155479761Y-101417380D01*
X155289285Y-101417380D01*
X155194047Y-101369761D01*
X155146428Y-101274523D01*
X155146428Y-100893571D01*
X155194047Y-100798333D01*
X155289285Y-100750714D01*
X155479761Y-100750714D01*
X155575000Y-100798333D01*
X155622619Y-100893571D01*
X155622619Y-100988809D01*
X155146428Y-101084047D01*
X156051190Y-100750714D02*
X156051190Y-101417380D01*
X156051190Y-100845952D02*
X156098809Y-100798333D01*
X156194047Y-100750714D01*
X156336904Y-100750714D01*
X156432142Y-100798333D01*
X156479761Y-100893571D01*
X156479761Y-101417380D01*
X156955952Y-100750714D02*
X156955952Y-101417380D01*
X156955952Y-100845952D02*
X157003571Y-100798333D01*
X157098809Y-100750714D01*
X157241666Y-100750714D01*
X157336904Y-100798333D01*
X157384523Y-100893571D01*
X157384523Y-101417380D01*
X158289285Y-101417380D02*
X158289285Y-100893571D01*
X158241666Y-100798333D01*
X158146428Y-100750714D01*
X157955952Y-100750714D01*
X157860714Y-100798333D01*
X158289285Y-101369761D02*
X158194047Y-101417380D01*
X157955952Y-101417380D01*
X157860714Y-101369761D01*
X157813095Y-101274523D01*
X157813095Y-101179285D01*
X157860714Y-101084047D01*
X157955952Y-101036428D01*
X158194047Y-101036428D01*
X158289285Y-100988809D01*
X74168333Y-98877380D02*
X74168333Y-97877380D01*
X74406428Y-97877380D01*
X74549285Y-97925000D01*
X74644523Y-98020238D01*
X74692142Y-98115476D01*
X74739761Y-98305952D01*
X74739761Y-98448809D01*
X74692142Y-98639285D01*
X74644523Y-98734523D01*
X74549285Y-98829761D01*
X74406428Y-98877380D01*
X74168333Y-98877380D01*
X75073095Y-98210714D02*
X75311190Y-98877380D01*
X75549285Y-98210714D02*
X75311190Y-98877380D01*
X75215952Y-99115476D01*
X75168333Y-99163095D01*
X75073095Y-99210714D01*
X75930238Y-98210714D02*
X75930238Y-98877380D01*
X75930238Y-98305952D02*
X75977857Y-98258333D01*
X76073095Y-98210714D01*
X76215952Y-98210714D01*
X76311190Y-98258333D01*
X76358809Y-98353571D01*
X76358809Y-98877380D01*
X77263571Y-98877380D02*
X77263571Y-98353571D01*
X77215952Y-98258333D01*
X77120714Y-98210714D01*
X76930238Y-98210714D01*
X76835000Y-98258333D01*
X77263571Y-98829761D02*
X77168333Y-98877380D01*
X76930238Y-98877380D01*
X76835000Y-98829761D01*
X76787380Y-98734523D01*
X76787380Y-98639285D01*
X76835000Y-98544047D01*
X76930238Y-98496428D01*
X77168333Y-98496428D01*
X77263571Y-98448809D01*
X77739761Y-98877380D02*
X77739761Y-98210714D01*
X77739761Y-98305952D02*
X77787380Y-98258333D01*
X77882619Y-98210714D01*
X78025476Y-98210714D01*
X78120714Y-98258333D01*
X78168333Y-98353571D01*
X78168333Y-98877380D01*
X78168333Y-98353571D02*
X78215952Y-98258333D01*
X78311190Y-98210714D01*
X78454047Y-98210714D01*
X78549285Y-98258333D01*
X78596904Y-98353571D01*
X78596904Y-98877380D01*
X79215952Y-98877380D02*
X79120714Y-98829761D01*
X79073095Y-98782142D01*
X79025476Y-98686904D01*
X79025476Y-98401190D01*
X79073095Y-98305952D01*
X79120714Y-98258333D01*
X79215952Y-98210714D01*
X79358809Y-98210714D01*
X79454047Y-98258333D01*
X79501666Y-98305952D01*
X79549285Y-98401190D01*
X79549285Y-98686904D01*
X79501666Y-98782142D01*
X79454047Y-98829761D01*
X79358809Y-98877380D01*
X79215952Y-98877380D01*
X93392857Y-100258571D02*
X93535714Y-100306190D01*
X93583333Y-100353809D01*
X93630952Y-100449047D01*
X93630952Y-100591904D01*
X93583333Y-100687142D01*
X93535714Y-100734761D01*
X93440476Y-100782380D01*
X93059523Y-100782380D01*
X93059523Y-99782380D01*
X93392857Y-99782380D01*
X93488095Y-99830000D01*
X93535714Y-99877619D01*
X93583333Y-99972857D01*
X93583333Y-100068095D01*
X93535714Y-100163333D01*
X93488095Y-100210952D01*
X93392857Y-100258571D01*
X93059523Y-100258571D01*
X94488095Y-100115714D02*
X94488095Y-100782380D01*
X94059523Y-100115714D02*
X94059523Y-100639523D01*
X94107142Y-100734761D01*
X94202380Y-100782380D01*
X94345238Y-100782380D01*
X94440476Y-100734761D01*
X94488095Y-100687142D01*
X94821428Y-100115714D02*
X95202380Y-100115714D01*
X94964285Y-99782380D02*
X94964285Y-100639523D01*
X95011904Y-100734761D01*
X95107142Y-100782380D01*
X95202380Y-100782380D01*
X95392857Y-100115714D02*
X95773809Y-100115714D01*
X95535714Y-99782380D02*
X95535714Y-100639523D01*
X95583333Y-100734761D01*
X95678571Y-100782380D01*
X95773809Y-100782380D01*
X96250000Y-100782380D02*
X96154761Y-100734761D01*
X96107142Y-100687142D01*
X96059523Y-100591904D01*
X96059523Y-100306190D01*
X96107142Y-100210952D01*
X96154761Y-100163333D01*
X96250000Y-100115714D01*
X96392857Y-100115714D01*
X96488095Y-100163333D01*
X96535714Y-100210952D01*
X96583333Y-100306190D01*
X96583333Y-100591904D01*
X96535714Y-100687142D01*
X96488095Y-100734761D01*
X96392857Y-100782380D01*
X96250000Y-100782380D01*
X97011904Y-100115714D02*
X97011904Y-100782380D01*
X97011904Y-100210952D02*
X97059523Y-100163333D01*
X97154761Y-100115714D01*
X97297619Y-100115714D01*
X97392857Y-100163333D01*
X97440476Y-100258571D01*
X97440476Y-100782380D01*
X74224761Y-90606666D02*
X74843809Y-90606666D01*
X74100952Y-90978095D02*
X74534285Y-89678095D01*
X74967619Y-90978095D01*
X75400952Y-90111428D02*
X75400952Y-90978095D01*
X75400952Y-90235238D02*
X75462857Y-90173333D01*
X75586666Y-90111428D01*
X75772380Y-90111428D01*
X75896190Y-90173333D01*
X75958095Y-90297142D01*
X75958095Y-90978095D01*
X76391428Y-90111428D02*
X76886666Y-90111428D01*
X76577142Y-89678095D02*
X76577142Y-90792380D01*
X76639047Y-90916190D01*
X76762857Y-90978095D01*
X76886666Y-90978095D01*
X77505714Y-90978095D02*
X77381904Y-90916190D01*
X77320000Y-90854285D01*
X77258095Y-90730476D01*
X77258095Y-90359047D01*
X77320000Y-90235238D01*
X77381904Y-90173333D01*
X77505714Y-90111428D01*
X77691428Y-90111428D01*
X77815238Y-90173333D01*
X77877142Y-90235238D01*
X77939047Y-90359047D01*
X77939047Y-90730476D01*
X77877142Y-90854285D01*
X77815238Y-90916190D01*
X77691428Y-90978095D01*
X77505714Y-90978095D01*
X79053333Y-90978095D02*
X79053333Y-90297142D01*
X78991428Y-90173333D01*
X78867619Y-90111428D01*
X78620000Y-90111428D01*
X78496190Y-90173333D01*
X79053333Y-90916190D02*
X78929523Y-90978095D01*
X78620000Y-90978095D01*
X78496190Y-90916190D01*
X78434285Y-90792380D01*
X78434285Y-90668571D01*
X78496190Y-90544761D01*
X78620000Y-90482857D01*
X78929523Y-90482857D01*
X79053333Y-90420952D01*
X79672380Y-90111428D02*
X79672380Y-90978095D01*
X79672380Y-90235238D02*
X79734285Y-90173333D01*
X79858095Y-90111428D01*
X80043809Y-90111428D01*
X80167619Y-90173333D01*
X80229523Y-90297142D01*
X80229523Y-90978095D01*
X82086666Y-90359047D02*
X82086666Y-90978095D01*
X81653333Y-89678095D02*
X82086666Y-90359047D01*
X82520000Y-89678095D01*
X83510476Y-90978095D02*
X83510476Y-90297142D01*
X83448571Y-90173333D01*
X83324761Y-90111428D01*
X83077142Y-90111428D01*
X82953333Y-90173333D01*
X83510476Y-90916190D02*
X83386666Y-90978095D01*
X83077142Y-90978095D01*
X82953333Y-90916190D01*
X82891428Y-90792380D01*
X82891428Y-90668571D01*
X82953333Y-90544761D01*
X83077142Y-90482857D01*
X83386666Y-90482857D01*
X83510476Y-90420952D01*
X84129523Y-90111428D02*
X84129523Y-90978095D01*
X84129523Y-90235238D02*
X84191428Y-90173333D01*
X84315238Y-90111428D01*
X84500952Y-90111428D01*
X84624761Y-90173333D01*
X84686666Y-90297142D01*
X84686666Y-90978095D01*
X85800952Y-90916190D02*
X85677142Y-90978095D01*
X85429523Y-90978095D01*
X85305714Y-90916190D01*
X85243809Y-90792380D01*
X85243809Y-90297142D01*
X85305714Y-90173333D01*
X85429523Y-90111428D01*
X85677142Y-90111428D01*
X85800952Y-90173333D01*
X85862857Y-90297142D01*
X85862857Y-90420952D01*
X85243809Y-90544761D01*
X86296190Y-90111428D02*
X86605714Y-90978095D01*
X86915238Y-90111428D01*
X87410476Y-90482857D02*
X88400952Y-90482857D01*
X88958095Y-89801904D02*
X89020000Y-89740000D01*
X89143809Y-89678095D01*
X89453333Y-89678095D01*
X89577142Y-89740000D01*
X89639047Y-89801904D01*
X89700952Y-89925714D01*
X89700952Y-90049523D01*
X89639047Y-90235238D01*
X88896190Y-90978095D01*
X89700952Y-90978095D01*
X90505714Y-89678095D02*
X90629523Y-89678095D01*
X90753333Y-89740000D01*
X90815238Y-89801904D01*
X90877142Y-89925714D01*
X90939047Y-90173333D01*
X90939047Y-90482857D01*
X90877142Y-90730476D01*
X90815238Y-90854285D01*
X90753333Y-90916190D01*
X90629523Y-90978095D01*
X90505714Y-90978095D01*
X90381904Y-90916190D01*
X90320000Y-90854285D01*
X90258095Y-90730476D01*
X90196190Y-90482857D01*
X90196190Y-90173333D01*
X90258095Y-89925714D01*
X90320000Y-89801904D01*
X90381904Y-89740000D01*
X90505714Y-89678095D01*
X91434285Y-89801904D02*
X91496190Y-89740000D01*
X91620000Y-89678095D01*
X91929523Y-89678095D01*
X92053333Y-89740000D01*
X92115238Y-89801904D01*
X92177142Y-89925714D01*
X92177142Y-90049523D01*
X92115238Y-90235238D01*
X91372380Y-90978095D01*
X92177142Y-90978095D01*
X92981904Y-89678095D02*
X93105714Y-89678095D01*
X93229523Y-89740000D01*
X93291428Y-89801904D01*
X93353333Y-89925714D01*
X93415238Y-90173333D01*
X93415238Y-90482857D01*
X93353333Y-90730476D01*
X93291428Y-90854285D01*
X93229523Y-90916190D01*
X93105714Y-90978095D01*
X92981904Y-90978095D01*
X92858095Y-90916190D01*
X92796190Y-90854285D01*
X92734285Y-90730476D01*
X92672380Y-90482857D01*
X92672380Y-90173333D01*
X92734285Y-89925714D01*
X92796190Y-89801904D01*
X92858095Y-89740000D01*
X92981904Y-89678095D01*
X81962857Y-92211428D02*
X82272380Y-93078095D01*
X82581904Y-92211428D01*
X83758095Y-93078095D02*
X83015238Y-93078095D01*
X83386666Y-93078095D02*
X83386666Y-91778095D01*
X83262857Y-91963809D01*
X83139047Y-92087619D01*
X83015238Y-92149523D01*
X84315238Y-92954285D02*
X84377142Y-93016190D01*
X84315238Y-93078095D01*
X84253333Y-93016190D01*
X84315238Y-92954285D01*
X84315238Y-93078095D01*
X85181904Y-91778095D02*
X85305714Y-91778095D01*
X85429523Y-91840000D01*
X85491428Y-91901904D01*
X85553333Y-92025714D01*
X85615238Y-92273333D01*
X85615238Y-92582857D01*
X85553333Y-92830476D01*
X85491428Y-92954285D01*
X85429523Y-93016190D01*
X85305714Y-93078095D01*
X85181904Y-93078095D01*
X85058095Y-93016190D01*
X84996190Y-92954285D01*
X84934285Y-92830476D01*
X84872380Y-92582857D01*
X84872380Y-92273333D01*
X84934285Y-92025714D01*
X84996190Y-91901904D01*
X85058095Y-91840000D01*
X85181904Y-91778095D01*
X182999047Y-56372619D02*
X183046666Y-56277380D01*
X183094285Y-56229761D01*
X183189523Y-56182142D01*
X183237142Y-56182142D01*
X183332380Y-56229761D01*
X183380000Y-56277380D01*
X183427619Y-56372619D01*
X183427619Y-56563095D01*
X183380000Y-56658333D01*
X183332380Y-56705952D01*
X183237142Y-56753571D01*
X183189523Y-56753571D01*
X183094285Y-56705952D01*
X183046666Y-56658333D01*
X182999047Y-56563095D01*
X182999047Y-56372619D01*
X182951428Y-56277380D01*
X182903809Y-56229761D01*
X182808571Y-56182142D01*
X182618095Y-56182142D01*
X182522857Y-56229761D01*
X182475238Y-56277380D01*
X182427619Y-56372619D01*
X182427619Y-56563095D01*
X182475238Y-56658333D01*
X182522857Y-56705952D01*
X182618095Y-56753571D01*
X182808571Y-56753571D01*
X182903809Y-56705952D01*
X182951428Y-56658333D01*
X182999047Y-56563095D01*
X183427619Y-57658333D02*
X183427619Y-57182142D01*
X182951428Y-57134523D01*
X182999047Y-57182142D01*
X183046666Y-57277380D01*
X183046666Y-57515476D01*
X182999047Y-57610714D01*
X182951428Y-57658333D01*
X182856190Y-57705952D01*
X182618095Y-57705952D01*
X182522857Y-57658333D01*
X182475238Y-57610714D01*
X182427619Y-57515476D01*
X182427619Y-57277380D01*
X182475238Y-57182142D01*
X182522857Y-57134523D01*
X182522857Y-58134523D02*
X182475238Y-58182142D01*
X182427619Y-58134523D01*
X182475238Y-58086904D01*
X182522857Y-58134523D01*
X182427619Y-58134523D01*
X183427619Y-58801190D02*
X183427619Y-58896428D01*
X183380000Y-58991666D01*
X183332380Y-59039285D01*
X183237142Y-59086904D01*
X183046666Y-59134523D01*
X182808571Y-59134523D01*
X182618095Y-59086904D01*
X182522857Y-59039285D01*
X182475238Y-58991666D01*
X182427619Y-58896428D01*
X182427619Y-58801190D01*
X182475238Y-58705952D01*
X182522857Y-58658333D01*
X182618095Y-58610714D01*
X182808571Y-58563095D01*
X183046666Y-58563095D01*
X183237142Y-58610714D01*
X183332380Y-58658333D01*
X183380000Y-58705952D01*
X183427619Y-58801190D01*
X182427619Y-59610714D02*
X182427619Y-59801190D01*
X182475238Y-59896428D01*
X182522857Y-59944047D01*
X182665714Y-60039285D01*
X182856190Y-60086904D01*
X183237142Y-60086904D01*
X183332380Y-60039285D01*
X183380000Y-59991666D01*
X183427619Y-59896428D01*
X183427619Y-59705952D01*
X183380000Y-59610714D01*
X183332380Y-59563095D01*
X183237142Y-59515476D01*
X182999047Y-59515476D01*
X182903809Y-59563095D01*
X182856190Y-59610714D01*
X182808571Y-59705952D01*
X182808571Y-59896428D01*
X182856190Y-59991666D01*
X182903809Y-60039285D01*
X182999047Y-60086904D01*
X183427619Y-60705952D02*
X183427619Y-60801190D01*
X183380000Y-60896428D01*
X183332380Y-60944047D01*
X183237142Y-60991666D01*
X183046666Y-61039285D01*
X182808571Y-61039285D01*
X182618095Y-60991666D01*
X182522857Y-60944047D01*
X182475238Y-60896428D01*
X182427619Y-60801190D01*
X182427619Y-60705952D01*
X182475238Y-60610714D01*
X182522857Y-60563095D01*
X182618095Y-60515476D01*
X182808571Y-60467857D01*
X183046666Y-60467857D01*
X183237142Y-60515476D01*
X183332380Y-60563095D01*
X183380000Y-60610714D01*
X183427619Y-60705952D01*
X182427619Y-62229761D02*
X183094285Y-62229761D01*
X182999047Y-62229761D02*
X183046666Y-62277380D01*
X183094285Y-62372619D01*
X183094285Y-62515476D01*
X183046666Y-62610714D01*
X182951428Y-62658333D01*
X182427619Y-62658333D01*
X182951428Y-62658333D02*
X183046666Y-62705952D01*
X183094285Y-62801190D01*
X183094285Y-62944047D01*
X183046666Y-63039285D01*
X182951428Y-63086904D01*
X182427619Y-63086904D01*
X182427619Y-63563095D02*
X183094285Y-63563095D01*
X182999047Y-63563095D02*
X183046666Y-63610714D01*
X183094285Y-63705952D01*
X183094285Y-63848809D01*
X183046666Y-63944047D01*
X182951428Y-63991666D01*
X182427619Y-63991666D01*
X182951428Y-63991666D02*
X183046666Y-64039285D01*
X183094285Y-64134523D01*
X183094285Y-64277380D01*
X183046666Y-64372619D01*
X182951428Y-64420238D01*
X182427619Y-64420238D01*
D12*
X181610000Y-17780000D02*
X181610000Y-102870000D01*
X177800000Y-17780000D02*
X182196421Y-17780000D01*
X177800000Y-102870000D02*
X182196421Y-102870000D01*
X181610000Y-102870000D02*
X181023579Y-101743496D01*
X181610000Y-102870000D02*
X182196421Y-101743496D01*
X181610000Y-17780000D02*
X181023579Y-18906504D01*
X181610000Y-17780000D02*
X182196421Y-18906504D01*
D11*
X108347380Y-13152380D02*
X107775952Y-13152380D01*
X108061666Y-13152380D02*
X108061666Y-12152380D01*
X107966428Y-12295238D01*
X107871190Y-12390476D01*
X107775952Y-12438095D01*
X108680714Y-12152380D02*
X109299761Y-12152380D01*
X108966428Y-12533333D01*
X109109285Y-12533333D01*
X109204523Y-12580952D01*
X109252142Y-12628571D01*
X109299761Y-12723809D01*
X109299761Y-12961904D01*
X109252142Y-13057142D01*
X109204523Y-13104761D01*
X109109285Y-13152380D01*
X108823571Y-13152380D01*
X108728333Y-13104761D01*
X108680714Y-13057142D01*
X109918809Y-12152380D02*
X110014047Y-12152380D01*
X110109285Y-12200000D01*
X110156904Y-12247619D01*
X110204523Y-12342857D01*
X110252142Y-12533333D01*
X110252142Y-12771428D01*
X110204523Y-12961904D01*
X110156904Y-13057142D01*
X110109285Y-13104761D01*
X110014047Y-13152380D01*
X109918809Y-13152380D01*
X109823571Y-13104761D01*
X109775952Y-13057142D01*
X109728333Y-12961904D01*
X109680714Y-12771428D01*
X109680714Y-12533333D01*
X109728333Y-12342857D01*
X109775952Y-12247619D01*
X109823571Y-12200000D01*
X109918809Y-12152380D01*
X110680714Y-13057142D02*
X110728333Y-13104761D01*
X110680714Y-13152380D01*
X110633095Y-13104761D01*
X110680714Y-13057142D01*
X110680714Y-13152380D01*
X111299761Y-12580952D02*
X111204523Y-12533333D01*
X111156904Y-12485714D01*
X111109285Y-12390476D01*
X111109285Y-12342857D01*
X111156904Y-12247619D01*
X111204523Y-12200000D01*
X111299761Y-12152380D01*
X111490238Y-12152380D01*
X111585476Y-12200000D01*
X111633095Y-12247619D01*
X111680714Y-12342857D01*
X111680714Y-12390476D01*
X111633095Y-12485714D01*
X111585476Y-12533333D01*
X111490238Y-12580952D01*
X111299761Y-12580952D01*
X111204523Y-12628571D01*
X111156904Y-12676190D01*
X111109285Y-12771428D01*
X111109285Y-12961904D01*
X111156904Y-13057142D01*
X111204523Y-13104761D01*
X111299761Y-13152380D01*
X111490238Y-13152380D01*
X111585476Y-13104761D01*
X111633095Y-13057142D01*
X111680714Y-12961904D01*
X111680714Y-12771428D01*
X111633095Y-12676190D01*
X111585476Y-12628571D01*
X111490238Y-12580952D01*
X112633095Y-13152380D02*
X112061666Y-13152380D01*
X112347380Y-13152380D02*
X112347380Y-12152380D01*
X112252142Y-12295238D01*
X112156904Y-12390476D01*
X112061666Y-12438095D01*
X113252142Y-12152380D02*
X113347380Y-12152380D01*
X113442619Y-12200000D01*
X113490238Y-12247619D01*
X113537857Y-12342857D01*
X113585476Y-12533333D01*
X113585476Y-12771428D01*
X113537857Y-12961904D01*
X113490238Y-13057142D01*
X113442619Y-13104761D01*
X113347380Y-13152380D01*
X113252142Y-13152380D01*
X113156904Y-13104761D01*
X113109285Y-13057142D01*
X113061666Y-12961904D01*
X113014047Y-12771428D01*
X113014047Y-12533333D01*
X113061666Y-12342857D01*
X113109285Y-12247619D01*
X113156904Y-12200000D01*
X113252142Y-12152380D01*
X114775952Y-13152380D02*
X114775952Y-12485714D01*
X114775952Y-12580952D02*
X114823571Y-12533333D01*
X114918809Y-12485714D01*
X115061666Y-12485714D01*
X115156904Y-12533333D01*
X115204523Y-12628571D01*
X115204523Y-13152380D01*
X115204523Y-12628571D02*
X115252142Y-12533333D01*
X115347380Y-12485714D01*
X115490238Y-12485714D01*
X115585476Y-12533333D01*
X115633095Y-12628571D01*
X115633095Y-13152380D01*
X116109285Y-13152380D02*
X116109285Y-12485714D01*
X116109285Y-12580952D02*
X116156904Y-12533333D01*
X116252142Y-12485714D01*
X116395000Y-12485714D01*
X116490238Y-12533333D01*
X116537857Y-12628571D01*
X116537857Y-13152380D01*
X116537857Y-12628571D02*
X116585476Y-12533333D01*
X116680714Y-12485714D01*
X116823571Y-12485714D01*
X116918809Y-12533333D01*
X116966428Y-12628571D01*
X116966428Y-13152380D01*
D12*
X46990000Y-13970000D02*
X177800000Y-13970000D01*
X46990000Y-17780000D02*
X46990000Y-13383579D01*
X177800000Y-17780000D02*
X177800000Y-13383579D01*
X177800000Y-13970000D02*
X176673496Y-14556421D01*
X177800000Y-13970000D02*
X176673496Y-13383579D01*
X46990000Y-13970000D02*
X48116504Y-14556421D01*
X46990000Y-13970000D02*
X48116504Y-13383579D01*
X153670000Y-22860000D02*
X175260000Y-22860000D01*
X153670000Y-97860000D02*
X153670000Y-22860000D01*
X175260000Y-97860000D02*
X153670000Y-97860000D01*
X175260000Y-22860000D02*
X175260000Y-97860000D01*
X72505000Y-101740000D02*
X56585000Y-101740000D01*
X56585000Y-101740000D02*
X56585000Y-92515000D01*
X56585000Y-92515000D02*
X58490000Y-92515000D01*
X58490000Y-92515000D02*
X58490000Y-91510000D01*
X58490000Y-91510000D02*
X70600000Y-91510000D01*
X70600000Y-91510000D02*
X70600000Y-92515000D01*
X70600000Y-92515000D02*
X72505000Y-92515000D01*
X72505000Y-92515000D02*
X72505000Y-101740000D01*
X72795000Y-98520000D02*
X72795000Y-94520000D01*
X70485000Y-91510000D02*
X70485000Y-92510000D01*
X70485000Y-92510000D02*
X58605000Y-92510000D01*
X58605000Y-92510000D02*
X58605000Y-91510000D01*
X70485000Y-92510000D02*
X70485000Y-94180000D01*
X70485000Y-94180000D02*
X58605000Y-94180000D01*
X58605000Y-94180000D02*
X58605000Y-92510000D01*
X71285000Y-101740000D02*
X71285000Y-101140000D01*
X71285000Y-101140000D02*
X69685000Y-101140000D01*
X69685000Y-101140000D02*
X69685000Y-101740000D01*
X67325000Y-101740000D02*
X67325000Y-101140000D01*
X67325000Y-101140000D02*
X65725000Y-101140000D01*
X65725000Y-101140000D02*
X65725000Y-101740000D01*
X63365000Y-101740000D02*
X63365000Y-101140000D01*
X63365000Y-101140000D02*
X61765000Y-101140000D01*
X61765000Y-101140000D02*
X61765000Y-101740000D01*
X59405000Y-101740000D02*
X59405000Y-101140000D01*
X59405000Y-101140000D02*
X57805000Y-101140000D01*
X57805000Y-101140000D02*
X57805000Y-101740000D01*
X123040000Y-69480000D02*
X123040000Y-72720000D01*
X120800000Y-69480000D02*
X120800000Y-72720000D01*
X123040000Y-69480000D02*
X122975000Y-69480000D01*
X120865000Y-69480000D02*
X120800000Y-69480000D01*
X123040000Y-72720000D02*
X122975000Y-72720000D01*
X120865000Y-72720000D02*
X120800000Y-72720000D01*
X103210000Y-101220000D02*
X103210000Y-97800000D01*
X103210000Y-97800000D02*
X98740000Y-97800000D01*
X98740000Y-97800000D02*
X98740000Y-101220000D01*
X98740000Y-101220000D02*
X103210000Y-101220000D01*
X100975000Y-98310000D02*
X102700000Y-98310000D01*
X102700000Y-98310000D02*
X102700000Y-99060000D01*
X102700000Y-99060000D02*
X102900000Y-99060000D01*
X102900000Y-99060000D02*
X102900000Y-99860000D01*
X102900000Y-99860000D02*
X102700000Y-99860000D01*
X102700000Y-99860000D02*
X102700000Y-100710000D01*
X102700000Y-100710000D02*
X100975000Y-100710000D01*
X100975000Y-98310000D02*
X99250000Y-98310000D01*
X99250000Y-98310000D02*
X99250000Y-99060000D01*
X99250000Y-99060000D02*
X99050000Y-99060000D01*
X99050000Y-99060000D02*
X99050000Y-99860000D01*
X99050000Y-99860000D02*
X99250000Y-99860000D01*
X99250000Y-99860000D02*
X99250000Y-100710000D01*
X99250000Y-100710000D02*
X100975000Y-100710000D01*
X103500000Y-97510000D02*
X103500000Y-98510000D01*
X103500000Y-97510000D02*
X102500000Y-97510000D01*
X139025000Y-48800000D02*
X149265000Y-48800000D01*
X139025000Y-53441000D02*
X149265000Y-53441000D01*
X139025000Y-48800000D02*
X139025000Y-53441000D01*
X149265000Y-48800000D02*
X149265000Y-53441000D01*
X139025000Y-50310000D02*
X149265000Y-50310000D01*
X142295000Y-48800000D02*
X142295000Y-50310000D01*
X145996000Y-48800000D02*
X145996000Y-50310000D01*
X123520000Y-82970000D02*
X123520000Y-83035000D01*
X123520000Y-80795000D02*
X123520000Y-80860000D01*
X120280000Y-82970000D02*
X120280000Y-83035000D01*
X120280000Y-80795000D02*
X120280000Y-80860000D01*
X120280000Y-83035000D02*
X123520000Y-83035000D01*
X120280000Y-80795000D02*
X123520000Y-80795000D01*
X101270000Y-71843000D02*
X101270000Y-71778000D01*
X101270000Y-74018000D02*
X101270000Y-73953000D01*
X104510000Y-71843000D02*
X104510000Y-71778000D01*
X104510000Y-74018000D02*
X104510000Y-73953000D01*
X104510000Y-71778000D02*
X101270000Y-71778000D01*
X104510000Y-74018000D02*
X101270000Y-74018000D01*
X105764000Y-81340000D02*
X103024000Y-81340000D01*
X105764000Y-76100000D02*
X103024000Y-76100000D01*
X103024000Y-76100000D02*
X103024000Y-81340000D01*
X105764000Y-76100000D02*
X105764000Y-81340000D01*
X105764000Y-83720000D02*
X105764000Y-88960000D01*
X103024000Y-83720000D02*
X103024000Y-88960000D01*
X105764000Y-83720000D02*
X103024000Y-83720000D01*
X105764000Y-88960000D02*
X103024000Y-88960000D01*
X120280000Y-76350000D02*
X123520000Y-76350000D01*
X120280000Y-78590000D02*
X123520000Y-78590000D01*
X120280000Y-76350000D02*
X120280000Y-76415000D01*
X120280000Y-78525000D02*
X120280000Y-78590000D01*
X123520000Y-76350000D02*
X123520000Y-76415000D01*
X123520000Y-78525000D02*
X123520000Y-78590000D01*
X63500000Y-44450000D02*
G75*
G03X63500000Y-44450000I-5120000J0D01*
G01*
X58380000Y-39370000D02*
X58380000Y-49530000D01*
X58420000Y-39370000D02*
X58420000Y-49530000D01*
X58460000Y-39370000D02*
X58460000Y-49530000D01*
X58500000Y-39371000D02*
X58500000Y-49529000D01*
X58540000Y-39372000D02*
X58540000Y-49528000D01*
X58580000Y-39373000D02*
X58580000Y-49527000D01*
X58620000Y-39375000D02*
X58620000Y-49525000D01*
X58660000Y-39377000D02*
X58660000Y-49523000D01*
X58700000Y-39380000D02*
X58700000Y-49520000D01*
X58740000Y-39382000D02*
X58740000Y-49518000D01*
X58780000Y-39385000D02*
X58780000Y-49515000D01*
X58820000Y-39388000D02*
X58820000Y-49512000D01*
X58860000Y-39392000D02*
X58860000Y-49508000D01*
X58900000Y-39396000D02*
X58900000Y-49504000D01*
X58940000Y-39400000D02*
X58940000Y-49500000D01*
X58980000Y-39405000D02*
X58980000Y-49495000D01*
X59020000Y-39410000D02*
X59020000Y-49490000D01*
X59060000Y-39415000D02*
X59060000Y-49485000D01*
X59101000Y-39420000D02*
X59101000Y-49480000D01*
X59141000Y-39426000D02*
X59141000Y-49474000D01*
X59181000Y-39432000D02*
X59181000Y-49468000D01*
X59221000Y-39439000D02*
X59221000Y-49461000D01*
X59261000Y-39446000D02*
X59261000Y-49454000D01*
X59301000Y-39453000D02*
X59301000Y-49447000D01*
X59341000Y-39460000D02*
X59341000Y-49440000D01*
X59381000Y-39468000D02*
X59381000Y-49432000D01*
X59421000Y-39476000D02*
X59421000Y-49424000D01*
X59461000Y-39485000D02*
X59461000Y-49415000D01*
X59501000Y-39494000D02*
X59501000Y-49406000D01*
X59541000Y-39503000D02*
X59541000Y-49397000D01*
X59581000Y-39512000D02*
X59581000Y-49388000D01*
X59621000Y-39522000D02*
X59621000Y-49378000D01*
X59661000Y-39532000D02*
X59661000Y-43209000D01*
X59661000Y-45691000D02*
X59661000Y-49368000D01*
X59701000Y-39543000D02*
X59701000Y-43209000D01*
X59701000Y-45691000D02*
X59701000Y-49357000D01*
X59741000Y-39553000D02*
X59741000Y-43209000D01*
X59741000Y-45691000D02*
X59741000Y-49347000D01*
X59781000Y-39565000D02*
X59781000Y-43209000D01*
X59781000Y-45691000D02*
X59781000Y-49335000D01*
X59821000Y-39576000D02*
X59821000Y-43209000D01*
X59821000Y-45691000D02*
X59821000Y-49324000D01*
X59861000Y-39588000D02*
X59861000Y-43209000D01*
X59861000Y-45691000D02*
X59861000Y-49312000D01*
X59901000Y-39600000D02*
X59901000Y-43209000D01*
X59901000Y-45691000D02*
X59901000Y-49300000D01*
X59941000Y-39613000D02*
X59941000Y-43209000D01*
X59941000Y-45691000D02*
X59941000Y-49287000D01*
X59981000Y-39626000D02*
X59981000Y-43209000D01*
X59981000Y-45691000D02*
X59981000Y-49274000D01*
X60021000Y-39639000D02*
X60021000Y-43209000D01*
X60021000Y-45691000D02*
X60021000Y-49261000D01*
X60061000Y-39653000D02*
X60061000Y-43209000D01*
X60061000Y-45691000D02*
X60061000Y-49247000D01*
X60101000Y-39667000D02*
X60101000Y-43209000D01*
X60101000Y-45691000D02*
X60101000Y-49233000D01*
X60141000Y-39682000D02*
X60141000Y-43209000D01*
X60141000Y-45691000D02*
X60141000Y-49218000D01*
X60181000Y-39696000D02*
X60181000Y-43209000D01*
X60181000Y-45691000D02*
X60181000Y-49204000D01*
X60221000Y-39712000D02*
X60221000Y-43209000D01*
X60221000Y-45691000D02*
X60221000Y-49188000D01*
X60261000Y-39727000D02*
X60261000Y-43209000D01*
X60261000Y-45691000D02*
X60261000Y-49173000D01*
X60301000Y-39743000D02*
X60301000Y-43209000D01*
X60301000Y-45691000D02*
X60301000Y-49157000D01*
X60341000Y-39760000D02*
X60341000Y-43209000D01*
X60341000Y-45691000D02*
X60341000Y-49140000D01*
X60381000Y-39776000D02*
X60381000Y-43209000D01*
X60381000Y-45691000D02*
X60381000Y-49124000D01*
X60421000Y-39793000D02*
X60421000Y-43209000D01*
X60421000Y-45691000D02*
X60421000Y-49107000D01*
X60461000Y-39811000D02*
X60461000Y-43209000D01*
X60461000Y-45691000D02*
X60461000Y-49089000D01*
X60501000Y-39829000D02*
X60501000Y-43209000D01*
X60501000Y-45691000D02*
X60501000Y-49071000D01*
X60541000Y-39847000D02*
X60541000Y-43209000D01*
X60541000Y-45691000D02*
X60541000Y-49053000D01*
X60581000Y-39866000D02*
X60581000Y-43209000D01*
X60581000Y-45691000D02*
X60581000Y-49034000D01*
X60621000Y-39886000D02*
X60621000Y-43209000D01*
X60621000Y-45691000D02*
X60621000Y-49014000D01*
X60661000Y-39905000D02*
X60661000Y-43209000D01*
X60661000Y-45691000D02*
X60661000Y-48995000D01*
X60701000Y-39925000D02*
X60701000Y-43209000D01*
X60701000Y-45691000D02*
X60701000Y-48975000D01*
X60741000Y-39946000D02*
X60741000Y-43209000D01*
X60741000Y-45691000D02*
X60741000Y-48954000D01*
X60781000Y-39967000D02*
X60781000Y-43209000D01*
X60781000Y-45691000D02*
X60781000Y-48933000D01*
X60821000Y-39988000D02*
X60821000Y-43209000D01*
X60821000Y-45691000D02*
X60821000Y-48912000D01*
X60861000Y-40010000D02*
X60861000Y-43209000D01*
X60861000Y-45691000D02*
X60861000Y-48890000D01*
X60901000Y-40033000D02*
X60901000Y-43209000D01*
X60901000Y-45691000D02*
X60901000Y-48867000D01*
X60941000Y-40055000D02*
X60941000Y-43209000D01*
X60941000Y-45691000D02*
X60941000Y-48845000D01*
X60981000Y-40079000D02*
X60981000Y-43209000D01*
X60981000Y-45691000D02*
X60981000Y-48821000D01*
X61021000Y-40103000D02*
X61021000Y-43209000D01*
X61021000Y-45691000D02*
X61021000Y-48797000D01*
X61061000Y-40127000D02*
X61061000Y-43209000D01*
X61061000Y-45691000D02*
X61061000Y-48773000D01*
X61101000Y-40152000D02*
X61101000Y-43209000D01*
X61101000Y-45691000D02*
X61101000Y-48748000D01*
X61141000Y-40177000D02*
X61141000Y-43209000D01*
X61141000Y-45691000D02*
X61141000Y-48723000D01*
X61181000Y-40203000D02*
X61181000Y-43209000D01*
X61181000Y-45691000D02*
X61181000Y-48697000D01*
X61221000Y-40229000D02*
X61221000Y-43209000D01*
X61221000Y-45691000D02*
X61221000Y-48671000D01*
X61261000Y-40256000D02*
X61261000Y-43209000D01*
X61261000Y-45691000D02*
X61261000Y-48644000D01*
X61301000Y-40284000D02*
X61301000Y-43209000D01*
X61301000Y-45691000D02*
X61301000Y-48616000D01*
X61341000Y-40312000D02*
X61341000Y-43209000D01*
X61341000Y-45691000D02*
X61341000Y-48588000D01*
X61381000Y-40340000D02*
X61381000Y-43209000D01*
X61381000Y-45691000D02*
X61381000Y-48560000D01*
X61421000Y-40370000D02*
X61421000Y-43209000D01*
X61421000Y-45691000D02*
X61421000Y-48530000D01*
X61461000Y-40400000D02*
X61461000Y-43209000D01*
X61461000Y-45691000D02*
X61461000Y-48500000D01*
X61501000Y-40430000D02*
X61501000Y-43209000D01*
X61501000Y-45691000D02*
X61501000Y-48470000D01*
X61541000Y-40461000D02*
X61541000Y-43209000D01*
X61541000Y-45691000D02*
X61541000Y-48439000D01*
X61581000Y-40493000D02*
X61581000Y-43209000D01*
X61581000Y-45691000D02*
X61581000Y-48407000D01*
X61621000Y-40525000D02*
X61621000Y-43209000D01*
X61621000Y-45691000D02*
X61621000Y-48375000D01*
X61661000Y-40558000D02*
X61661000Y-43209000D01*
X61661000Y-45691000D02*
X61661000Y-48342000D01*
X61701000Y-40592000D02*
X61701000Y-43209000D01*
X61701000Y-45691000D02*
X61701000Y-48308000D01*
X61741000Y-40626000D02*
X61741000Y-43209000D01*
X61741000Y-45691000D02*
X61741000Y-48274000D01*
X61781000Y-40661000D02*
X61781000Y-43209000D01*
X61781000Y-45691000D02*
X61781000Y-48239000D01*
X61821000Y-40697000D02*
X61821000Y-43209000D01*
X61821000Y-45691000D02*
X61821000Y-48203000D01*
X61861000Y-40734000D02*
X61861000Y-43209000D01*
X61861000Y-45691000D02*
X61861000Y-48166000D01*
X61901000Y-40771000D02*
X61901000Y-43209000D01*
X61901000Y-45691000D02*
X61901000Y-48129000D01*
X61941000Y-40810000D02*
X61941000Y-43209000D01*
X61941000Y-45691000D02*
X61941000Y-48090000D01*
X61981000Y-40849000D02*
X61981000Y-43209000D01*
X61981000Y-45691000D02*
X61981000Y-48051000D01*
X62021000Y-40889000D02*
X62021000Y-43209000D01*
X62021000Y-45691000D02*
X62021000Y-48011000D01*
X62061000Y-40930000D02*
X62061000Y-43209000D01*
X62061000Y-45691000D02*
X62061000Y-47970000D01*
X62101000Y-40972000D02*
X62101000Y-43209000D01*
X62101000Y-45691000D02*
X62101000Y-47928000D01*
X62141000Y-41014000D02*
X62141000Y-47886000D01*
X62181000Y-41058000D02*
X62181000Y-47842000D01*
X62221000Y-41103000D02*
X62221000Y-47797000D01*
X62261000Y-41149000D02*
X62261000Y-47751000D01*
X62301000Y-41196000D02*
X62301000Y-47704000D01*
X62341000Y-41244000D02*
X62341000Y-47656000D01*
X62381000Y-41294000D02*
X62381000Y-47606000D01*
X62421000Y-41344000D02*
X62421000Y-47556000D01*
X62461000Y-41396000D02*
X62461000Y-47504000D01*
X62501000Y-41450000D02*
X62501000Y-47450000D01*
X62541000Y-41505000D02*
X62541000Y-47395000D01*
X62581000Y-41561000D02*
X62581000Y-47339000D01*
X62621000Y-41620000D02*
X62621000Y-47280000D01*
X62661000Y-41680000D02*
X62661000Y-47220000D01*
X62701000Y-41741000D02*
X62701000Y-47159000D01*
X62741000Y-41805000D02*
X62741000Y-47095000D01*
X62781000Y-41871000D02*
X62781000Y-47029000D01*
X62821000Y-41940000D02*
X62821000Y-46960000D01*
X62861000Y-42011000D02*
X62861000Y-46889000D01*
X62901000Y-42085000D02*
X62901000Y-46815000D01*
X62941000Y-42161000D02*
X62941000Y-46739000D01*
X62981000Y-42241000D02*
X62981000Y-46659000D01*
X63021000Y-42325000D02*
X63021000Y-46575000D01*
X63061000Y-42413000D02*
X63061000Y-46487000D01*
X63101000Y-42506000D02*
X63101000Y-46394000D01*
X63141000Y-42604000D02*
X63141000Y-46296000D01*
X63181000Y-42708000D02*
X63181000Y-46192000D01*
X63221000Y-42820000D02*
X63221000Y-46080000D01*
X63261000Y-42940000D02*
X63261000Y-45960000D01*
X63301000Y-43072000D02*
X63301000Y-45828000D01*
X63341000Y-43220000D02*
X63341000Y-45680000D01*
X63381000Y-43388000D02*
X63381000Y-45512000D01*
X63421000Y-43588000D02*
X63421000Y-45312000D01*
X63461000Y-43851000D02*
X63461000Y-45049000D01*
X52900354Y-41575000D02*
X53900354Y-41575000D01*
X53400354Y-41075000D02*
X53400354Y-42075000D01*
X64215000Y-25130000D02*
G75*
G03X64215000Y-25130000I-2620000J0D01*
G01*
X60555000Y-25130000D02*
X59015000Y-25130000D01*
X64175000Y-25130000D02*
X62635000Y-25130000D01*
X60555000Y-25170000D02*
X59015000Y-25170000D01*
X64175000Y-25170000D02*
X62635000Y-25170000D01*
X64174000Y-25210000D02*
X62635000Y-25210000D01*
X60555000Y-25210000D02*
X59016000Y-25210000D01*
X64173000Y-25250000D02*
X62635000Y-25250000D01*
X60555000Y-25250000D02*
X59017000Y-25250000D01*
X64171000Y-25290000D02*
X62635000Y-25290000D01*
X60555000Y-25290000D02*
X59019000Y-25290000D01*
X64168000Y-25330000D02*
X62635000Y-25330000D01*
X60555000Y-25330000D02*
X59022000Y-25330000D01*
X64164000Y-25370000D02*
X62635000Y-25370000D01*
X60555000Y-25370000D02*
X59026000Y-25370000D01*
X64160000Y-25410000D02*
X62635000Y-25410000D01*
X60555000Y-25410000D02*
X59030000Y-25410000D01*
X64156000Y-25450000D02*
X62635000Y-25450000D01*
X60555000Y-25450000D02*
X59034000Y-25450000D01*
X64151000Y-25490000D02*
X62635000Y-25490000D01*
X60555000Y-25490000D02*
X59039000Y-25490000D01*
X64145000Y-25530000D02*
X62635000Y-25530000D01*
X60555000Y-25530000D02*
X59045000Y-25530000D01*
X64138000Y-25570000D02*
X62635000Y-25570000D01*
X60555000Y-25570000D02*
X59052000Y-25570000D01*
X64131000Y-25610000D02*
X62635000Y-25610000D01*
X60555000Y-25610000D02*
X59059000Y-25610000D01*
X64123000Y-25650000D02*
X62635000Y-25650000D01*
X60555000Y-25650000D02*
X59067000Y-25650000D01*
X64115000Y-25690000D02*
X62635000Y-25690000D01*
X60555000Y-25690000D02*
X59075000Y-25690000D01*
X64106000Y-25730000D02*
X62635000Y-25730000D01*
X60555000Y-25730000D02*
X59084000Y-25730000D01*
X64096000Y-25770000D02*
X62635000Y-25770000D01*
X60555000Y-25770000D02*
X59094000Y-25770000D01*
X64086000Y-25810000D02*
X62635000Y-25810000D01*
X60555000Y-25810000D02*
X59104000Y-25810000D01*
X64075000Y-25851000D02*
X62635000Y-25851000D01*
X60555000Y-25851000D02*
X59115000Y-25851000D01*
X64063000Y-25891000D02*
X62635000Y-25891000D01*
X60555000Y-25891000D02*
X59127000Y-25891000D01*
X64050000Y-25931000D02*
X62635000Y-25931000D01*
X60555000Y-25931000D02*
X59140000Y-25931000D01*
X64037000Y-25971000D02*
X62635000Y-25971000D01*
X60555000Y-25971000D02*
X59153000Y-25971000D01*
X64023000Y-26011000D02*
X62635000Y-26011000D01*
X60555000Y-26011000D02*
X59167000Y-26011000D01*
X64009000Y-26051000D02*
X62635000Y-26051000D01*
X60555000Y-26051000D02*
X59181000Y-26051000D01*
X63993000Y-26091000D02*
X62635000Y-26091000D01*
X60555000Y-26091000D02*
X59197000Y-26091000D01*
X63977000Y-26131000D02*
X62635000Y-26131000D01*
X60555000Y-26131000D02*
X59213000Y-26131000D01*
X63960000Y-26171000D02*
X62635000Y-26171000D01*
X60555000Y-26171000D02*
X59230000Y-26171000D01*
X63943000Y-26211000D02*
X62635000Y-26211000D01*
X60555000Y-26211000D02*
X59247000Y-26211000D01*
X63924000Y-26251000D02*
X62635000Y-26251000D01*
X60555000Y-26251000D02*
X59266000Y-26251000D01*
X63905000Y-26291000D02*
X62635000Y-26291000D01*
X60555000Y-26291000D02*
X59285000Y-26291000D01*
X63885000Y-26331000D02*
X62635000Y-26331000D01*
X60555000Y-26331000D02*
X59305000Y-26331000D01*
X63863000Y-26371000D02*
X62635000Y-26371000D01*
X60555000Y-26371000D02*
X59327000Y-26371000D01*
X63842000Y-26411000D02*
X62635000Y-26411000D01*
X60555000Y-26411000D02*
X59348000Y-26411000D01*
X63819000Y-26451000D02*
X62635000Y-26451000D01*
X60555000Y-26451000D02*
X59371000Y-26451000D01*
X63795000Y-26491000D02*
X62635000Y-26491000D01*
X60555000Y-26491000D02*
X59395000Y-26491000D01*
X63770000Y-26531000D02*
X62635000Y-26531000D01*
X60555000Y-26531000D02*
X59420000Y-26531000D01*
X63744000Y-26571000D02*
X62635000Y-26571000D01*
X60555000Y-26571000D02*
X59446000Y-26571000D01*
X63717000Y-26611000D02*
X62635000Y-26611000D01*
X60555000Y-26611000D02*
X59473000Y-26611000D01*
X63690000Y-26651000D02*
X62635000Y-26651000D01*
X60555000Y-26651000D02*
X59500000Y-26651000D01*
X63660000Y-26691000D02*
X62635000Y-26691000D01*
X60555000Y-26691000D02*
X59530000Y-26691000D01*
X63630000Y-26731000D02*
X62635000Y-26731000D01*
X60555000Y-26731000D02*
X59560000Y-26731000D01*
X63599000Y-26771000D02*
X62635000Y-26771000D01*
X60555000Y-26771000D02*
X59591000Y-26771000D01*
X63566000Y-26811000D02*
X62635000Y-26811000D01*
X60555000Y-26811000D02*
X59624000Y-26811000D01*
X63532000Y-26851000D02*
X62635000Y-26851000D01*
X60555000Y-26851000D02*
X59658000Y-26851000D01*
X63496000Y-26891000D02*
X62635000Y-26891000D01*
X60555000Y-26891000D02*
X59694000Y-26891000D01*
X63459000Y-26931000D02*
X62635000Y-26931000D01*
X60555000Y-26931000D02*
X59731000Y-26931000D01*
X63421000Y-26971000D02*
X62635000Y-26971000D01*
X60555000Y-26971000D02*
X59769000Y-26971000D01*
X63380000Y-27011000D02*
X62635000Y-27011000D01*
X60555000Y-27011000D02*
X59810000Y-27011000D01*
X63338000Y-27051000D02*
X62635000Y-27051000D01*
X60555000Y-27051000D02*
X59852000Y-27051000D01*
X63294000Y-27091000D02*
X62635000Y-27091000D01*
X60555000Y-27091000D02*
X59896000Y-27091000D01*
X63248000Y-27131000D02*
X62635000Y-27131000D01*
X60555000Y-27131000D02*
X59942000Y-27131000D01*
X63200000Y-27171000D02*
X59990000Y-27171000D01*
X63149000Y-27211000D02*
X60041000Y-27211000D01*
X63095000Y-27251000D02*
X60095000Y-27251000D01*
X63038000Y-27291000D02*
X60152000Y-27291000D01*
X62978000Y-27331000D02*
X60212000Y-27331000D01*
X62914000Y-27371000D02*
X60276000Y-27371000D01*
X62846000Y-27411000D02*
X60344000Y-27411000D01*
X62773000Y-27451000D02*
X60417000Y-27451000D01*
X62693000Y-27491000D02*
X60497000Y-27491000D01*
X62606000Y-27531000D02*
X60584000Y-27531000D01*
X62510000Y-27571000D02*
X60680000Y-27571000D01*
X62400000Y-27611000D02*
X60790000Y-27611000D01*
X62272000Y-27651000D02*
X60918000Y-27651000D01*
X62113000Y-27691000D02*
X61077000Y-27691000D01*
X61879000Y-27731000D02*
X61311000Y-27731000D01*
X63070000Y-22325225D02*
X63070000Y-22825225D01*
X63320000Y-22575225D02*
X62820000Y-22575225D01*
X70335000Y-23760000D02*
X70335000Y-27000000D01*
X68095000Y-23760000D02*
X68095000Y-27000000D01*
X70335000Y-23760000D02*
X70270000Y-23760000D01*
X68160000Y-23760000D02*
X68095000Y-23760000D01*
X70335000Y-27000000D02*
X70270000Y-27000000D01*
X68160000Y-27000000D02*
X68095000Y-27000000D01*
X141485000Y-44350000D02*
X146725000Y-44350000D01*
X141485000Y-47090000D02*
X146725000Y-47090000D01*
X141485000Y-44350000D02*
X141485000Y-44665000D01*
X141485000Y-46775000D02*
X141485000Y-47090000D01*
X146725000Y-44350000D02*
X146725000Y-44665000D01*
X146725000Y-46775000D02*
X146725000Y-47090000D01*
X148239775Y-60145000D02*
X148239775Y-59645000D01*
X148489775Y-59895000D02*
X147989775Y-59895000D01*
X143084000Y-58704000D02*
X143084000Y-58136000D01*
X143124000Y-58938000D02*
X143124000Y-57902000D01*
X143164000Y-59097000D02*
X143164000Y-57743000D01*
X143204000Y-59225000D02*
X143204000Y-57615000D01*
X143244000Y-59335000D02*
X143244000Y-57505000D01*
X143284000Y-59431000D02*
X143284000Y-57409000D01*
X143324000Y-59518000D02*
X143324000Y-57322000D01*
X143364000Y-59598000D02*
X143364000Y-57242000D01*
X143404000Y-59671000D02*
X143404000Y-57169000D01*
X143444000Y-59739000D02*
X143444000Y-57101000D01*
X143484000Y-59803000D02*
X143484000Y-57037000D01*
X143524000Y-59863000D02*
X143524000Y-56977000D01*
X143564000Y-59920000D02*
X143564000Y-56920000D01*
X143604000Y-59974000D02*
X143604000Y-56866000D01*
X143644000Y-60025000D02*
X143644000Y-56815000D01*
X143684000Y-57380000D02*
X143684000Y-56767000D01*
X143684000Y-60073000D02*
X143684000Y-59460000D01*
X143724000Y-57380000D02*
X143724000Y-56721000D01*
X143724000Y-60119000D02*
X143724000Y-59460000D01*
X143764000Y-57380000D02*
X143764000Y-56677000D01*
X143764000Y-60163000D02*
X143764000Y-59460000D01*
X143804000Y-57380000D02*
X143804000Y-56635000D01*
X143804000Y-60205000D02*
X143804000Y-59460000D01*
X143844000Y-57380000D02*
X143844000Y-56594000D01*
X143844000Y-60246000D02*
X143844000Y-59460000D01*
X143884000Y-57380000D02*
X143884000Y-56556000D01*
X143884000Y-60284000D02*
X143884000Y-59460000D01*
X143924000Y-57380000D02*
X143924000Y-56519000D01*
X143924000Y-60321000D02*
X143924000Y-59460000D01*
X143964000Y-57380000D02*
X143964000Y-56483000D01*
X143964000Y-60357000D02*
X143964000Y-59460000D01*
X144004000Y-57380000D02*
X144004000Y-56449000D01*
X144004000Y-60391000D02*
X144004000Y-59460000D01*
X144044000Y-57380000D02*
X144044000Y-56416000D01*
X144044000Y-60424000D02*
X144044000Y-59460000D01*
X144084000Y-57380000D02*
X144084000Y-56385000D01*
X144084000Y-60455000D02*
X144084000Y-59460000D01*
X144124000Y-57380000D02*
X144124000Y-56355000D01*
X144124000Y-60485000D02*
X144124000Y-59460000D01*
X144164000Y-57380000D02*
X144164000Y-56325000D01*
X144164000Y-60515000D02*
X144164000Y-59460000D01*
X144204000Y-57380000D02*
X144204000Y-56298000D01*
X144204000Y-60542000D02*
X144204000Y-59460000D01*
X144244000Y-57380000D02*
X144244000Y-56271000D01*
X144244000Y-60569000D02*
X144244000Y-59460000D01*
X144284000Y-57380000D02*
X144284000Y-56245000D01*
X144284000Y-60595000D02*
X144284000Y-59460000D01*
X144324000Y-57380000D02*
X144324000Y-56220000D01*
X144324000Y-60620000D02*
X144324000Y-59460000D01*
X144364000Y-57380000D02*
X144364000Y-56196000D01*
X144364000Y-60644000D02*
X144364000Y-59460000D01*
X144404000Y-57380000D02*
X144404000Y-56173000D01*
X144404000Y-60667000D02*
X144404000Y-59460000D01*
X144444000Y-57380000D02*
X144444000Y-56152000D01*
X144444000Y-60688000D02*
X144444000Y-59460000D01*
X144484000Y-57380000D02*
X144484000Y-56130000D01*
X144484000Y-60710000D02*
X144484000Y-59460000D01*
X144524000Y-57380000D02*
X144524000Y-56110000D01*
X144524000Y-60730000D02*
X144524000Y-59460000D01*
X144564000Y-57380000D02*
X144564000Y-56091000D01*
X144564000Y-60749000D02*
X144564000Y-59460000D01*
X144604000Y-57380000D02*
X144604000Y-56072000D01*
X144604000Y-60768000D02*
X144604000Y-59460000D01*
X144644000Y-57380000D02*
X144644000Y-56055000D01*
X144644000Y-60785000D02*
X144644000Y-59460000D01*
X144684000Y-57380000D02*
X144684000Y-56038000D01*
X144684000Y-60802000D02*
X144684000Y-59460000D01*
X144724000Y-57380000D02*
X144724000Y-56022000D01*
X144724000Y-60818000D02*
X144724000Y-59460000D01*
X144764000Y-57380000D02*
X144764000Y-56006000D01*
X144764000Y-60834000D02*
X144764000Y-59460000D01*
X144804000Y-57380000D02*
X144804000Y-55992000D01*
X144804000Y-60848000D02*
X144804000Y-59460000D01*
X144844000Y-57380000D02*
X144844000Y-55978000D01*
X144844000Y-60862000D02*
X144844000Y-59460000D01*
X144884000Y-57380000D02*
X144884000Y-55965000D01*
X144884000Y-60875000D02*
X144884000Y-59460000D01*
X144924000Y-57380000D02*
X144924000Y-55952000D01*
X144924000Y-60888000D02*
X144924000Y-59460000D01*
X144964000Y-57380000D02*
X144964000Y-55940000D01*
X144964000Y-60900000D02*
X144964000Y-59460000D01*
X145005000Y-57380000D02*
X145005000Y-55929000D01*
X145005000Y-60911000D02*
X145005000Y-59460000D01*
X145045000Y-57380000D02*
X145045000Y-55919000D01*
X145045000Y-60921000D02*
X145045000Y-59460000D01*
X145085000Y-57380000D02*
X145085000Y-55909000D01*
X145085000Y-60931000D02*
X145085000Y-59460000D01*
X145125000Y-57380000D02*
X145125000Y-55900000D01*
X145125000Y-60940000D02*
X145125000Y-59460000D01*
X145165000Y-57380000D02*
X145165000Y-55892000D01*
X145165000Y-60948000D02*
X145165000Y-59460000D01*
X145205000Y-57380000D02*
X145205000Y-55884000D01*
X145205000Y-60956000D02*
X145205000Y-59460000D01*
X145245000Y-57380000D02*
X145245000Y-55877000D01*
X145245000Y-60963000D02*
X145245000Y-59460000D01*
X145285000Y-57380000D02*
X145285000Y-55870000D01*
X145285000Y-60970000D02*
X145285000Y-59460000D01*
X145325000Y-57380000D02*
X145325000Y-55864000D01*
X145325000Y-60976000D02*
X145325000Y-59460000D01*
X145365000Y-57380000D02*
X145365000Y-55859000D01*
X145365000Y-60981000D02*
X145365000Y-59460000D01*
X145405000Y-57380000D02*
X145405000Y-55855000D01*
X145405000Y-60985000D02*
X145405000Y-59460000D01*
X145445000Y-57380000D02*
X145445000Y-55851000D01*
X145445000Y-60989000D02*
X145445000Y-59460000D01*
X145485000Y-57380000D02*
X145485000Y-55847000D01*
X145485000Y-60993000D02*
X145485000Y-59460000D01*
X145525000Y-57380000D02*
X145525000Y-55844000D01*
X145525000Y-60996000D02*
X145525000Y-59460000D01*
X145565000Y-57380000D02*
X145565000Y-55842000D01*
X145565000Y-60998000D02*
X145565000Y-59460000D01*
X145605000Y-57380000D02*
X145605000Y-55841000D01*
X145605000Y-60999000D02*
X145605000Y-59460000D01*
X145645000Y-61000000D02*
X145645000Y-59460000D01*
X145645000Y-57380000D02*
X145645000Y-55840000D01*
X145685000Y-61000000D02*
X145685000Y-59460000D01*
X145685000Y-57380000D02*
X145685000Y-55840000D01*
X148305000Y-58420000D02*
G75*
G03X148305000Y-58420000I-2620000J0D01*
G01*
X102085000Y-26300000D02*
X102085000Y-29540000D01*
X99845000Y-26300000D02*
X99845000Y-29540000D01*
X102085000Y-26300000D02*
X102020000Y-26300000D01*
X99910000Y-26300000D02*
X99845000Y-26300000D01*
X102085000Y-29540000D02*
X102020000Y-29540000D01*
X99910000Y-29540000D02*
X99845000Y-29540000D01*
X109040000Y-25115225D02*
X108540000Y-25115225D01*
X108790000Y-24865225D02*
X108790000Y-25365225D01*
X107599000Y-30271000D02*
X107031000Y-30271000D01*
X107833000Y-30231000D02*
X106797000Y-30231000D01*
X107992000Y-30191000D02*
X106638000Y-30191000D01*
X108120000Y-30151000D02*
X106510000Y-30151000D01*
X108230000Y-30111000D02*
X106400000Y-30111000D01*
X108326000Y-30071000D02*
X106304000Y-30071000D01*
X108413000Y-30031000D02*
X106217000Y-30031000D01*
X108493000Y-29991000D02*
X106137000Y-29991000D01*
X108566000Y-29951000D02*
X106064000Y-29951000D01*
X108634000Y-29911000D02*
X105996000Y-29911000D01*
X108698000Y-29871000D02*
X105932000Y-29871000D01*
X108758000Y-29831000D02*
X105872000Y-29831000D01*
X108815000Y-29791000D02*
X105815000Y-29791000D01*
X108869000Y-29751000D02*
X105761000Y-29751000D01*
X108920000Y-29711000D02*
X105710000Y-29711000D01*
X106275000Y-29671000D02*
X105662000Y-29671000D01*
X108968000Y-29671000D02*
X108355000Y-29671000D01*
X106275000Y-29631000D02*
X105616000Y-29631000D01*
X109014000Y-29631000D02*
X108355000Y-29631000D01*
X106275000Y-29591000D02*
X105572000Y-29591000D01*
X109058000Y-29591000D02*
X108355000Y-29591000D01*
X106275000Y-29551000D02*
X105530000Y-29551000D01*
X109100000Y-29551000D02*
X108355000Y-29551000D01*
X106275000Y-29511000D02*
X105489000Y-29511000D01*
X109141000Y-29511000D02*
X108355000Y-29511000D01*
X106275000Y-29471000D02*
X105451000Y-29471000D01*
X109179000Y-29471000D02*
X108355000Y-29471000D01*
X106275000Y-29431000D02*
X105414000Y-29431000D01*
X109216000Y-29431000D02*
X108355000Y-29431000D01*
X106275000Y-29391000D02*
X105378000Y-29391000D01*
X109252000Y-29391000D02*
X108355000Y-29391000D01*
X106275000Y-29351000D02*
X105344000Y-29351000D01*
X109286000Y-29351000D02*
X108355000Y-29351000D01*
X106275000Y-29311000D02*
X105311000Y-29311000D01*
X109319000Y-29311000D02*
X108355000Y-29311000D01*
X106275000Y-29271000D02*
X105280000Y-29271000D01*
X109350000Y-29271000D02*
X108355000Y-29271000D01*
X106275000Y-29231000D02*
X105250000Y-29231000D01*
X109380000Y-29231000D02*
X108355000Y-29231000D01*
X106275000Y-29191000D02*
X105220000Y-29191000D01*
X109410000Y-29191000D02*
X108355000Y-29191000D01*
X106275000Y-29151000D02*
X105193000Y-29151000D01*
X109437000Y-29151000D02*
X108355000Y-29151000D01*
X106275000Y-29111000D02*
X105166000Y-29111000D01*
X109464000Y-29111000D02*
X108355000Y-29111000D01*
X106275000Y-29071000D02*
X105140000Y-29071000D01*
X109490000Y-29071000D02*
X108355000Y-29071000D01*
X106275000Y-29031000D02*
X105115000Y-29031000D01*
X109515000Y-29031000D02*
X108355000Y-29031000D01*
X106275000Y-28991000D02*
X105091000Y-28991000D01*
X109539000Y-28991000D02*
X108355000Y-28991000D01*
X106275000Y-28951000D02*
X105068000Y-28951000D01*
X109562000Y-28951000D02*
X108355000Y-28951000D01*
X106275000Y-28911000D02*
X105047000Y-28911000D01*
X109583000Y-28911000D02*
X108355000Y-28911000D01*
X106275000Y-28871000D02*
X105025000Y-28871000D01*
X109605000Y-28871000D02*
X108355000Y-28871000D01*
X106275000Y-28831000D02*
X105005000Y-28831000D01*
X109625000Y-28831000D02*
X108355000Y-28831000D01*
X106275000Y-28791000D02*
X104986000Y-28791000D01*
X109644000Y-28791000D02*
X108355000Y-28791000D01*
X106275000Y-28751000D02*
X104967000Y-28751000D01*
X109663000Y-28751000D02*
X108355000Y-28751000D01*
X106275000Y-28711000D02*
X104950000Y-28711000D01*
X109680000Y-28711000D02*
X108355000Y-28711000D01*
X106275000Y-28671000D02*
X104933000Y-28671000D01*
X109697000Y-28671000D02*
X108355000Y-28671000D01*
X106275000Y-28631000D02*
X104917000Y-28631000D01*
X109713000Y-28631000D02*
X108355000Y-28631000D01*
X106275000Y-28591000D02*
X104901000Y-28591000D01*
X109729000Y-28591000D02*
X108355000Y-28591000D01*
X106275000Y-28551000D02*
X104887000Y-28551000D01*
X109743000Y-28551000D02*
X108355000Y-28551000D01*
X106275000Y-28511000D02*
X104873000Y-28511000D01*
X109757000Y-28511000D02*
X108355000Y-28511000D01*
X106275000Y-28471000D02*
X104860000Y-28471000D01*
X109770000Y-28471000D02*
X108355000Y-28471000D01*
X106275000Y-28431000D02*
X104847000Y-28431000D01*
X109783000Y-28431000D02*
X108355000Y-28431000D01*
X106275000Y-28391000D02*
X104835000Y-28391000D01*
X109795000Y-28391000D02*
X108355000Y-28391000D01*
X106275000Y-28350000D02*
X104824000Y-28350000D01*
X109806000Y-28350000D02*
X108355000Y-28350000D01*
X106275000Y-28310000D02*
X104814000Y-28310000D01*
X109816000Y-28310000D02*
X108355000Y-28310000D01*
X106275000Y-28270000D02*
X104804000Y-28270000D01*
X109826000Y-28270000D02*
X108355000Y-28270000D01*
X106275000Y-28230000D02*
X104795000Y-28230000D01*
X109835000Y-28230000D02*
X108355000Y-28230000D01*
X106275000Y-28190000D02*
X104787000Y-28190000D01*
X109843000Y-28190000D02*
X108355000Y-28190000D01*
X106275000Y-28150000D02*
X104779000Y-28150000D01*
X109851000Y-28150000D02*
X108355000Y-28150000D01*
X106275000Y-28110000D02*
X104772000Y-28110000D01*
X109858000Y-28110000D02*
X108355000Y-28110000D01*
X106275000Y-28070000D02*
X104765000Y-28070000D01*
X109865000Y-28070000D02*
X108355000Y-28070000D01*
X106275000Y-28030000D02*
X104759000Y-28030000D01*
X109871000Y-28030000D02*
X108355000Y-28030000D01*
X106275000Y-27990000D02*
X104754000Y-27990000D01*
X109876000Y-27990000D02*
X108355000Y-27990000D01*
X106275000Y-27950000D02*
X104750000Y-27950000D01*
X109880000Y-27950000D02*
X108355000Y-27950000D01*
X106275000Y-27910000D02*
X104746000Y-27910000D01*
X109884000Y-27910000D02*
X108355000Y-27910000D01*
X106275000Y-27870000D02*
X104742000Y-27870000D01*
X109888000Y-27870000D02*
X108355000Y-27870000D01*
X106275000Y-27830000D02*
X104739000Y-27830000D01*
X109891000Y-27830000D02*
X108355000Y-27830000D01*
X106275000Y-27790000D02*
X104737000Y-27790000D01*
X109893000Y-27790000D02*
X108355000Y-27790000D01*
X106275000Y-27750000D02*
X104736000Y-27750000D01*
X109894000Y-27750000D02*
X108355000Y-27750000D01*
X109895000Y-27710000D02*
X108355000Y-27710000D01*
X106275000Y-27710000D02*
X104735000Y-27710000D01*
X109895000Y-27670000D02*
X108355000Y-27670000D01*
X106275000Y-27670000D02*
X104735000Y-27670000D01*
X109935000Y-27670000D02*
G75*
G03X109935000Y-27670000I-2620000J0D01*
G01*
X116920000Y-25670000D02*
G75*
G03X116920000Y-25670000I-2620000J0D01*
G01*
X115340000Y-25670000D02*
X116880000Y-25670000D01*
X111720000Y-25670000D02*
X113260000Y-25670000D01*
X115340000Y-25630000D02*
X116880000Y-25630000D01*
X111720000Y-25630000D02*
X113260000Y-25630000D01*
X111721000Y-25590000D02*
X113260000Y-25590000D01*
X115340000Y-25590000D02*
X116879000Y-25590000D01*
X111722000Y-25550000D02*
X113260000Y-25550000D01*
X115340000Y-25550000D02*
X116878000Y-25550000D01*
X111724000Y-25510000D02*
X113260000Y-25510000D01*
X115340000Y-25510000D02*
X116876000Y-25510000D01*
X111727000Y-25470000D02*
X113260000Y-25470000D01*
X115340000Y-25470000D02*
X116873000Y-25470000D01*
X111731000Y-25430000D02*
X113260000Y-25430000D01*
X115340000Y-25430000D02*
X116869000Y-25430000D01*
X111735000Y-25390000D02*
X113260000Y-25390000D01*
X115340000Y-25390000D02*
X116865000Y-25390000D01*
X111739000Y-25350000D02*
X113260000Y-25350000D01*
X115340000Y-25350000D02*
X116861000Y-25350000D01*
X111744000Y-25310000D02*
X113260000Y-25310000D01*
X115340000Y-25310000D02*
X116856000Y-25310000D01*
X111750000Y-25270000D02*
X113260000Y-25270000D01*
X115340000Y-25270000D02*
X116850000Y-25270000D01*
X111757000Y-25230000D02*
X113260000Y-25230000D01*
X115340000Y-25230000D02*
X116843000Y-25230000D01*
X111764000Y-25190000D02*
X113260000Y-25190000D01*
X115340000Y-25190000D02*
X116836000Y-25190000D01*
X111772000Y-25150000D02*
X113260000Y-25150000D01*
X115340000Y-25150000D02*
X116828000Y-25150000D01*
X111780000Y-25110000D02*
X113260000Y-25110000D01*
X115340000Y-25110000D02*
X116820000Y-25110000D01*
X111789000Y-25070000D02*
X113260000Y-25070000D01*
X115340000Y-25070000D02*
X116811000Y-25070000D01*
X111799000Y-25030000D02*
X113260000Y-25030000D01*
X115340000Y-25030000D02*
X116801000Y-25030000D01*
X111809000Y-24990000D02*
X113260000Y-24990000D01*
X115340000Y-24990000D02*
X116791000Y-24990000D01*
X111820000Y-24949000D02*
X113260000Y-24949000D01*
X115340000Y-24949000D02*
X116780000Y-24949000D01*
X111832000Y-24909000D02*
X113260000Y-24909000D01*
X115340000Y-24909000D02*
X116768000Y-24909000D01*
X111845000Y-24869000D02*
X113260000Y-24869000D01*
X115340000Y-24869000D02*
X116755000Y-24869000D01*
X111858000Y-24829000D02*
X113260000Y-24829000D01*
X115340000Y-24829000D02*
X116742000Y-24829000D01*
X111872000Y-24789000D02*
X113260000Y-24789000D01*
X115340000Y-24789000D02*
X116728000Y-24789000D01*
X111886000Y-24749000D02*
X113260000Y-24749000D01*
X115340000Y-24749000D02*
X116714000Y-24749000D01*
X111902000Y-24709000D02*
X113260000Y-24709000D01*
X115340000Y-24709000D02*
X116698000Y-24709000D01*
X111918000Y-24669000D02*
X113260000Y-24669000D01*
X115340000Y-24669000D02*
X116682000Y-24669000D01*
X111935000Y-24629000D02*
X113260000Y-24629000D01*
X115340000Y-24629000D02*
X116665000Y-24629000D01*
X111952000Y-24589000D02*
X113260000Y-24589000D01*
X115340000Y-24589000D02*
X116648000Y-24589000D01*
X111971000Y-24549000D02*
X113260000Y-24549000D01*
X115340000Y-24549000D02*
X116629000Y-24549000D01*
X111990000Y-24509000D02*
X113260000Y-24509000D01*
X115340000Y-24509000D02*
X116610000Y-24509000D01*
X112010000Y-24469000D02*
X113260000Y-24469000D01*
X115340000Y-24469000D02*
X116590000Y-24469000D01*
X112032000Y-24429000D02*
X113260000Y-24429000D01*
X115340000Y-24429000D02*
X116568000Y-24429000D01*
X112053000Y-24389000D02*
X113260000Y-24389000D01*
X115340000Y-24389000D02*
X116547000Y-24389000D01*
X112076000Y-24349000D02*
X113260000Y-24349000D01*
X115340000Y-24349000D02*
X116524000Y-24349000D01*
X112100000Y-24309000D02*
X113260000Y-24309000D01*
X115340000Y-24309000D02*
X116500000Y-24309000D01*
X112125000Y-24269000D02*
X113260000Y-24269000D01*
X115340000Y-24269000D02*
X116475000Y-24269000D01*
X112151000Y-24229000D02*
X113260000Y-24229000D01*
X115340000Y-24229000D02*
X116449000Y-24229000D01*
X112178000Y-24189000D02*
X113260000Y-24189000D01*
X115340000Y-24189000D02*
X116422000Y-24189000D01*
X112205000Y-24149000D02*
X113260000Y-24149000D01*
X115340000Y-24149000D02*
X116395000Y-24149000D01*
X112235000Y-24109000D02*
X113260000Y-24109000D01*
X115340000Y-24109000D02*
X116365000Y-24109000D01*
X112265000Y-24069000D02*
X113260000Y-24069000D01*
X115340000Y-24069000D02*
X116335000Y-24069000D01*
X112296000Y-24029000D02*
X113260000Y-24029000D01*
X115340000Y-24029000D02*
X116304000Y-24029000D01*
X112329000Y-23989000D02*
X113260000Y-23989000D01*
X115340000Y-23989000D02*
X116271000Y-23989000D01*
X112363000Y-23949000D02*
X113260000Y-23949000D01*
X115340000Y-23949000D02*
X116237000Y-23949000D01*
X112399000Y-23909000D02*
X113260000Y-23909000D01*
X115340000Y-23909000D02*
X116201000Y-23909000D01*
X112436000Y-23869000D02*
X113260000Y-23869000D01*
X115340000Y-23869000D02*
X116164000Y-23869000D01*
X112474000Y-23829000D02*
X113260000Y-23829000D01*
X115340000Y-23829000D02*
X116126000Y-23829000D01*
X112515000Y-23789000D02*
X113260000Y-23789000D01*
X115340000Y-23789000D02*
X116085000Y-23789000D01*
X112557000Y-23749000D02*
X113260000Y-23749000D01*
X115340000Y-23749000D02*
X116043000Y-23749000D01*
X112601000Y-23709000D02*
X113260000Y-23709000D01*
X115340000Y-23709000D02*
X115999000Y-23709000D01*
X112647000Y-23669000D02*
X113260000Y-23669000D01*
X115340000Y-23669000D02*
X115953000Y-23669000D01*
X112695000Y-23629000D02*
X115905000Y-23629000D01*
X112746000Y-23589000D02*
X115854000Y-23589000D01*
X112800000Y-23549000D02*
X115800000Y-23549000D01*
X112857000Y-23509000D02*
X115743000Y-23509000D01*
X112917000Y-23469000D02*
X115683000Y-23469000D01*
X112981000Y-23429000D02*
X115619000Y-23429000D01*
X113049000Y-23389000D02*
X115551000Y-23389000D01*
X113122000Y-23349000D02*
X115478000Y-23349000D01*
X113202000Y-23309000D02*
X115398000Y-23309000D01*
X113289000Y-23269000D02*
X115311000Y-23269000D01*
X113385000Y-23229000D02*
X115215000Y-23229000D01*
X113495000Y-23189000D02*
X115105000Y-23189000D01*
X113623000Y-23149000D02*
X114977000Y-23149000D01*
X113782000Y-23109000D02*
X114818000Y-23109000D01*
X114016000Y-23069000D02*
X114584000Y-23069000D01*
X112825000Y-28474775D02*
X112825000Y-27974775D01*
X112575000Y-28224775D02*
X113075000Y-28224775D01*
X119530000Y-27040000D02*
X119530000Y-23800000D01*
X121770000Y-27040000D02*
X121770000Y-23800000D01*
X119530000Y-27040000D02*
X119595000Y-27040000D01*
X121705000Y-27040000D02*
X121770000Y-27040000D01*
X119530000Y-23800000D02*
X119595000Y-23800000D01*
X121705000Y-23800000D02*
X121770000Y-23800000D01*
X149567000Y-87960000D02*
X149502000Y-87960000D01*
X151742000Y-87960000D02*
X151677000Y-87960000D01*
X149567000Y-84720000D02*
X149502000Y-84720000D01*
X151742000Y-84720000D02*
X151677000Y-84720000D01*
X149502000Y-84720000D02*
X149502000Y-87960000D01*
X151742000Y-84720000D02*
X151742000Y-87960000D01*
X136310000Y-33960000D02*
X136375000Y-33960000D01*
X134135000Y-33960000D02*
X134200000Y-33960000D01*
X136310000Y-37200000D02*
X136375000Y-37200000D01*
X134135000Y-37200000D02*
X134200000Y-37200000D01*
X136375000Y-37200000D02*
X136375000Y-33960000D01*
X134135000Y-37200000D02*
X134135000Y-33960000D01*
X142955000Y-35830000D02*
G75*
G03X142955000Y-35830000I-2620000J0D01*
G01*
X141375000Y-35830000D02*
X142915000Y-35830000D01*
X137755000Y-35830000D02*
X139295000Y-35830000D01*
X141375000Y-35790000D02*
X142915000Y-35790000D01*
X137755000Y-35790000D02*
X139295000Y-35790000D01*
X137756000Y-35750000D02*
X139295000Y-35750000D01*
X141375000Y-35750000D02*
X142914000Y-35750000D01*
X137757000Y-35710000D02*
X139295000Y-35710000D01*
X141375000Y-35710000D02*
X142913000Y-35710000D01*
X137759000Y-35670000D02*
X139295000Y-35670000D01*
X141375000Y-35670000D02*
X142911000Y-35670000D01*
X137762000Y-35630000D02*
X139295000Y-35630000D01*
X141375000Y-35630000D02*
X142908000Y-35630000D01*
X137766000Y-35590000D02*
X139295000Y-35590000D01*
X141375000Y-35590000D02*
X142904000Y-35590000D01*
X137770000Y-35550000D02*
X139295000Y-35550000D01*
X141375000Y-35550000D02*
X142900000Y-35550000D01*
X137774000Y-35510000D02*
X139295000Y-35510000D01*
X141375000Y-35510000D02*
X142896000Y-35510000D01*
X137779000Y-35470000D02*
X139295000Y-35470000D01*
X141375000Y-35470000D02*
X142891000Y-35470000D01*
X137785000Y-35430000D02*
X139295000Y-35430000D01*
X141375000Y-35430000D02*
X142885000Y-35430000D01*
X137792000Y-35390000D02*
X139295000Y-35390000D01*
X141375000Y-35390000D02*
X142878000Y-35390000D01*
X137799000Y-35350000D02*
X139295000Y-35350000D01*
X141375000Y-35350000D02*
X142871000Y-35350000D01*
X137807000Y-35310000D02*
X139295000Y-35310000D01*
X141375000Y-35310000D02*
X142863000Y-35310000D01*
X137815000Y-35270000D02*
X139295000Y-35270000D01*
X141375000Y-35270000D02*
X142855000Y-35270000D01*
X137824000Y-35230000D02*
X139295000Y-35230000D01*
X141375000Y-35230000D02*
X142846000Y-35230000D01*
X137834000Y-35190000D02*
X139295000Y-35190000D01*
X141375000Y-35190000D02*
X142836000Y-35190000D01*
X137844000Y-35150000D02*
X139295000Y-35150000D01*
X141375000Y-35150000D02*
X142826000Y-35150000D01*
X137855000Y-35109000D02*
X139295000Y-35109000D01*
X141375000Y-35109000D02*
X142815000Y-35109000D01*
X137867000Y-35069000D02*
X139295000Y-35069000D01*
X141375000Y-35069000D02*
X142803000Y-35069000D01*
X137880000Y-35029000D02*
X139295000Y-35029000D01*
X141375000Y-35029000D02*
X142790000Y-35029000D01*
X137893000Y-34989000D02*
X139295000Y-34989000D01*
X141375000Y-34989000D02*
X142777000Y-34989000D01*
X137907000Y-34949000D02*
X139295000Y-34949000D01*
X141375000Y-34949000D02*
X142763000Y-34949000D01*
X137921000Y-34909000D02*
X139295000Y-34909000D01*
X141375000Y-34909000D02*
X142749000Y-34909000D01*
X137937000Y-34869000D02*
X139295000Y-34869000D01*
X141375000Y-34869000D02*
X142733000Y-34869000D01*
X137953000Y-34829000D02*
X139295000Y-34829000D01*
X141375000Y-34829000D02*
X142717000Y-34829000D01*
X137970000Y-34789000D02*
X139295000Y-34789000D01*
X141375000Y-34789000D02*
X142700000Y-34789000D01*
X137987000Y-34749000D02*
X139295000Y-34749000D01*
X141375000Y-34749000D02*
X142683000Y-34749000D01*
X138006000Y-34709000D02*
X139295000Y-34709000D01*
X141375000Y-34709000D02*
X142664000Y-34709000D01*
X138025000Y-34669000D02*
X139295000Y-34669000D01*
X141375000Y-34669000D02*
X142645000Y-34669000D01*
X138045000Y-34629000D02*
X139295000Y-34629000D01*
X141375000Y-34629000D02*
X142625000Y-34629000D01*
X138067000Y-34589000D02*
X139295000Y-34589000D01*
X141375000Y-34589000D02*
X142603000Y-34589000D01*
X138088000Y-34549000D02*
X139295000Y-34549000D01*
X141375000Y-34549000D02*
X142582000Y-34549000D01*
X138111000Y-34509000D02*
X139295000Y-34509000D01*
X141375000Y-34509000D02*
X142559000Y-34509000D01*
X138135000Y-34469000D02*
X139295000Y-34469000D01*
X141375000Y-34469000D02*
X142535000Y-34469000D01*
X138160000Y-34429000D02*
X139295000Y-34429000D01*
X141375000Y-34429000D02*
X142510000Y-34429000D01*
X138186000Y-34389000D02*
X139295000Y-34389000D01*
X141375000Y-34389000D02*
X142484000Y-34389000D01*
X138213000Y-34349000D02*
X139295000Y-34349000D01*
X141375000Y-34349000D02*
X142457000Y-34349000D01*
X138240000Y-34309000D02*
X139295000Y-34309000D01*
X141375000Y-34309000D02*
X142430000Y-34309000D01*
X138270000Y-34269000D02*
X139295000Y-34269000D01*
X141375000Y-34269000D02*
X142400000Y-34269000D01*
X138300000Y-34229000D02*
X139295000Y-34229000D01*
X141375000Y-34229000D02*
X142370000Y-34229000D01*
X138331000Y-34189000D02*
X139295000Y-34189000D01*
X141375000Y-34189000D02*
X142339000Y-34189000D01*
X138364000Y-34149000D02*
X139295000Y-34149000D01*
X141375000Y-34149000D02*
X142306000Y-34149000D01*
X138398000Y-34109000D02*
X139295000Y-34109000D01*
X141375000Y-34109000D02*
X142272000Y-34109000D01*
X138434000Y-34069000D02*
X139295000Y-34069000D01*
X141375000Y-34069000D02*
X142236000Y-34069000D01*
X138471000Y-34029000D02*
X139295000Y-34029000D01*
X141375000Y-34029000D02*
X142199000Y-34029000D01*
X138509000Y-33989000D02*
X139295000Y-33989000D01*
X141375000Y-33989000D02*
X142161000Y-33989000D01*
X138550000Y-33949000D02*
X139295000Y-33949000D01*
X141375000Y-33949000D02*
X142120000Y-33949000D01*
X138592000Y-33909000D02*
X139295000Y-33909000D01*
X141375000Y-33909000D02*
X142078000Y-33909000D01*
X138636000Y-33869000D02*
X139295000Y-33869000D01*
X141375000Y-33869000D02*
X142034000Y-33869000D01*
X138682000Y-33829000D02*
X139295000Y-33829000D01*
X141375000Y-33829000D02*
X141988000Y-33829000D01*
X138730000Y-33789000D02*
X141940000Y-33789000D01*
X138781000Y-33749000D02*
X141889000Y-33749000D01*
X138835000Y-33709000D02*
X141835000Y-33709000D01*
X138892000Y-33669000D02*
X141778000Y-33669000D01*
X138952000Y-33629000D02*
X141718000Y-33629000D01*
X139016000Y-33589000D02*
X141654000Y-33589000D01*
X139084000Y-33549000D02*
X141586000Y-33549000D01*
X139157000Y-33509000D02*
X141513000Y-33509000D01*
X139237000Y-33469000D02*
X141433000Y-33469000D01*
X139324000Y-33429000D02*
X141346000Y-33429000D01*
X139420000Y-33389000D02*
X141250000Y-33389000D01*
X139530000Y-33349000D02*
X141140000Y-33349000D01*
X139658000Y-33309000D02*
X141012000Y-33309000D01*
X139817000Y-33269000D02*
X140853000Y-33269000D01*
X140051000Y-33229000D02*
X140619000Y-33229000D01*
X138860000Y-38634775D02*
X138860000Y-38134775D01*
X138610000Y-38384775D02*
X139110000Y-38384775D01*
X63300000Y-72570000D02*
X66240000Y-72570000D01*
X66240000Y-72570000D02*
X66240000Y-67130000D01*
X66240000Y-67130000D02*
X63300000Y-67130000D01*
X63300000Y-67130000D02*
X63300000Y-72570000D01*
X64770000Y-73590000D02*
X64770000Y-72570000D01*
X64770000Y-66110000D02*
X64770000Y-67130000D01*
X63300000Y-71670000D02*
X66240000Y-71670000D01*
X63300000Y-71550000D02*
X66240000Y-71550000D01*
X63300000Y-71790000D02*
X66240000Y-71790000D01*
X56950000Y-72570000D02*
X59890000Y-72570000D01*
X59890000Y-72570000D02*
X59890000Y-67130000D01*
X59890000Y-67130000D02*
X56950000Y-67130000D01*
X56950000Y-67130000D02*
X56950000Y-72570000D01*
X58420000Y-73590000D02*
X58420000Y-72570000D01*
X58420000Y-66110000D02*
X58420000Y-67130000D01*
X56950000Y-71670000D02*
X59890000Y-71670000D01*
X56950000Y-71550000D02*
X59890000Y-71550000D01*
X56950000Y-71790000D02*
X59890000Y-71790000D01*
X72590000Y-65370000D02*
X69650000Y-65370000D01*
X72590000Y-65610000D02*
X69650000Y-65610000D01*
X72590000Y-65490000D02*
X69650000Y-65490000D01*
X71120000Y-71050000D02*
X71120000Y-70030000D01*
X71120000Y-63570000D02*
X71120000Y-64590000D01*
X72590000Y-70030000D02*
X72590000Y-64590000D01*
X69650000Y-70030000D02*
X72590000Y-70030000D01*
X69650000Y-64590000D02*
X69650000Y-70030000D01*
X72590000Y-64590000D02*
X69650000Y-64590000D01*
X53540000Y-65370000D02*
X50600000Y-65370000D01*
X53540000Y-65610000D02*
X50600000Y-65610000D01*
X53540000Y-65490000D02*
X50600000Y-65490000D01*
X52070000Y-71050000D02*
X52070000Y-70030000D01*
X52070000Y-63570000D02*
X52070000Y-64590000D01*
X53540000Y-70030000D02*
X53540000Y-64590000D01*
X50600000Y-70030000D02*
X53540000Y-70030000D01*
X50600000Y-64590000D02*
X50600000Y-70030000D01*
X53540000Y-64590000D02*
X50600000Y-64590000D01*
X58310000Y-52690000D02*
X58310000Y-56530000D01*
X58310000Y-56530000D02*
X66150000Y-56530000D01*
X66150000Y-56530000D02*
X66150000Y-52690000D01*
X66150000Y-52690000D02*
X58310000Y-52690000D01*
X56050000Y-54610000D02*
X58310000Y-54610000D01*
X68410000Y-54610000D02*
X66150000Y-54610000D01*
X59570000Y-52690000D02*
X59570000Y-56530000D01*
X59690000Y-52690000D02*
X59690000Y-56530000D01*
X59450000Y-52690000D02*
X59450000Y-56530000D01*
X114030000Y-59630000D02*
G75*
G02X112030000Y-59630000I-1000000J0D01*
G01*
X112030000Y-59630000D02*
X110380000Y-59630000D01*
X110380000Y-59630000D02*
X110380000Y-95310000D01*
X110380000Y-95310000D02*
X115680000Y-95310000D01*
X115680000Y-95310000D02*
X115680000Y-59630000D01*
X115680000Y-59630000D02*
X114030000Y-59630000D01*
X76835000Y-28000000D02*
X75505000Y-28000000D01*
X75505000Y-28000000D02*
X75505000Y-26670000D01*
X75505000Y-25400000D02*
X75505000Y-22800000D01*
X78165000Y-22800000D02*
X75505000Y-22800000D01*
X78165000Y-25400000D02*
X78165000Y-22800000D01*
X78165000Y-25400000D02*
X75505000Y-25400000D01*
X78165000Y-36830000D02*
X75505000Y-36830000D01*
X78165000Y-36830000D02*
X78165000Y-34230000D01*
X78165000Y-34230000D02*
X75505000Y-34230000D01*
X75505000Y-36830000D02*
X75505000Y-34230000D01*
X75505000Y-39430000D02*
X75505000Y-38100000D01*
X76835000Y-39430000D02*
X75505000Y-39430000D01*
X95885000Y-22800000D02*
X97215000Y-22800000D01*
X97215000Y-22800000D02*
X97215000Y-24130000D01*
X97215000Y-25400000D02*
X97215000Y-28000000D01*
X94555000Y-28000000D02*
X97215000Y-28000000D01*
X94555000Y-25400000D02*
X94555000Y-28000000D01*
X94555000Y-25400000D02*
X97215000Y-25400000D01*
X94555000Y-36830000D02*
X97215000Y-36830000D01*
X94555000Y-36830000D02*
X94555000Y-39430000D01*
X94555000Y-39430000D02*
X97215000Y-39430000D01*
X97215000Y-36830000D02*
X97215000Y-39430000D01*
X97215000Y-34230000D02*
X97215000Y-35560000D01*
X95885000Y-34230000D02*
X97215000Y-34230000D01*
X148380000Y-75947171D02*
X148380000Y-77007171D01*
X148380000Y-77007171D02*
X147320000Y-77007171D01*
X146320000Y-77007171D02*
X132260000Y-77007171D01*
X132260000Y-74887171D02*
X132260000Y-77007171D01*
X146320000Y-74887171D02*
X132260000Y-74887171D01*
X146320000Y-74887171D02*
X146320000Y-77007171D01*
X128845000Y-33020000D02*
X131505000Y-33020000D01*
X128845000Y-33020000D02*
X128845000Y-38160000D01*
X128845000Y-38160000D02*
X131505000Y-38160000D01*
X131505000Y-33020000D02*
X131505000Y-38160000D01*
X131505000Y-30420000D02*
X131505000Y-31750000D01*
X130175000Y-30420000D02*
X131505000Y-30420000D01*
X146298700Y-88857171D02*
X146298700Y-90977171D01*
X146298700Y-88857171D02*
X132238700Y-88857171D01*
X132238700Y-88857171D02*
X132238700Y-90977171D01*
X146298700Y-90977171D02*
X132238700Y-90977171D01*
X148358700Y-90977171D02*
X147298700Y-90977171D01*
X148358700Y-89917171D02*
X148358700Y-90977171D01*
X143965000Y-96340000D02*
X143965000Y-99240000D01*
X150675000Y-96340000D02*
X150675000Y-99240000D01*
X145870000Y-101145000D02*
X148770000Y-101145000D01*
X145870000Y-94435000D02*
X148770000Y-94435000D01*
X85090000Y-52130000D02*
X85090000Y-49470000D01*
X85090000Y-52130000D02*
X92770000Y-52130000D01*
X92770000Y-52130000D02*
X92770000Y-49470000D01*
X85090000Y-49470000D02*
X92770000Y-49470000D01*
X82490000Y-49470000D02*
X83820000Y-49470000D01*
X82490000Y-50800000D02*
X82490000Y-49470000D01*
X108685000Y-47530000D02*
X105945000Y-47530000D01*
X105945000Y-47530000D02*
X105945000Y-54070000D01*
X105945000Y-54070000D02*
X108685000Y-54070000D01*
X108685000Y-54070000D02*
X108685000Y-47530000D01*
X107315000Y-46760000D02*
X107315000Y-47530000D01*
X107315000Y-54840000D02*
X107315000Y-54070000D01*
X100315000Y-79325000D02*
X100315000Y-85575000D01*
X95265000Y-79325000D02*
X95265000Y-85575000D01*
X95265000Y-79325000D02*
G75*
G02X100315000Y-79325000I2525000J0D01*
G01*
X95265000Y-85575000D02*
G75*
G03X100315000Y-85575000I2525000J0D01*
G01*
X116300000Y-100430000D02*
X116300000Y-97690000D01*
X116300000Y-97690000D02*
X109760000Y-97690000D01*
X109760000Y-97690000D02*
X109760000Y-100430000D01*
X109760000Y-100430000D02*
X116300000Y-100430000D01*
X117070000Y-99060000D02*
X116300000Y-99060000D01*
X108990000Y-99060000D02*
X109760000Y-99060000D01*
X118640000Y-33710000D02*
X115040000Y-33710000D01*
X118678478Y-33721522D02*
G75*
G02X116840000Y-38160000I-1838478J-1838478D01*
G01*
X115001522Y-33721522D02*
G75*
G03X116840000Y-38160000I1838478J-1838478D01*
G01*
X108680000Y-32980000D02*
X108680000Y-43220000D01*
X104039000Y-32980000D02*
X104039000Y-43220000D01*
X108680000Y-32980000D02*
X104039000Y-32980000D01*
X108680000Y-43220000D02*
X104039000Y-43220000D01*
X107170000Y-32980000D02*
X107170000Y-43220000D01*
X108680000Y-36250000D02*
X107170000Y-36250000D01*
X108680000Y-39951000D02*
X107170000Y-39951000D01*
X116840000Y-42950000D02*
X116840000Y-43720000D01*
X116840000Y-51030000D02*
X116840000Y-50260000D01*
X115470000Y-43720000D02*
X115470000Y-50260000D01*
X118210000Y-43720000D02*
X115470000Y-43720000D01*
X118210000Y-50260000D02*
X118210000Y-43720000D01*
X115470000Y-50260000D02*
X118210000Y-50260000D01*
X113130000Y-37370000D02*
X110390000Y-37370000D01*
X110390000Y-37370000D02*
X110390000Y-43910000D01*
X110390000Y-43910000D02*
X113130000Y-43910000D01*
X113130000Y-43910000D02*
X113130000Y-37370000D01*
X111760000Y-36600000D02*
X111760000Y-37370000D01*
X111760000Y-44680000D02*
X111760000Y-43910000D01*
X85240000Y-46725000D02*
X85240000Y-43485000D01*
X87480000Y-46725000D02*
X87480000Y-43485000D01*
X85240000Y-46725000D02*
X85305000Y-46725000D01*
X87415000Y-46725000D02*
X87480000Y-46725000D01*
X85240000Y-43485000D02*
X85305000Y-43485000D01*
X87415000Y-43485000D02*
X87480000Y-43485000D01*
X120590000Y-63500000D02*
X123250000Y-63500000D01*
X120590000Y-63500000D02*
X120590000Y-66100000D01*
X120590000Y-66100000D02*
X123250000Y-66100000D01*
X123250000Y-63500000D02*
X123250000Y-66100000D01*
X123250000Y-60900000D02*
X123250000Y-62230000D01*
X121920000Y-60900000D02*
X123250000Y-60900000D01*
D11*
X171934285Y-20248571D02*
X172077142Y-20296190D01*
X172124761Y-20343809D01*
X172172380Y-20439047D01*
X172172380Y-20581904D01*
X172124761Y-20677142D01*
X172077142Y-20724761D01*
X171981904Y-20772380D01*
X171600952Y-20772380D01*
X171600952Y-19772380D01*
X171934285Y-19772380D01*
X172029523Y-19820000D01*
X172077142Y-19867619D01*
X172124761Y-19962857D01*
X172124761Y-20058095D01*
X172077142Y-20153333D01*
X172029523Y-20200952D01*
X171934285Y-20248571D01*
X171600952Y-20248571D01*
X172458095Y-19772380D02*
X173029523Y-19772380D01*
X172743809Y-20772380D02*
X172743809Y-19772380D01*
X173886666Y-20772380D02*
X173315238Y-20772380D01*
X173600952Y-20772380D02*
X173600952Y-19772380D01*
X173505714Y-19915238D01*
X173410476Y-20010476D01*
X173315238Y-20058095D01*
X165814285Y-35559523D02*
X165814285Y-27940476D01*
X165814285Y-92709523D02*
X165814285Y-85090476D01*
X169623809Y-88900000D02*
X162004761Y-88900000D01*
X135128095Y-96012380D02*
X135128095Y-95012380D01*
X135128095Y-95488571D02*
X135699523Y-95488571D01*
X135699523Y-96012380D02*
X135699523Y-95012380D01*
X136604285Y-95345714D02*
X136604285Y-96012380D01*
X136366190Y-94964761D02*
X136128095Y-95679047D01*
X136747142Y-95679047D01*
X50038095Y-96012380D02*
X50038095Y-95012380D01*
X50038095Y-95488571D02*
X50609523Y-95488571D01*
X50609523Y-96012380D02*
X50609523Y-95012380D01*
X51609523Y-96012380D02*
X51038095Y-96012380D01*
X51323809Y-96012380D02*
X51323809Y-95012380D01*
X51228571Y-95155238D01*
X51133333Y-95250476D01*
X51038095Y-95298095D01*
X50038095Y-27122380D02*
X50038095Y-26122380D01*
X50038095Y-26598571D02*
X50609523Y-26598571D01*
X50609523Y-27122380D02*
X50609523Y-26122380D01*
X51038095Y-26217619D02*
X51085714Y-26170000D01*
X51180952Y-26122380D01*
X51419047Y-26122380D01*
X51514285Y-26170000D01*
X51561904Y-26217619D01*
X51609523Y-26312857D01*
X51609523Y-26408095D01*
X51561904Y-26550952D01*
X50990476Y-27122380D01*
X51609523Y-27122380D01*
X135128095Y-27122380D02*
X135128095Y-26122380D01*
X135128095Y-26598571D02*
X135699523Y-26598571D01*
X135699523Y-27122380D02*
X135699523Y-26122380D01*
X136080476Y-26122380D02*
X136699523Y-26122380D01*
X136366190Y-26503333D01*
X136509047Y-26503333D01*
X136604285Y-26550952D01*
X136651904Y-26598571D01*
X136699523Y-26693809D01*
X136699523Y-26931904D01*
X136651904Y-27027142D01*
X136604285Y-27074761D01*
X136509047Y-27122380D01*
X136223333Y-27122380D01*
X136128095Y-27074761D01*
X136080476Y-27027142D01*
X74596666Y-95972380D02*
X74596666Y-96686666D01*
X74549047Y-96829523D01*
X74453809Y-96924761D01*
X74310952Y-96972380D01*
X74215714Y-96972380D01*
X75596666Y-96972380D02*
X75025238Y-96972380D01*
X75310952Y-96972380D02*
X75310952Y-95972380D01*
X75215714Y-96115238D01*
X75120476Y-96210476D01*
X75025238Y-96258095D01*
X124452142Y-71477142D02*
X124404523Y-71524761D01*
X124261666Y-71572380D01*
X124166428Y-71572380D01*
X124023571Y-71524761D01*
X123928333Y-71429523D01*
X123880714Y-71334285D01*
X123833095Y-71143809D01*
X123833095Y-71000952D01*
X123880714Y-70810476D01*
X123928333Y-70715238D01*
X124023571Y-70620000D01*
X124166428Y-70572380D01*
X124261666Y-70572380D01*
X124404523Y-70620000D01*
X124452142Y-70667619D01*
X125404523Y-71572380D02*
X124833095Y-71572380D01*
X125118809Y-71572380D02*
X125118809Y-70572380D01*
X125023571Y-70715238D01*
X124928333Y-70810476D01*
X124833095Y-70858095D01*
X126309285Y-70572380D02*
X125833095Y-70572380D01*
X125785476Y-71048571D01*
X125833095Y-71000952D01*
X125928333Y-70953333D01*
X126166428Y-70953333D01*
X126261666Y-71000952D01*
X126309285Y-71048571D01*
X126356904Y-71143809D01*
X126356904Y-71381904D01*
X126309285Y-71477142D01*
X126261666Y-71524761D01*
X126166428Y-71572380D01*
X125928333Y-71572380D01*
X125833095Y-71524761D01*
X125785476Y-71477142D01*
X96186666Y-97877380D02*
X96186666Y-98591666D01*
X96139047Y-98734523D01*
X96043809Y-98829761D01*
X95900952Y-98877380D01*
X95805714Y-98877380D01*
X96805714Y-98305952D02*
X96710476Y-98258333D01*
X96662857Y-98210714D01*
X96615238Y-98115476D01*
X96615238Y-98067857D01*
X96662857Y-97972619D01*
X96710476Y-97925000D01*
X96805714Y-97877380D01*
X96996190Y-97877380D01*
X97091428Y-97925000D01*
X97139047Y-97972619D01*
X97186666Y-98067857D01*
X97186666Y-98115476D01*
X97139047Y-98210714D01*
X97091428Y-98258333D01*
X96996190Y-98305952D01*
X96805714Y-98305952D01*
X96710476Y-98353571D01*
X96662857Y-98401190D01*
X96615238Y-98496428D01*
X96615238Y-98686904D01*
X96662857Y-98782142D01*
X96710476Y-98829761D01*
X96805714Y-98877380D01*
X96996190Y-98877380D01*
X97091428Y-98829761D01*
X97139047Y-98782142D01*
X97186666Y-98686904D01*
X97186666Y-98496428D01*
X97139047Y-98401190D01*
X97091428Y-98353571D01*
X96996190Y-98305952D01*
X143383095Y-47252380D02*
X143383095Y-48061904D01*
X143430714Y-48157142D01*
X143478333Y-48204761D01*
X143573571Y-48252380D01*
X143764047Y-48252380D01*
X143859285Y-48204761D01*
X143906904Y-48157142D01*
X143954523Y-48061904D01*
X143954523Y-47252380D01*
X144954523Y-48252380D02*
X144383095Y-48252380D01*
X144668809Y-48252380D02*
X144668809Y-47252380D01*
X144573571Y-47395238D01*
X144478333Y-47490476D01*
X144383095Y-47538095D01*
X121753333Y-80022142D02*
X121705714Y-80069761D01*
X121562857Y-80117380D01*
X121467619Y-80117380D01*
X121324761Y-80069761D01*
X121229523Y-79974523D01*
X121181904Y-79879285D01*
X121134285Y-79688809D01*
X121134285Y-79545952D01*
X121181904Y-79355476D01*
X121229523Y-79260238D01*
X121324761Y-79165000D01*
X121467619Y-79117380D01*
X121562857Y-79117380D01*
X121705714Y-79165000D01*
X121753333Y-79212619D01*
X122705714Y-80117380D02*
X122134285Y-80117380D01*
X122420000Y-80117380D02*
X122420000Y-79117380D01*
X122324761Y-79260238D01*
X122229523Y-79355476D01*
X122134285Y-79403095D01*
X98893333Y-73382142D02*
X98845714Y-73429761D01*
X98702857Y-73477380D01*
X98607619Y-73477380D01*
X98464761Y-73429761D01*
X98369523Y-73334523D01*
X98321904Y-73239285D01*
X98274285Y-73048809D01*
X98274285Y-72905952D01*
X98321904Y-72715476D01*
X98369523Y-72620238D01*
X98464761Y-72525000D01*
X98607619Y-72477380D01*
X98702857Y-72477380D01*
X98845714Y-72525000D01*
X98893333Y-72572619D01*
X99274285Y-72572619D02*
X99321904Y-72525000D01*
X99417142Y-72477380D01*
X99655238Y-72477380D01*
X99750476Y-72525000D01*
X99798095Y-72572619D01*
X99845714Y-72667857D01*
X99845714Y-72763095D01*
X99798095Y-72905952D01*
X99226666Y-73477380D01*
X99845714Y-73477380D01*
X104227333Y-75247142D02*
X104179714Y-75294761D01*
X104036857Y-75342380D01*
X103941619Y-75342380D01*
X103798761Y-75294761D01*
X103703523Y-75199523D01*
X103655904Y-75104285D01*
X103608285Y-74913809D01*
X103608285Y-74770952D01*
X103655904Y-74580476D01*
X103703523Y-74485238D01*
X103798761Y-74390000D01*
X103941619Y-74342380D01*
X104036857Y-74342380D01*
X104179714Y-74390000D01*
X104227333Y-74437619D01*
X104560666Y-74342380D02*
X105179714Y-74342380D01*
X104846380Y-74723333D01*
X104989238Y-74723333D01*
X105084476Y-74770952D01*
X105132095Y-74818571D01*
X105179714Y-74913809D01*
X105179714Y-75151904D01*
X105132095Y-75247142D01*
X105084476Y-75294761D01*
X104989238Y-75342380D01*
X104703523Y-75342380D01*
X104608285Y-75294761D01*
X104560666Y-75247142D01*
X104227333Y-82907142D02*
X104179714Y-82954761D01*
X104036857Y-83002380D01*
X103941619Y-83002380D01*
X103798761Y-82954761D01*
X103703523Y-82859523D01*
X103655904Y-82764285D01*
X103608285Y-82573809D01*
X103608285Y-82430952D01*
X103655904Y-82240476D01*
X103703523Y-82145238D01*
X103798761Y-82050000D01*
X103941619Y-82002380D01*
X104036857Y-82002380D01*
X104179714Y-82050000D01*
X104227333Y-82097619D01*
X105084476Y-82335714D02*
X105084476Y-83002380D01*
X104846380Y-81954761D02*
X104608285Y-82669047D01*
X105227333Y-82669047D01*
X121733333Y-75577142D02*
X121685714Y-75624761D01*
X121542857Y-75672380D01*
X121447619Y-75672380D01*
X121304761Y-75624761D01*
X121209523Y-75529523D01*
X121161904Y-75434285D01*
X121114285Y-75243809D01*
X121114285Y-75100952D01*
X121161904Y-74910476D01*
X121209523Y-74815238D01*
X121304761Y-74720000D01*
X121447619Y-74672380D01*
X121542857Y-74672380D01*
X121685714Y-74720000D01*
X121733333Y-74767619D01*
X122638095Y-74672380D02*
X122161904Y-74672380D01*
X122114285Y-75148571D01*
X122161904Y-75100952D01*
X122257142Y-75053333D01*
X122495238Y-75053333D01*
X122590476Y-75100952D01*
X122638095Y-75148571D01*
X122685714Y-75243809D01*
X122685714Y-75481904D01*
X122638095Y-75577142D01*
X122590476Y-75624761D01*
X122495238Y-75672380D01*
X122257142Y-75672380D01*
X122161904Y-75624761D01*
X122114285Y-75577142D01*
X58213333Y-38557142D02*
X58165714Y-38604761D01*
X58022857Y-38652380D01*
X57927619Y-38652380D01*
X57784761Y-38604761D01*
X57689523Y-38509523D01*
X57641904Y-38414285D01*
X57594285Y-38223809D01*
X57594285Y-38080952D01*
X57641904Y-37890476D01*
X57689523Y-37795238D01*
X57784761Y-37700000D01*
X57927619Y-37652380D01*
X58022857Y-37652380D01*
X58165714Y-37700000D01*
X58213333Y-37747619D01*
X59070476Y-37652380D02*
X58880000Y-37652380D01*
X58784761Y-37700000D01*
X58737142Y-37747619D01*
X58641904Y-37890476D01*
X58594285Y-38080952D01*
X58594285Y-38461904D01*
X58641904Y-38557142D01*
X58689523Y-38604761D01*
X58784761Y-38652380D01*
X58975238Y-38652380D01*
X59070476Y-38604761D01*
X59118095Y-38557142D01*
X59165714Y-38461904D01*
X59165714Y-38223809D01*
X59118095Y-38128571D01*
X59070476Y-38080952D01*
X58975238Y-38033333D01*
X58784761Y-38033333D01*
X58689523Y-38080952D01*
X58641904Y-38128571D01*
X58594285Y-38223809D01*
X61428333Y-21947142D02*
X61380714Y-21994761D01*
X61237857Y-22042380D01*
X61142619Y-22042380D01*
X60999761Y-21994761D01*
X60904523Y-21899523D01*
X60856904Y-21804285D01*
X60809285Y-21613809D01*
X60809285Y-21470952D01*
X60856904Y-21280476D01*
X60904523Y-21185238D01*
X60999761Y-21090000D01*
X61142619Y-21042380D01*
X61237857Y-21042380D01*
X61380714Y-21090000D01*
X61428333Y-21137619D01*
X61761666Y-21042380D02*
X62428333Y-21042380D01*
X61999761Y-22042380D01*
X69048333Y-21947142D02*
X69000714Y-21994761D01*
X68857857Y-22042380D01*
X68762619Y-22042380D01*
X68619761Y-21994761D01*
X68524523Y-21899523D01*
X68476904Y-21804285D01*
X68429285Y-21613809D01*
X68429285Y-21470952D01*
X68476904Y-21280476D01*
X68524523Y-21185238D01*
X68619761Y-21090000D01*
X68762619Y-21042380D01*
X68857857Y-21042380D01*
X69000714Y-21090000D01*
X69048333Y-21137619D01*
X69619761Y-21470952D02*
X69524523Y-21423333D01*
X69476904Y-21375714D01*
X69429285Y-21280476D01*
X69429285Y-21232857D01*
X69476904Y-21137619D01*
X69524523Y-21090000D01*
X69619761Y-21042380D01*
X69810238Y-21042380D01*
X69905476Y-21090000D01*
X69953095Y-21137619D01*
X70000714Y-21232857D01*
X70000714Y-21280476D01*
X69953095Y-21375714D01*
X69905476Y-21423333D01*
X69810238Y-21470952D01*
X69619761Y-21470952D01*
X69524523Y-21518571D01*
X69476904Y-21566190D01*
X69429285Y-21661428D01*
X69429285Y-21851904D01*
X69476904Y-21947142D01*
X69524523Y-21994761D01*
X69619761Y-22042380D01*
X69810238Y-22042380D01*
X69905476Y-21994761D01*
X69953095Y-21947142D01*
X70000714Y-21851904D01*
X70000714Y-21661428D01*
X69953095Y-21566190D01*
X69905476Y-21518571D01*
X69810238Y-21470952D01*
X143978333Y-43537142D02*
X143930714Y-43584761D01*
X143787857Y-43632380D01*
X143692619Y-43632380D01*
X143549761Y-43584761D01*
X143454523Y-43489523D01*
X143406904Y-43394285D01*
X143359285Y-43203809D01*
X143359285Y-43060952D01*
X143406904Y-42870476D01*
X143454523Y-42775238D01*
X143549761Y-42680000D01*
X143692619Y-42632380D01*
X143787857Y-42632380D01*
X143930714Y-42680000D01*
X143978333Y-42727619D01*
X144454523Y-43632380D02*
X144645000Y-43632380D01*
X144740238Y-43584761D01*
X144787857Y-43537142D01*
X144883095Y-43394285D01*
X144930714Y-43203809D01*
X144930714Y-42822857D01*
X144883095Y-42727619D01*
X144835476Y-42680000D01*
X144740238Y-42632380D01*
X144549761Y-42632380D01*
X144454523Y-42680000D01*
X144406904Y-42727619D01*
X144359285Y-42822857D01*
X144359285Y-43060952D01*
X144406904Y-43156190D01*
X144454523Y-43203809D01*
X144549761Y-43251428D01*
X144740238Y-43251428D01*
X144835476Y-43203809D01*
X144883095Y-43156190D01*
X144930714Y-43060952D01*
X145042142Y-62527142D02*
X144994523Y-62574761D01*
X144851666Y-62622380D01*
X144756428Y-62622380D01*
X144613571Y-62574761D01*
X144518333Y-62479523D01*
X144470714Y-62384285D01*
X144423095Y-62193809D01*
X144423095Y-62050952D01*
X144470714Y-61860476D01*
X144518333Y-61765238D01*
X144613571Y-61670000D01*
X144756428Y-61622380D01*
X144851666Y-61622380D01*
X144994523Y-61670000D01*
X145042142Y-61717619D01*
X145994523Y-62622380D02*
X145423095Y-62622380D01*
X145708809Y-62622380D02*
X145708809Y-61622380D01*
X145613571Y-61765238D01*
X145518333Y-61860476D01*
X145423095Y-61908095D01*
X146613571Y-61622380D02*
X146708809Y-61622380D01*
X146804047Y-61670000D01*
X146851666Y-61717619D01*
X146899285Y-61812857D01*
X146946904Y-62003333D01*
X146946904Y-62241428D01*
X146899285Y-62431904D01*
X146851666Y-62527142D01*
X146804047Y-62574761D01*
X146708809Y-62622380D01*
X146613571Y-62622380D01*
X146518333Y-62574761D01*
X146470714Y-62527142D01*
X146423095Y-62431904D01*
X146375476Y-62241428D01*
X146375476Y-62003333D01*
X146423095Y-61812857D01*
X146470714Y-61717619D01*
X146518333Y-61670000D01*
X146613571Y-61622380D01*
X100322142Y-24487142D02*
X100274523Y-24534761D01*
X100131666Y-24582380D01*
X100036428Y-24582380D01*
X99893571Y-24534761D01*
X99798333Y-24439523D01*
X99750714Y-24344285D01*
X99703095Y-24153809D01*
X99703095Y-24010952D01*
X99750714Y-23820476D01*
X99798333Y-23725238D01*
X99893571Y-23630000D01*
X100036428Y-23582380D01*
X100131666Y-23582380D01*
X100274523Y-23630000D01*
X100322142Y-23677619D01*
X101274523Y-24582380D02*
X100703095Y-24582380D01*
X100988809Y-24582380D02*
X100988809Y-23582380D01*
X100893571Y-23725238D01*
X100798333Y-23820476D01*
X100703095Y-23868095D01*
X102226904Y-24582380D02*
X101655476Y-24582380D01*
X101941190Y-24582380D02*
X101941190Y-23582380D01*
X101845952Y-23725238D01*
X101750714Y-23820476D01*
X101655476Y-23868095D01*
X106672142Y-23217142D02*
X106624523Y-23264761D01*
X106481666Y-23312380D01*
X106386428Y-23312380D01*
X106243571Y-23264761D01*
X106148333Y-23169523D01*
X106100714Y-23074285D01*
X106053095Y-22883809D01*
X106053095Y-22740952D01*
X106100714Y-22550476D01*
X106148333Y-22455238D01*
X106243571Y-22360000D01*
X106386428Y-22312380D01*
X106481666Y-22312380D01*
X106624523Y-22360000D01*
X106672142Y-22407619D01*
X107624523Y-23312380D02*
X107053095Y-23312380D01*
X107338809Y-23312380D02*
X107338809Y-22312380D01*
X107243571Y-22455238D01*
X107148333Y-22550476D01*
X107053095Y-22598095D01*
X108005476Y-22407619D02*
X108053095Y-22360000D01*
X108148333Y-22312380D01*
X108386428Y-22312380D01*
X108481666Y-22360000D01*
X108529285Y-22407619D01*
X108576904Y-22502857D01*
X108576904Y-22598095D01*
X108529285Y-22740952D01*
X107957857Y-23312380D01*
X108576904Y-23312380D01*
X113657142Y-21947142D02*
X113609523Y-21994761D01*
X113466666Y-22042380D01*
X113371428Y-22042380D01*
X113228571Y-21994761D01*
X113133333Y-21899523D01*
X113085714Y-21804285D01*
X113038095Y-21613809D01*
X113038095Y-21470952D01*
X113085714Y-21280476D01*
X113133333Y-21185238D01*
X113228571Y-21090000D01*
X113371428Y-21042380D01*
X113466666Y-21042380D01*
X113609523Y-21090000D01*
X113657142Y-21137619D01*
X114609523Y-22042380D02*
X114038095Y-22042380D01*
X114323809Y-22042380D02*
X114323809Y-21042380D01*
X114228571Y-21185238D01*
X114133333Y-21280476D01*
X114038095Y-21328095D01*
X114942857Y-21042380D02*
X115561904Y-21042380D01*
X115228571Y-21423333D01*
X115371428Y-21423333D01*
X115466666Y-21470952D01*
X115514285Y-21518571D01*
X115561904Y-21613809D01*
X115561904Y-21851904D01*
X115514285Y-21947142D01*
X115466666Y-21994761D01*
X115371428Y-22042380D01*
X115085714Y-22042380D01*
X114990476Y-21994761D01*
X114942857Y-21947142D01*
X120007142Y-21947142D02*
X119959523Y-21994761D01*
X119816666Y-22042380D01*
X119721428Y-22042380D01*
X119578571Y-21994761D01*
X119483333Y-21899523D01*
X119435714Y-21804285D01*
X119388095Y-21613809D01*
X119388095Y-21470952D01*
X119435714Y-21280476D01*
X119483333Y-21185238D01*
X119578571Y-21090000D01*
X119721428Y-21042380D01*
X119816666Y-21042380D01*
X119959523Y-21090000D01*
X120007142Y-21137619D01*
X120959523Y-22042380D02*
X120388095Y-22042380D01*
X120673809Y-22042380D02*
X120673809Y-21042380D01*
X120578571Y-21185238D01*
X120483333Y-21280476D01*
X120388095Y-21328095D01*
X121816666Y-21375714D02*
X121816666Y-22042380D01*
X121578571Y-20994761D02*
X121340476Y-21709047D01*
X121959523Y-21709047D01*
X149852142Y-90527142D02*
X149804523Y-90574761D01*
X149661666Y-90622380D01*
X149566428Y-90622380D01*
X149423571Y-90574761D01*
X149328333Y-90479523D01*
X149280714Y-90384285D01*
X149233095Y-90193809D01*
X149233095Y-90050952D01*
X149280714Y-89860476D01*
X149328333Y-89765238D01*
X149423571Y-89670000D01*
X149566428Y-89622380D01*
X149661666Y-89622380D01*
X149804523Y-89670000D01*
X149852142Y-89717619D01*
X150804523Y-90622380D02*
X150233095Y-90622380D01*
X150518809Y-90622380D02*
X150518809Y-89622380D01*
X150423571Y-89765238D01*
X150328333Y-89860476D01*
X150233095Y-89908095D01*
X151661666Y-89622380D02*
X151471190Y-89622380D01*
X151375952Y-89670000D01*
X151328333Y-89717619D01*
X151233095Y-89860476D01*
X151185476Y-90050952D01*
X151185476Y-90431904D01*
X151233095Y-90527142D01*
X151280714Y-90574761D01*
X151375952Y-90622380D01*
X151566428Y-90622380D01*
X151661666Y-90574761D01*
X151709285Y-90527142D01*
X151756904Y-90431904D01*
X151756904Y-90193809D01*
X151709285Y-90098571D01*
X151661666Y-90050952D01*
X151566428Y-90003333D01*
X151375952Y-90003333D01*
X151280714Y-90050952D01*
X151233095Y-90098571D01*
X151185476Y-90193809D01*
X134612142Y-29567142D02*
X134564523Y-29614761D01*
X134421666Y-29662380D01*
X134326428Y-29662380D01*
X134183571Y-29614761D01*
X134088333Y-29519523D01*
X134040714Y-29424285D01*
X133993095Y-29233809D01*
X133993095Y-29090952D01*
X134040714Y-28900476D01*
X134088333Y-28805238D01*
X134183571Y-28710000D01*
X134326428Y-28662380D01*
X134421666Y-28662380D01*
X134564523Y-28710000D01*
X134612142Y-28757619D01*
X135564523Y-29662380D02*
X134993095Y-29662380D01*
X135278809Y-29662380D02*
X135278809Y-28662380D01*
X135183571Y-28805238D01*
X135088333Y-28900476D01*
X134993095Y-28948095D01*
X135897857Y-28662380D02*
X136564523Y-28662380D01*
X136135952Y-29662380D01*
X139692142Y-29567142D02*
X139644523Y-29614761D01*
X139501666Y-29662380D01*
X139406428Y-29662380D01*
X139263571Y-29614761D01*
X139168333Y-29519523D01*
X139120714Y-29424285D01*
X139073095Y-29233809D01*
X139073095Y-29090952D01*
X139120714Y-28900476D01*
X139168333Y-28805238D01*
X139263571Y-28710000D01*
X139406428Y-28662380D01*
X139501666Y-28662380D01*
X139644523Y-28710000D01*
X139692142Y-28757619D01*
X140644523Y-29662380D02*
X140073095Y-29662380D01*
X140358809Y-29662380D02*
X140358809Y-28662380D01*
X140263571Y-28805238D01*
X140168333Y-28900476D01*
X140073095Y-28948095D01*
X141215952Y-29090952D02*
X141120714Y-29043333D01*
X141073095Y-28995714D01*
X141025476Y-28900476D01*
X141025476Y-28852857D01*
X141073095Y-28757619D01*
X141120714Y-28710000D01*
X141215952Y-28662380D01*
X141406428Y-28662380D01*
X141501666Y-28710000D01*
X141549285Y-28757619D01*
X141596904Y-28852857D01*
X141596904Y-28900476D01*
X141549285Y-28995714D01*
X141501666Y-29043333D01*
X141406428Y-29090952D01*
X141215952Y-29090952D01*
X141120714Y-29138571D01*
X141073095Y-29186190D01*
X141025476Y-29281428D01*
X141025476Y-29471904D01*
X141073095Y-29567142D01*
X141120714Y-29614761D01*
X141215952Y-29662380D01*
X141406428Y-29662380D01*
X141501666Y-29614761D01*
X141549285Y-29567142D01*
X141596904Y-29471904D01*
X141596904Y-29281428D01*
X141549285Y-29186190D01*
X141501666Y-29138571D01*
X141406428Y-29090952D01*
X61491904Y-69032380D02*
X61491904Y-68032380D01*
X61730000Y-68032380D01*
X61872857Y-68080000D01*
X61968095Y-68175238D01*
X62015714Y-68270476D01*
X62063333Y-68460952D01*
X62063333Y-68603809D01*
X62015714Y-68794285D01*
X61968095Y-68889523D01*
X61872857Y-68984761D01*
X61730000Y-69032380D01*
X61491904Y-69032380D01*
X63015714Y-69032380D02*
X62444285Y-69032380D01*
X62730000Y-69032380D02*
X62730000Y-68032380D01*
X62634761Y-68175238D01*
X62539523Y-68270476D01*
X62444285Y-68318095D01*
X63122380Y-75191904D02*
X62122380Y-75191904D01*
X63122380Y-74620476D02*
X62550952Y-75049047D01*
X62122380Y-74620476D02*
X62693809Y-75191904D01*
X55141904Y-70302380D02*
X55141904Y-69302380D01*
X55380000Y-69302380D01*
X55522857Y-69350000D01*
X55618095Y-69445238D01*
X55665714Y-69540476D01*
X55713333Y-69730952D01*
X55713333Y-69873809D01*
X55665714Y-70064285D01*
X55618095Y-70159523D01*
X55522857Y-70254761D01*
X55380000Y-70302380D01*
X55141904Y-70302380D01*
X56094285Y-69397619D02*
X56141904Y-69350000D01*
X56237142Y-69302380D01*
X56475238Y-69302380D01*
X56570476Y-69350000D01*
X56618095Y-69397619D01*
X56665714Y-69492857D01*
X56665714Y-69588095D01*
X56618095Y-69730952D01*
X56046666Y-70302380D01*
X56665714Y-70302380D01*
X56772380Y-75191904D02*
X55772380Y-75191904D01*
X56772380Y-74620476D02*
X56200952Y-75049047D01*
X55772380Y-74620476D02*
X56343809Y-75191904D01*
X72921904Y-67762380D02*
X72921904Y-66762380D01*
X73160000Y-66762380D01*
X73302857Y-66810000D01*
X73398095Y-66905238D01*
X73445714Y-67000476D01*
X73493333Y-67190952D01*
X73493333Y-67333809D01*
X73445714Y-67524285D01*
X73398095Y-67619523D01*
X73302857Y-67714761D01*
X73160000Y-67762380D01*
X72921904Y-67762380D01*
X73826666Y-66762380D02*
X74445714Y-66762380D01*
X74112380Y-67143333D01*
X74255238Y-67143333D01*
X74350476Y-67190952D01*
X74398095Y-67238571D01*
X74445714Y-67333809D01*
X74445714Y-67571904D01*
X74398095Y-67667142D01*
X74350476Y-67714761D01*
X74255238Y-67762380D01*
X73969523Y-67762380D01*
X73874285Y-67714761D01*
X73826666Y-67667142D01*
X73672380Y-62491904D02*
X72672380Y-62491904D01*
X73672380Y-61920476D02*
X73100952Y-62349047D01*
X72672380Y-61920476D02*
X73243809Y-62491904D01*
X53871904Y-67762380D02*
X53871904Y-66762380D01*
X54110000Y-66762380D01*
X54252857Y-66810000D01*
X54348095Y-66905238D01*
X54395714Y-67000476D01*
X54443333Y-67190952D01*
X54443333Y-67333809D01*
X54395714Y-67524285D01*
X54348095Y-67619523D01*
X54252857Y-67714761D01*
X54110000Y-67762380D01*
X53871904Y-67762380D01*
X55300476Y-67095714D02*
X55300476Y-67762380D01*
X55062380Y-66714761D02*
X54824285Y-67429047D01*
X55443333Y-67429047D01*
X54622380Y-62491904D02*
X53622380Y-62491904D01*
X54622380Y-61920476D02*
X54050952Y-62349047D01*
X53622380Y-61920476D02*
X54193809Y-62491904D01*
X61491904Y-52142380D02*
X61491904Y-51142380D01*
X61730000Y-51142380D01*
X61872857Y-51190000D01*
X61968095Y-51285238D01*
X62015714Y-51380476D01*
X62063333Y-51570952D01*
X62063333Y-51713809D01*
X62015714Y-51904285D01*
X61968095Y-51999523D01*
X61872857Y-52094761D01*
X61730000Y-52142380D01*
X61491904Y-52142380D01*
X62968095Y-51142380D02*
X62491904Y-51142380D01*
X62444285Y-51618571D01*
X62491904Y-51570952D01*
X62587142Y-51523333D01*
X62825238Y-51523333D01*
X62920476Y-51570952D01*
X62968095Y-51618571D01*
X63015714Y-51713809D01*
X63015714Y-51951904D01*
X62968095Y-52047142D01*
X62920476Y-52094761D01*
X62825238Y-52142380D01*
X62587142Y-52142380D01*
X62491904Y-52094761D01*
X62444285Y-52047142D01*
X54348095Y-52862380D02*
X54348095Y-51862380D01*
X54919523Y-52862380D02*
X54490952Y-52290952D01*
X54919523Y-51862380D02*
X54348095Y-52433809D01*
X112696666Y-58082380D02*
X112696666Y-58796666D01*
X112649047Y-58939523D01*
X112553809Y-59034761D01*
X112410952Y-59082380D01*
X112315714Y-59082380D01*
X113125238Y-58177619D02*
X113172857Y-58130000D01*
X113268095Y-58082380D01*
X113506190Y-58082380D01*
X113601428Y-58130000D01*
X113649047Y-58177619D01*
X113696666Y-58272857D01*
X113696666Y-58368095D01*
X113649047Y-58510952D01*
X113077619Y-59082380D01*
X113696666Y-59082380D01*
X76501666Y-21042380D02*
X76501666Y-21756666D01*
X76454047Y-21899523D01*
X76358809Y-21994761D01*
X76215952Y-22042380D01*
X76120714Y-22042380D01*
X76882619Y-21042380D02*
X77501666Y-21042380D01*
X77168333Y-21423333D01*
X77311190Y-21423333D01*
X77406428Y-21470952D01*
X77454047Y-21518571D01*
X77501666Y-21613809D01*
X77501666Y-21851904D01*
X77454047Y-21947142D01*
X77406428Y-21994761D01*
X77311190Y-22042380D01*
X77025476Y-22042380D01*
X76930238Y-21994761D01*
X76882619Y-21947142D01*
X76501666Y-32472380D02*
X76501666Y-33186666D01*
X76454047Y-33329523D01*
X76358809Y-33424761D01*
X76215952Y-33472380D01*
X76120714Y-33472380D01*
X77406428Y-32805714D02*
X77406428Y-33472380D01*
X77168333Y-32424761D02*
X76930238Y-33139047D01*
X77549285Y-33139047D01*
X95551666Y-20812380D02*
X95551666Y-21526666D01*
X95504047Y-21669523D01*
X95408809Y-21764761D01*
X95265952Y-21812380D01*
X95170714Y-21812380D01*
X96504047Y-20812380D02*
X96027857Y-20812380D01*
X95980238Y-21288571D01*
X96027857Y-21240952D01*
X96123095Y-21193333D01*
X96361190Y-21193333D01*
X96456428Y-21240952D01*
X96504047Y-21288571D01*
X96551666Y-21383809D01*
X96551666Y-21621904D01*
X96504047Y-21717142D01*
X96456428Y-21764761D01*
X96361190Y-21812380D01*
X96123095Y-21812380D01*
X96027857Y-21764761D01*
X95980238Y-21717142D01*
X95551666Y-32242380D02*
X95551666Y-32956666D01*
X95504047Y-33099523D01*
X95408809Y-33194761D01*
X95265952Y-33242380D01*
X95170714Y-33242380D01*
X96456428Y-32242380D02*
X96265952Y-32242380D01*
X96170714Y-32290000D01*
X96123095Y-32337619D01*
X96027857Y-32480476D01*
X95980238Y-32670952D01*
X95980238Y-33051904D01*
X96027857Y-33147142D01*
X96075476Y-33194761D01*
X96170714Y-33242380D01*
X96361190Y-33242380D01*
X96456428Y-33194761D01*
X96504047Y-33147142D01*
X96551666Y-33051904D01*
X96551666Y-32813809D01*
X96504047Y-32718571D01*
X96456428Y-32670952D01*
X96361190Y-32623333D01*
X96170714Y-32623333D01*
X96075476Y-32670952D01*
X96027857Y-32718571D01*
X95980238Y-32813809D01*
X146986666Y-78192380D02*
X146986666Y-78906666D01*
X146939047Y-79049523D01*
X146843809Y-79144761D01*
X146700952Y-79192380D01*
X146605714Y-79192380D01*
X147367619Y-78192380D02*
X148034285Y-78192380D01*
X147605714Y-79192380D01*
X129841666Y-28432380D02*
X129841666Y-29146666D01*
X129794047Y-29289523D01*
X129698809Y-29384761D01*
X129555952Y-29432380D01*
X129460714Y-29432380D01*
X130365476Y-29432380D02*
X130555952Y-29432380D01*
X130651190Y-29384761D01*
X130698809Y-29337142D01*
X130794047Y-29194285D01*
X130841666Y-29003809D01*
X130841666Y-28622857D01*
X130794047Y-28527619D01*
X130746428Y-28480000D01*
X130651190Y-28432380D01*
X130460714Y-28432380D01*
X130365476Y-28480000D01*
X130317857Y-28527619D01*
X130270238Y-28622857D01*
X130270238Y-28860952D01*
X130317857Y-28956190D01*
X130365476Y-29003809D01*
X130460714Y-29051428D01*
X130651190Y-29051428D01*
X130746428Y-29003809D01*
X130794047Y-28956190D01*
X130841666Y-28860952D01*
X132540476Y-92162380D02*
X132540476Y-92876666D01*
X132492857Y-93019523D01*
X132397619Y-93114761D01*
X132254761Y-93162380D01*
X132159523Y-93162380D01*
X133540476Y-93162380D02*
X132969047Y-93162380D01*
X133254761Y-93162380D02*
X133254761Y-92162380D01*
X133159523Y-92305238D01*
X133064285Y-92400476D01*
X132969047Y-92448095D01*
X134159523Y-92162380D02*
X134254761Y-92162380D01*
X134350000Y-92210000D01*
X134397619Y-92257619D01*
X134445238Y-92352857D01*
X134492857Y-92543333D01*
X134492857Y-92781428D01*
X134445238Y-92971904D01*
X134397619Y-93067142D01*
X134350000Y-93114761D01*
X134254761Y-93162380D01*
X134159523Y-93162380D01*
X134064285Y-93114761D01*
X134016666Y-93067142D01*
X133969047Y-92971904D01*
X133921428Y-92781428D01*
X133921428Y-92543333D01*
X133969047Y-92352857D01*
X134016666Y-92257619D01*
X134064285Y-92210000D01*
X134159523Y-92162380D01*
X153495476Y-98512380D02*
X153495476Y-99226666D01*
X153447857Y-99369523D01*
X153352619Y-99464761D01*
X153209761Y-99512380D01*
X153114523Y-99512380D01*
X154495476Y-99512380D02*
X153924047Y-99512380D01*
X154209761Y-99512380D02*
X154209761Y-98512380D01*
X154114523Y-98655238D01*
X154019285Y-98750476D01*
X153924047Y-98798095D01*
X155447857Y-99512380D02*
X154876428Y-99512380D01*
X155162142Y-99512380D02*
X155162142Y-98512380D01*
X155066904Y-98655238D01*
X154971666Y-98750476D01*
X154876428Y-98798095D01*
X93432380Y-51609523D02*
X94146666Y-51609523D01*
X94289523Y-51657142D01*
X94384761Y-51752380D01*
X94432380Y-51895238D01*
X94432380Y-51990476D01*
X94432380Y-50609523D02*
X94432380Y-51180952D01*
X94432380Y-50895238D02*
X93432380Y-50895238D01*
X93575238Y-50990476D01*
X93670476Y-51085714D01*
X93718095Y-51180952D01*
X93527619Y-50228571D02*
X93480000Y-50180952D01*
X93432380Y-50085714D01*
X93432380Y-49847619D01*
X93480000Y-49752380D01*
X93527619Y-49704761D01*
X93622857Y-49657142D01*
X93718095Y-49657142D01*
X93860952Y-49704761D01*
X94432380Y-50276190D01*
X94432380Y-49657142D01*
X109518333Y-51252380D02*
X109185000Y-50776190D01*
X108946904Y-51252380D02*
X108946904Y-50252380D01*
X109327857Y-50252380D01*
X109423095Y-50300000D01*
X109470714Y-50347619D01*
X109518333Y-50442857D01*
X109518333Y-50585714D01*
X109470714Y-50680952D01*
X109423095Y-50728571D01*
X109327857Y-50776190D01*
X108946904Y-50776190D01*
X110470714Y-51252380D02*
X109899285Y-51252380D01*
X110185000Y-51252380D02*
X110185000Y-50252380D01*
X110089761Y-50395238D01*
X109994523Y-50490476D01*
X109899285Y-50538095D01*
X97313809Y-75541190D02*
X97313809Y-76017380D01*
X96980476Y-75017380D02*
X97313809Y-75541190D01*
X97647142Y-75017380D01*
X98504285Y-76017380D02*
X97932857Y-76017380D01*
X98218571Y-76017380D02*
X98218571Y-75017380D01*
X98123333Y-75160238D01*
X98028095Y-75255476D01*
X97932857Y-75303095D01*
X117943333Y-96972380D02*
X117610000Y-96496190D01*
X117371904Y-96972380D02*
X117371904Y-95972380D01*
X117752857Y-95972380D01*
X117848095Y-96020000D01*
X117895714Y-96067619D01*
X117943333Y-96162857D01*
X117943333Y-96305714D01*
X117895714Y-96400952D01*
X117848095Y-96448571D01*
X117752857Y-96496190D01*
X117371904Y-96496190D01*
X118324285Y-96067619D02*
X118371904Y-96020000D01*
X118467142Y-95972380D01*
X118705238Y-95972380D01*
X118800476Y-96020000D01*
X118848095Y-96067619D01*
X118895714Y-96162857D01*
X118895714Y-96258095D01*
X118848095Y-96400952D01*
X118276666Y-96972380D01*
X118895714Y-96972380D01*
X116744761Y-39667619D02*
X116649523Y-39620000D01*
X116554285Y-39524761D01*
X116411428Y-39381904D01*
X116316190Y-39334285D01*
X116220952Y-39334285D01*
X116268571Y-39572380D02*
X116173333Y-39524761D01*
X116078095Y-39429523D01*
X116030476Y-39239047D01*
X116030476Y-38905714D01*
X116078095Y-38715238D01*
X116173333Y-38620000D01*
X116268571Y-38572380D01*
X116459047Y-38572380D01*
X116554285Y-38620000D01*
X116649523Y-38715238D01*
X116697142Y-38905714D01*
X116697142Y-39239047D01*
X116649523Y-39429523D01*
X116554285Y-39524761D01*
X116459047Y-39572380D01*
X116268571Y-39572380D01*
X117649523Y-39572380D02*
X117078095Y-39572380D01*
X117363809Y-39572380D02*
X117363809Y-38572380D01*
X117268571Y-38715238D01*
X117173333Y-38810476D01*
X117078095Y-38858095D01*
X116744761Y-32297619D02*
X116649523Y-32250000D01*
X116554285Y-32154761D01*
X116411428Y-32011904D01*
X116316190Y-31964285D01*
X116220952Y-31964285D01*
X116268571Y-32202380D02*
X116173333Y-32154761D01*
X116078095Y-32059523D01*
X116030476Y-31869047D01*
X116030476Y-31535714D01*
X116078095Y-31345238D01*
X116173333Y-31250000D01*
X116268571Y-31202380D01*
X116459047Y-31202380D01*
X116554285Y-31250000D01*
X116649523Y-31345238D01*
X116697142Y-31535714D01*
X116697142Y-31869047D01*
X116649523Y-32059523D01*
X116554285Y-32154761D01*
X116459047Y-32202380D01*
X116268571Y-32202380D01*
X117078095Y-31297619D02*
X117125714Y-31250000D01*
X117220952Y-31202380D01*
X117459047Y-31202380D01*
X117554285Y-31250000D01*
X117601904Y-31297619D01*
X117649523Y-31392857D01*
X117649523Y-31488095D01*
X117601904Y-31630952D01*
X117030476Y-32202380D01*
X117649523Y-32202380D01*
X114133333Y-48712380D02*
X113800000Y-48236190D01*
X113561904Y-48712380D02*
X113561904Y-47712380D01*
X113942857Y-47712380D01*
X114038095Y-47760000D01*
X114085714Y-47807619D01*
X114133333Y-47902857D01*
X114133333Y-48045714D01*
X114085714Y-48140952D01*
X114038095Y-48188571D01*
X113942857Y-48236190D01*
X113561904Y-48236190D01*
X114466666Y-47712380D02*
X115085714Y-47712380D01*
X114752380Y-48093333D01*
X114895238Y-48093333D01*
X114990476Y-48140952D01*
X115038095Y-48188571D01*
X115085714Y-48283809D01*
X115085714Y-48521904D01*
X115038095Y-48617142D01*
X114990476Y-48664761D01*
X114895238Y-48712380D01*
X114609523Y-48712380D01*
X114514285Y-48664761D01*
X114466666Y-48617142D01*
X114133333Y-41092380D02*
X113800000Y-40616190D01*
X113561904Y-41092380D02*
X113561904Y-40092380D01*
X113942857Y-40092380D01*
X114038095Y-40140000D01*
X114085714Y-40187619D01*
X114133333Y-40282857D01*
X114133333Y-40425714D01*
X114085714Y-40520952D01*
X114038095Y-40568571D01*
X113942857Y-40616190D01*
X113561904Y-40616190D01*
X114990476Y-40425714D02*
X114990476Y-41092380D01*
X114752380Y-40044761D02*
X114514285Y-40759047D01*
X115133333Y-40759047D01*
X81907142Y-45442142D02*
X81859523Y-45489761D01*
X81716666Y-45537380D01*
X81621428Y-45537380D01*
X81478571Y-45489761D01*
X81383333Y-45394523D01*
X81335714Y-45299285D01*
X81288095Y-45108809D01*
X81288095Y-44965952D01*
X81335714Y-44775476D01*
X81383333Y-44680238D01*
X81478571Y-44585000D01*
X81621428Y-44537380D01*
X81716666Y-44537380D01*
X81859523Y-44585000D01*
X81907142Y-44632619D01*
X82859523Y-45537380D02*
X82288095Y-45537380D01*
X82573809Y-45537380D02*
X82573809Y-44537380D01*
X82478571Y-44680238D01*
X82383333Y-44775476D01*
X82288095Y-44823095D01*
X83335714Y-45537380D02*
X83526190Y-45537380D01*
X83621428Y-45489761D01*
X83669047Y-45442142D01*
X83764285Y-45299285D01*
X83811904Y-45108809D01*
X83811904Y-44727857D01*
X83764285Y-44632619D01*
X83716666Y-44585000D01*
X83621428Y-44537380D01*
X83430952Y-44537380D01*
X83335714Y-44585000D01*
X83288095Y-44632619D01*
X83240476Y-44727857D01*
X83240476Y-44965952D01*
X83288095Y-45061190D01*
X83335714Y-45108809D01*
X83430952Y-45156428D01*
X83621428Y-45156428D01*
X83716666Y-45108809D01*
X83764285Y-45061190D01*
X83811904Y-44965952D01*
X121110476Y-58912380D02*
X121110476Y-59626666D01*
X121062857Y-59769523D01*
X120967619Y-59864761D01*
X120824761Y-59912380D01*
X120729523Y-59912380D01*
X122110476Y-59912380D02*
X121539047Y-59912380D01*
X121824761Y-59912380D02*
X121824761Y-58912380D01*
X121729523Y-59055238D01*
X121634285Y-59150476D01*
X121539047Y-59198095D01*
X122443809Y-58912380D02*
X123062857Y-58912380D01*
X122729523Y-59293333D01*
X122872380Y-59293333D01*
X122967619Y-59340952D01*
X123015238Y-59388571D01*
X123062857Y-59483809D01*
X123062857Y-59721904D01*
X123015238Y-59817142D01*
X122967619Y-59864761D01*
X122872380Y-59912380D01*
X122586666Y-59912380D01*
X122491428Y-59864761D01*
X122443809Y-59817142D01*
M02*
