G04 #@! TF.GenerationSoftware,KiCad,Pcbnew,(5.1.2)-1*
G04 #@! TF.CreationDate,2020-01-29T21:10:47+02:00*
G04 #@! TF.ProjectId,PCB,5043422e-6b69-4636-9164-5f7063625858,rev?*
G04 #@! TF.SameCoordinates,Original*
G04 #@! TF.FileFunction,Soldermask,Top*
G04 #@! TF.FilePolarity,Negative*
%FSLAX46Y46*%
G04 Gerber Fmt 4.6, Leading zero omitted, Abs format (unit mm)*
G04 Created by KiCad (PCBNEW (5.1.2)-1) date 2020-01-29 21:10:47*
%MOMM*%
%LPD*%
G04 APERTURE LIST*
%ADD10C,0.100000*%
G04 APERTURE END LIST*
D10*
G36*
X136634098Y-96607033D02*
G01*
X137098350Y-96799332D01*
X137098352Y-96799333D01*
X137516168Y-97078509D01*
X137871491Y-97433832D01*
X138038663Y-97684023D01*
X138150668Y-97851650D01*
X138342967Y-98315902D01*
X138441000Y-98808747D01*
X138441000Y-99311253D01*
X138342967Y-99804098D01*
X138221093Y-100098329D01*
X138150667Y-100268352D01*
X137871491Y-100686168D01*
X137516168Y-101041491D01*
X137098352Y-101320667D01*
X137098351Y-101320668D01*
X137098350Y-101320668D01*
X136634098Y-101512967D01*
X136141253Y-101611000D01*
X135638747Y-101611000D01*
X135145902Y-101512967D01*
X134681650Y-101320668D01*
X134681649Y-101320668D01*
X134681648Y-101320667D01*
X134263832Y-101041491D01*
X133908509Y-100686168D01*
X133629333Y-100268352D01*
X133558907Y-100098329D01*
X133437033Y-99804098D01*
X133339000Y-99311253D01*
X133339000Y-98808747D01*
X133437033Y-98315902D01*
X133629332Y-97851650D01*
X133741337Y-97684023D01*
X133908509Y-97433832D01*
X134263832Y-97078509D01*
X134681648Y-96799333D01*
X134681650Y-96799332D01*
X135145902Y-96607033D01*
X135638747Y-96509000D01*
X136141253Y-96509000D01*
X136634098Y-96607033D01*
X136634098Y-96607033D01*
G37*
G36*
X51544098Y-96607033D02*
G01*
X52008350Y-96799332D01*
X52008352Y-96799333D01*
X52426168Y-97078509D01*
X52781491Y-97433832D01*
X52948663Y-97684023D01*
X53060668Y-97851650D01*
X53252967Y-98315902D01*
X53351000Y-98808747D01*
X53351000Y-99311253D01*
X53252967Y-99804098D01*
X53131093Y-100098329D01*
X53060667Y-100268352D01*
X52781491Y-100686168D01*
X52426168Y-101041491D01*
X52008352Y-101320667D01*
X52008351Y-101320668D01*
X52008350Y-101320668D01*
X51544098Y-101512967D01*
X51051253Y-101611000D01*
X50548747Y-101611000D01*
X50055902Y-101512967D01*
X49591650Y-101320668D01*
X49591649Y-101320668D01*
X49591648Y-101320667D01*
X49173832Y-101041491D01*
X48818509Y-100686168D01*
X48539333Y-100268352D01*
X48468907Y-100098329D01*
X48347033Y-99804098D01*
X48249000Y-99311253D01*
X48249000Y-98808747D01*
X48347033Y-98315902D01*
X48539332Y-97851650D01*
X48651337Y-97684023D01*
X48818509Y-97433832D01*
X49173832Y-97078509D01*
X49591648Y-96799333D01*
X49591650Y-96799332D01*
X50055902Y-96607033D01*
X50548747Y-96509000D01*
X51051253Y-96509000D01*
X51544098Y-96607033D01*
X51544098Y-96607033D01*
G37*
G36*
X144971560Y-99169064D02*
G01*
X145123027Y-99199193D01*
X145337045Y-99287842D01*
X145367556Y-99308229D01*
X145529654Y-99416539D01*
X145693461Y-99580346D01*
X145749797Y-99664659D01*
X145822158Y-99772955D01*
X145910807Y-99986973D01*
X145956000Y-100214174D01*
X145956000Y-100445826D01*
X145910807Y-100673027D01*
X145822158Y-100887045D01*
X145822157Y-100887046D01*
X145693461Y-101079654D01*
X145529654Y-101243461D01*
X145414105Y-101320668D01*
X145337045Y-101372158D01*
X145123027Y-101460807D01*
X144971560Y-101490936D01*
X144895827Y-101506000D01*
X144664173Y-101506000D01*
X144588440Y-101490936D01*
X144436973Y-101460807D01*
X144222955Y-101372158D01*
X144145895Y-101320668D01*
X144030346Y-101243461D01*
X143866539Y-101079654D01*
X143737843Y-100887046D01*
X143737842Y-100887045D01*
X143649193Y-100673027D01*
X143604000Y-100445826D01*
X143604000Y-100214174D01*
X143649193Y-99986973D01*
X143737842Y-99772955D01*
X143810203Y-99664659D01*
X143866539Y-99580346D01*
X144030346Y-99416539D01*
X144192444Y-99308229D01*
X144222955Y-99287842D01*
X144436973Y-99199193D01*
X144588440Y-99169064D01*
X144664173Y-99154000D01*
X144895827Y-99154000D01*
X144971560Y-99169064D01*
X144971560Y-99169064D01*
G37*
G36*
X150051560Y-99169064D02*
G01*
X150203027Y-99199193D01*
X150417045Y-99287842D01*
X150447556Y-99308229D01*
X150609654Y-99416539D01*
X150773461Y-99580346D01*
X150829797Y-99664659D01*
X150902158Y-99772955D01*
X150990807Y-99986973D01*
X151036000Y-100214174D01*
X151036000Y-100445826D01*
X150990807Y-100673027D01*
X150902158Y-100887045D01*
X150902157Y-100887046D01*
X150773461Y-101079654D01*
X150609654Y-101243461D01*
X150494105Y-101320668D01*
X150417045Y-101372158D01*
X150203027Y-101460807D01*
X150051560Y-101490936D01*
X149975827Y-101506000D01*
X149744173Y-101506000D01*
X149668440Y-101490936D01*
X149516973Y-101460807D01*
X149302955Y-101372158D01*
X149225895Y-101320668D01*
X149110346Y-101243461D01*
X148946539Y-101079654D01*
X148817843Y-100887046D01*
X148817842Y-100887045D01*
X148729193Y-100673027D01*
X148684000Y-100445826D01*
X148684000Y-100214174D01*
X148729193Y-99986973D01*
X148817842Y-99772955D01*
X148890203Y-99664659D01*
X148946539Y-99580346D01*
X149110346Y-99416539D01*
X149272444Y-99308229D01*
X149302955Y-99287842D01*
X149516973Y-99199193D01*
X149668440Y-99169064D01*
X149744173Y-99154000D01*
X149975827Y-99154000D01*
X150051560Y-99169064D01*
X150051560Y-99169064D01*
G37*
G36*
X118358228Y-98241703D02*
G01*
X118513100Y-98305853D01*
X118652481Y-98398985D01*
X118771015Y-98517519D01*
X118864147Y-98656900D01*
X118928297Y-98811772D01*
X118961000Y-98976184D01*
X118961000Y-99143816D01*
X118928297Y-99308228D01*
X118864147Y-99463100D01*
X118771015Y-99602481D01*
X118652481Y-99721015D01*
X118513100Y-99814147D01*
X118358228Y-99878297D01*
X118193816Y-99911000D01*
X118026184Y-99911000D01*
X117861772Y-99878297D01*
X117706900Y-99814147D01*
X117567519Y-99721015D01*
X117448985Y-99602481D01*
X117355853Y-99463100D01*
X117291703Y-99308228D01*
X117259000Y-99143816D01*
X117259000Y-98976184D01*
X117291703Y-98811772D01*
X117355853Y-98656900D01*
X117448985Y-98517519D01*
X117567519Y-98398985D01*
X117706900Y-98305853D01*
X117861772Y-98241703D01*
X118026184Y-98209000D01*
X118193816Y-98209000D01*
X118358228Y-98241703D01*
X118358228Y-98241703D01*
G37*
G36*
X108116823Y-98221313D02*
G01*
X108277242Y-98269976D01*
X108363163Y-98315902D01*
X108425078Y-98348996D01*
X108554659Y-98455341D01*
X108661004Y-98584922D01*
X108661005Y-98584924D01*
X108740024Y-98732758D01*
X108788687Y-98893177D01*
X108805117Y-99060000D01*
X108788687Y-99226823D01*
X108740024Y-99387242D01*
X108683138Y-99493668D01*
X108661004Y-99535078D01*
X108554659Y-99664659D01*
X108425078Y-99771004D01*
X108425076Y-99771005D01*
X108277242Y-99850024D01*
X108116823Y-99898687D01*
X107991804Y-99911000D01*
X107908196Y-99911000D01*
X107783177Y-99898687D01*
X107622758Y-99850024D01*
X107474924Y-99771005D01*
X107474922Y-99771004D01*
X107345341Y-99664659D01*
X107238996Y-99535078D01*
X107216862Y-99493668D01*
X107159976Y-99387242D01*
X107111313Y-99226823D01*
X107094883Y-99060000D01*
X107111313Y-98893177D01*
X107159976Y-98732758D01*
X107238995Y-98584924D01*
X107238996Y-98584922D01*
X107345341Y-98455341D01*
X107474922Y-98348996D01*
X107536837Y-98315902D01*
X107622758Y-98269976D01*
X107783177Y-98221313D01*
X107908196Y-98209000D01*
X107991804Y-98209000D01*
X108116823Y-98221313D01*
X108116823Y-98221313D01*
G37*
G36*
X100438410Y-98365525D02*
G01*
X100523426Y-98391314D01*
X100601775Y-98433193D01*
X100670449Y-98489551D01*
X100726807Y-98558225D01*
X100768686Y-98636574D01*
X100794475Y-98721590D01*
X100801000Y-98787842D01*
X100801000Y-99332158D01*
X100794475Y-99398410D01*
X100768686Y-99483426D01*
X100726807Y-99561775D01*
X100670449Y-99630448D01*
X100601774Y-99686807D01*
X100523425Y-99728686D01*
X100438409Y-99754475D01*
X100350000Y-99763182D01*
X100261590Y-99754475D01*
X100176574Y-99728686D01*
X100098225Y-99686807D01*
X100029552Y-99630449D01*
X99973193Y-99561774D01*
X99931314Y-99483425D01*
X99905525Y-99398409D01*
X99899000Y-99332157D01*
X99899000Y-98787842D01*
X99905525Y-98721590D01*
X99931313Y-98636577D01*
X99973195Y-98558224D01*
X100029552Y-98489551D01*
X100098226Y-98433193D01*
X100176575Y-98391314D01*
X100261591Y-98365525D01*
X100350000Y-98356818D01*
X100438410Y-98365525D01*
X100438410Y-98365525D01*
G37*
G36*
X101919683Y-98362725D02*
G01*
X101950143Y-98371966D01*
X101978223Y-98386974D01*
X102002831Y-98407169D01*
X102023026Y-98431777D01*
X102038034Y-98459857D01*
X102047275Y-98490317D01*
X102051000Y-98528140D01*
X102051000Y-99591860D01*
X102047275Y-99629683D01*
X102038034Y-99660143D01*
X102023026Y-99688223D01*
X102002831Y-99712831D01*
X101978223Y-99733026D01*
X101950143Y-99748034D01*
X101919683Y-99757275D01*
X101881860Y-99761000D01*
X101318140Y-99761000D01*
X101280317Y-99757275D01*
X101249857Y-99748034D01*
X101221777Y-99733026D01*
X101197169Y-99712831D01*
X101176974Y-99688223D01*
X101161966Y-99660143D01*
X101152725Y-99629683D01*
X101149000Y-99591860D01*
X101149000Y-98528140D01*
X101152725Y-98490317D01*
X101161966Y-98459857D01*
X101176974Y-98431777D01*
X101197169Y-98407169D01*
X101221777Y-98386974D01*
X101249857Y-98371966D01*
X101280317Y-98362725D01*
X101318140Y-98359000D01*
X101881860Y-98359000D01*
X101919683Y-98362725D01*
X101919683Y-98362725D01*
G37*
G36*
X147495271Y-96727783D02*
G01*
X147633858Y-96755350D01*
X147829677Y-96836461D01*
X148005910Y-96954216D01*
X148155784Y-97104090D01*
X148273539Y-97280323D01*
X148354650Y-97476142D01*
X148396000Y-97684023D01*
X148396000Y-97895977D01*
X148354650Y-98103858D01*
X148273539Y-98299677D01*
X148155784Y-98475910D01*
X148005910Y-98625784D01*
X147829677Y-98743539D01*
X147633858Y-98824650D01*
X147495271Y-98852217D01*
X147425978Y-98866000D01*
X147214022Y-98866000D01*
X147144729Y-98852217D01*
X147006142Y-98824650D01*
X146810323Y-98743539D01*
X146634090Y-98625784D01*
X146484216Y-98475910D01*
X146366461Y-98299677D01*
X146285350Y-98103858D01*
X146244000Y-97895977D01*
X146244000Y-97684023D01*
X146285350Y-97476142D01*
X146366461Y-97280323D01*
X146484216Y-97104090D01*
X146634090Y-96954216D01*
X146810323Y-96836461D01*
X147006142Y-96755350D01*
X147144729Y-96727783D01*
X147214022Y-96714000D01*
X147425978Y-96714000D01*
X147495271Y-96727783D01*
X147495271Y-96727783D01*
G37*
G36*
X58924730Y-94442599D02*
G01*
X59232179Y-94535863D01*
X59515518Y-94687311D01*
X59763871Y-94891129D01*
X59967689Y-95139482D01*
X60119137Y-95422821D01*
X60212401Y-95730270D01*
X60236000Y-95969879D01*
X60236000Y-97070122D01*
X60212401Y-97309730D01*
X60119137Y-97617179D01*
X59967691Y-97900514D01*
X59967688Y-97900519D01*
X59763871Y-98148871D01*
X59515518Y-98352688D01*
X59515514Y-98352691D01*
X59232178Y-98504137D01*
X58924729Y-98597401D01*
X58605000Y-98628891D01*
X58285270Y-98597401D01*
X57977821Y-98504137D01*
X57694482Y-98352689D01*
X57534400Y-98221313D01*
X57446129Y-98148871D01*
X57242312Y-97900518D01*
X57242311Y-97900517D01*
X57242309Y-97900514D01*
X57090863Y-97617178D01*
X56997599Y-97309729D01*
X56974000Y-97070121D01*
X56974000Y-95969878D01*
X56997599Y-95730270D01*
X57090863Y-95422821D01*
X57171180Y-95272559D01*
X57242312Y-95139481D01*
X57446130Y-94891129D01*
X57694482Y-94687312D01*
X57694481Y-94687312D01*
X57694483Y-94687311D01*
X57977822Y-94535863D01*
X58285271Y-94442599D01*
X58605000Y-94411109D01*
X58924730Y-94442599D01*
X58924730Y-94442599D01*
G37*
G36*
X62884730Y-94442599D02*
G01*
X63192179Y-94535863D01*
X63475518Y-94687311D01*
X63723871Y-94891129D01*
X63927689Y-95139482D01*
X64079137Y-95422821D01*
X64172401Y-95730270D01*
X64196000Y-95969879D01*
X64196000Y-97070122D01*
X64172401Y-97309730D01*
X64079137Y-97617179D01*
X63927691Y-97900514D01*
X63927688Y-97900519D01*
X63723871Y-98148871D01*
X63475518Y-98352688D01*
X63475514Y-98352691D01*
X63192178Y-98504137D01*
X62884729Y-98597401D01*
X62565000Y-98628891D01*
X62245270Y-98597401D01*
X61937821Y-98504137D01*
X61654482Y-98352689D01*
X61494400Y-98221313D01*
X61406129Y-98148871D01*
X61202312Y-97900518D01*
X61202311Y-97900517D01*
X61202309Y-97900514D01*
X61050863Y-97617178D01*
X60957599Y-97309729D01*
X60934000Y-97070121D01*
X60934000Y-95969878D01*
X60957599Y-95730270D01*
X61050863Y-95422821D01*
X61131180Y-95272559D01*
X61202312Y-95139481D01*
X61406130Y-94891129D01*
X61654482Y-94687312D01*
X61654481Y-94687312D01*
X61654483Y-94687311D01*
X61937822Y-94535863D01*
X62245271Y-94442599D01*
X62565000Y-94411109D01*
X62884730Y-94442599D01*
X62884730Y-94442599D01*
G37*
G36*
X66844730Y-94442599D02*
G01*
X67152179Y-94535863D01*
X67435518Y-94687311D01*
X67683871Y-94891129D01*
X67887689Y-95139482D01*
X68039137Y-95422821D01*
X68132401Y-95730270D01*
X68156000Y-95969879D01*
X68156000Y-97070122D01*
X68132401Y-97309730D01*
X68039137Y-97617179D01*
X67887691Y-97900514D01*
X67887688Y-97900519D01*
X67683871Y-98148871D01*
X67435518Y-98352688D01*
X67435514Y-98352691D01*
X67152178Y-98504137D01*
X66844729Y-98597401D01*
X66525000Y-98628891D01*
X66205270Y-98597401D01*
X65897821Y-98504137D01*
X65614482Y-98352689D01*
X65454400Y-98221313D01*
X65366129Y-98148871D01*
X65162312Y-97900518D01*
X65162311Y-97900517D01*
X65162309Y-97900514D01*
X65010863Y-97617178D01*
X64917599Y-97309729D01*
X64894000Y-97070121D01*
X64894000Y-95969878D01*
X64917599Y-95730270D01*
X65010863Y-95422821D01*
X65091180Y-95272559D01*
X65162312Y-95139481D01*
X65366130Y-94891129D01*
X65614482Y-94687312D01*
X65614481Y-94687312D01*
X65614483Y-94687311D01*
X65897822Y-94535863D01*
X66205271Y-94442599D01*
X66525000Y-94411109D01*
X66844730Y-94442599D01*
X66844730Y-94442599D01*
G37*
G36*
X71992850Y-94422530D02*
G01*
X72021413Y-94431194D01*
X72047734Y-94445263D01*
X72070804Y-94464196D01*
X72089737Y-94487266D01*
X72103806Y-94513587D01*
X72112470Y-94542150D01*
X72116000Y-94577990D01*
X72116000Y-98462010D01*
X72112470Y-98497850D01*
X72103806Y-98526413D01*
X72089737Y-98552734D01*
X72070804Y-98575804D01*
X72047734Y-98594737D01*
X72021413Y-98608806D01*
X71992850Y-98617470D01*
X71957010Y-98621000D01*
X69012990Y-98621000D01*
X68977150Y-98617470D01*
X68948587Y-98608806D01*
X68922266Y-98594737D01*
X68899196Y-98575804D01*
X68880263Y-98552734D01*
X68866194Y-98526413D01*
X68857530Y-98497850D01*
X68854000Y-98462010D01*
X68854000Y-94577990D01*
X68857530Y-94542150D01*
X68866194Y-94513587D01*
X68880263Y-94487266D01*
X68899196Y-94464196D01*
X68922266Y-94445263D01*
X68948587Y-94431194D01*
X68977150Y-94422530D01*
X69012990Y-94419000D01*
X71957010Y-94419000D01*
X71992850Y-94422530D01*
X71992850Y-94422530D01*
G37*
G36*
X165036905Y-94533694D02*
G01*
X165212410Y-94568604D01*
X165494674Y-94685521D01*
X165748705Y-94855259D01*
X165964741Y-95071295D01*
X166134479Y-95325326D01*
X166251396Y-95607590D01*
X166311000Y-95907240D01*
X166311000Y-96212760D01*
X166251396Y-96512410D01*
X166134479Y-96794674D01*
X165964741Y-97048705D01*
X165748705Y-97264741D01*
X165494674Y-97434479D01*
X165212410Y-97551396D01*
X165062585Y-97581198D01*
X164912761Y-97611000D01*
X164607239Y-97611000D01*
X164457415Y-97581198D01*
X164307590Y-97551396D01*
X164025326Y-97434479D01*
X163771295Y-97264741D01*
X163555259Y-97048705D01*
X163385521Y-96794674D01*
X163268604Y-96512410D01*
X163209000Y-96212760D01*
X163209000Y-95907240D01*
X163268604Y-95607590D01*
X163385521Y-95325326D01*
X163555259Y-95071295D01*
X163771295Y-94855259D01*
X164025326Y-94685521D01*
X164307590Y-94568604D01*
X164483095Y-94533694D01*
X164607239Y-94509000D01*
X164912761Y-94509000D01*
X165036905Y-94533694D01*
X165036905Y-94533694D01*
G37*
G36*
X150051560Y-94089064D02*
G01*
X150203027Y-94119193D01*
X150417045Y-94207842D01*
X150417046Y-94207843D01*
X150609654Y-94336539D01*
X150773461Y-94500346D01*
X150845028Y-94607454D01*
X150902158Y-94692955D01*
X150990807Y-94906973D01*
X151036000Y-95134174D01*
X151036000Y-95365826D01*
X150990807Y-95593027D01*
X150902158Y-95807045D01*
X150902157Y-95807046D01*
X150773461Y-95999654D01*
X150609654Y-96163461D01*
X150535871Y-96212761D01*
X150417045Y-96292158D01*
X150203027Y-96380807D01*
X150051560Y-96410936D01*
X149975827Y-96426000D01*
X149744173Y-96426000D01*
X149668440Y-96410936D01*
X149516973Y-96380807D01*
X149302955Y-96292158D01*
X149184129Y-96212761D01*
X149110346Y-96163461D01*
X148946539Y-95999654D01*
X148817843Y-95807046D01*
X148817842Y-95807045D01*
X148729193Y-95593027D01*
X148684000Y-95365826D01*
X148684000Y-95134174D01*
X148729193Y-94906973D01*
X148817842Y-94692955D01*
X148874972Y-94607454D01*
X148946539Y-94500346D01*
X149110346Y-94336539D01*
X149302954Y-94207843D01*
X149302955Y-94207842D01*
X149516973Y-94119193D01*
X149668440Y-94089064D01*
X149744173Y-94074000D01*
X149975827Y-94074000D01*
X150051560Y-94089064D01*
X150051560Y-94089064D01*
G37*
G36*
X144971560Y-94089064D02*
G01*
X145123027Y-94119193D01*
X145337045Y-94207842D01*
X145337046Y-94207843D01*
X145529654Y-94336539D01*
X145693461Y-94500346D01*
X145765028Y-94607454D01*
X145822158Y-94692955D01*
X145910807Y-94906973D01*
X145956000Y-95134174D01*
X145956000Y-95365826D01*
X145910807Y-95593027D01*
X145822158Y-95807045D01*
X145822157Y-95807046D01*
X145693461Y-95999654D01*
X145529654Y-96163461D01*
X145455871Y-96212761D01*
X145337045Y-96292158D01*
X145123027Y-96380807D01*
X144971560Y-96410936D01*
X144895827Y-96426000D01*
X144664173Y-96426000D01*
X144588440Y-96410936D01*
X144436973Y-96380807D01*
X144222955Y-96292158D01*
X144104129Y-96212761D01*
X144030346Y-96163461D01*
X143866539Y-95999654D01*
X143737843Y-95807046D01*
X143737842Y-95807045D01*
X143649193Y-95593027D01*
X143604000Y-95365826D01*
X143604000Y-95134174D01*
X143649193Y-94906973D01*
X143737842Y-94692955D01*
X143794972Y-94607454D01*
X143866539Y-94500346D01*
X144030346Y-94336539D01*
X144222954Y-94207843D01*
X144222955Y-94207842D01*
X144436973Y-94119193D01*
X144588440Y-94089064D01*
X144664173Y-94074000D01*
X144895827Y-94074000D01*
X144971560Y-94089064D01*
X144971560Y-94089064D01*
G37*
G36*
X109393665Y-93232622D02*
G01*
X109467222Y-93239867D01*
X109608786Y-93282810D01*
X109739252Y-93352546D01*
X109769040Y-93376992D01*
X109853607Y-93446393D01*
X109923008Y-93530960D01*
X109947454Y-93560748D01*
X110017190Y-93691214D01*
X110060133Y-93832778D01*
X110074633Y-93980000D01*
X110060133Y-94127222D01*
X110017190Y-94268786D01*
X109947454Y-94399252D01*
X109937723Y-94411109D01*
X109853607Y-94513607D01*
X109786591Y-94568604D01*
X109739252Y-94607454D01*
X109739250Y-94607455D01*
X109609013Y-94677069D01*
X109608786Y-94677190D01*
X109467222Y-94720133D01*
X109393665Y-94727378D01*
X109356888Y-94731000D01*
X109083112Y-94731000D01*
X109046335Y-94727378D01*
X108972778Y-94720133D01*
X108831214Y-94677190D01*
X108830988Y-94677069D01*
X108700750Y-94607455D01*
X108700748Y-94607454D01*
X108653409Y-94568604D01*
X108586393Y-94513607D01*
X108502277Y-94411109D01*
X108492546Y-94399252D01*
X108422810Y-94268786D01*
X108379867Y-94127222D01*
X108365367Y-93980000D01*
X108379867Y-93832778D01*
X108422810Y-93691214D01*
X108492546Y-93560748D01*
X108516992Y-93530960D01*
X108586393Y-93446393D01*
X108670960Y-93376992D01*
X108700748Y-93352546D01*
X108831214Y-93282810D01*
X108972778Y-93239867D01*
X109046335Y-93232622D01*
X109083112Y-93229000D01*
X109356888Y-93229000D01*
X109393665Y-93232622D01*
X109393665Y-93232622D01*
G37*
G36*
X117013665Y-93232622D02*
G01*
X117087222Y-93239867D01*
X117228786Y-93282810D01*
X117359252Y-93352546D01*
X117389040Y-93376992D01*
X117473607Y-93446393D01*
X117543008Y-93530960D01*
X117567454Y-93560748D01*
X117637190Y-93691214D01*
X117680133Y-93832778D01*
X117694633Y-93980000D01*
X117680133Y-94127222D01*
X117637190Y-94268786D01*
X117567454Y-94399252D01*
X117557723Y-94411109D01*
X117473607Y-94513607D01*
X117406591Y-94568604D01*
X117359252Y-94607454D01*
X117359250Y-94607455D01*
X117229013Y-94677069D01*
X117228786Y-94677190D01*
X117087222Y-94720133D01*
X117013665Y-94727378D01*
X116976888Y-94731000D01*
X116703112Y-94731000D01*
X116666335Y-94727378D01*
X116592778Y-94720133D01*
X116451214Y-94677190D01*
X116450988Y-94677069D01*
X116320750Y-94607455D01*
X116320748Y-94607454D01*
X116273409Y-94568604D01*
X116206393Y-94513607D01*
X116122277Y-94411109D01*
X116112546Y-94399252D01*
X116042810Y-94268786D01*
X115999867Y-94127222D01*
X115985367Y-93980000D01*
X115999867Y-93832778D01*
X116042810Y-93691214D01*
X116112546Y-93560748D01*
X116136992Y-93530960D01*
X116206393Y-93446393D01*
X116290960Y-93376992D01*
X116320748Y-93352546D01*
X116451214Y-93282810D01*
X116592778Y-93239867D01*
X116666335Y-93232622D01*
X116703112Y-93229000D01*
X116976888Y-93229000D01*
X117013665Y-93232622D01*
X117013665Y-93232622D01*
G37*
G36*
X109393665Y-90692622D02*
G01*
X109467222Y-90699867D01*
X109608786Y-90742810D01*
X109739252Y-90812546D01*
X109769040Y-90836992D01*
X109853607Y-90906393D01*
X109923008Y-90990960D01*
X109947454Y-91020748D01*
X110017190Y-91151214D01*
X110060133Y-91292778D01*
X110074633Y-91440000D01*
X110060133Y-91587222D01*
X110017190Y-91728786D01*
X109947454Y-91859252D01*
X109923008Y-91889040D01*
X109853607Y-91973607D01*
X109769040Y-92043008D01*
X109739252Y-92067454D01*
X109608786Y-92137190D01*
X109467222Y-92180133D01*
X109393665Y-92187378D01*
X109356888Y-92191000D01*
X109083112Y-92191000D01*
X109046335Y-92187378D01*
X108972778Y-92180133D01*
X108831214Y-92137190D01*
X108700748Y-92067454D01*
X108670960Y-92043008D01*
X108586393Y-91973607D01*
X108516992Y-91889040D01*
X108492546Y-91859252D01*
X108422810Y-91728786D01*
X108379867Y-91587222D01*
X108365367Y-91440000D01*
X108379867Y-91292778D01*
X108422810Y-91151214D01*
X108492546Y-91020748D01*
X108516992Y-90990960D01*
X108586393Y-90906393D01*
X108670960Y-90836992D01*
X108700748Y-90812546D01*
X108831214Y-90742810D01*
X108972778Y-90699867D01*
X109046335Y-90692622D01*
X109083112Y-90689000D01*
X109356888Y-90689000D01*
X109393665Y-90692622D01*
X109393665Y-90692622D01*
G37*
G36*
X117013665Y-90692622D02*
G01*
X117087222Y-90699867D01*
X117228786Y-90742810D01*
X117359252Y-90812546D01*
X117389040Y-90836992D01*
X117473607Y-90906393D01*
X117543008Y-90990960D01*
X117567454Y-91020748D01*
X117637190Y-91151214D01*
X117680133Y-91292778D01*
X117694633Y-91440000D01*
X117680133Y-91587222D01*
X117637190Y-91728786D01*
X117567454Y-91859252D01*
X117543008Y-91889040D01*
X117473607Y-91973607D01*
X117389040Y-92043008D01*
X117359252Y-92067454D01*
X117228786Y-92137190D01*
X117087222Y-92180133D01*
X117013665Y-92187378D01*
X116976888Y-92191000D01*
X116703112Y-92191000D01*
X116666335Y-92187378D01*
X116592778Y-92180133D01*
X116451214Y-92137190D01*
X116320748Y-92067454D01*
X116290960Y-92043008D01*
X116206393Y-91973607D01*
X116136992Y-91889040D01*
X116112546Y-91859252D01*
X116042810Y-91728786D01*
X115999867Y-91587222D01*
X115985367Y-91440000D01*
X115999867Y-91292778D01*
X116042810Y-91151214D01*
X116112546Y-91020748D01*
X116136992Y-90990960D01*
X116206393Y-90906393D01*
X116290960Y-90836992D01*
X116320748Y-90812546D01*
X116451214Y-90742810D01*
X116592778Y-90699867D01*
X116666335Y-90692622D01*
X116703112Y-90689000D01*
X116976888Y-90689000D01*
X117013665Y-90692622D01*
X117013665Y-90692622D01*
G37*
G36*
X137369913Y-89194673D02*
G01*
X137441021Y-89201676D01*
X137577872Y-89243190D01*
X137577875Y-89243191D01*
X137703994Y-89310603D01*
X137814543Y-89401328D01*
X137905268Y-89511877D01*
X137972680Y-89637996D01*
X137972681Y-89637999D01*
X138014195Y-89774850D01*
X138028212Y-89917171D01*
X138014195Y-90059492D01*
X137972681Y-90196343D01*
X137972680Y-90196346D01*
X137905268Y-90322465D01*
X137814543Y-90433014D01*
X137703994Y-90523739D01*
X137577875Y-90591151D01*
X137577872Y-90591152D01*
X137441021Y-90632666D01*
X137369913Y-90639669D01*
X137334360Y-90643171D01*
X137263040Y-90643171D01*
X137227487Y-90639669D01*
X137156379Y-90632666D01*
X137019528Y-90591152D01*
X137019525Y-90591151D01*
X136893406Y-90523739D01*
X136782857Y-90433014D01*
X136692132Y-90322465D01*
X136624720Y-90196346D01*
X136624719Y-90196343D01*
X136583205Y-90059492D01*
X136569188Y-89917171D01*
X136583205Y-89774850D01*
X136624719Y-89637999D01*
X136624720Y-89637996D01*
X136692132Y-89511877D01*
X136782857Y-89401328D01*
X136893406Y-89310603D01*
X137019525Y-89243191D01*
X137019528Y-89243190D01*
X137156379Y-89201676D01*
X137227487Y-89194673D01*
X137263040Y-89191171D01*
X137334360Y-89191171D01*
X137369913Y-89194673D01*
X137369913Y-89194673D01*
G37*
G36*
X143369913Y-89194673D02*
G01*
X143441021Y-89201676D01*
X143577872Y-89243190D01*
X143577875Y-89243191D01*
X143703994Y-89310603D01*
X143814543Y-89401328D01*
X143905268Y-89511877D01*
X143972680Y-89637996D01*
X143972681Y-89637999D01*
X144014195Y-89774850D01*
X144028212Y-89917171D01*
X144014195Y-90059492D01*
X143972681Y-90196343D01*
X143972680Y-90196346D01*
X143905268Y-90322465D01*
X143814543Y-90433014D01*
X143703994Y-90523739D01*
X143577875Y-90591151D01*
X143577872Y-90591152D01*
X143441021Y-90632666D01*
X143369913Y-90639669D01*
X143334360Y-90643171D01*
X143263040Y-90643171D01*
X143227487Y-90639669D01*
X143156379Y-90632666D01*
X143019528Y-90591152D01*
X143019525Y-90591151D01*
X142893406Y-90523739D01*
X142782857Y-90433014D01*
X142692132Y-90322465D01*
X142624720Y-90196346D01*
X142624719Y-90196343D01*
X142583205Y-90059492D01*
X142569188Y-89917171D01*
X142583205Y-89774850D01*
X142624719Y-89637999D01*
X142624720Y-89637996D01*
X142692132Y-89511877D01*
X142782857Y-89401328D01*
X142893406Y-89310603D01*
X143019525Y-89243191D01*
X143019528Y-89243190D01*
X143156379Y-89201676D01*
X143227487Y-89194673D01*
X143263040Y-89191171D01*
X143334360Y-89191171D01*
X143369913Y-89194673D01*
X143369913Y-89194673D01*
G37*
G36*
X139369913Y-89194673D02*
G01*
X139441021Y-89201676D01*
X139577872Y-89243190D01*
X139577875Y-89243191D01*
X139703994Y-89310603D01*
X139814543Y-89401328D01*
X139905268Y-89511877D01*
X139972680Y-89637996D01*
X139972681Y-89637999D01*
X140014195Y-89774850D01*
X140028212Y-89917171D01*
X140014195Y-90059492D01*
X139972681Y-90196343D01*
X139972680Y-90196346D01*
X139905268Y-90322465D01*
X139814543Y-90433014D01*
X139703994Y-90523739D01*
X139577875Y-90591151D01*
X139577872Y-90591152D01*
X139441021Y-90632666D01*
X139369913Y-90639669D01*
X139334360Y-90643171D01*
X139263040Y-90643171D01*
X139227487Y-90639669D01*
X139156379Y-90632666D01*
X139019528Y-90591152D01*
X139019525Y-90591151D01*
X138893406Y-90523739D01*
X138782857Y-90433014D01*
X138692132Y-90322465D01*
X138624720Y-90196346D01*
X138624719Y-90196343D01*
X138583205Y-90059492D01*
X138569188Y-89917171D01*
X138583205Y-89774850D01*
X138624719Y-89637999D01*
X138624720Y-89637996D01*
X138692132Y-89511877D01*
X138782857Y-89401328D01*
X138893406Y-89310603D01*
X139019525Y-89243191D01*
X139019528Y-89243190D01*
X139156379Y-89201676D01*
X139227487Y-89194673D01*
X139263040Y-89191171D01*
X139334360Y-89191171D01*
X139369913Y-89194673D01*
X139369913Y-89194673D01*
G37*
G36*
X135369913Y-89194673D02*
G01*
X135441021Y-89201676D01*
X135577872Y-89243190D01*
X135577875Y-89243191D01*
X135703994Y-89310603D01*
X135814543Y-89401328D01*
X135905268Y-89511877D01*
X135972680Y-89637996D01*
X135972681Y-89637999D01*
X136014195Y-89774850D01*
X136028212Y-89917171D01*
X136014195Y-90059492D01*
X135972681Y-90196343D01*
X135972680Y-90196346D01*
X135905268Y-90322465D01*
X135814543Y-90433014D01*
X135703994Y-90523739D01*
X135577875Y-90591151D01*
X135577872Y-90591152D01*
X135441021Y-90632666D01*
X135369913Y-90639669D01*
X135334360Y-90643171D01*
X135263040Y-90643171D01*
X135227487Y-90639669D01*
X135156379Y-90632666D01*
X135019528Y-90591152D01*
X135019525Y-90591151D01*
X134893406Y-90523739D01*
X134782857Y-90433014D01*
X134692132Y-90322465D01*
X134624720Y-90196346D01*
X134624719Y-90196343D01*
X134583205Y-90059492D01*
X134569188Y-89917171D01*
X134583205Y-89774850D01*
X134624719Y-89637999D01*
X134624720Y-89637996D01*
X134692132Y-89511877D01*
X134782857Y-89401328D01*
X134893406Y-89310603D01*
X135019525Y-89243191D01*
X135019528Y-89243190D01*
X135156379Y-89201676D01*
X135227487Y-89194673D01*
X135263040Y-89191171D01*
X135334360Y-89191171D01*
X135369913Y-89194673D01*
X135369913Y-89194673D01*
G37*
G36*
X133369913Y-89194673D02*
G01*
X133441021Y-89201676D01*
X133577872Y-89243190D01*
X133577875Y-89243191D01*
X133703994Y-89310603D01*
X133814543Y-89401328D01*
X133905268Y-89511877D01*
X133972680Y-89637996D01*
X133972681Y-89637999D01*
X134014195Y-89774850D01*
X134028212Y-89917171D01*
X134014195Y-90059492D01*
X133972681Y-90196343D01*
X133972680Y-90196346D01*
X133905268Y-90322465D01*
X133814543Y-90433014D01*
X133703994Y-90523739D01*
X133577875Y-90591151D01*
X133577872Y-90591152D01*
X133441021Y-90632666D01*
X133369913Y-90639669D01*
X133334360Y-90643171D01*
X133263040Y-90643171D01*
X133227487Y-90639669D01*
X133156379Y-90632666D01*
X133019528Y-90591152D01*
X133019525Y-90591151D01*
X132893406Y-90523739D01*
X132782857Y-90433014D01*
X132692132Y-90322465D01*
X132624720Y-90196346D01*
X132624719Y-90196343D01*
X132583205Y-90059492D01*
X132569188Y-89917171D01*
X132583205Y-89774850D01*
X132624719Y-89637999D01*
X132624720Y-89637996D01*
X132692132Y-89511877D01*
X132782857Y-89401328D01*
X132893406Y-89310603D01*
X133019525Y-89243191D01*
X133019528Y-89243190D01*
X133156379Y-89201676D01*
X133227487Y-89194673D01*
X133263040Y-89191171D01*
X133334360Y-89191171D01*
X133369913Y-89194673D01*
X133369913Y-89194673D01*
G37*
G36*
X141369913Y-89194673D02*
G01*
X141441021Y-89201676D01*
X141577872Y-89243190D01*
X141577875Y-89243191D01*
X141703994Y-89310603D01*
X141814543Y-89401328D01*
X141905268Y-89511877D01*
X141972680Y-89637996D01*
X141972681Y-89637999D01*
X142014195Y-89774850D01*
X142028212Y-89917171D01*
X142014195Y-90059492D01*
X141972681Y-90196343D01*
X141972680Y-90196346D01*
X141905268Y-90322465D01*
X141814543Y-90433014D01*
X141703994Y-90523739D01*
X141577875Y-90591151D01*
X141577872Y-90591152D01*
X141441021Y-90632666D01*
X141369913Y-90639669D01*
X141334360Y-90643171D01*
X141263040Y-90643171D01*
X141227487Y-90639669D01*
X141156379Y-90632666D01*
X141019528Y-90591152D01*
X141019525Y-90591151D01*
X140893406Y-90523739D01*
X140782857Y-90433014D01*
X140692132Y-90322465D01*
X140624720Y-90196346D01*
X140624719Y-90196343D01*
X140583205Y-90059492D01*
X140569188Y-89917171D01*
X140583205Y-89774850D01*
X140624719Y-89637999D01*
X140624720Y-89637996D01*
X140692132Y-89511877D01*
X140782857Y-89401328D01*
X140893406Y-89310603D01*
X141019525Y-89243191D01*
X141019528Y-89243190D01*
X141156379Y-89201676D01*
X141227487Y-89194673D01*
X141263040Y-89191171D01*
X141334360Y-89191171D01*
X141369913Y-89194673D01*
X141369913Y-89194673D01*
G37*
G36*
X145369913Y-89194673D02*
G01*
X145441021Y-89201676D01*
X145577872Y-89243190D01*
X145577875Y-89243191D01*
X145703994Y-89310603D01*
X145814543Y-89401328D01*
X145905268Y-89511877D01*
X145972680Y-89637996D01*
X145972681Y-89637999D01*
X146014195Y-89774850D01*
X146028212Y-89917171D01*
X146014195Y-90059492D01*
X145972681Y-90196343D01*
X145972680Y-90196346D01*
X145905268Y-90322465D01*
X145814543Y-90433014D01*
X145703994Y-90523739D01*
X145577875Y-90591151D01*
X145577872Y-90591152D01*
X145441021Y-90632666D01*
X145369913Y-90639669D01*
X145334360Y-90643171D01*
X145263040Y-90643171D01*
X145227487Y-90639669D01*
X145156379Y-90632666D01*
X145019528Y-90591152D01*
X145019525Y-90591151D01*
X144893406Y-90523739D01*
X144782857Y-90433014D01*
X144692132Y-90322465D01*
X144624720Y-90196346D01*
X144624719Y-90196343D01*
X144583205Y-90059492D01*
X144569188Y-89917171D01*
X144583205Y-89774850D01*
X144624719Y-89637999D01*
X144624720Y-89637996D01*
X144692132Y-89511877D01*
X144782857Y-89401328D01*
X144893406Y-89310603D01*
X145019525Y-89243191D01*
X145019528Y-89243190D01*
X145156379Y-89201676D01*
X145227487Y-89194673D01*
X145263040Y-89191171D01*
X145334360Y-89191171D01*
X145369913Y-89194673D01*
X145369913Y-89194673D01*
G37*
G36*
X148024700Y-90643171D02*
G01*
X146572700Y-90643171D01*
X146572700Y-89191171D01*
X148024700Y-89191171D01*
X148024700Y-90643171D01*
X148024700Y-90643171D01*
G37*
G36*
X117013665Y-88152622D02*
G01*
X117087222Y-88159867D01*
X117228786Y-88202810D01*
X117359252Y-88272546D01*
X117389040Y-88296992D01*
X117473607Y-88366393D01*
X117534834Y-88441000D01*
X117567454Y-88480748D01*
X117637190Y-88611214D01*
X117680133Y-88752778D01*
X117694633Y-88900000D01*
X117680133Y-89047222D01*
X117637190Y-89188786D01*
X117567454Y-89319252D01*
X117543008Y-89349040D01*
X117473607Y-89433607D01*
X117389040Y-89503008D01*
X117359252Y-89527454D01*
X117228786Y-89597190D01*
X117087222Y-89640133D01*
X117013665Y-89647378D01*
X116976888Y-89651000D01*
X116703112Y-89651000D01*
X116666335Y-89647378D01*
X116592778Y-89640133D01*
X116451214Y-89597190D01*
X116320748Y-89527454D01*
X116290960Y-89503008D01*
X116206393Y-89433607D01*
X116136992Y-89349040D01*
X116112546Y-89319252D01*
X116042810Y-89188786D01*
X115999867Y-89047222D01*
X115985367Y-88900000D01*
X115999867Y-88752778D01*
X116042810Y-88611214D01*
X116112546Y-88480748D01*
X116145166Y-88441000D01*
X116206393Y-88366393D01*
X116290960Y-88296992D01*
X116320748Y-88272546D01*
X116451214Y-88202810D01*
X116592778Y-88159867D01*
X116666335Y-88152622D01*
X116703112Y-88149000D01*
X116976888Y-88149000D01*
X117013665Y-88152622D01*
X117013665Y-88152622D01*
G37*
G36*
X109393665Y-88152622D02*
G01*
X109467222Y-88159867D01*
X109608786Y-88202810D01*
X109739252Y-88272546D01*
X109769040Y-88296992D01*
X109853607Y-88366393D01*
X109914834Y-88441000D01*
X109947454Y-88480748D01*
X110017190Y-88611214D01*
X110060133Y-88752778D01*
X110074633Y-88900000D01*
X110060133Y-89047222D01*
X110017190Y-89188786D01*
X109947454Y-89319252D01*
X109923008Y-89349040D01*
X109853607Y-89433607D01*
X109769040Y-89503008D01*
X109739252Y-89527454D01*
X109608786Y-89597190D01*
X109467222Y-89640133D01*
X109393665Y-89647378D01*
X109356888Y-89651000D01*
X109083112Y-89651000D01*
X109046335Y-89647378D01*
X108972778Y-89640133D01*
X108831214Y-89597190D01*
X108700748Y-89527454D01*
X108670960Y-89503008D01*
X108586393Y-89433607D01*
X108516992Y-89349040D01*
X108492546Y-89319252D01*
X108422810Y-89188786D01*
X108379867Y-89047222D01*
X108365367Y-88900000D01*
X108379867Y-88752778D01*
X108422810Y-88611214D01*
X108492546Y-88480748D01*
X108525166Y-88441000D01*
X108586393Y-88366393D01*
X108670960Y-88296992D01*
X108700748Y-88272546D01*
X108831214Y-88202810D01*
X108972778Y-88159867D01*
X109046335Y-88152622D01*
X109083112Y-88149000D01*
X109356888Y-88149000D01*
X109393665Y-88152622D01*
X109393665Y-88152622D01*
G37*
G36*
X150870228Y-86771703D02*
G01*
X151025100Y-86835853D01*
X151164481Y-86928985D01*
X151283015Y-87047519D01*
X151376147Y-87186900D01*
X151440297Y-87341772D01*
X151473000Y-87506184D01*
X151473000Y-87673816D01*
X151440297Y-87838228D01*
X151376147Y-87993100D01*
X151283015Y-88132481D01*
X151164481Y-88251015D01*
X151025100Y-88344147D01*
X150870228Y-88408297D01*
X150705816Y-88441000D01*
X150538184Y-88441000D01*
X150373772Y-88408297D01*
X150218900Y-88344147D01*
X150079519Y-88251015D01*
X149960985Y-88132481D01*
X149867853Y-87993100D01*
X149803703Y-87838228D01*
X149771000Y-87673816D01*
X149771000Y-87506184D01*
X149803703Y-87341772D01*
X149867853Y-87186900D01*
X149960985Y-87047519D01*
X150079519Y-86928985D01*
X150218900Y-86835853D01*
X150373772Y-86771703D01*
X150538184Y-86739000D01*
X150705816Y-86739000D01*
X150870228Y-86771703D01*
X150870228Y-86771703D01*
G37*
G36*
X104642228Y-86771703D02*
G01*
X104797100Y-86835853D01*
X104936481Y-86928985D01*
X105055015Y-87047519D01*
X105148147Y-87186900D01*
X105212297Y-87341772D01*
X105245000Y-87506184D01*
X105245000Y-87673816D01*
X105212297Y-87838228D01*
X105148147Y-87993100D01*
X105055015Y-88132481D01*
X104936481Y-88251015D01*
X104797100Y-88344147D01*
X104642228Y-88408297D01*
X104477816Y-88441000D01*
X104310184Y-88441000D01*
X104145772Y-88408297D01*
X103990900Y-88344147D01*
X103851519Y-88251015D01*
X103732985Y-88132481D01*
X103639853Y-87993100D01*
X103575703Y-87838228D01*
X103543000Y-87673816D01*
X103543000Y-87506184D01*
X103575703Y-87341772D01*
X103639853Y-87186900D01*
X103732985Y-87047519D01*
X103851519Y-86928985D01*
X103990900Y-86835853D01*
X104145772Y-86771703D01*
X104310184Y-86739000D01*
X104477816Y-86739000D01*
X104642228Y-86771703D01*
X104642228Y-86771703D01*
G37*
G36*
X117013665Y-85612622D02*
G01*
X117087222Y-85619867D01*
X117228786Y-85662810D01*
X117359252Y-85732546D01*
X117389040Y-85756992D01*
X117473607Y-85826393D01*
X117540822Y-85908297D01*
X117567454Y-85940748D01*
X117637190Y-86071214D01*
X117680133Y-86212778D01*
X117694633Y-86360000D01*
X117680133Y-86507222D01*
X117637190Y-86648786D01*
X117567454Y-86779252D01*
X117543008Y-86809040D01*
X117473607Y-86893607D01*
X117389040Y-86963008D01*
X117359252Y-86987454D01*
X117228786Y-87057190D01*
X117087222Y-87100133D01*
X117013665Y-87107378D01*
X116976888Y-87111000D01*
X116703112Y-87111000D01*
X116666335Y-87107378D01*
X116592778Y-87100133D01*
X116451214Y-87057190D01*
X116320748Y-86987454D01*
X116290960Y-86963008D01*
X116206393Y-86893607D01*
X116136992Y-86809040D01*
X116112546Y-86779252D01*
X116042810Y-86648786D01*
X115999867Y-86507222D01*
X115985367Y-86360000D01*
X115999867Y-86212778D01*
X116042810Y-86071214D01*
X116112546Y-85940748D01*
X116139178Y-85908297D01*
X116206393Y-85826393D01*
X116290960Y-85756992D01*
X116320748Y-85732546D01*
X116451214Y-85662810D01*
X116592778Y-85619867D01*
X116666335Y-85612622D01*
X116703112Y-85609000D01*
X116976888Y-85609000D01*
X117013665Y-85612622D01*
X117013665Y-85612622D01*
G37*
G36*
X109393665Y-85612622D02*
G01*
X109467222Y-85619867D01*
X109608786Y-85662810D01*
X109739252Y-85732546D01*
X109769040Y-85756992D01*
X109853607Y-85826393D01*
X109920822Y-85908297D01*
X109947454Y-85940748D01*
X110017190Y-86071214D01*
X110060133Y-86212778D01*
X110074633Y-86360000D01*
X110060133Y-86507222D01*
X110017190Y-86648786D01*
X109947454Y-86779252D01*
X109923008Y-86809040D01*
X109853607Y-86893607D01*
X109769040Y-86963008D01*
X109739252Y-86987454D01*
X109608786Y-87057190D01*
X109467222Y-87100133D01*
X109393665Y-87107378D01*
X109356888Y-87111000D01*
X109083112Y-87111000D01*
X109046335Y-87107378D01*
X108972778Y-87100133D01*
X108831214Y-87057190D01*
X108700748Y-86987454D01*
X108670960Y-86963008D01*
X108586393Y-86893607D01*
X108516992Y-86809040D01*
X108492546Y-86779252D01*
X108422810Y-86648786D01*
X108379867Y-86507222D01*
X108365367Y-86360000D01*
X108379867Y-86212778D01*
X108422810Y-86071214D01*
X108492546Y-85940748D01*
X108519178Y-85908297D01*
X108586393Y-85826393D01*
X108670960Y-85756992D01*
X108700748Y-85732546D01*
X108831214Y-85662810D01*
X108972778Y-85619867D01*
X109046335Y-85612622D01*
X109083112Y-85609000D01*
X109356888Y-85609000D01*
X109393665Y-85612622D01*
X109393665Y-85612622D01*
G37*
G36*
X150870228Y-84271703D02*
G01*
X151025100Y-84335853D01*
X151164481Y-84428985D01*
X151283015Y-84547519D01*
X151376147Y-84686900D01*
X151440297Y-84841772D01*
X151473000Y-85006184D01*
X151473000Y-85173816D01*
X151440297Y-85338228D01*
X151376147Y-85493100D01*
X151283015Y-85632481D01*
X151164481Y-85751015D01*
X151025100Y-85844147D01*
X150870228Y-85908297D01*
X150705816Y-85941000D01*
X150538184Y-85941000D01*
X150373772Y-85908297D01*
X150218900Y-85844147D01*
X150079519Y-85751015D01*
X149960985Y-85632481D01*
X149867853Y-85493100D01*
X149803703Y-85338228D01*
X149771000Y-85173816D01*
X149771000Y-85006184D01*
X149803703Y-84841772D01*
X149867853Y-84686900D01*
X149960985Y-84547519D01*
X150079519Y-84428985D01*
X150218900Y-84335853D01*
X150373772Y-84271703D01*
X150538184Y-84239000D01*
X150705816Y-84239000D01*
X150870228Y-84271703D01*
X150870228Y-84271703D01*
G37*
G36*
X104642228Y-84271703D02*
G01*
X104797100Y-84335853D01*
X104936481Y-84428985D01*
X105055015Y-84547519D01*
X105148147Y-84686900D01*
X105212297Y-84841772D01*
X105245000Y-85006184D01*
X105245000Y-85173816D01*
X105212297Y-85338228D01*
X105148147Y-85493100D01*
X105055015Y-85632481D01*
X104936481Y-85751015D01*
X104797100Y-85844147D01*
X104642228Y-85908297D01*
X104477816Y-85941000D01*
X104310184Y-85941000D01*
X104145772Y-85908297D01*
X103990900Y-85844147D01*
X103851519Y-85751015D01*
X103732985Y-85632481D01*
X103639853Y-85493100D01*
X103575703Y-85338228D01*
X103543000Y-85173816D01*
X103543000Y-85006184D01*
X103575703Y-84841772D01*
X103639853Y-84686900D01*
X103732985Y-84547519D01*
X103851519Y-84428985D01*
X103990900Y-84335853D01*
X104145772Y-84271703D01*
X104310184Y-84239000D01*
X104477816Y-84239000D01*
X104642228Y-84271703D01*
X104642228Y-84271703D01*
G37*
G36*
X98023642Y-84119781D02*
G01*
X98169414Y-84180162D01*
X98169416Y-84180163D01*
X98300608Y-84267822D01*
X98412178Y-84379392D01*
X98499837Y-84510584D01*
X98499838Y-84510586D01*
X98560219Y-84656358D01*
X98591000Y-84811107D01*
X98591000Y-84968893D01*
X98560219Y-85123642D01*
X98539436Y-85173816D01*
X98499837Y-85269416D01*
X98412178Y-85400608D01*
X98300608Y-85512178D01*
X98169416Y-85599837D01*
X98169415Y-85599838D01*
X98169414Y-85599838D01*
X98023642Y-85660219D01*
X97868893Y-85691000D01*
X97711107Y-85691000D01*
X97556358Y-85660219D01*
X97410586Y-85599838D01*
X97410585Y-85599838D01*
X97410584Y-85599837D01*
X97279392Y-85512178D01*
X97167822Y-85400608D01*
X97080163Y-85269416D01*
X97040564Y-85173816D01*
X97019781Y-85123642D01*
X96989000Y-84968893D01*
X96989000Y-84811107D01*
X97019781Y-84656358D01*
X97080162Y-84510586D01*
X97080163Y-84510584D01*
X97167822Y-84379392D01*
X97279392Y-84267822D01*
X97410584Y-84180163D01*
X97410586Y-84180162D01*
X97556358Y-84119781D01*
X97711107Y-84089000D01*
X97868893Y-84089000D01*
X98023642Y-84119781D01*
X98023642Y-84119781D01*
G37*
G36*
X109393665Y-83072622D02*
G01*
X109467222Y-83079867D01*
X109608786Y-83122810D01*
X109739252Y-83192546D01*
X109769040Y-83216992D01*
X109853607Y-83286393D01*
X109923008Y-83370960D01*
X109947454Y-83400748D01*
X110017190Y-83531214D01*
X110060133Y-83672778D01*
X110074633Y-83820000D01*
X110060133Y-83967222D01*
X110023192Y-84089000D01*
X110017189Y-84108788D01*
X109982322Y-84174019D01*
X109947454Y-84239252D01*
X109924007Y-84267822D01*
X109853607Y-84353607D01*
X109769040Y-84423008D01*
X109739252Y-84447454D01*
X109608786Y-84517190D01*
X109467222Y-84560133D01*
X109393665Y-84567378D01*
X109356888Y-84571000D01*
X109083112Y-84571000D01*
X109046335Y-84567378D01*
X108972778Y-84560133D01*
X108831214Y-84517190D01*
X108700748Y-84447454D01*
X108670960Y-84423008D01*
X108586393Y-84353607D01*
X108515993Y-84267822D01*
X108492546Y-84239252D01*
X108457678Y-84174019D01*
X108422811Y-84108788D01*
X108416808Y-84089000D01*
X108379867Y-83967222D01*
X108365367Y-83820000D01*
X108379867Y-83672778D01*
X108422810Y-83531214D01*
X108492546Y-83400748D01*
X108516992Y-83370960D01*
X108586393Y-83286393D01*
X108670960Y-83216992D01*
X108700748Y-83192546D01*
X108831214Y-83122810D01*
X108972778Y-83079867D01*
X109046335Y-83072622D01*
X109083112Y-83069000D01*
X109356888Y-83069000D01*
X109393665Y-83072622D01*
X109393665Y-83072622D01*
G37*
G36*
X117013665Y-83072622D02*
G01*
X117087222Y-83079867D01*
X117228786Y-83122810D01*
X117359252Y-83192546D01*
X117389040Y-83216992D01*
X117473607Y-83286393D01*
X117543008Y-83370960D01*
X117567454Y-83400748D01*
X117637190Y-83531214D01*
X117680133Y-83672778D01*
X117694633Y-83820000D01*
X117680133Y-83967222D01*
X117643192Y-84089000D01*
X117637189Y-84108788D01*
X117602322Y-84174019D01*
X117567454Y-84239252D01*
X117544007Y-84267822D01*
X117473607Y-84353607D01*
X117389040Y-84423008D01*
X117359252Y-84447454D01*
X117228786Y-84517190D01*
X117087222Y-84560133D01*
X117013665Y-84567378D01*
X116976888Y-84571000D01*
X116703112Y-84571000D01*
X116666335Y-84567378D01*
X116592778Y-84560133D01*
X116451214Y-84517190D01*
X116320748Y-84447454D01*
X116290960Y-84423008D01*
X116206393Y-84353607D01*
X116135993Y-84267822D01*
X116112546Y-84239252D01*
X116077678Y-84174019D01*
X116042811Y-84108788D01*
X116036808Y-84089000D01*
X115999867Y-83967222D01*
X115985367Y-83820000D01*
X115999867Y-83672778D01*
X116042810Y-83531214D01*
X116112546Y-83400748D01*
X116136992Y-83370960D01*
X116206393Y-83286393D01*
X116290960Y-83216992D01*
X116320748Y-83192546D01*
X116451214Y-83122810D01*
X116592778Y-83079867D01*
X116666335Y-83072622D01*
X116703112Y-83069000D01*
X116976888Y-83069000D01*
X117013665Y-83072622D01*
X117013665Y-83072622D01*
G37*
G36*
X120898228Y-81096703D02*
G01*
X121053100Y-81160853D01*
X121192481Y-81253985D01*
X121311015Y-81372519D01*
X121404147Y-81511900D01*
X121468297Y-81666772D01*
X121501000Y-81831184D01*
X121501000Y-81998816D01*
X121468297Y-82163228D01*
X121404147Y-82318100D01*
X121311015Y-82457481D01*
X121192481Y-82576015D01*
X121053100Y-82669147D01*
X120898228Y-82733297D01*
X120733816Y-82766000D01*
X120566184Y-82766000D01*
X120401772Y-82733297D01*
X120246900Y-82669147D01*
X120107519Y-82576015D01*
X119988985Y-82457481D01*
X119895853Y-82318100D01*
X119831703Y-82163228D01*
X119799000Y-81998816D01*
X119799000Y-81831184D01*
X119831703Y-81666772D01*
X119895853Y-81511900D01*
X119988985Y-81372519D01*
X120107519Y-81253985D01*
X120246900Y-81160853D01*
X120401772Y-81096703D01*
X120566184Y-81064000D01*
X120733816Y-81064000D01*
X120898228Y-81096703D01*
X120898228Y-81096703D01*
G37*
G36*
X123398228Y-81096703D02*
G01*
X123553100Y-81160853D01*
X123692481Y-81253985D01*
X123811015Y-81372519D01*
X123904147Y-81511900D01*
X123968297Y-81666772D01*
X124001000Y-81831184D01*
X124001000Y-81998816D01*
X123968297Y-82163228D01*
X123904147Y-82318100D01*
X123811015Y-82457481D01*
X123692481Y-82576015D01*
X123553100Y-82669147D01*
X123398228Y-82733297D01*
X123233816Y-82766000D01*
X123066184Y-82766000D01*
X122901772Y-82733297D01*
X122746900Y-82669147D01*
X122607519Y-82576015D01*
X122488985Y-82457481D01*
X122395853Y-82318100D01*
X122331703Y-82163228D01*
X122299000Y-81998816D01*
X122299000Y-81831184D01*
X122331703Y-81666772D01*
X122395853Y-81511900D01*
X122488985Y-81372519D01*
X122607519Y-81253985D01*
X122746900Y-81160853D01*
X122901772Y-81096703D01*
X123066184Y-81064000D01*
X123233816Y-81064000D01*
X123398228Y-81096703D01*
X123398228Y-81096703D01*
G37*
G36*
X117013665Y-80532622D02*
G01*
X117087222Y-80539867D01*
X117228786Y-80582810D01*
X117359252Y-80652546D01*
X117389040Y-80676992D01*
X117473607Y-80746393D01*
X117526627Y-80811000D01*
X117567454Y-80860748D01*
X117637190Y-80991214D01*
X117680133Y-81132778D01*
X117694633Y-81280000D01*
X117680133Y-81427222D01*
X117637190Y-81568786D01*
X117567454Y-81699252D01*
X117543008Y-81729040D01*
X117473607Y-81813607D01*
X117389040Y-81883008D01*
X117359252Y-81907454D01*
X117228786Y-81977190D01*
X117087222Y-82020133D01*
X117013665Y-82027378D01*
X116976888Y-82031000D01*
X116703112Y-82031000D01*
X116666335Y-82027378D01*
X116592778Y-82020133D01*
X116451214Y-81977190D01*
X116320748Y-81907454D01*
X116290960Y-81883008D01*
X116206393Y-81813607D01*
X116136992Y-81729040D01*
X116112546Y-81699252D01*
X116042810Y-81568786D01*
X115999867Y-81427222D01*
X115985367Y-81280000D01*
X115999867Y-81132778D01*
X116042810Y-80991214D01*
X116112546Y-80860748D01*
X116153373Y-80811000D01*
X116206393Y-80746393D01*
X116290960Y-80676992D01*
X116320748Y-80652546D01*
X116451214Y-80582810D01*
X116592778Y-80539867D01*
X116666335Y-80532622D01*
X116703112Y-80529000D01*
X116976888Y-80529000D01*
X117013665Y-80532622D01*
X117013665Y-80532622D01*
G37*
G36*
X109393665Y-80532622D02*
G01*
X109467222Y-80539867D01*
X109608786Y-80582810D01*
X109739252Y-80652546D01*
X109769040Y-80676992D01*
X109853607Y-80746393D01*
X109906627Y-80811000D01*
X109947454Y-80860748D01*
X110017190Y-80991214D01*
X110060133Y-81132778D01*
X110074633Y-81280000D01*
X110060133Y-81427222D01*
X110017190Y-81568786D01*
X109947454Y-81699252D01*
X109923008Y-81729040D01*
X109853607Y-81813607D01*
X109769040Y-81883008D01*
X109739252Y-81907454D01*
X109608786Y-81977190D01*
X109467222Y-82020133D01*
X109393665Y-82027378D01*
X109356888Y-82031000D01*
X109083112Y-82031000D01*
X109046335Y-82027378D01*
X108972778Y-82020133D01*
X108831214Y-81977190D01*
X108700748Y-81907454D01*
X108670960Y-81883008D01*
X108586393Y-81813607D01*
X108516992Y-81729040D01*
X108492546Y-81699252D01*
X108422810Y-81568786D01*
X108379867Y-81427222D01*
X108365367Y-81280000D01*
X108379867Y-81132778D01*
X108422810Y-80991214D01*
X108492546Y-80860748D01*
X108533373Y-80811000D01*
X108586393Y-80746393D01*
X108670960Y-80676992D01*
X108700748Y-80652546D01*
X108831214Y-80582810D01*
X108972778Y-80539867D01*
X109046335Y-80532622D01*
X109083112Y-80529000D01*
X109356888Y-80529000D01*
X109393665Y-80532622D01*
X109393665Y-80532622D01*
G37*
G36*
X104642228Y-79151703D02*
G01*
X104797100Y-79215853D01*
X104936481Y-79308985D01*
X105055015Y-79427519D01*
X105148147Y-79566900D01*
X105212297Y-79721772D01*
X105245000Y-79886184D01*
X105245000Y-80053816D01*
X105212297Y-80218228D01*
X105148147Y-80373100D01*
X105055015Y-80512481D01*
X104936481Y-80631015D01*
X104797100Y-80724147D01*
X104642228Y-80788297D01*
X104477816Y-80821000D01*
X104310184Y-80821000D01*
X104145772Y-80788297D01*
X103990900Y-80724147D01*
X103851519Y-80631015D01*
X103732985Y-80512481D01*
X103639853Y-80373100D01*
X103575703Y-80218228D01*
X103543000Y-80053816D01*
X103543000Y-79886184D01*
X103575703Y-79721772D01*
X103639853Y-79566900D01*
X103732985Y-79427519D01*
X103851519Y-79308985D01*
X103990900Y-79215853D01*
X104145772Y-79151703D01*
X104310184Y-79119000D01*
X104477816Y-79119000D01*
X104642228Y-79151703D01*
X104642228Y-79151703D01*
G37*
G36*
X98023642Y-79239781D02*
G01*
X98169414Y-79300162D01*
X98169416Y-79300163D01*
X98300608Y-79387822D01*
X98412178Y-79499392D01*
X98457285Y-79566900D01*
X98499838Y-79630586D01*
X98560219Y-79776358D01*
X98591000Y-79931107D01*
X98591000Y-80088893D01*
X98560219Y-80243642D01*
X98499838Y-80389414D01*
X98499837Y-80389416D01*
X98412178Y-80520608D01*
X98300608Y-80632178D01*
X98169416Y-80719837D01*
X98169415Y-80719838D01*
X98169414Y-80719838D01*
X98023642Y-80780219D01*
X97868893Y-80811000D01*
X97711107Y-80811000D01*
X97556358Y-80780219D01*
X97410586Y-80719838D01*
X97410585Y-80719838D01*
X97410584Y-80719837D01*
X97279392Y-80632178D01*
X97167822Y-80520608D01*
X97080163Y-80389416D01*
X97080162Y-80389414D01*
X97019781Y-80243642D01*
X96989000Y-80088893D01*
X96989000Y-79931107D01*
X97019781Y-79776358D01*
X97080162Y-79630586D01*
X97122715Y-79566900D01*
X97167822Y-79499392D01*
X97279392Y-79387822D01*
X97410584Y-79300163D01*
X97410586Y-79300162D01*
X97556358Y-79239781D01*
X97711107Y-79209000D01*
X97868893Y-79209000D01*
X98023642Y-79239781D01*
X98023642Y-79239781D01*
G37*
G36*
X109393665Y-77992622D02*
G01*
X109467222Y-77999867D01*
X109608786Y-78042810D01*
X109739252Y-78112546D01*
X109769040Y-78136992D01*
X109853607Y-78206393D01*
X109920822Y-78288297D01*
X109947454Y-78320748D01*
X110017190Y-78451214D01*
X110060133Y-78592778D01*
X110074633Y-78740000D01*
X110060133Y-78887222D01*
X110017190Y-79028786D01*
X109947454Y-79159252D01*
X109923008Y-79189040D01*
X109853607Y-79273607D01*
X109769040Y-79343008D01*
X109739252Y-79367454D01*
X109608786Y-79437190D01*
X109467222Y-79480133D01*
X109393665Y-79487378D01*
X109356888Y-79491000D01*
X109083112Y-79491000D01*
X109046335Y-79487378D01*
X108972778Y-79480133D01*
X108831214Y-79437190D01*
X108700748Y-79367454D01*
X108670960Y-79343008D01*
X108586393Y-79273607D01*
X108516992Y-79189040D01*
X108492546Y-79159252D01*
X108422810Y-79028786D01*
X108379867Y-78887222D01*
X108365367Y-78740000D01*
X108379867Y-78592778D01*
X108422810Y-78451214D01*
X108492546Y-78320748D01*
X108519178Y-78288297D01*
X108586393Y-78206393D01*
X108670960Y-78136992D01*
X108700748Y-78112546D01*
X108831214Y-78042810D01*
X108972778Y-77999867D01*
X109046335Y-77992622D01*
X109083112Y-77989000D01*
X109356888Y-77989000D01*
X109393665Y-77992622D01*
X109393665Y-77992622D01*
G37*
G36*
X117013665Y-77992622D02*
G01*
X117087222Y-77999867D01*
X117228786Y-78042810D01*
X117359252Y-78112546D01*
X117389040Y-78136992D01*
X117473607Y-78206393D01*
X117540822Y-78288297D01*
X117567454Y-78320748D01*
X117637190Y-78451214D01*
X117680133Y-78592778D01*
X117694633Y-78740000D01*
X117680133Y-78887222D01*
X117637190Y-79028786D01*
X117567454Y-79159252D01*
X117543008Y-79189040D01*
X117473607Y-79273607D01*
X117389040Y-79343008D01*
X117359252Y-79367454D01*
X117228786Y-79437190D01*
X117087222Y-79480133D01*
X117013665Y-79487378D01*
X116976888Y-79491000D01*
X116703112Y-79491000D01*
X116666335Y-79487378D01*
X116592778Y-79480133D01*
X116451214Y-79437190D01*
X116320748Y-79367454D01*
X116290960Y-79343008D01*
X116206393Y-79273607D01*
X116136992Y-79189040D01*
X116112546Y-79159252D01*
X116042810Y-79028786D01*
X115999867Y-78887222D01*
X115985367Y-78740000D01*
X115999867Y-78592778D01*
X116042810Y-78451214D01*
X116112546Y-78320748D01*
X116139178Y-78288297D01*
X116206393Y-78206393D01*
X116290960Y-78136992D01*
X116320748Y-78112546D01*
X116451214Y-78042810D01*
X116592778Y-77999867D01*
X116666335Y-77992622D01*
X116703112Y-77989000D01*
X116976888Y-77989000D01*
X117013665Y-77992622D01*
X117013665Y-77992622D01*
G37*
G36*
X104642228Y-76651703D02*
G01*
X104797100Y-76715853D01*
X104936481Y-76808985D01*
X105055015Y-76927519D01*
X105148147Y-77066900D01*
X105212297Y-77221772D01*
X105245000Y-77386184D01*
X105245000Y-77553816D01*
X105212297Y-77718228D01*
X105148147Y-77873100D01*
X105055015Y-78012481D01*
X104936481Y-78131015D01*
X104797100Y-78224147D01*
X104642228Y-78288297D01*
X104477816Y-78321000D01*
X104310184Y-78321000D01*
X104145772Y-78288297D01*
X103990900Y-78224147D01*
X103851519Y-78131015D01*
X103732985Y-78012481D01*
X103639853Y-77873100D01*
X103575703Y-77718228D01*
X103543000Y-77553816D01*
X103543000Y-77386184D01*
X103575703Y-77221772D01*
X103639853Y-77066900D01*
X103732985Y-76927519D01*
X103851519Y-76808985D01*
X103990900Y-76715853D01*
X104145772Y-76651703D01*
X104310184Y-76619000D01*
X104477816Y-76619000D01*
X104642228Y-76651703D01*
X104642228Y-76651703D01*
G37*
G36*
X120898228Y-76651703D02*
G01*
X121053100Y-76715853D01*
X121192481Y-76808985D01*
X121311015Y-76927519D01*
X121404147Y-77066900D01*
X121468297Y-77221772D01*
X121501000Y-77386184D01*
X121501000Y-77553816D01*
X121468297Y-77718228D01*
X121404147Y-77873100D01*
X121311015Y-78012481D01*
X121192481Y-78131015D01*
X121053100Y-78224147D01*
X120898228Y-78288297D01*
X120733816Y-78321000D01*
X120566184Y-78321000D01*
X120401772Y-78288297D01*
X120246900Y-78224147D01*
X120107519Y-78131015D01*
X119988985Y-78012481D01*
X119895853Y-77873100D01*
X119831703Y-77718228D01*
X119799000Y-77553816D01*
X119799000Y-77386184D01*
X119831703Y-77221772D01*
X119895853Y-77066900D01*
X119988985Y-76927519D01*
X120107519Y-76808985D01*
X120246900Y-76715853D01*
X120401772Y-76651703D01*
X120566184Y-76619000D01*
X120733816Y-76619000D01*
X120898228Y-76651703D01*
X120898228Y-76651703D01*
G37*
G36*
X123398228Y-76651703D02*
G01*
X123553100Y-76715853D01*
X123692481Y-76808985D01*
X123811015Y-76927519D01*
X123904147Y-77066900D01*
X123968297Y-77221772D01*
X124001000Y-77386184D01*
X124001000Y-77553816D01*
X123968297Y-77718228D01*
X123904147Y-77873100D01*
X123811015Y-78012481D01*
X123692481Y-78131015D01*
X123553100Y-78224147D01*
X123398228Y-78288297D01*
X123233816Y-78321000D01*
X123066184Y-78321000D01*
X122901772Y-78288297D01*
X122746900Y-78224147D01*
X122607519Y-78131015D01*
X122488985Y-78012481D01*
X122395853Y-77873100D01*
X122331703Y-77718228D01*
X122299000Y-77553816D01*
X122299000Y-77386184D01*
X122331703Y-77221772D01*
X122395853Y-77066900D01*
X122488985Y-76927519D01*
X122607519Y-76808985D01*
X122746900Y-76715853D01*
X122901772Y-76651703D01*
X123066184Y-76619000D01*
X123233816Y-76619000D01*
X123398228Y-76651703D01*
X123398228Y-76651703D01*
G37*
G36*
X109393665Y-75452622D02*
G01*
X109467222Y-75459867D01*
X109608786Y-75502810D01*
X109739252Y-75572546D01*
X109769040Y-75596992D01*
X109853607Y-75666393D01*
X109923008Y-75750960D01*
X109947454Y-75780748D01*
X110017190Y-75911214D01*
X110060133Y-76052778D01*
X110074633Y-76200000D01*
X110060133Y-76347222D01*
X110017190Y-76488786D01*
X109947454Y-76619252D01*
X109923008Y-76649040D01*
X109853607Y-76733607D01*
X109769040Y-76803008D01*
X109739252Y-76827454D01*
X109608786Y-76897190D01*
X109467222Y-76940133D01*
X109393665Y-76947378D01*
X109356888Y-76951000D01*
X109083112Y-76951000D01*
X109046335Y-76947378D01*
X108972778Y-76940133D01*
X108831214Y-76897190D01*
X108700748Y-76827454D01*
X108670960Y-76803008D01*
X108586393Y-76733607D01*
X108516992Y-76649040D01*
X108492546Y-76619252D01*
X108422810Y-76488786D01*
X108379867Y-76347222D01*
X108365367Y-76200000D01*
X108379867Y-76052778D01*
X108422810Y-75911214D01*
X108492546Y-75780748D01*
X108516992Y-75750960D01*
X108586393Y-75666393D01*
X108670960Y-75596992D01*
X108700748Y-75572546D01*
X108831214Y-75502810D01*
X108972778Y-75459867D01*
X109046335Y-75452622D01*
X109083112Y-75449000D01*
X109356888Y-75449000D01*
X109393665Y-75452622D01*
X109393665Y-75452622D01*
G37*
G36*
X117013665Y-75452622D02*
G01*
X117087222Y-75459867D01*
X117228786Y-75502810D01*
X117359252Y-75572546D01*
X117389040Y-75596992D01*
X117473607Y-75666393D01*
X117543008Y-75750960D01*
X117567454Y-75780748D01*
X117637190Y-75911214D01*
X117680133Y-76052778D01*
X117694633Y-76200000D01*
X117680133Y-76347222D01*
X117637190Y-76488786D01*
X117567454Y-76619252D01*
X117543008Y-76649040D01*
X117473607Y-76733607D01*
X117389040Y-76803008D01*
X117359252Y-76827454D01*
X117228786Y-76897190D01*
X117087222Y-76940133D01*
X117013665Y-76947378D01*
X116976888Y-76951000D01*
X116703112Y-76951000D01*
X116666335Y-76947378D01*
X116592778Y-76940133D01*
X116451214Y-76897190D01*
X116320748Y-76827454D01*
X116290960Y-76803008D01*
X116206393Y-76733607D01*
X116136992Y-76649040D01*
X116112546Y-76619252D01*
X116042810Y-76488786D01*
X115999867Y-76347222D01*
X115985367Y-76200000D01*
X115999867Y-76052778D01*
X116042810Y-75911214D01*
X116112546Y-75780748D01*
X116136992Y-75750960D01*
X116206393Y-75666393D01*
X116290960Y-75596992D01*
X116320748Y-75572546D01*
X116451214Y-75502810D01*
X116592778Y-75459867D01*
X116666335Y-75452622D01*
X116703112Y-75449000D01*
X116976888Y-75449000D01*
X117013665Y-75452622D01*
X117013665Y-75452622D01*
G37*
G36*
X139391213Y-75224673D02*
G01*
X139462321Y-75231676D01*
X139599172Y-75273190D01*
X139599175Y-75273191D01*
X139725294Y-75340603D01*
X139835843Y-75431328D01*
X139926568Y-75541877D01*
X139993980Y-75667996D01*
X139993981Y-75667999D01*
X140035495Y-75804850D01*
X140049512Y-75947171D01*
X140035495Y-76089492D01*
X140001972Y-76200000D01*
X139993980Y-76226346D01*
X139926568Y-76352465D01*
X139835843Y-76463014D01*
X139725294Y-76553739D01*
X139599175Y-76621151D01*
X139599172Y-76621152D01*
X139462321Y-76662666D01*
X139391213Y-76669669D01*
X139355660Y-76673171D01*
X139284340Y-76673171D01*
X139248787Y-76669669D01*
X139177679Y-76662666D01*
X139040828Y-76621152D01*
X139040825Y-76621151D01*
X138914706Y-76553739D01*
X138804157Y-76463014D01*
X138713432Y-76352465D01*
X138646020Y-76226346D01*
X138638028Y-76200000D01*
X138604505Y-76089492D01*
X138590488Y-75947171D01*
X138604505Y-75804850D01*
X138646019Y-75667999D01*
X138646020Y-75667996D01*
X138713432Y-75541877D01*
X138804157Y-75431328D01*
X138914706Y-75340603D01*
X139040825Y-75273191D01*
X139040828Y-75273190D01*
X139177679Y-75231676D01*
X139248787Y-75224673D01*
X139284340Y-75221171D01*
X139355660Y-75221171D01*
X139391213Y-75224673D01*
X139391213Y-75224673D01*
G37*
G36*
X148046000Y-76673171D02*
G01*
X146594000Y-76673171D01*
X146594000Y-75221171D01*
X148046000Y-75221171D01*
X148046000Y-76673171D01*
X148046000Y-76673171D01*
G37*
G36*
X137391213Y-75224673D02*
G01*
X137462321Y-75231676D01*
X137599172Y-75273190D01*
X137599175Y-75273191D01*
X137725294Y-75340603D01*
X137835843Y-75431328D01*
X137926568Y-75541877D01*
X137993980Y-75667996D01*
X137993981Y-75667999D01*
X138035495Y-75804850D01*
X138049512Y-75947171D01*
X138035495Y-76089492D01*
X138001972Y-76200000D01*
X137993980Y-76226346D01*
X137926568Y-76352465D01*
X137835843Y-76463014D01*
X137725294Y-76553739D01*
X137599175Y-76621151D01*
X137599172Y-76621152D01*
X137462321Y-76662666D01*
X137391213Y-76669669D01*
X137355660Y-76673171D01*
X137284340Y-76673171D01*
X137248787Y-76669669D01*
X137177679Y-76662666D01*
X137040828Y-76621152D01*
X137040825Y-76621151D01*
X136914706Y-76553739D01*
X136804157Y-76463014D01*
X136713432Y-76352465D01*
X136646020Y-76226346D01*
X136638028Y-76200000D01*
X136604505Y-76089492D01*
X136590488Y-75947171D01*
X136604505Y-75804850D01*
X136646019Y-75667999D01*
X136646020Y-75667996D01*
X136713432Y-75541877D01*
X136804157Y-75431328D01*
X136914706Y-75340603D01*
X137040825Y-75273191D01*
X137040828Y-75273190D01*
X137177679Y-75231676D01*
X137248787Y-75224673D01*
X137284340Y-75221171D01*
X137355660Y-75221171D01*
X137391213Y-75224673D01*
X137391213Y-75224673D01*
G37*
G36*
X135391213Y-75224673D02*
G01*
X135462321Y-75231676D01*
X135599172Y-75273190D01*
X135599175Y-75273191D01*
X135725294Y-75340603D01*
X135835843Y-75431328D01*
X135926568Y-75541877D01*
X135993980Y-75667996D01*
X135993981Y-75667999D01*
X136035495Y-75804850D01*
X136049512Y-75947171D01*
X136035495Y-76089492D01*
X136001972Y-76200000D01*
X135993980Y-76226346D01*
X135926568Y-76352465D01*
X135835843Y-76463014D01*
X135725294Y-76553739D01*
X135599175Y-76621151D01*
X135599172Y-76621152D01*
X135462321Y-76662666D01*
X135391213Y-76669669D01*
X135355660Y-76673171D01*
X135284340Y-76673171D01*
X135248787Y-76669669D01*
X135177679Y-76662666D01*
X135040828Y-76621152D01*
X135040825Y-76621151D01*
X134914706Y-76553739D01*
X134804157Y-76463014D01*
X134713432Y-76352465D01*
X134646020Y-76226346D01*
X134638028Y-76200000D01*
X134604505Y-76089492D01*
X134590488Y-75947171D01*
X134604505Y-75804850D01*
X134646019Y-75667999D01*
X134646020Y-75667996D01*
X134713432Y-75541877D01*
X134804157Y-75431328D01*
X134914706Y-75340603D01*
X135040825Y-75273191D01*
X135040828Y-75273190D01*
X135177679Y-75231676D01*
X135248787Y-75224673D01*
X135284340Y-75221171D01*
X135355660Y-75221171D01*
X135391213Y-75224673D01*
X135391213Y-75224673D01*
G37*
G36*
X143391213Y-75224673D02*
G01*
X143462321Y-75231676D01*
X143599172Y-75273190D01*
X143599175Y-75273191D01*
X143725294Y-75340603D01*
X143835843Y-75431328D01*
X143926568Y-75541877D01*
X143993980Y-75667996D01*
X143993981Y-75667999D01*
X144035495Y-75804850D01*
X144049512Y-75947171D01*
X144035495Y-76089492D01*
X144001972Y-76200000D01*
X143993980Y-76226346D01*
X143926568Y-76352465D01*
X143835843Y-76463014D01*
X143725294Y-76553739D01*
X143599175Y-76621151D01*
X143599172Y-76621152D01*
X143462321Y-76662666D01*
X143391213Y-76669669D01*
X143355660Y-76673171D01*
X143284340Y-76673171D01*
X143248787Y-76669669D01*
X143177679Y-76662666D01*
X143040828Y-76621152D01*
X143040825Y-76621151D01*
X142914706Y-76553739D01*
X142804157Y-76463014D01*
X142713432Y-76352465D01*
X142646020Y-76226346D01*
X142638028Y-76200000D01*
X142604505Y-76089492D01*
X142590488Y-75947171D01*
X142604505Y-75804850D01*
X142646019Y-75667999D01*
X142646020Y-75667996D01*
X142713432Y-75541877D01*
X142804157Y-75431328D01*
X142914706Y-75340603D01*
X143040825Y-75273191D01*
X143040828Y-75273190D01*
X143177679Y-75231676D01*
X143248787Y-75224673D01*
X143284340Y-75221171D01*
X143355660Y-75221171D01*
X143391213Y-75224673D01*
X143391213Y-75224673D01*
G37*
G36*
X133391213Y-75224673D02*
G01*
X133462321Y-75231676D01*
X133599172Y-75273190D01*
X133599175Y-75273191D01*
X133725294Y-75340603D01*
X133835843Y-75431328D01*
X133926568Y-75541877D01*
X133993980Y-75667996D01*
X133993981Y-75667999D01*
X134035495Y-75804850D01*
X134049512Y-75947171D01*
X134035495Y-76089492D01*
X134001972Y-76200000D01*
X133993980Y-76226346D01*
X133926568Y-76352465D01*
X133835843Y-76463014D01*
X133725294Y-76553739D01*
X133599175Y-76621151D01*
X133599172Y-76621152D01*
X133462321Y-76662666D01*
X133391213Y-76669669D01*
X133355660Y-76673171D01*
X133284340Y-76673171D01*
X133248787Y-76669669D01*
X133177679Y-76662666D01*
X133040828Y-76621152D01*
X133040825Y-76621151D01*
X132914706Y-76553739D01*
X132804157Y-76463014D01*
X132713432Y-76352465D01*
X132646020Y-76226346D01*
X132638028Y-76200000D01*
X132604505Y-76089492D01*
X132590488Y-75947171D01*
X132604505Y-75804850D01*
X132646019Y-75667999D01*
X132646020Y-75667996D01*
X132713432Y-75541877D01*
X132804157Y-75431328D01*
X132914706Y-75340603D01*
X133040825Y-75273191D01*
X133040828Y-75273190D01*
X133177679Y-75231676D01*
X133248787Y-75224673D01*
X133284340Y-75221171D01*
X133355660Y-75221171D01*
X133391213Y-75224673D01*
X133391213Y-75224673D01*
G37*
G36*
X141391213Y-75224673D02*
G01*
X141462321Y-75231676D01*
X141599172Y-75273190D01*
X141599175Y-75273191D01*
X141725294Y-75340603D01*
X141835843Y-75431328D01*
X141926568Y-75541877D01*
X141993980Y-75667996D01*
X141993981Y-75667999D01*
X142035495Y-75804850D01*
X142049512Y-75947171D01*
X142035495Y-76089492D01*
X142001972Y-76200000D01*
X141993980Y-76226346D01*
X141926568Y-76352465D01*
X141835843Y-76463014D01*
X141725294Y-76553739D01*
X141599175Y-76621151D01*
X141599172Y-76621152D01*
X141462321Y-76662666D01*
X141391213Y-76669669D01*
X141355660Y-76673171D01*
X141284340Y-76673171D01*
X141248787Y-76669669D01*
X141177679Y-76662666D01*
X141040828Y-76621152D01*
X141040825Y-76621151D01*
X140914706Y-76553739D01*
X140804157Y-76463014D01*
X140713432Y-76352465D01*
X140646020Y-76226346D01*
X140638028Y-76200000D01*
X140604505Y-76089492D01*
X140590488Y-75947171D01*
X140604505Y-75804850D01*
X140646019Y-75667999D01*
X140646020Y-75667996D01*
X140713432Y-75541877D01*
X140804157Y-75431328D01*
X140914706Y-75340603D01*
X141040825Y-75273191D01*
X141040828Y-75273190D01*
X141177679Y-75231676D01*
X141248787Y-75224673D01*
X141284340Y-75221171D01*
X141355660Y-75221171D01*
X141391213Y-75224673D01*
X141391213Y-75224673D01*
G37*
G36*
X145391213Y-75224673D02*
G01*
X145462321Y-75231676D01*
X145599172Y-75273190D01*
X145599175Y-75273191D01*
X145725294Y-75340603D01*
X145835843Y-75431328D01*
X145926568Y-75541877D01*
X145993980Y-75667996D01*
X145993981Y-75667999D01*
X146035495Y-75804850D01*
X146049512Y-75947171D01*
X146035495Y-76089492D01*
X146001972Y-76200000D01*
X145993980Y-76226346D01*
X145926568Y-76352465D01*
X145835843Y-76463014D01*
X145725294Y-76553739D01*
X145599175Y-76621151D01*
X145599172Y-76621152D01*
X145462321Y-76662666D01*
X145391213Y-76669669D01*
X145355660Y-76673171D01*
X145284340Y-76673171D01*
X145248787Y-76669669D01*
X145177679Y-76662666D01*
X145040828Y-76621152D01*
X145040825Y-76621151D01*
X144914706Y-76553739D01*
X144804157Y-76463014D01*
X144713432Y-76352465D01*
X144646020Y-76226346D01*
X144638028Y-76200000D01*
X144604505Y-76089492D01*
X144590488Y-75947171D01*
X144604505Y-75804850D01*
X144646019Y-75667999D01*
X144646020Y-75667996D01*
X144713432Y-75541877D01*
X144804157Y-75431328D01*
X144914706Y-75340603D01*
X145040825Y-75273191D01*
X145040828Y-75273190D01*
X145177679Y-75231676D01*
X145248787Y-75224673D01*
X145284340Y-75221171D01*
X145355660Y-75221171D01*
X145391213Y-75224673D01*
X145391213Y-75224673D01*
G37*
G36*
X59571000Y-76081000D02*
G01*
X57269000Y-76081000D01*
X57269000Y-73779000D01*
X59571000Y-73779000D01*
X59571000Y-76081000D01*
X59571000Y-76081000D01*
G37*
G36*
X65921000Y-76081000D02*
G01*
X63619000Y-76081000D01*
X63619000Y-73779000D01*
X65921000Y-73779000D01*
X65921000Y-76081000D01*
X65921000Y-76081000D01*
G37*
G36*
X117013665Y-72912622D02*
G01*
X117087222Y-72919867D01*
X117228786Y-72962810D01*
X117228788Y-72962811D01*
X117294019Y-72997678D01*
X117359252Y-73032546D01*
X117389040Y-73056992D01*
X117473607Y-73126393D01*
X117534834Y-73201000D01*
X117567454Y-73240748D01*
X117637190Y-73371214D01*
X117680133Y-73512778D01*
X117694633Y-73660000D01*
X117680133Y-73807222D01*
X117637190Y-73948786D01*
X117567454Y-74079252D01*
X117543008Y-74109040D01*
X117473607Y-74193607D01*
X117389040Y-74263008D01*
X117359252Y-74287454D01*
X117228786Y-74357190D01*
X117087222Y-74400133D01*
X117013665Y-74407378D01*
X116976888Y-74411000D01*
X116703112Y-74411000D01*
X116666335Y-74407378D01*
X116592778Y-74400133D01*
X116451214Y-74357190D01*
X116320748Y-74287454D01*
X116290960Y-74263008D01*
X116206393Y-74193607D01*
X116136992Y-74109040D01*
X116112546Y-74079252D01*
X116042810Y-73948786D01*
X115999867Y-73807222D01*
X115985367Y-73660000D01*
X115999867Y-73512778D01*
X116042810Y-73371214D01*
X116112546Y-73240748D01*
X116145166Y-73201000D01*
X116206393Y-73126393D01*
X116290960Y-73056992D01*
X116320748Y-73032546D01*
X116385981Y-72997678D01*
X116451212Y-72962811D01*
X116451214Y-72962810D01*
X116592778Y-72919867D01*
X116666335Y-72912622D01*
X116703112Y-72909000D01*
X116976888Y-72909000D01*
X117013665Y-72912622D01*
X117013665Y-72912622D01*
G37*
G36*
X109393665Y-72912622D02*
G01*
X109467222Y-72919867D01*
X109608786Y-72962810D01*
X109608788Y-72962811D01*
X109674019Y-72997678D01*
X109739252Y-73032546D01*
X109769040Y-73056992D01*
X109853607Y-73126393D01*
X109914834Y-73201000D01*
X109947454Y-73240748D01*
X110017190Y-73371214D01*
X110060133Y-73512778D01*
X110074633Y-73660000D01*
X110060133Y-73807222D01*
X110017190Y-73948786D01*
X109947454Y-74079252D01*
X109923008Y-74109040D01*
X109853607Y-74193607D01*
X109769040Y-74263008D01*
X109739252Y-74287454D01*
X109608786Y-74357190D01*
X109467222Y-74400133D01*
X109393665Y-74407378D01*
X109356888Y-74411000D01*
X109083112Y-74411000D01*
X109046335Y-74407378D01*
X108972778Y-74400133D01*
X108831214Y-74357190D01*
X108700748Y-74287454D01*
X108670960Y-74263008D01*
X108586393Y-74193607D01*
X108516992Y-74109040D01*
X108492546Y-74079252D01*
X108422810Y-73948786D01*
X108379867Y-73807222D01*
X108365367Y-73660000D01*
X108379867Y-73512778D01*
X108422810Y-73371214D01*
X108492546Y-73240748D01*
X108525166Y-73201000D01*
X108586393Y-73126393D01*
X108670960Y-73056992D01*
X108700748Y-73032546D01*
X108765981Y-72997678D01*
X108831212Y-72962811D01*
X108831214Y-72962810D01*
X108972778Y-72919867D01*
X109046335Y-72912622D01*
X109083112Y-72909000D01*
X109356888Y-72909000D01*
X109393665Y-72912622D01*
X109393665Y-72912622D01*
G37*
G36*
X104388228Y-72079703D02*
G01*
X104543100Y-72143853D01*
X104682481Y-72236985D01*
X104801015Y-72355519D01*
X104894147Y-72494900D01*
X104958297Y-72649772D01*
X104991000Y-72814184D01*
X104991000Y-72981816D01*
X104958297Y-73146228D01*
X104894147Y-73301100D01*
X104801015Y-73440481D01*
X104682481Y-73559015D01*
X104543100Y-73652147D01*
X104388228Y-73716297D01*
X104223816Y-73749000D01*
X104056184Y-73749000D01*
X103891772Y-73716297D01*
X103736900Y-73652147D01*
X103597519Y-73559015D01*
X103478985Y-73440481D01*
X103385853Y-73301100D01*
X103321703Y-73146228D01*
X103289000Y-72981816D01*
X103289000Y-72814184D01*
X103321703Y-72649772D01*
X103385853Y-72494900D01*
X103478985Y-72355519D01*
X103597519Y-72236985D01*
X103736900Y-72143853D01*
X103891772Y-72079703D01*
X104056184Y-72047000D01*
X104223816Y-72047000D01*
X104388228Y-72079703D01*
X104388228Y-72079703D01*
G37*
G36*
X101888228Y-72079703D02*
G01*
X102043100Y-72143853D01*
X102182481Y-72236985D01*
X102301015Y-72355519D01*
X102394147Y-72494900D01*
X102458297Y-72649772D01*
X102491000Y-72814184D01*
X102491000Y-72981816D01*
X102458297Y-73146228D01*
X102394147Y-73301100D01*
X102301015Y-73440481D01*
X102182481Y-73559015D01*
X102043100Y-73652147D01*
X101888228Y-73716297D01*
X101723816Y-73749000D01*
X101556184Y-73749000D01*
X101391772Y-73716297D01*
X101236900Y-73652147D01*
X101097519Y-73559015D01*
X100978985Y-73440481D01*
X100885853Y-73301100D01*
X100821703Y-73146228D01*
X100789000Y-72981816D01*
X100789000Y-72814184D01*
X100821703Y-72649772D01*
X100885853Y-72494900D01*
X100978985Y-72355519D01*
X101097519Y-72236985D01*
X101236900Y-72143853D01*
X101391772Y-72079703D01*
X101556184Y-72047000D01*
X101723816Y-72047000D01*
X101888228Y-72079703D01*
X101888228Y-72079703D01*
G37*
G36*
X52239271Y-71250103D02*
G01*
X52295635Y-71255654D01*
X52512600Y-71321470D01*
X52512602Y-71321471D01*
X52712555Y-71428347D01*
X52887818Y-71572182D01*
X53031653Y-71747445D01*
X53138263Y-71946900D01*
X53138530Y-71947400D01*
X53204346Y-72164365D01*
X53226569Y-72390000D01*
X53204346Y-72615635D01*
X53193991Y-72649772D01*
X53138529Y-72832602D01*
X53031653Y-73032555D01*
X52887818Y-73207818D01*
X52712555Y-73351653D01*
X52512602Y-73458529D01*
X52512600Y-73458530D01*
X52295635Y-73524346D01*
X52239271Y-73529897D01*
X52126545Y-73541000D01*
X52013455Y-73541000D01*
X51900729Y-73529897D01*
X51844365Y-73524346D01*
X51627400Y-73458530D01*
X51627398Y-73458529D01*
X51427445Y-73351653D01*
X51252182Y-73207818D01*
X51108347Y-73032555D01*
X51001471Y-72832602D01*
X50946010Y-72649772D01*
X50935654Y-72615635D01*
X50913431Y-72390000D01*
X50935654Y-72164365D01*
X51001470Y-71947400D01*
X51001737Y-71946900D01*
X51108347Y-71747445D01*
X51252182Y-71572182D01*
X51427445Y-71428347D01*
X51627398Y-71321471D01*
X51627400Y-71321470D01*
X51844365Y-71255654D01*
X51900729Y-71250103D01*
X52013455Y-71239000D01*
X52126545Y-71239000D01*
X52239271Y-71250103D01*
X52239271Y-71250103D01*
G37*
G36*
X71289271Y-71250103D02*
G01*
X71345635Y-71255654D01*
X71562600Y-71321470D01*
X71562602Y-71321471D01*
X71762555Y-71428347D01*
X71937818Y-71572182D01*
X72081653Y-71747445D01*
X72188263Y-71946900D01*
X72188530Y-71947400D01*
X72254346Y-72164365D01*
X72276569Y-72390000D01*
X72254346Y-72615635D01*
X72243991Y-72649772D01*
X72188529Y-72832602D01*
X72081653Y-73032555D01*
X71937818Y-73207818D01*
X71762555Y-73351653D01*
X71562602Y-73458529D01*
X71562600Y-73458530D01*
X71345635Y-73524346D01*
X71289271Y-73529897D01*
X71176545Y-73541000D01*
X71063455Y-73541000D01*
X70950729Y-73529897D01*
X70894365Y-73524346D01*
X70677400Y-73458530D01*
X70677398Y-73458529D01*
X70477445Y-73351653D01*
X70302182Y-73207818D01*
X70158347Y-73032555D01*
X70051471Y-72832602D01*
X69996010Y-72649772D01*
X69985654Y-72615635D01*
X69963431Y-72390000D01*
X69985654Y-72164365D01*
X70051470Y-71947400D01*
X70051737Y-71946900D01*
X70158347Y-71747445D01*
X70302182Y-71572182D01*
X70477445Y-71428347D01*
X70677398Y-71321471D01*
X70677400Y-71321470D01*
X70894365Y-71255654D01*
X70950729Y-71250103D01*
X71063455Y-71239000D01*
X71176545Y-71239000D01*
X71289271Y-71250103D01*
X71289271Y-71250103D01*
G37*
G36*
X122168228Y-71531703D02*
G01*
X122323100Y-71595853D01*
X122462481Y-71688985D01*
X122581015Y-71807519D01*
X122674147Y-71946900D01*
X122738297Y-72101772D01*
X122771000Y-72266184D01*
X122771000Y-72433816D01*
X122738297Y-72598228D01*
X122674147Y-72753100D01*
X122581015Y-72892481D01*
X122462481Y-73011015D01*
X122323100Y-73104147D01*
X122168228Y-73168297D01*
X122003816Y-73201000D01*
X121836184Y-73201000D01*
X121671772Y-73168297D01*
X121516900Y-73104147D01*
X121377519Y-73011015D01*
X121258985Y-72892481D01*
X121165853Y-72753100D01*
X121101703Y-72598228D01*
X121069000Y-72433816D01*
X121069000Y-72266184D01*
X121101703Y-72101772D01*
X121165853Y-71946900D01*
X121258985Y-71807519D01*
X121377519Y-71688985D01*
X121516900Y-71595853D01*
X121671772Y-71531703D01*
X121836184Y-71499000D01*
X122003816Y-71499000D01*
X122168228Y-71531703D01*
X122168228Y-71531703D01*
G37*
G36*
X117013665Y-70372622D02*
G01*
X117087222Y-70379867D01*
X117228786Y-70422810D01*
X117359252Y-70492546D01*
X117389040Y-70516992D01*
X117473607Y-70586393D01*
X117540822Y-70668297D01*
X117567454Y-70700748D01*
X117637190Y-70831214D01*
X117680133Y-70972778D01*
X117694633Y-71120000D01*
X117680133Y-71267222D01*
X117637190Y-71408786D01*
X117567454Y-71539252D01*
X117543008Y-71569040D01*
X117473607Y-71653607D01*
X117389040Y-71723008D01*
X117359252Y-71747454D01*
X117228786Y-71817190D01*
X117087222Y-71860133D01*
X117013665Y-71867378D01*
X116976888Y-71871000D01*
X116703112Y-71871000D01*
X116666335Y-71867378D01*
X116592778Y-71860133D01*
X116451214Y-71817190D01*
X116320748Y-71747454D01*
X116290960Y-71723008D01*
X116206393Y-71653607D01*
X116136992Y-71569040D01*
X116112546Y-71539252D01*
X116042810Y-71408786D01*
X115999867Y-71267222D01*
X115985367Y-71120000D01*
X115999867Y-70972778D01*
X116042810Y-70831214D01*
X116112546Y-70700748D01*
X116139178Y-70668297D01*
X116206393Y-70586393D01*
X116290960Y-70516992D01*
X116320748Y-70492546D01*
X116451214Y-70422810D01*
X116592778Y-70379867D01*
X116666335Y-70372622D01*
X116703112Y-70369000D01*
X116976888Y-70369000D01*
X117013665Y-70372622D01*
X117013665Y-70372622D01*
G37*
G36*
X109393665Y-70372622D02*
G01*
X109467222Y-70379867D01*
X109608786Y-70422810D01*
X109739252Y-70492546D01*
X109769040Y-70516992D01*
X109853607Y-70586393D01*
X109920822Y-70668297D01*
X109947454Y-70700748D01*
X110017190Y-70831214D01*
X110060133Y-70972778D01*
X110074633Y-71120000D01*
X110060133Y-71267222D01*
X110017190Y-71408786D01*
X109947454Y-71539252D01*
X109923008Y-71569040D01*
X109853607Y-71653607D01*
X109769040Y-71723008D01*
X109739252Y-71747454D01*
X109608786Y-71817190D01*
X109467222Y-71860133D01*
X109393665Y-71867378D01*
X109356888Y-71871000D01*
X109083112Y-71871000D01*
X109046335Y-71867378D01*
X108972778Y-71860133D01*
X108831214Y-71817190D01*
X108700748Y-71747454D01*
X108670960Y-71723008D01*
X108586393Y-71653607D01*
X108516992Y-71569040D01*
X108492546Y-71539252D01*
X108422810Y-71408786D01*
X108379867Y-71267222D01*
X108365367Y-71120000D01*
X108379867Y-70972778D01*
X108422810Y-70831214D01*
X108492546Y-70700748D01*
X108519178Y-70668297D01*
X108586393Y-70586393D01*
X108670960Y-70516992D01*
X108700748Y-70492546D01*
X108831214Y-70422810D01*
X108972778Y-70379867D01*
X109046335Y-70372622D01*
X109083112Y-70369000D01*
X109356888Y-70369000D01*
X109393665Y-70372622D01*
X109393665Y-70372622D01*
G37*
G36*
X122168228Y-69031703D02*
G01*
X122323100Y-69095853D01*
X122462481Y-69188985D01*
X122581015Y-69307519D01*
X122674147Y-69446900D01*
X122738297Y-69601772D01*
X122771000Y-69766184D01*
X122771000Y-69933816D01*
X122738297Y-70098228D01*
X122674147Y-70253100D01*
X122581015Y-70392481D01*
X122462481Y-70511015D01*
X122323100Y-70604147D01*
X122168228Y-70668297D01*
X122003816Y-70701000D01*
X121836184Y-70701000D01*
X121671772Y-70668297D01*
X121516900Y-70604147D01*
X121377519Y-70511015D01*
X121258985Y-70392481D01*
X121165853Y-70253100D01*
X121101703Y-70098228D01*
X121069000Y-69933816D01*
X121069000Y-69766184D01*
X121101703Y-69601772D01*
X121165853Y-69446900D01*
X121258985Y-69307519D01*
X121377519Y-69188985D01*
X121516900Y-69095853D01*
X121671772Y-69031703D01*
X121836184Y-68999000D01*
X122003816Y-68999000D01*
X122168228Y-69031703D01*
X122168228Y-69031703D01*
G37*
G36*
X117013665Y-67832622D02*
G01*
X117087222Y-67839867D01*
X117228786Y-67882810D01*
X117359252Y-67952546D01*
X117389040Y-67976992D01*
X117473607Y-68046393D01*
X117543008Y-68130960D01*
X117567454Y-68160748D01*
X117637190Y-68291214D01*
X117680133Y-68432778D01*
X117694633Y-68580000D01*
X117680133Y-68727222D01*
X117637190Y-68868786D01*
X117567454Y-68999252D01*
X117543008Y-69029040D01*
X117473607Y-69113607D01*
X117389040Y-69183008D01*
X117359252Y-69207454D01*
X117228786Y-69277190D01*
X117087222Y-69320133D01*
X117013665Y-69327378D01*
X116976888Y-69331000D01*
X116703112Y-69331000D01*
X116666335Y-69327378D01*
X116592778Y-69320133D01*
X116451214Y-69277190D01*
X116320748Y-69207454D01*
X116290960Y-69183008D01*
X116206393Y-69113607D01*
X116136992Y-69029040D01*
X116112546Y-68999252D01*
X116042810Y-68868786D01*
X115999867Y-68727222D01*
X115985367Y-68580000D01*
X115999867Y-68432778D01*
X116042810Y-68291214D01*
X116112546Y-68160748D01*
X116136992Y-68130960D01*
X116206393Y-68046393D01*
X116290960Y-67976992D01*
X116320748Y-67952546D01*
X116451214Y-67882810D01*
X116592778Y-67839867D01*
X116666335Y-67832622D01*
X116703112Y-67829000D01*
X116976888Y-67829000D01*
X117013665Y-67832622D01*
X117013665Y-67832622D01*
G37*
G36*
X109393665Y-67832622D02*
G01*
X109467222Y-67839867D01*
X109608786Y-67882810D01*
X109739252Y-67952546D01*
X109769040Y-67976992D01*
X109853607Y-68046393D01*
X109923008Y-68130960D01*
X109947454Y-68160748D01*
X110017190Y-68291214D01*
X110060133Y-68432778D01*
X110074633Y-68580000D01*
X110060133Y-68727222D01*
X110017190Y-68868786D01*
X109947454Y-68999252D01*
X109923008Y-69029040D01*
X109853607Y-69113607D01*
X109769040Y-69183008D01*
X109739252Y-69207454D01*
X109608786Y-69277190D01*
X109467222Y-69320133D01*
X109393665Y-69327378D01*
X109356888Y-69331000D01*
X109083112Y-69331000D01*
X109046335Y-69327378D01*
X108972778Y-69320133D01*
X108831214Y-69277190D01*
X108700748Y-69207454D01*
X108670960Y-69183008D01*
X108586393Y-69113607D01*
X108516992Y-69029040D01*
X108492546Y-68999252D01*
X108422810Y-68868786D01*
X108379867Y-68727222D01*
X108365367Y-68580000D01*
X108379867Y-68432778D01*
X108422810Y-68291214D01*
X108492546Y-68160748D01*
X108516992Y-68130960D01*
X108586393Y-68046393D01*
X108670960Y-67976992D01*
X108700748Y-67952546D01*
X108831214Y-67882810D01*
X108972778Y-67839867D01*
X109046335Y-67832622D01*
X109083112Y-67829000D01*
X109356888Y-67829000D01*
X109393665Y-67832622D01*
X109393665Y-67832622D01*
G37*
G36*
X109393665Y-65292622D02*
G01*
X109467222Y-65299867D01*
X109608786Y-65342810D01*
X109739252Y-65412546D01*
X109769040Y-65436992D01*
X109853607Y-65506393D01*
X109920429Y-65587818D01*
X109947454Y-65620748D01*
X110017190Y-65751214D01*
X110060133Y-65892778D01*
X110074633Y-66040000D01*
X110060133Y-66187222D01*
X110017190Y-66328786D01*
X109947454Y-66459252D01*
X109923008Y-66489040D01*
X109853607Y-66573607D01*
X109769040Y-66643008D01*
X109739252Y-66667454D01*
X109608786Y-66737190D01*
X109467222Y-66780133D01*
X109393665Y-66787378D01*
X109356888Y-66791000D01*
X109083112Y-66791000D01*
X109046335Y-66787378D01*
X108972778Y-66780133D01*
X108831214Y-66737190D01*
X108700748Y-66667454D01*
X108670960Y-66643008D01*
X108586393Y-66573607D01*
X108516992Y-66489040D01*
X108492546Y-66459252D01*
X108422810Y-66328786D01*
X108379867Y-66187222D01*
X108365367Y-66040000D01*
X108379867Y-65892778D01*
X108422810Y-65751214D01*
X108492546Y-65620748D01*
X108519571Y-65587818D01*
X108586393Y-65506393D01*
X108670960Y-65436992D01*
X108700748Y-65412546D01*
X108831214Y-65342810D01*
X108972778Y-65299867D01*
X109046335Y-65292622D01*
X109083112Y-65289000D01*
X109356888Y-65289000D01*
X109393665Y-65292622D01*
X109393665Y-65292622D01*
G37*
G36*
X117013665Y-65292622D02*
G01*
X117087222Y-65299867D01*
X117228786Y-65342810D01*
X117359252Y-65412546D01*
X117389040Y-65436992D01*
X117473607Y-65506393D01*
X117540429Y-65587818D01*
X117567454Y-65620748D01*
X117637190Y-65751214D01*
X117680133Y-65892778D01*
X117694633Y-66040000D01*
X117680133Y-66187222D01*
X117637190Y-66328786D01*
X117567454Y-66459252D01*
X117543008Y-66489040D01*
X117473607Y-66573607D01*
X117389040Y-66643008D01*
X117359252Y-66667454D01*
X117228786Y-66737190D01*
X117087222Y-66780133D01*
X117013665Y-66787378D01*
X116976888Y-66791000D01*
X116703112Y-66791000D01*
X116666335Y-66787378D01*
X116592778Y-66780133D01*
X116451214Y-66737190D01*
X116320748Y-66667454D01*
X116290960Y-66643008D01*
X116206393Y-66573607D01*
X116136992Y-66489040D01*
X116112546Y-66459252D01*
X116042810Y-66328786D01*
X115999867Y-66187222D01*
X115985367Y-66040000D01*
X115999867Y-65892778D01*
X116042810Y-65751214D01*
X116112546Y-65620748D01*
X116139571Y-65587818D01*
X116206393Y-65506393D01*
X116290960Y-65436992D01*
X116320748Y-65412546D01*
X116451214Y-65342810D01*
X116592778Y-65299867D01*
X116666335Y-65292622D01*
X116703112Y-65289000D01*
X116976888Y-65289000D01*
X117013665Y-65292622D01*
X117013665Y-65292622D01*
G37*
G36*
X58589271Y-63630103D02*
G01*
X58645635Y-63635654D01*
X58862600Y-63701470D01*
X58862602Y-63701471D01*
X59062555Y-63808347D01*
X59237818Y-63952182D01*
X59381653Y-64127445D01*
X59488529Y-64327398D01*
X59554346Y-64544366D01*
X59576569Y-64770000D01*
X59554346Y-64995634D01*
X59488529Y-65212602D01*
X59381653Y-65412555D01*
X59237818Y-65587818D01*
X59062555Y-65731653D01*
X58862602Y-65838529D01*
X58862600Y-65838530D01*
X58645635Y-65904346D01*
X58589271Y-65909897D01*
X58476545Y-65921000D01*
X58363455Y-65921000D01*
X58250729Y-65909897D01*
X58194365Y-65904346D01*
X57977400Y-65838530D01*
X57977398Y-65838529D01*
X57777445Y-65731653D01*
X57602182Y-65587818D01*
X57458347Y-65412555D01*
X57351471Y-65212602D01*
X57285654Y-64995634D01*
X57263431Y-64770000D01*
X57285654Y-64544366D01*
X57351471Y-64327398D01*
X57458347Y-64127445D01*
X57602182Y-63952182D01*
X57777445Y-63808347D01*
X57977398Y-63701471D01*
X57977400Y-63701470D01*
X58194365Y-63635654D01*
X58250729Y-63630103D01*
X58363455Y-63619000D01*
X58476545Y-63619000D01*
X58589271Y-63630103D01*
X58589271Y-63630103D01*
G37*
G36*
X64939271Y-63630103D02*
G01*
X64995635Y-63635654D01*
X65212600Y-63701470D01*
X65212602Y-63701471D01*
X65412555Y-63808347D01*
X65587818Y-63952182D01*
X65731653Y-64127445D01*
X65838529Y-64327398D01*
X65904346Y-64544366D01*
X65926569Y-64770000D01*
X65904346Y-64995634D01*
X65838529Y-65212602D01*
X65731653Y-65412555D01*
X65587818Y-65587818D01*
X65412555Y-65731653D01*
X65212602Y-65838529D01*
X65212600Y-65838530D01*
X64995635Y-65904346D01*
X64939271Y-65909897D01*
X64826545Y-65921000D01*
X64713455Y-65921000D01*
X64600729Y-65909897D01*
X64544365Y-65904346D01*
X64327400Y-65838530D01*
X64327398Y-65838529D01*
X64127445Y-65731653D01*
X63952182Y-65587818D01*
X63808347Y-65412555D01*
X63701471Y-65212602D01*
X63635654Y-64995634D01*
X63613431Y-64770000D01*
X63635654Y-64544366D01*
X63701471Y-64327398D01*
X63808347Y-64127445D01*
X63952182Y-63952182D01*
X64127445Y-63808347D01*
X64327398Y-63701471D01*
X64327400Y-63701470D01*
X64544365Y-63635654D01*
X64600729Y-63630103D01*
X64713455Y-63619000D01*
X64826545Y-63619000D01*
X64939271Y-63630103D01*
X64939271Y-63630103D01*
G37*
G36*
X122030442Y-63875518D02*
G01*
X122096627Y-63882037D01*
X122266466Y-63933557D01*
X122422991Y-64017222D01*
X122442956Y-64033607D01*
X122560186Y-64129814D01*
X122615478Y-64197189D01*
X122672778Y-64267009D01*
X122756443Y-64423534D01*
X122807963Y-64593373D01*
X122825359Y-64770000D01*
X122807963Y-64946627D01*
X122756443Y-65116466D01*
X122672778Y-65272991D01*
X122650721Y-65299867D01*
X122560186Y-65410186D01*
X122458729Y-65493448D01*
X122422991Y-65522778D01*
X122266466Y-65606443D01*
X122096627Y-65657963D01*
X122030442Y-65664482D01*
X121964260Y-65671000D01*
X121875740Y-65671000D01*
X121809558Y-65664482D01*
X121743373Y-65657963D01*
X121573534Y-65606443D01*
X121417009Y-65522778D01*
X121381271Y-65493448D01*
X121279814Y-65410186D01*
X121189279Y-65299867D01*
X121167222Y-65272991D01*
X121083557Y-65116466D01*
X121032037Y-64946627D01*
X121014641Y-64770000D01*
X121032037Y-64593373D01*
X121083557Y-64423534D01*
X121167222Y-64267009D01*
X121224522Y-64197189D01*
X121279814Y-64129814D01*
X121397044Y-64033607D01*
X121417009Y-64017222D01*
X121573534Y-63933557D01*
X121743373Y-63882037D01*
X121809558Y-63875518D01*
X121875740Y-63869000D01*
X121964260Y-63869000D01*
X122030442Y-63875518D01*
X122030442Y-63875518D01*
G37*
G36*
X109393665Y-62752622D02*
G01*
X109467222Y-62759867D01*
X109608786Y-62802810D01*
X109739252Y-62872546D01*
X109769040Y-62896992D01*
X109853607Y-62966393D01*
X109923008Y-63050960D01*
X109947454Y-63080748D01*
X110017190Y-63211214D01*
X110060133Y-63352778D01*
X110074633Y-63500000D01*
X110060133Y-63647222D01*
X110017190Y-63788786D01*
X109947454Y-63919252D01*
X109935714Y-63933557D01*
X109853607Y-64033607D01*
X109769040Y-64103008D01*
X109739252Y-64127454D01*
X109608786Y-64197190D01*
X109467222Y-64240133D01*
X109393665Y-64247378D01*
X109356888Y-64251000D01*
X109083112Y-64251000D01*
X109046335Y-64247378D01*
X108972778Y-64240133D01*
X108831214Y-64197190D01*
X108700748Y-64127454D01*
X108670960Y-64103008D01*
X108586393Y-64033607D01*
X108504286Y-63933557D01*
X108492546Y-63919252D01*
X108422810Y-63788786D01*
X108379867Y-63647222D01*
X108365367Y-63500000D01*
X108379867Y-63352778D01*
X108422810Y-63211214D01*
X108492546Y-63080748D01*
X108516992Y-63050960D01*
X108586393Y-62966393D01*
X108670960Y-62896992D01*
X108700748Y-62872546D01*
X108831214Y-62802810D01*
X108972778Y-62759867D01*
X109046335Y-62752622D01*
X109083112Y-62749000D01*
X109356888Y-62749000D01*
X109393665Y-62752622D01*
X109393665Y-62752622D01*
G37*
G36*
X117013665Y-62752622D02*
G01*
X117087222Y-62759867D01*
X117228786Y-62802810D01*
X117359252Y-62872546D01*
X117389040Y-62896992D01*
X117473607Y-62966393D01*
X117543008Y-63050960D01*
X117567454Y-63080748D01*
X117637190Y-63211214D01*
X117680133Y-63352778D01*
X117694633Y-63500000D01*
X117680133Y-63647222D01*
X117637190Y-63788786D01*
X117567454Y-63919252D01*
X117555714Y-63933557D01*
X117473607Y-64033607D01*
X117389040Y-64103008D01*
X117359252Y-64127454D01*
X117228786Y-64197190D01*
X117087222Y-64240133D01*
X117013665Y-64247378D01*
X116976888Y-64251000D01*
X116703112Y-64251000D01*
X116666335Y-64247378D01*
X116592778Y-64240133D01*
X116451214Y-64197190D01*
X116320748Y-64127454D01*
X116290960Y-64103008D01*
X116206393Y-64033607D01*
X116124286Y-63933557D01*
X116112546Y-63919252D01*
X116042810Y-63788786D01*
X115999867Y-63647222D01*
X115985367Y-63500000D01*
X115999867Y-63352778D01*
X116042810Y-63211214D01*
X116112546Y-63080748D01*
X116136992Y-63050960D01*
X116206393Y-62966393D01*
X116290960Y-62896992D01*
X116320748Y-62872546D01*
X116451214Y-62802810D01*
X116592778Y-62759867D01*
X116666335Y-62752622D01*
X116703112Y-62749000D01*
X116976888Y-62749000D01*
X117013665Y-62752622D01*
X117013665Y-62752622D01*
G37*
G36*
X53221000Y-63381000D02*
G01*
X50919000Y-63381000D01*
X50919000Y-61079000D01*
X53221000Y-61079000D01*
X53221000Y-63381000D01*
X53221000Y-63381000D01*
G37*
G36*
X72271000Y-63381000D02*
G01*
X69969000Y-63381000D01*
X69969000Y-61079000D01*
X72271000Y-61079000D01*
X72271000Y-63381000D01*
X72271000Y-63381000D01*
G37*
G36*
X122821000Y-63131000D02*
G01*
X121019000Y-63131000D01*
X121019000Y-61329000D01*
X122821000Y-61329000D01*
X122821000Y-63131000D01*
X122821000Y-63131000D01*
G37*
G36*
X110071000Y-61811000D02*
G01*
X108369000Y-61811000D01*
X108369000Y-60109000D01*
X110071000Y-60109000D01*
X110071000Y-61811000D01*
X110071000Y-61811000D01*
G37*
G36*
X117013665Y-60212622D02*
G01*
X117087222Y-60219867D01*
X117228786Y-60262810D01*
X117359252Y-60332546D01*
X117389040Y-60356992D01*
X117473607Y-60426393D01*
X117543008Y-60510960D01*
X117567454Y-60540748D01*
X117637190Y-60671214D01*
X117680133Y-60812778D01*
X117694633Y-60960000D01*
X117680133Y-61107222D01*
X117637190Y-61248786D01*
X117567454Y-61379252D01*
X117543008Y-61409040D01*
X117473607Y-61493607D01*
X117389040Y-61563008D01*
X117359252Y-61587454D01*
X117228786Y-61657190D01*
X117087222Y-61700133D01*
X117013665Y-61707378D01*
X116976888Y-61711000D01*
X116703112Y-61711000D01*
X116666335Y-61707378D01*
X116592778Y-61700133D01*
X116451214Y-61657190D01*
X116320748Y-61587454D01*
X116290960Y-61563008D01*
X116206393Y-61493607D01*
X116136992Y-61409040D01*
X116112546Y-61379252D01*
X116042810Y-61248786D01*
X115999867Y-61107222D01*
X115985367Y-60960000D01*
X115999867Y-60812778D01*
X116042810Y-60671214D01*
X116112546Y-60540748D01*
X116136992Y-60510960D01*
X116206393Y-60426393D01*
X116290960Y-60356992D01*
X116320748Y-60332546D01*
X116451214Y-60262810D01*
X116592778Y-60219867D01*
X116666335Y-60212622D01*
X116703112Y-60209000D01*
X116976888Y-60209000D01*
X117013665Y-60212622D01*
X117013665Y-60212622D01*
G37*
G36*
X144933228Y-57601703D02*
G01*
X145088100Y-57665853D01*
X145227481Y-57758985D01*
X145346015Y-57877519D01*
X145439147Y-58016900D01*
X145503297Y-58171772D01*
X145536000Y-58336184D01*
X145536000Y-58503816D01*
X145503297Y-58668228D01*
X145439147Y-58823100D01*
X145346015Y-58962481D01*
X145227481Y-59081015D01*
X145088100Y-59174147D01*
X144933228Y-59238297D01*
X144768816Y-59271000D01*
X144601184Y-59271000D01*
X144436772Y-59238297D01*
X144281900Y-59174147D01*
X144142519Y-59081015D01*
X144023985Y-58962481D01*
X143930853Y-58823100D01*
X143866703Y-58668228D01*
X143834000Y-58503816D01*
X143834000Y-58336184D01*
X143866703Y-58171772D01*
X143930853Y-58016900D01*
X144023985Y-57877519D01*
X144142519Y-57758985D01*
X144281900Y-57665853D01*
X144436772Y-57601703D01*
X144601184Y-57569000D01*
X144768816Y-57569000D01*
X144933228Y-57601703D01*
X144933228Y-57601703D01*
G37*
G36*
X147536000Y-59271000D02*
G01*
X145834000Y-59271000D01*
X145834000Y-57569000D01*
X147536000Y-57569000D01*
X147536000Y-59271000D01*
X147536000Y-59271000D01*
G37*
G36*
X107481823Y-55041313D02*
G01*
X107642242Y-55089976D01*
X107774906Y-55160886D01*
X107790078Y-55168996D01*
X107919659Y-55275341D01*
X108026004Y-55404922D01*
X108026005Y-55404924D01*
X108105024Y-55552758D01*
X108153687Y-55713177D01*
X108170117Y-55880000D01*
X108153687Y-56046823D01*
X108105024Y-56207242D01*
X108034114Y-56339906D01*
X108026004Y-56355078D01*
X107919659Y-56484659D01*
X107790078Y-56591004D01*
X107790076Y-56591005D01*
X107642242Y-56670024D01*
X107481823Y-56718687D01*
X107356804Y-56731000D01*
X107273196Y-56731000D01*
X107148177Y-56718687D01*
X106987758Y-56670024D01*
X106839924Y-56591005D01*
X106839922Y-56591004D01*
X106710341Y-56484659D01*
X106603996Y-56355078D01*
X106595886Y-56339906D01*
X106524976Y-56207242D01*
X106476313Y-56046823D01*
X106459883Y-55880000D01*
X106476313Y-55713177D01*
X106524976Y-55552758D01*
X106603995Y-55404924D01*
X106603996Y-55404922D01*
X106710341Y-55275341D01*
X106839922Y-55168996D01*
X106855094Y-55160886D01*
X106987758Y-55089976D01*
X107148177Y-55041313D01*
X107273196Y-55029000D01*
X107356804Y-55029000D01*
X107481823Y-55041313D01*
X107481823Y-55041313D01*
G37*
G36*
X55861000Y-55861000D02*
G01*
X53359000Y-55861000D01*
X53359000Y-53359000D01*
X55861000Y-53359000D01*
X55861000Y-55861000D01*
X55861000Y-55861000D01*
G37*
G36*
X70095239Y-53377101D02*
G01*
X70331053Y-53448634D01*
X70548381Y-53564799D01*
X70738871Y-53721129D01*
X70895201Y-53911619D01*
X71011366Y-54128947D01*
X71082899Y-54364761D01*
X71107053Y-54610000D01*
X71082899Y-54855239D01*
X71011366Y-55091053D01*
X70895201Y-55308381D01*
X70738871Y-55498871D01*
X70548381Y-55655201D01*
X70331053Y-55771366D01*
X70095239Y-55842899D01*
X69911457Y-55861000D01*
X69788543Y-55861000D01*
X69604761Y-55842899D01*
X69368947Y-55771366D01*
X69151619Y-55655201D01*
X68961129Y-55498871D01*
X68804799Y-55308381D01*
X68688634Y-55091053D01*
X68617101Y-54855239D01*
X68592947Y-54610000D01*
X68617101Y-54364761D01*
X68688634Y-54128947D01*
X68804799Y-53911619D01*
X68961129Y-53721129D01*
X69151619Y-53564799D01*
X69368947Y-53448634D01*
X69604761Y-53377101D01*
X69788543Y-53359000D01*
X69911457Y-53359000D01*
X70095239Y-53377101D01*
X70095239Y-53377101D01*
G37*
G36*
X144341719Y-51033520D02*
G01*
X144530880Y-51090901D01*
X144530883Y-51090902D01*
X144623333Y-51140318D01*
X144705212Y-51184083D01*
X144858015Y-51309485D01*
X144983417Y-51462288D01*
X145076599Y-51636619D01*
X145133980Y-51825780D01*
X145148500Y-51973206D01*
X145148500Y-52166793D01*
X145133980Y-52314219D01*
X145085785Y-52473097D01*
X145076598Y-52503383D01*
X145027182Y-52595833D01*
X144983417Y-52677712D01*
X144858015Y-52830515D01*
X144705212Y-52955917D01*
X144530881Y-53049099D01*
X144341720Y-53106480D01*
X144145000Y-53125855D01*
X143948281Y-53106480D01*
X143759120Y-53049099D01*
X143584788Y-52955917D01*
X143431985Y-52830515D01*
X143306583Y-52677712D01*
X143213401Y-52503381D01*
X143156020Y-52314220D01*
X143141500Y-52166794D01*
X143141500Y-51973207D01*
X143156020Y-51825781D01*
X143213401Y-51636620D01*
X143213402Y-51636617D01*
X143271716Y-51527520D01*
X143306583Y-51462288D01*
X143431985Y-51309485D01*
X143584788Y-51184083D01*
X143759119Y-51090901D01*
X143948280Y-51033520D01*
X144145000Y-51014145D01*
X144341719Y-51033520D01*
X144341719Y-51033520D01*
G37*
G36*
X146881719Y-51033520D02*
G01*
X147070880Y-51090901D01*
X147070883Y-51090902D01*
X147163333Y-51140318D01*
X147245212Y-51184083D01*
X147398015Y-51309485D01*
X147523417Y-51462288D01*
X147616599Y-51636619D01*
X147673980Y-51825780D01*
X147688500Y-51973206D01*
X147688500Y-52166793D01*
X147673980Y-52314219D01*
X147625785Y-52473097D01*
X147616598Y-52503383D01*
X147567182Y-52595833D01*
X147523417Y-52677712D01*
X147398015Y-52830515D01*
X147245212Y-52955917D01*
X147070881Y-53049099D01*
X146881720Y-53106480D01*
X146685000Y-53125855D01*
X146488281Y-53106480D01*
X146299120Y-53049099D01*
X146124788Y-52955917D01*
X145971985Y-52830515D01*
X145846583Y-52677712D01*
X145753401Y-52503381D01*
X145696020Y-52314220D01*
X145681500Y-52166794D01*
X145681500Y-51973207D01*
X145696020Y-51825781D01*
X145753401Y-51636620D01*
X145753402Y-51636617D01*
X145811716Y-51527520D01*
X145846583Y-51462288D01*
X145971985Y-51309485D01*
X146124788Y-51184083D01*
X146299119Y-51090901D01*
X146488280Y-51033520D01*
X146685000Y-51014145D01*
X146881719Y-51033520D01*
X146881719Y-51033520D01*
G37*
G36*
X142608500Y-53121000D02*
G01*
X140601500Y-53121000D01*
X140601500Y-51019000D01*
X142608500Y-51019000D01*
X142608500Y-53121000D01*
X142608500Y-53121000D01*
G37*
G36*
X117088228Y-51251703D02*
G01*
X117243100Y-51315853D01*
X117382481Y-51408985D01*
X117501015Y-51527519D01*
X117594147Y-51666900D01*
X117658297Y-51821772D01*
X117691000Y-51986184D01*
X117691000Y-52153816D01*
X117658297Y-52318228D01*
X117594147Y-52473100D01*
X117501015Y-52612481D01*
X117382481Y-52731015D01*
X117243100Y-52824147D01*
X117088228Y-52888297D01*
X116923816Y-52921000D01*
X116756184Y-52921000D01*
X116591772Y-52888297D01*
X116436900Y-52824147D01*
X116297519Y-52731015D01*
X116178985Y-52612481D01*
X116085853Y-52473100D01*
X116021703Y-52318228D01*
X115989000Y-52153816D01*
X115989000Y-51986184D01*
X116021703Y-51821772D01*
X116085853Y-51666900D01*
X116178985Y-51527519D01*
X116297519Y-51408985D01*
X116436900Y-51315853D01*
X116591772Y-51251703D01*
X116756184Y-51219000D01*
X116923816Y-51219000D01*
X117088228Y-51251703D01*
X117088228Y-51251703D01*
G37*
G36*
X86470442Y-49905518D02*
G01*
X86536627Y-49912037D01*
X86706466Y-49963557D01*
X86862991Y-50047222D01*
X86898729Y-50076552D01*
X87000186Y-50159814D01*
X87083448Y-50261271D01*
X87112778Y-50297009D01*
X87196443Y-50453534D01*
X87247963Y-50623373D01*
X87265359Y-50800000D01*
X87247963Y-50976627D01*
X87196443Y-51146466D01*
X87112778Y-51302991D01*
X87107448Y-51309485D01*
X87000186Y-51440186D01*
X86898729Y-51523448D01*
X86862991Y-51552778D01*
X86706466Y-51636443D01*
X86536627Y-51687963D01*
X86470442Y-51694482D01*
X86404260Y-51701000D01*
X86315740Y-51701000D01*
X86249558Y-51694482D01*
X86183373Y-51687963D01*
X86013534Y-51636443D01*
X85857009Y-51552778D01*
X85821271Y-51523448D01*
X85719814Y-51440186D01*
X85612552Y-51309485D01*
X85607222Y-51302991D01*
X85523557Y-51146466D01*
X85472037Y-50976627D01*
X85454641Y-50800000D01*
X85472037Y-50623373D01*
X85523557Y-50453534D01*
X85607222Y-50297009D01*
X85636552Y-50261271D01*
X85719814Y-50159814D01*
X85821271Y-50076552D01*
X85857009Y-50047222D01*
X86013534Y-49963557D01*
X86183373Y-49912037D01*
X86249557Y-49905519D01*
X86315740Y-49899000D01*
X86404260Y-49899000D01*
X86470442Y-49905518D01*
X86470442Y-49905518D01*
G37*
G36*
X91550442Y-49905518D02*
G01*
X91616627Y-49912037D01*
X91786466Y-49963557D01*
X91942991Y-50047222D01*
X91978729Y-50076552D01*
X92080186Y-50159814D01*
X92163448Y-50261271D01*
X92192778Y-50297009D01*
X92276443Y-50453534D01*
X92327963Y-50623373D01*
X92345359Y-50800000D01*
X92327963Y-50976627D01*
X92276443Y-51146466D01*
X92192778Y-51302991D01*
X92187448Y-51309485D01*
X92080186Y-51440186D01*
X91978729Y-51523448D01*
X91942991Y-51552778D01*
X91786466Y-51636443D01*
X91616627Y-51687963D01*
X91550442Y-51694482D01*
X91484260Y-51701000D01*
X91395740Y-51701000D01*
X91329558Y-51694482D01*
X91263373Y-51687963D01*
X91093534Y-51636443D01*
X90937009Y-51552778D01*
X90901271Y-51523448D01*
X90799814Y-51440186D01*
X90692552Y-51309485D01*
X90687222Y-51302991D01*
X90603557Y-51146466D01*
X90552037Y-50976627D01*
X90534641Y-50800000D01*
X90552037Y-50623373D01*
X90603557Y-50453534D01*
X90687222Y-50297009D01*
X90716552Y-50261271D01*
X90799814Y-50159814D01*
X90901271Y-50076552D01*
X90937009Y-50047222D01*
X91093534Y-49963557D01*
X91263373Y-49912037D01*
X91329557Y-49905519D01*
X91395740Y-49899000D01*
X91484260Y-49899000D01*
X91550442Y-49905518D01*
X91550442Y-49905518D01*
G37*
G36*
X84721000Y-51701000D02*
G01*
X82919000Y-51701000D01*
X82919000Y-49899000D01*
X84721000Y-49899000D01*
X84721000Y-51701000D01*
X84721000Y-51701000D01*
G37*
G36*
X89010442Y-49905518D02*
G01*
X89076627Y-49912037D01*
X89246466Y-49963557D01*
X89402991Y-50047222D01*
X89438729Y-50076552D01*
X89540186Y-50159814D01*
X89623448Y-50261271D01*
X89652778Y-50297009D01*
X89736443Y-50453534D01*
X89787963Y-50623373D01*
X89805359Y-50800000D01*
X89787963Y-50976627D01*
X89736443Y-51146466D01*
X89652778Y-51302991D01*
X89647448Y-51309485D01*
X89540186Y-51440186D01*
X89438729Y-51523448D01*
X89402991Y-51552778D01*
X89246466Y-51636443D01*
X89076627Y-51687963D01*
X89010442Y-51694482D01*
X88944260Y-51701000D01*
X88855740Y-51701000D01*
X88789558Y-51694482D01*
X88723373Y-51687963D01*
X88553534Y-51636443D01*
X88397009Y-51552778D01*
X88361271Y-51523448D01*
X88259814Y-51440186D01*
X88152552Y-51309485D01*
X88147222Y-51302991D01*
X88063557Y-51146466D01*
X88012037Y-50976627D01*
X87994641Y-50800000D01*
X88012037Y-50623373D01*
X88063557Y-50453534D01*
X88147222Y-50297009D01*
X88176552Y-50261271D01*
X88259814Y-50159814D01*
X88361271Y-50076552D01*
X88397009Y-50047222D01*
X88553534Y-49963557D01*
X88723373Y-49912037D01*
X88789557Y-49905519D01*
X88855740Y-49899000D01*
X88944260Y-49899000D01*
X89010442Y-49905518D01*
X89010442Y-49905518D01*
G37*
G36*
X86608228Y-45536703D02*
G01*
X86763100Y-45600853D01*
X86902481Y-45693985D01*
X87021015Y-45812519D01*
X87114147Y-45951900D01*
X87178297Y-46106772D01*
X87211000Y-46271184D01*
X87211000Y-46438816D01*
X87178297Y-46603228D01*
X87114147Y-46758100D01*
X87021015Y-46897481D01*
X86902481Y-47016015D01*
X86763100Y-47109147D01*
X86608228Y-47173297D01*
X86443816Y-47206000D01*
X86276184Y-47206000D01*
X86111772Y-47173297D01*
X85956900Y-47109147D01*
X85817519Y-47016015D01*
X85698985Y-46897481D01*
X85605853Y-46758100D01*
X85541703Y-46603228D01*
X85509000Y-46438816D01*
X85509000Y-46271184D01*
X85541703Y-46106772D01*
X85605853Y-45951900D01*
X85698985Y-45812519D01*
X85817519Y-45693985D01*
X85956900Y-45600853D01*
X86111772Y-45536703D01*
X86276184Y-45504000D01*
X86443816Y-45504000D01*
X86608228Y-45536703D01*
X86608228Y-45536703D01*
G37*
G36*
X141853228Y-44901703D02*
G01*
X142008100Y-44965853D01*
X142147481Y-45058985D01*
X142266015Y-45177519D01*
X142359147Y-45316900D01*
X142423297Y-45471772D01*
X142456000Y-45636184D01*
X142456000Y-45803816D01*
X142423297Y-45968228D01*
X142359147Y-46123100D01*
X142266015Y-46262481D01*
X142147481Y-46381015D01*
X142008100Y-46474147D01*
X141853228Y-46538297D01*
X141688816Y-46571000D01*
X141521184Y-46571000D01*
X141356772Y-46538297D01*
X141201900Y-46474147D01*
X141062519Y-46381015D01*
X140943985Y-46262481D01*
X140850853Y-46123100D01*
X140786703Y-45968228D01*
X140754000Y-45803816D01*
X140754000Y-45636184D01*
X140786703Y-45471772D01*
X140850853Y-45316900D01*
X140943985Y-45177519D01*
X141062519Y-45058985D01*
X141201900Y-44965853D01*
X141356772Y-44901703D01*
X141521184Y-44869000D01*
X141688816Y-44869000D01*
X141853228Y-44901703D01*
X141853228Y-44901703D01*
G37*
G36*
X146853228Y-44901703D02*
G01*
X147008100Y-44965853D01*
X147147481Y-45058985D01*
X147266015Y-45177519D01*
X147359147Y-45316900D01*
X147423297Y-45471772D01*
X147456000Y-45636184D01*
X147456000Y-45803816D01*
X147423297Y-45968228D01*
X147359147Y-46123100D01*
X147266015Y-46262481D01*
X147147481Y-46381015D01*
X147008100Y-46474147D01*
X146853228Y-46538297D01*
X146688816Y-46571000D01*
X146521184Y-46571000D01*
X146356772Y-46538297D01*
X146201900Y-46474147D01*
X146062519Y-46381015D01*
X145943985Y-46262481D01*
X145850853Y-46123100D01*
X145786703Y-45968228D01*
X145754000Y-45803816D01*
X145754000Y-45636184D01*
X145786703Y-45471772D01*
X145850853Y-45316900D01*
X145943985Y-45177519D01*
X146062519Y-45058985D01*
X146201900Y-44965853D01*
X146356772Y-44901703D01*
X146521184Y-44869000D01*
X146688816Y-44869000D01*
X146853228Y-44901703D01*
X146853228Y-44901703D01*
G37*
G36*
X111926823Y-44881313D02*
G01*
X112087242Y-44929976D01*
X112154361Y-44965852D01*
X112235078Y-45008996D01*
X112364659Y-45115341D01*
X112471004Y-45244922D01*
X112471005Y-45244924D01*
X112550024Y-45392758D01*
X112598687Y-45553177D01*
X112615117Y-45720000D01*
X112598687Y-45886823D01*
X112550024Y-46047242D01*
X112509477Y-46123100D01*
X112471004Y-46195078D01*
X112364659Y-46324659D01*
X112235078Y-46431004D01*
X112235076Y-46431005D01*
X112087242Y-46510024D01*
X111926823Y-46558687D01*
X111801804Y-46571000D01*
X111718196Y-46571000D01*
X111593177Y-46558687D01*
X111432758Y-46510024D01*
X111284924Y-46431005D01*
X111284922Y-46431004D01*
X111155341Y-46324659D01*
X111048996Y-46195078D01*
X111010523Y-46123100D01*
X110969976Y-46047242D01*
X110921313Y-45886823D01*
X110904883Y-45720000D01*
X110921313Y-45553177D01*
X110969976Y-45392758D01*
X111048995Y-45244924D01*
X111048996Y-45244922D01*
X111155341Y-45115341D01*
X111284922Y-45008996D01*
X111365639Y-44965852D01*
X111432758Y-44929976D01*
X111593177Y-44881313D01*
X111718196Y-44869000D01*
X111801804Y-44869000D01*
X111926823Y-44881313D01*
X111926823Y-44881313D01*
G37*
G36*
X107563228Y-44901703D02*
G01*
X107718100Y-44965853D01*
X107857481Y-45058985D01*
X107976015Y-45177519D01*
X108069147Y-45316900D01*
X108133297Y-45471772D01*
X108166000Y-45636184D01*
X108166000Y-45803816D01*
X108133297Y-45968228D01*
X108069147Y-46123100D01*
X107976015Y-46262481D01*
X107857481Y-46381015D01*
X107718100Y-46474147D01*
X107563228Y-46538297D01*
X107398816Y-46571000D01*
X107231184Y-46571000D01*
X107066772Y-46538297D01*
X106911900Y-46474147D01*
X106772519Y-46381015D01*
X106653985Y-46262481D01*
X106560853Y-46123100D01*
X106496703Y-45968228D01*
X106464000Y-45803816D01*
X106464000Y-45636184D01*
X106496703Y-45471772D01*
X106560853Y-45316900D01*
X106653985Y-45177519D01*
X106772519Y-45058985D01*
X106911900Y-44965853D01*
X107066772Y-44901703D01*
X107231184Y-44869000D01*
X107398816Y-44869000D01*
X107563228Y-44901703D01*
X107563228Y-44901703D01*
G37*
G36*
X61186564Y-43439389D02*
G01*
X61377833Y-43518615D01*
X61377835Y-43518616D01*
X61549973Y-43633635D01*
X61696365Y-43780027D01*
X61802464Y-43938815D01*
X61811385Y-43952167D01*
X61890611Y-44143436D01*
X61931000Y-44346484D01*
X61931000Y-44553516D01*
X61890611Y-44756564D01*
X61811385Y-44947833D01*
X61811384Y-44947835D01*
X61696365Y-45119973D01*
X61549973Y-45266365D01*
X61377835Y-45381384D01*
X61377834Y-45381385D01*
X61377833Y-45381385D01*
X61186564Y-45460611D01*
X60983516Y-45501000D01*
X60776484Y-45501000D01*
X60573436Y-45460611D01*
X60382167Y-45381385D01*
X60382166Y-45381385D01*
X60382165Y-45381384D01*
X60210027Y-45266365D01*
X60063635Y-45119973D01*
X59948616Y-44947835D01*
X59948615Y-44947833D01*
X59869389Y-44756564D01*
X59829000Y-44553516D01*
X59829000Y-44346484D01*
X59869389Y-44143436D01*
X59948615Y-43952167D01*
X59957537Y-43938815D01*
X60063635Y-43780027D01*
X60210027Y-43633635D01*
X60382165Y-43518616D01*
X60382167Y-43518615D01*
X60573436Y-43439389D01*
X60776484Y-43399000D01*
X60983516Y-43399000D01*
X61186564Y-43439389D01*
X61186564Y-43439389D01*
G37*
G36*
X56931000Y-45501000D02*
G01*
X54829000Y-45501000D01*
X54829000Y-43399000D01*
X56931000Y-43399000D01*
X56931000Y-45501000D01*
X56931000Y-45501000D01*
G37*
G36*
X86608228Y-43036703D02*
G01*
X86763100Y-43100853D01*
X86902481Y-43193985D01*
X87021015Y-43312519D01*
X87114147Y-43451900D01*
X87178297Y-43606772D01*
X87211000Y-43771184D01*
X87211000Y-43938816D01*
X87178297Y-44103228D01*
X87114147Y-44258100D01*
X87021015Y-44397481D01*
X86902481Y-44516015D01*
X86763100Y-44609147D01*
X86608228Y-44673297D01*
X86443816Y-44706000D01*
X86276184Y-44706000D01*
X86111772Y-44673297D01*
X85956900Y-44609147D01*
X85817519Y-44516015D01*
X85698985Y-44397481D01*
X85605853Y-44258100D01*
X85541703Y-44103228D01*
X85509000Y-43938816D01*
X85509000Y-43771184D01*
X85541703Y-43606772D01*
X85605853Y-43451900D01*
X85698985Y-43312519D01*
X85817519Y-43193985D01*
X85956900Y-43100853D01*
X86111772Y-43036703D01*
X86276184Y-43004000D01*
X86443816Y-43004000D01*
X86608228Y-43036703D01*
X86608228Y-43036703D01*
G37*
G36*
X117006823Y-41071313D02*
G01*
X117167242Y-41119976D01*
X117299906Y-41190886D01*
X117315078Y-41198996D01*
X117444659Y-41305341D01*
X117551004Y-41434922D01*
X117551005Y-41434924D01*
X117630024Y-41582758D01*
X117678687Y-41743177D01*
X117695117Y-41910000D01*
X117678687Y-42076823D01*
X117630024Y-42237242D01*
X117559114Y-42369906D01*
X117551004Y-42385078D01*
X117444659Y-42514659D01*
X117315078Y-42621004D01*
X117315076Y-42621005D01*
X117167242Y-42700024D01*
X117006823Y-42748687D01*
X116881804Y-42761000D01*
X116798196Y-42761000D01*
X116673177Y-42748687D01*
X116512758Y-42700024D01*
X116364924Y-42621005D01*
X116364922Y-42621004D01*
X116235341Y-42514659D01*
X116128996Y-42385078D01*
X116120886Y-42369906D01*
X116049976Y-42237242D01*
X116001313Y-42076823D01*
X115984883Y-41910000D01*
X116001313Y-41743177D01*
X116049976Y-41582758D01*
X116128995Y-41434924D01*
X116128996Y-41434922D01*
X116235341Y-41305341D01*
X116364922Y-41198996D01*
X116380094Y-41190886D01*
X116512758Y-41119976D01*
X116673177Y-41071313D01*
X116798196Y-41059000D01*
X116881804Y-41059000D01*
X117006823Y-41071313D01*
X117006823Y-41071313D01*
G37*
G36*
X105555936Y-39641340D02*
G01*
X105654220Y-39651020D01*
X105843381Y-39708401D01*
X106017712Y-39801583D01*
X106170515Y-39926985D01*
X106295917Y-40079788D01*
X106389099Y-40254119D01*
X106446480Y-40443280D01*
X106465855Y-40640000D01*
X106446480Y-40836720D01*
X106389099Y-41025881D01*
X106295917Y-41200212D01*
X106170515Y-41353015D01*
X106017712Y-41478417D01*
X105843381Y-41571599D01*
X105654220Y-41628980D01*
X105555936Y-41638660D01*
X105506795Y-41643500D01*
X105313205Y-41643500D01*
X105264064Y-41638660D01*
X105165780Y-41628980D01*
X104976619Y-41571599D01*
X104802288Y-41478417D01*
X104649485Y-41353015D01*
X104524083Y-41200212D01*
X104430901Y-41025881D01*
X104373520Y-40836720D01*
X104354145Y-40640000D01*
X104373520Y-40443280D01*
X104430901Y-40254119D01*
X104524083Y-40079788D01*
X104649485Y-39926985D01*
X104802288Y-39801583D01*
X104976619Y-39708401D01*
X105165780Y-39651020D01*
X105264064Y-39641340D01*
X105313205Y-39636500D01*
X105506795Y-39636500D01*
X105555936Y-39641340D01*
X105555936Y-39641340D01*
G37*
G36*
X105555936Y-37101340D02*
G01*
X105654220Y-37111020D01*
X105843381Y-37168401D01*
X106017712Y-37261583D01*
X106170515Y-37386985D01*
X106295917Y-37539788D01*
X106389099Y-37714119D01*
X106446480Y-37903280D01*
X106465855Y-38100000D01*
X106446480Y-38296720D01*
X106389099Y-38485881D01*
X106295917Y-38660212D01*
X106170515Y-38813015D01*
X106017712Y-38938417D01*
X105843381Y-39031599D01*
X105654220Y-39088980D01*
X105555936Y-39098660D01*
X105506795Y-39103500D01*
X105313205Y-39103500D01*
X105264064Y-39098660D01*
X105165780Y-39088980D01*
X104976619Y-39031599D01*
X104802288Y-38938417D01*
X104649485Y-38813015D01*
X104524083Y-38660212D01*
X104430901Y-38485881D01*
X104373520Y-38296720D01*
X104354145Y-38100000D01*
X104373520Y-37903280D01*
X104430901Y-37714119D01*
X104524083Y-37539788D01*
X104649485Y-37386985D01*
X104802288Y-37261583D01*
X104976619Y-37168401D01*
X105165780Y-37111020D01*
X105264064Y-37101340D01*
X105313205Y-37096500D01*
X105506795Y-37096500D01*
X105555936Y-37101340D01*
X105555936Y-37101340D01*
G37*
G36*
X77736000Y-39001000D02*
G01*
X75934000Y-39001000D01*
X75934000Y-37199000D01*
X77736000Y-37199000D01*
X77736000Y-39001000D01*
X77736000Y-39001000D01*
G37*
G36*
X95995442Y-37205518D02*
G01*
X96061627Y-37212037D01*
X96231466Y-37263557D01*
X96387991Y-37347222D01*
X96418768Y-37372480D01*
X96525186Y-37459814D01*
X96608448Y-37561271D01*
X96637778Y-37597009D01*
X96721443Y-37753534D01*
X96772963Y-37923373D01*
X96790359Y-38100000D01*
X96772963Y-38276627D01*
X96721443Y-38446466D01*
X96637778Y-38602991D01*
X96608448Y-38638729D01*
X96525186Y-38740186D01*
X96436442Y-38813015D01*
X96387991Y-38852778D01*
X96231466Y-38936443D01*
X96061627Y-38987963D01*
X95995443Y-38994481D01*
X95929260Y-39001000D01*
X95840740Y-39001000D01*
X95774557Y-38994481D01*
X95708373Y-38987963D01*
X95538534Y-38936443D01*
X95382009Y-38852778D01*
X95333558Y-38813015D01*
X95244814Y-38740186D01*
X95161552Y-38638729D01*
X95132222Y-38602991D01*
X95048557Y-38446466D01*
X94997037Y-38276627D01*
X94979641Y-38100000D01*
X94997037Y-37923373D01*
X95048557Y-37753534D01*
X95132222Y-37597009D01*
X95161552Y-37561271D01*
X95244814Y-37459814D01*
X95351232Y-37372480D01*
X95382009Y-37347222D01*
X95538534Y-37263557D01*
X95708373Y-37212037D01*
X95774558Y-37205518D01*
X95840740Y-37199000D01*
X95929260Y-37199000D01*
X95995442Y-37205518D01*
X95995442Y-37205518D01*
G37*
G36*
X130285442Y-35935518D02*
G01*
X130351627Y-35942037D01*
X130521466Y-35993557D01*
X130521468Y-35993558D01*
X130545669Y-36006494D01*
X130677991Y-36077222D01*
X130708768Y-36102480D01*
X130815186Y-36189814D01*
X130895369Y-36287519D01*
X130927778Y-36327009D01*
X131011443Y-36483534D01*
X131062963Y-36653373D01*
X131080359Y-36830000D01*
X131062963Y-37006627D01*
X131011443Y-37176466D01*
X130927778Y-37332991D01*
X130898448Y-37368729D01*
X130815186Y-37470186D01*
X130730374Y-37539788D01*
X130677991Y-37582778D01*
X130521466Y-37666443D01*
X130351627Y-37717963D01*
X130285443Y-37724481D01*
X130219260Y-37731000D01*
X130130740Y-37731000D01*
X130064557Y-37724481D01*
X129998373Y-37717963D01*
X129828534Y-37666443D01*
X129672009Y-37582778D01*
X129619626Y-37539788D01*
X129534814Y-37470186D01*
X129451552Y-37368729D01*
X129422222Y-37332991D01*
X129338557Y-37176466D01*
X129287037Y-37006627D01*
X129269641Y-36830000D01*
X129287037Y-36653373D01*
X129338557Y-36483534D01*
X129422222Y-36327009D01*
X129454631Y-36287519D01*
X129534814Y-36189814D01*
X129641232Y-36102480D01*
X129672009Y-36077222D01*
X129804331Y-36006494D01*
X129828532Y-35993558D01*
X129828534Y-35993557D01*
X129998373Y-35942037D01*
X130064558Y-35935518D01*
X130130740Y-35929000D01*
X130219260Y-35929000D01*
X130285442Y-35935518D01*
X130285442Y-35935518D01*
G37*
G36*
X141186000Y-37681000D02*
G01*
X139484000Y-37681000D01*
X139484000Y-35979000D01*
X141186000Y-35979000D01*
X141186000Y-37681000D01*
X141186000Y-37681000D01*
G37*
G36*
X135503228Y-36011703D02*
G01*
X135658100Y-36075853D01*
X135797481Y-36168985D01*
X135916015Y-36287519D01*
X136009147Y-36426900D01*
X136073297Y-36581772D01*
X136106000Y-36746184D01*
X136106000Y-36913816D01*
X136073297Y-37078228D01*
X136009147Y-37233100D01*
X135916015Y-37372481D01*
X135797481Y-37491015D01*
X135658100Y-37584147D01*
X135503228Y-37648297D01*
X135338816Y-37681000D01*
X135171184Y-37681000D01*
X135006772Y-37648297D01*
X134851900Y-37584147D01*
X134712519Y-37491015D01*
X134593985Y-37372481D01*
X134500853Y-37233100D01*
X134436703Y-37078228D01*
X134404000Y-36913816D01*
X134404000Y-36746184D01*
X134436703Y-36581772D01*
X134500853Y-36426900D01*
X134593985Y-36287519D01*
X134712519Y-36168985D01*
X134851900Y-36075853D01*
X135006772Y-36011703D01*
X135171184Y-35979000D01*
X135338816Y-35979000D01*
X135503228Y-36011703D01*
X135503228Y-36011703D01*
G37*
G36*
X106461000Y-36563500D02*
G01*
X104359000Y-36563500D01*
X104359000Y-34556500D01*
X106461000Y-34556500D01*
X106461000Y-36563500D01*
X106461000Y-36563500D01*
G37*
G36*
X76945443Y-34665519D02*
G01*
X77011627Y-34672037D01*
X77181466Y-34723557D01*
X77181468Y-34723558D01*
X77247775Y-34759000D01*
X77337991Y-34807222D01*
X77373729Y-34836552D01*
X77475186Y-34919814D01*
X77552024Y-35013443D01*
X77587778Y-35057009D01*
X77671443Y-35213534D01*
X77722963Y-35383373D01*
X77740359Y-35560000D01*
X77722963Y-35736627D01*
X77671443Y-35906466D01*
X77587778Y-36062991D01*
X77572854Y-36081176D01*
X77475186Y-36200186D01*
X77373729Y-36283448D01*
X77337991Y-36312778D01*
X77324987Y-36319729D01*
X77242563Y-36363786D01*
X77181466Y-36396443D01*
X77011627Y-36447963D01*
X76945442Y-36454482D01*
X76879260Y-36461000D01*
X76790740Y-36461000D01*
X76724558Y-36454482D01*
X76658373Y-36447963D01*
X76488534Y-36396443D01*
X76427438Y-36363786D01*
X76345013Y-36319729D01*
X76332009Y-36312778D01*
X76296271Y-36283448D01*
X76194814Y-36200186D01*
X76097146Y-36081176D01*
X76082222Y-36062991D01*
X75998557Y-35906466D01*
X75947037Y-35736627D01*
X75929641Y-35560000D01*
X75947037Y-35383373D01*
X75998557Y-35213534D01*
X76082222Y-35057009D01*
X76117976Y-35013443D01*
X76194814Y-34919814D01*
X76296271Y-34836552D01*
X76332009Y-34807222D01*
X76422225Y-34759000D01*
X76488532Y-34723558D01*
X76488534Y-34723557D01*
X76658373Y-34672037D01*
X76724557Y-34665519D01*
X76790740Y-34659000D01*
X76879260Y-34659000D01*
X76945443Y-34665519D01*
X76945443Y-34665519D01*
G37*
G36*
X96786000Y-36461000D02*
G01*
X94984000Y-36461000D01*
X94984000Y-34659000D01*
X96786000Y-34659000D01*
X96786000Y-36461000D01*
X96786000Y-36461000D01*
G37*
G36*
X112008228Y-34741703D02*
G01*
X112163100Y-34805853D01*
X112302481Y-34898985D01*
X112421015Y-35017519D01*
X112514147Y-35156900D01*
X112578297Y-35311772D01*
X112611000Y-35476184D01*
X112611000Y-35643816D01*
X112578297Y-35808228D01*
X112514147Y-35963100D01*
X112421015Y-36102481D01*
X112302481Y-36221015D01*
X112163100Y-36314147D01*
X112008228Y-36378297D01*
X111843816Y-36411000D01*
X111676184Y-36411000D01*
X111511772Y-36378297D01*
X111356900Y-36314147D01*
X111217519Y-36221015D01*
X111098985Y-36102481D01*
X111005853Y-35963100D01*
X110941703Y-35808228D01*
X110909000Y-35643816D01*
X110909000Y-35476184D01*
X110941703Y-35311772D01*
X111005853Y-35156900D01*
X111098985Y-35017519D01*
X111217519Y-34898985D01*
X111356900Y-34805853D01*
X111511772Y-34741703D01*
X111676184Y-34709000D01*
X111843816Y-34709000D01*
X112008228Y-34741703D01*
X112008228Y-34741703D01*
G37*
G36*
X116952916Y-34767334D02*
G01*
X117061492Y-34800271D01*
X117061495Y-34800272D01*
X117074495Y-34807221D01*
X117161557Y-34853756D01*
X117249264Y-34925736D01*
X117312383Y-35002646D01*
X117329702Y-35019965D01*
X117350077Y-35033579D01*
X117372716Y-35042957D01*
X117396749Y-35047737D01*
X117421253Y-35047737D01*
X117445286Y-35042957D01*
X117467925Y-35033579D01*
X117488299Y-35019966D01*
X117505626Y-35002639D01*
X117519240Y-34982264D01*
X117528618Y-34959625D01*
X117533398Y-34935592D01*
X117534000Y-34923340D01*
X117534000Y-34759000D01*
X118686000Y-34759000D01*
X118686000Y-36361000D01*
X117534000Y-36361000D01*
X117534000Y-36196660D01*
X117531598Y-36172274D01*
X117524485Y-36148825D01*
X117512934Y-36127214D01*
X117497389Y-36108272D01*
X117478447Y-36092727D01*
X117456836Y-36081176D01*
X117433387Y-36074063D01*
X117409001Y-36071661D01*
X117384615Y-36074063D01*
X117361166Y-36081176D01*
X117339555Y-36092727D01*
X117312381Y-36117356D01*
X117249264Y-36194264D01*
X117161556Y-36266244D01*
X117097600Y-36300429D01*
X117061494Y-36319728D01*
X117061491Y-36319729D01*
X116952915Y-36352666D01*
X116840000Y-36363787D01*
X116727084Y-36352666D01*
X116618508Y-36319729D01*
X116618505Y-36319728D01*
X116582399Y-36300429D01*
X116518443Y-36266244D01*
X116430736Y-36194264D01*
X116358756Y-36106556D01*
X116315239Y-36025140D01*
X116301625Y-36004766D01*
X116284298Y-35987439D01*
X116263924Y-35973825D01*
X116241285Y-35964448D01*
X116217251Y-35959668D01*
X116192747Y-35959668D01*
X116168714Y-35964449D01*
X116146075Y-35973826D01*
X116125701Y-35987440D01*
X116108374Y-36004767D01*
X116094762Y-36025140D01*
X116051244Y-36106557D01*
X115979264Y-36194264D01*
X115891556Y-36266244D01*
X115827600Y-36300429D01*
X115791494Y-36319728D01*
X115791491Y-36319729D01*
X115682915Y-36352666D01*
X115570000Y-36363787D01*
X115457084Y-36352666D01*
X115348508Y-36319729D01*
X115348505Y-36319728D01*
X115312399Y-36300429D01*
X115248443Y-36266244D01*
X115160736Y-36194264D01*
X115088756Y-36106556D01*
X115045239Y-36025140D01*
X115035272Y-36006494D01*
X115031348Y-35993558D01*
X115002334Y-35897915D01*
X114994000Y-35813297D01*
X114994000Y-35306702D01*
X115002334Y-35222084D01*
X115035271Y-35113508D01*
X115035272Y-35113505D01*
X115088756Y-35013445D01*
X115088757Y-35013443D01*
X115160737Y-34925736D01*
X115248444Y-34853756D01*
X115335506Y-34807221D01*
X115348506Y-34800272D01*
X115348509Y-34800271D01*
X115457085Y-34767334D01*
X115570000Y-34756213D01*
X115682916Y-34767334D01*
X115791492Y-34800271D01*
X115791495Y-34800272D01*
X115804495Y-34807221D01*
X115891557Y-34853756D01*
X115979264Y-34925736D01*
X116051244Y-35013443D01*
X116085872Y-35078229D01*
X116094761Y-35094859D01*
X116108375Y-35115234D01*
X116125702Y-35132561D01*
X116146076Y-35146174D01*
X116168715Y-35155552D01*
X116192748Y-35160332D01*
X116217252Y-35160332D01*
X116241285Y-35155552D01*
X116263924Y-35146174D01*
X116284299Y-35132560D01*
X116301626Y-35115233D01*
X116315239Y-35094859D01*
X116358756Y-35013445D01*
X116358757Y-35013443D01*
X116430737Y-34925736D01*
X116518444Y-34853756D01*
X116605506Y-34807221D01*
X116618506Y-34800272D01*
X116618509Y-34800271D01*
X116727085Y-34767334D01*
X116840000Y-34756213D01*
X116952916Y-34767334D01*
X116952916Y-34767334D01*
G37*
G36*
X140583228Y-34011703D02*
G01*
X140738100Y-34075853D01*
X140877481Y-34168985D01*
X140996015Y-34287519D01*
X141089147Y-34426900D01*
X141153297Y-34581772D01*
X141186000Y-34746184D01*
X141186000Y-34913816D01*
X141153297Y-35078228D01*
X141089147Y-35233100D01*
X140996015Y-35372481D01*
X140877481Y-35491015D01*
X140738100Y-35584147D01*
X140583228Y-35648297D01*
X140418816Y-35681000D01*
X140251184Y-35681000D01*
X140086772Y-35648297D01*
X139931900Y-35584147D01*
X139792519Y-35491015D01*
X139673985Y-35372481D01*
X139580853Y-35233100D01*
X139516703Y-35078228D01*
X139484000Y-34913816D01*
X139484000Y-34746184D01*
X139516703Y-34581772D01*
X139580853Y-34426900D01*
X139673985Y-34287519D01*
X139792519Y-34168985D01*
X139931900Y-34075853D01*
X140086772Y-34011703D01*
X140251184Y-33979000D01*
X140418816Y-33979000D01*
X140583228Y-34011703D01*
X140583228Y-34011703D01*
G37*
G36*
X130285442Y-33395518D02*
G01*
X130351627Y-33402037D01*
X130521466Y-33453557D01*
X130677991Y-33537222D01*
X130713729Y-33566552D01*
X130815186Y-33649814D01*
X130898448Y-33751271D01*
X130927778Y-33787009D01*
X130927779Y-33787011D01*
X131002554Y-33926903D01*
X131011443Y-33943534D01*
X131062963Y-34113373D01*
X131080359Y-34290000D01*
X131062963Y-34466627D01*
X131011443Y-34636466D01*
X130927778Y-34792991D01*
X130898448Y-34828729D01*
X130815186Y-34930186D01*
X130726900Y-35002639D01*
X130677991Y-35042778D01*
X130677989Y-35042779D01*
X130545666Y-35113508D01*
X130521466Y-35126443D01*
X130351627Y-35177963D01*
X130285442Y-35184482D01*
X130219260Y-35191000D01*
X130130740Y-35191000D01*
X130064558Y-35184482D01*
X129998373Y-35177963D01*
X129828534Y-35126443D01*
X129804335Y-35113508D01*
X129672011Y-35042779D01*
X129672009Y-35042778D01*
X129623100Y-35002639D01*
X129534814Y-34930186D01*
X129451552Y-34828729D01*
X129422222Y-34792991D01*
X129338557Y-34636466D01*
X129287037Y-34466627D01*
X129269641Y-34290000D01*
X129287037Y-34113373D01*
X129338557Y-33943534D01*
X129347447Y-33926903D01*
X129422221Y-33787011D01*
X129422222Y-33787009D01*
X129451552Y-33751271D01*
X129534814Y-33649814D01*
X129636271Y-33566552D01*
X129672009Y-33537222D01*
X129828534Y-33453557D01*
X129998373Y-33402037D01*
X130064558Y-33395518D01*
X130130740Y-33389000D01*
X130219260Y-33389000D01*
X130285442Y-33395518D01*
X130285442Y-33395518D01*
G37*
G36*
X135503228Y-33511703D02*
G01*
X135658100Y-33575853D01*
X135797481Y-33668985D01*
X135916015Y-33787519D01*
X136009147Y-33926900D01*
X136073297Y-34081772D01*
X136106000Y-34246184D01*
X136106000Y-34413816D01*
X136073297Y-34578228D01*
X136009147Y-34733100D01*
X135916015Y-34872481D01*
X135797481Y-34991015D01*
X135658100Y-35084147D01*
X135503228Y-35148297D01*
X135338816Y-35181000D01*
X135171184Y-35181000D01*
X135006772Y-35148297D01*
X134851900Y-35084147D01*
X134712519Y-34991015D01*
X134593985Y-34872481D01*
X134500853Y-34733100D01*
X134436703Y-34578228D01*
X134404000Y-34413816D01*
X134404000Y-34246184D01*
X134436703Y-34081772D01*
X134500853Y-33926900D01*
X134593985Y-33787519D01*
X134712519Y-33668985D01*
X134851900Y-33575853D01*
X135006772Y-33511703D01*
X135171184Y-33479000D01*
X135338816Y-33479000D01*
X135503228Y-33511703D01*
X135503228Y-33511703D01*
G37*
G36*
X131076000Y-32651000D02*
G01*
X129274000Y-32651000D01*
X129274000Y-30849000D01*
X131076000Y-30849000D01*
X131076000Y-32651000D01*
X131076000Y-32651000D01*
G37*
G36*
X101213228Y-28351703D02*
G01*
X101368100Y-28415853D01*
X101507481Y-28508985D01*
X101626015Y-28627519D01*
X101719147Y-28766900D01*
X101783297Y-28921772D01*
X101816000Y-29086184D01*
X101816000Y-29253816D01*
X101783297Y-29418228D01*
X101719147Y-29573100D01*
X101626015Y-29712481D01*
X101507481Y-29831015D01*
X101368100Y-29924147D01*
X101213228Y-29988297D01*
X101048816Y-30021000D01*
X100881184Y-30021000D01*
X100716772Y-29988297D01*
X100561900Y-29924147D01*
X100422519Y-29831015D01*
X100303985Y-29712481D01*
X100210853Y-29573100D01*
X100146703Y-29418228D01*
X100114000Y-29253816D01*
X100114000Y-29086184D01*
X100146703Y-28921772D01*
X100210853Y-28766900D01*
X100303985Y-28627519D01*
X100422519Y-28508985D01*
X100561900Y-28415853D01*
X100716772Y-28351703D01*
X100881184Y-28319000D01*
X101048816Y-28319000D01*
X101213228Y-28351703D01*
X101213228Y-28351703D01*
G37*
G36*
X107563228Y-27851703D02*
G01*
X107718100Y-27915853D01*
X107857481Y-28008985D01*
X107976015Y-28127519D01*
X108069147Y-28266900D01*
X108133297Y-28421772D01*
X108166000Y-28586184D01*
X108166000Y-28753816D01*
X108133297Y-28918228D01*
X108069147Y-29073100D01*
X107976015Y-29212481D01*
X107857481Y-29331015D01*
X107718100Y-29424147D01*
X107563228Y-29488297D01*
X107398816Y-29521000D01*
X107231184Y-29521000D01*
X107066772Y-29488297D01*
X106911900Y-29424147D01*
X106772519Y-29331015D01*
X106653985Y-29212481D01*
X106560853Y-29073100D01*
X106496703Y-28918228D01*
X106464000Y-28753816D01*
X106464000Y-28586184D01*
X106496703Y-28421772D01*
X106560853Y-28266900D01*
X106653985Y-28127519D01*
X106772519Y-28008985D01*
X106911900Y-27915853D01*
X107066772Y-27851703D01*
X107231184Y-27819000D01*
X107398816Y-27819000D01*
X107563228Y-27851703D01*
X107563228Y-27851703D01*
G37*
G36*
X77736000Y-27571000D02*
G01*
X75934000Y-27571000D01*
X75934000Y-25769000D01*
X77736000Y-25769000D01*
X77736000Y-27571000D01*
X77736000Y-27571000D01*
G37*
G36*
X95995442Y-25775518D02*
G01*
X96061627Y-25782037D01*
X96231466Y-25833557D01*
X96387991Y-25917222D01*
X96423729Y-25946552D01*
X96525186Y-26029814D01*
X96572543Y-26087520D01*
X96637778Y-26167009D01*
X96721443Y-26323534D01*
X96772963Y-26493373D01*
X96790359Y-26670000D01*
X96772963Y-26846627D01*
X96732201Y-26981000D01*
X96721442Y-27016468D01*
X96712552Y-27033100D01*
X96637778Y-27172991D01*
X96608448Y-27208729D01*
X96525186Y-27310186D01*
X96423729Y-27393448D01*
X96387991Y-27422778D01*
X96231466Y-27506443D01*
X96061627Y-27557963D01*
X95995442Y-27564482D01*
X95929260Y-27571000D01*
X95840740Y-27571000D01*
X95774558Y-27564482D01*
X95708373Y-27557963D01*
X95538534Y-27506443D01*
X95382009Y-27422778D01*
X95346271Y-27393448D01*
X95244814Y-27310186D01*
X95161552Y-27208729D01*
X95132222Y-27172991D01*
X95057448Y-27033100D01*
X95048558Y-27016468D01*
X95037799Y-26981000D01*
X94997037Y-26846627D01*
X94979641Y-26670000D01*
X94997037Y-26493373D01*
X95048557Y-26323534D01*
X95132222Y-26167009D01*
X95197457Y-26087520D01*
X95244814Y-26029814D01*
X95346271Y-25946552D01*
X95382009Y-25917222D01*
X95538534Y-25833557D01*
X95708373Y-25782037D01*
X95774557Y-25775519D01*
X95840740Y-25769000D01*
X95929260Y-25769000D01*
X95995442Y-25775518D01*
X95995442Y-25775518D01*
G37*
G36*
X120898228Y-25851703D02*
G01*
X121053100Y-25915853D01*
X121192481Y-26008985D01*
X121311015Y-26127519D01*
X121404147Y-26266900D01*
X121468297Y-26421772D01*
X121501000Y-26586184D01*
X121501000Y-26753816D01*
X121468297Y-26918228D01*
X121404147Y-27073100D01*
X121311015Y-27212481D01*
X121192481Y-27331015D01*
X121053100Y-27424147D01*
X120898228Y-27488297D01*
X120733816Y-27521000D01*
X120566184Y-27521000D01*
X120401772Y-27488297D01*
X120246900Y-27424147D01*
X120107519Y-27331015D01*
X119988985Y-27212481D01*
X119895853Y-27073100D01*
X119831703Y-26918228D01*
X119799000Y-26753816D01*
X119799000Y-26586184D01*
X119831703Y-26421772D01*
X119895853Y-26266900D01*
X119988985Y-26127519D01*
X120107519Y-26008985D01*
X120246900Y-25915853D01*
X120401772Y-25851703D01*
X120566184Y-25819000D01*
X120733816Y-25819000D01*
X120898228Y-25851703D01*
X120898228Y-25851703D01*
G37*
G36*
X115151000Y-27521000D02*
G01*
X113449000Y-27521000D01*
X113449000Y-25819000D01*
X115151000Y-25819000D01*
X115151000Y-27521000D01*
X115151000Y-27521000D01*
G37*
G36*
X108166000Y-27521000D02*
G01*
X106464000Y-27521000D01*
X106464000Y-25819000D01*
X108166000Y-25819000D01*
X108166000Y-27521000D01*
X108166000Y-27521000D01*
G37*
G36*
X101213228Y-25851703D02*
G01*
X101368100Y-25915853D01*
X101507481Y-26008985D01*
X101626015Y-26127519D01*
X101719147Y-26266900D01*
X101783297Y-26421772D01*
X101816000Y-26586184D01*
X101816000Y-26753816D01*
X101783297Y-26918228D01*
X101719147Y-27073100D01*
X101626015Y-27212481D01*
X101507481Y-27331015D01*
X101368100Y-27424147D01*
X101213228Y-27488297D01*
X101048816Y-27521000D01*
X100881184Y-27521000D01*
X100716772Y-27488297D01*
X100561900Y-27424147D01*
X100422519Y-27331015D01*
X100303985Y-27212481D01*
X100210853Y-27073100D01*
X100146703Y-26918228D01*
X100114000Y-26753816D01*
X100114000Y-26586184D01*
X100146703Y-26421772D01*
X100210853Y-26266900D01*
X100303985Y-26127519D01*
X100422519Y-26008985D01*
X100561900Y-25915853D01*
X100716772Y-25851703D01*
X100881184Y-25819000D01*
X101048816Y-25819000D01*
X101213228Y-25851703D01*
X101213228Y-25851703D01*
G37*
G36*
X69463228Y-25811703D02*
G01*
X69618100Y-25875853D01*
X69757481Y-25968985D01*
X69876015Y-26087519D01*
X69969147Y-26226900D01*
X70033297Y-26381772D01*
X70066000Y-26546184D01*
X70066000Y-26713816D01*
X70033297Y-26878228D01*
X69969147Y-27033100D01*
X69876015Y-27172481D01*
X69757481Y-27291015D01*
X69618100Y-27384147D01*
X69463228Y-27448297D01*
X69298816Y-27481000D01*
X69131184Y-27481000D01*
X68966772Y-27448297D01*
X68811900Y-27384147D01*
X68672519Y-27291015D01*
X68553985Y-27172481D01*
X68460853Y-27033100D01*
X68396703Y-26878228D01*
X68364000Y-26713816D01*
X68364000Y-26546184D01*
X68396703Y-26381772D01*
X68460853Y-26226900D01*
X68553985Y-26087519D01*
X68672519Y-25968985D01*
X68811900Y-25875853D01*
X68966772Y-25811703D01*
X69131184Y-25779000D01*
X69298816Y-25779000D01*
X69463228Y-25811703D01*
X69463228Y-25811703D01*
G37*
G36*
X61843228Y-25311703D02*
G01*
X61998100Y-25375853D01*
X62137481Y-25468985D01*
X62256015Y-25587519D01*
X62349147Y-25726900D01*
X62413297Y-25881772D01*
X62446000Y-26046184D01*
X62446000Y-26213816D01*
X62413297Y-26378228D01*
X62349147Y-26533100D01*
X62256015Y-26672481D01*
X62137481Y-26791015D01*
X61998100Y-26884147D01*
X61843228Y-26948297D01*
X61678816Y-26981000D01*
X61511184Y-26981000D01*
X61346772Y-26948297D01*
X61191900Y-26884147D01*
X61052519Y-26791015D01*
X60933985Y-26672481D01*
X60840853Y-26533100D01*
X60776703Y-26378228D01*
X60744000Y-26213816D01*
X60744000Y-26046184D01*
X60776703Y-25881772D01*
X60840853Y-25726900D01*
X60933985Y-25587519D01*
X61052519Y-25468985D01*
X61191900Y-25375853D01*
X61346772Y-25311703D01*
X61511184Y-25279000D01*
X61678816Y-25279000D01*
X61843228Y-25311703D01*
X61843228Y-25311703D01*
G37*
G36*
X165062585Y-23138802D02*
G01*
X165212410Y-23168604D01*
X165494674Y-23285521D01*
X165748705Y-23455259D01*
X165964741Y-23671295D01*
X166134479Y-23925326D01*
X166251396Y-24207590D01*
X166251396Y-24207591D01*
X166293295Y-24418228D01*
X166311000Y-24507240D01*
X166311000Y-24812760D01*
X166251396Y-25112410D01*
X166134479Y-25394674D01*
X165964741Y-25648705D01*
X165748705Y-25864741D01*
X165494674Y-26034479D01*
X165212410Y-26151396D01*
X165062585Y-26181198D01*
X164912761Y-26211000D01*
X164607239Y-26211000D01*
X164457415Y-26181198D01*
X164307590Y-26151396D01*
X164025326Y-26034479D01*
X163771295Y-25864741D01*
X163555259Y-25648705D01*
X163385521Y-25394674D01*
X163268604Y-25112410D01*
X163209000Y-24812760D01*
X163209000Y-24507240D01*
X163226706Y-24418228D01*
X163268604Y-24207591D01*
X163268604Y-24207590D01*
X163385521Y-23925326D01*
X163555259Y-23671295D01*
X163771295Y-23455259D01*
X164025326Y-23285521D01*
X164307590Y-23168604D01*
X164457415Y-23138802D01*
X164607239Y-23109000D01*
X164912761Y-23109000D01*
X165062585Y-23138802D01*
X165062585Y-23138802D01*
G37*
G36*
X114548228Y-23851703D02*
G01*
X114703100Y-23915853D01*
X114842481Y-24008985D01*
X114961015Y-24127519D01*
X115054147Y-24266900D01*
X115118297Y-24421772D01*
X115151000Y-24586184D01*
X115151000Y-24753816D01*
X115118297Y-24918228D01*
X115054147Y-25073100D01*
X114961015Y-25212481D01*
X114842481Y-25331015D01*
X114703100Y-25424147D01*
X114548228Y-25488297D01*
X114383816Y-25521000D01*
X114216184Y-25521000D01*
X114051772Y-25488297D01*
X113896900Y-25424147D01*
X113757519Y-25331015D01*
X113638985Y-25212481D01*
X113545853Y-25073100D01*
X113481703Y-24918228D01*
X113449000Y-24753816D01*
X113449000Y-24586184D01*
X113481703Y-24421772D01*
X113545853Y-24266900D01*
X113638985Y-24127519D01*
X113757519Y-24008985D01*
X113896900Y-23915853D01*
X114051772Y-23851703D01*
X114216184Y-23819000D01*
X114383816Y-23819000D01*
X114548228Y-23851703D01*
X114548228Y-23851703D01*
G37*
G36*
X96786000Y-25031000D02*
G01*
X94984000Y-25031000D01*
X94984000Y-23229000D01*
X96786000Y-23229000D01*
X96786000Y-25031000D01*
X96786000Y-25031000D01*
G37*
G36*
X76945442Y-23235518D02*
G01*
X77011627Y-23242037D01*
X77181466Y-23293557D01*
X77337991Y-23377222D01*
X77373729Y-23406552D01*
X77475186Y-23489814D01*
X77555369Y-23587519D01*
X77587778Y-23627009D01*
X77587779Y-23627011D01*
X77662554Y-23766903D01*
X77671443Y-23783534D01*
X77722963Y-23953373D01*
X77740359Y-24130000D01*
X77722963Y-24306627D01*
X77671443Y-24476466D01*
X77587778Y-24632991D01*
X77558448Y-24668729D01*
X77475186Y-24770186D01*
X77373729Y-24853448D01*
X77337991Y-24882778D01*
X77181466Y-24966443D01*
X77011627Y-25017963D01*
X76945443Y-25024481D01*
X76879260Y-25031000D01*
X76790740Y-25031000D01*
X76724557Y-25024481D01*
X76658373Y-25017963D01*
X76488534Y-24966443D01*
X76332009Y-24882778D01*
X76296271Y-24853448D01*
X76194814Y-24770186D01*
X76111552Y-24668729D01*
X76082222Y-24632991D01*
X75998557Y-24476466D01*
X75947037Y-24306627D01*
X75929641Y-24130000D01*
X75947037Y-23953373D01*
X75998557Y-23783534D01*
X76007447Y-23766903D01*
X76082221Y-23627011D01*
X76082222Y-23627009D01*
X76114631Y-23587519D01*
X76194814Y-23489814D01*
X76296271Y-23406552D01*
X76332009Y-23377222D01*
X76488534Y-23293557D01*
X76658373Y-23242037D01*
X76724558Y-23235518D01*
X76790740Y-23229000D01*
X76879260Y-23229000D01*
X76945442Y-23235518D01*
X76945442Y-23235518D01*
G37*
G36*
X120898228Y-23351703D02*
G01*
X121053100Y-23415853D01*
X121192481Y-23508985D01*
X121311015Y-23627519D01*
X121404147Y-23766900D01*
X121468297Y-23921772D01*
X121501000Y-24086184D01*
X121501000Y-24253816D01*
X121468297Y-24418228D01*
X121404147Y-24573100D01*
X121311015Y-24712481D01*
X121192481Y-24831015D01*
X121053100Y-24924147D01*
X120898228Y-24988297D01*
X120733816Y-25021000D01*
X120566184Y-25021000D01*
X120401772Y-24988297D01*
X120246900Y-24924147D01*
X120107519Y-24831015D01*
X119988985Y-24712481D01*
X119895853Y-24573100D01*
X119831703Y-24418228D01*
X119799000Y-24253816D01*
X119799000Y-24086184D01*
X119831703Y-23921772D01*
X119895853Y-23766900D01*
X119988985Y-23627519D01*
X120107519Y-23508985D01*
X120246900Y-23415853D01*
X120401772Y-23351703D01*
X120566184Y-23319000D01*
X120733816Y-23319000D01*
X120898228Y-23351703D01*
X120898228Y-23351703D01*
G37*
G36*
X62446000Y-24981000D02*
G01*
X60744000Y-24981000D01*
X60744000Y-23279000D01*
X62446000Y-23279000D01*
X62446000Y-24981000D01*
X62446000Y-24981000D01*
G37*
G36*
X69463228Y-23311703D02*
G01*
X69618100Y-23375853D01*
X69757481Y-23468985D01*
X69876015Y-23587519D01*
X69969147Y-23726900D01*
X70033297Y-23881772D01*
X70066000Y-24046184D01*
X70066000Y-24213816D01*
X70033297Y-24378228D01*
X69969147Y-24533100D01*
X69876015Y-24672481D01*
X69757481Y-24791015D01*
X69618100Y-24884147D01*
X69463228Y-24948297D01*
X69298816Y-24981000D01*
X69131184Y-24981000D01*
X68966772Y-24948297D01*
X68811900Y-24884147D01*
X68672519Y-24791015D01*
X68553985Y-24672481D01*
X68460853Y-24533100D01*
X68396703Y-24378228D01*
X68364000Y-24213816D01*
X68364000Y-24046184D01*
X68396703Y-23881772D01*
X68460853Y-23726900D01*
X68553985Y-23587519D01*
X68672519Y-23468985D01*
X68811900Y-23375853D01*
X68966772Y-23311703D01*
X69131184Y-23279000D01*
X69298816Y-23279000D01*
X69463228Y-23311703D01*
X69463228Y-23311703D01*
G37*
G36*
X136634098Y-19137033D02*
G01*
X137098350Y-19329332D01*
X137098352Y-19329333D01*
X137516168Y-19608509D01*
X137871491Y-19963832D01*
X138006575Y-20166000D01*
X138150668Y-20381650D01*
X138342967Y-20845902D01*
X138441000Y-21338747D01*
X138441000Y-21841253D01*
X138342967Y-22334098D01*
X138221093Y-22628329D01*
X138150667Y-22798352D01*
X137871491Y-23216168D01*
X137516168Y-23571491D01*
X137098352Y-23850667D01*
X137098351Y-23850668D01*
X137098350Y-23850668D01*
X136634098Y-24042967D01*
X136141253Y-24141000D01*
X135638747Y-24141000D01*
X135145902Y-24042967D01*
X134681650Y-23850668D01*
X134681649Y-23850668D01*
X134681648Y-23850667D01*
X134263832Y-23571491D01*
X133908509Y-23216168D01*
X133629333Y-22798352D01*
X133558907Y-22628329D01*
X133437033Y-22334098D01*
X133339000Y-21841253D01*
X133339000Y-21338747D01*
X133437033Y-20845902D01*
X133629332Y-20381650D01*
X133773425Y-20166000D01*
X133908509Y-19963832D01*
X134263832Y-19608509D01*
X134681648Y-19329333D01*
X134681650Y-19329332D01*
X135145902Y-19137033D01*
X135638747Y-19039000D01*
X136141253Y-19039000D01*
X136634098Y-19137033D01*
X136634098Y-19137033D01*
G37*
G36*
X51544098Y-19137033D02*
G01*
X52008350Y-19329332D01*
X52008352Y-19329333D01*
X52426168Y-19608509D01*
X52781491Y-19963832D01*
X52916575Y-20166000D01*
X53060668Y-20381650D01*
X53252967Y-20845902D01*
X53351000Y-21338747D01*
X53351000Y-21841253D01*
X53252967Y-22334098D01*
X53131093Y-22628329D01*
X53060667Y-22798352D01*
X52781491Y-23216168D01*
X52426168Y-23571491D01*
X52008352Y-23850667D01*
X52008351Y-23850668D01*
X52008350Y-23850668D01*
X51544098Y-24042967D01*
X51051253Y-24141000D01*
X50548747Y-24141000D01*
X50055902Y-24042967D01*
X49591650Y-23850668D01*
X49591649Y-23850668D01*
X49591648Y-23850667D01*
X49173832Y-23571491D01*
X48818509Y-23216168D01*
X48539333Y-22798352D01*
X48468907Y-22628329D01*
X48347033Y-22334098D01*
X48249000Y-21841253D01*
X48249000Y-21338747D01*
X48347033Y-20845902D01*
X48539332Y-20381650D01*
X48683425Y-20166000D01*
X48818509Y-19963832D01*
X49173832Y-19608509D01*
X49591648Y-19329333D01*
X49591650Y-19329332D01*
X50055902Y-19137033D01*
X50548747Y-19039000D01*
X51051253Y-19039000D01*
X51544098Y-19137033D01*
X51544098Y-19137033D01*
G37*
M02*
