G04 #@! TF.GenerationSoftware,KiCad,Pcbnew,(5.1.2)-1*
G04 #@! TF.CreationDate,2020-02-07T16:14:01+02:00*
G04 #@! TF.ProjectId,PCB,5043422e-6b69-4636-9164-5f7063625858,rev?*
G04 #@! TF.SameCoordinates,Original*
G04 #@! TF.FileFunction,Soldermask,Top*
G04 #@! TF.FilePolarity,Negative*
%FSLAX46Y46*%
G04 Gerber Fmt 4.6, Leading zero omitted, Abs format (unit mm)*
G04 Created by KiCad (PCBNEW (5.1.2)-1) date 2020-02-07 16:14:01*
%MOMM*%
%LPD*%
G04 APERTURE LIST*
%ADD10C,0.100000*%
G04 APERTURE END LIST*
D10*
G36*
X52597787Y-94883462D02*
G01*
X52654552Y-94906975D01*
X53244029Y-95151144D01*
X53825631Y-95539758D01*
X54320242Y-96034369D01*
X54708856Y-96615971D01*
X54823541Y-96892845D01*
X54976538Y-97262213D01*
X55113000Y-97948256D01*
X55113000Y-98647744D01*
X54976538Y-99333787D01*
X54939520Y-99423156D01*
X54708856Y-99980029D01*
X54320242Y-100561631D01*
X53825631Y-101056242D01*
X53244029Y-101444856D01*
X52881549Y-101595000D01*
X52597787Y-101712538D01*
X51911744Y-101849000D01*
X51212256Y-101849000D01*
X50526213Y-101712538D01*
X50242451Y-101595000D01*
X49879971Y-101444856D01*
X49298369Y-101056242D01*
X48803758Y-100561631D01*
X48415144Y-99980029D01*
X48184480Y-99423156D01*
X48147462Y-99333787D01*
X48011000Y-98647744D01*
X48011000Y-97948256D01*
X48147462Y-97262213D01*
X48300459Y-96892845D01*
X48415144Y-96615971D01*
X48803758Y-96034369D01*
X49298369Y-95539758D01*
X49879971Y-95151144D01*
X50469448Y-94906975D01*
X50526213Y-94883462D01*
X51212256Y-94747000D01*
X51911744Y-94747000D01*
X52597787Y-94883462D01*
X52597787Y-94883462D01*
G37*
G36*
X137179787Y-94629462D02*
G01*
X137369068Y-94707865D01*
X137826029Y-94897144D01*
X138407631Y-95285758D01*
X138902242Y-95780369D01*
X139290856Y-96361971D01*
X139405541Y-96638845D01*
X139558538Y-97008213D01*
X139695000Y-97694256D01*
X139695000Y-98393744D01*
X139558538Y-99079787D01*
X139558537Y-99079789D01*
X139290856Y-99726029D01*
X138902242Y-100307631D01*
X138407631Y-100802242D01*
X137826029Y-101190856D01*
X137507799Y-101322671D01*
X137179787Y-101458538D01*
X136493744Y-101595000D01*
X135794256Y-101595000D01*
X135108213Y-101458538D01*
X134780201Y-101322671D01*
X134461971Y-101190856D01*
X133880369Y-100802242D01*
X133385758Y-100307631D01*
X132997144Y-99726029D01*
X132729463Y-99079789D01*
X132729462Y-99079787D01*
X132593000Y-98393744D01*
X132593000Y-97694256D01*
X132729462Y-97008213D01*
X132882459Y-96638845D01*
X132997144Y-96361971D01*
X133385758Y-95780369D01*
X133880369Y-95285758D01*
X134461971Y-94897144D01*
X134918932Y-94707865D01*
X135108213Y-94629462D01*
X135794256Y-94493000D01*
X136493744Y-94493000D01*
X137179787Y-94629462D01*
X137179787Y-94629462D01*
G37*
G36*
X145225560Y-99169064D02*
G01*
X145377027Y-99199193D01*
X145591045Y-99287842D01*
X145621556Y-99308229D01*
X145783654Y-99416539D01*
X145947461Y-99580346D01*
X146013038Y-99678489D01*
X146076158Y-99772955D01*
X146164807Y-99986973D01*
X146164807Y-99986975D01*
X146210000Y-100214173D01*
X146210000Y-100445827D01*
X146204794Y-100472000D01*
X146164807Y-100673027D01*
X146076158Y-100887045D01*
X146076157Y-100887046D01*
X145947461Y-101079654D01*
X145783654Y-101243461D01*
X145665107Y-101322671D01*
X145591045Y-101372158D01*
X145377027Y-101460807D01*
X145225560Y-101490936D01*
X145149827Y-101506000D01*
X144918173Y-101506000D01*
X144842440Y-101490936D01*
X144690973Y-101460807D01*
X144476955Y-101372158D01*
X144402893Y-101322671D01*
X144284346Y-101243461D01*
X144120539Y-101079654D01*
X143991843Y-100887046D01*
X143991842Y-100887045D01*
X143903193Y-100673027D01*
X143863206Y-100472000D01*
X143858000Y-100445827D01*
X143858000Y-100214173D01*
X143903193Y-99986975D01*
X143903193Y-99986973D01*
X143991842Y-99772955D01*
X144054962Y-99678489D01*
X144120539Y-99580346D01*
X144284346Y-99416539D01*
X144446444Y-99308229D01*
X144476955Y-99287842D01*
X144690973Y-99199193D01*
X144842440Y-99169064D01*
X144918173Y-99154000D01*
X145149827Y-99154000D01*
X145225560Y-99169064D01*
X145225560Y-99169064D01*
G37*
G36*
X150305560Y-99169064D02*
G01*
X150457027Y-99199193D01*
X150671045Y-99287842D01*
X150701556Y-99308229D01*
X150863654Y-99416539D01*
X151027461Y-99580346D01*
X151093038Y-99678489D01*
X151156158Y-99772955D01*
X151244807Y-99986973D01*
X151244807Y-99986975D01*
X151290000Y-100214173D01*
X151290000Y-100445827D01*
X151284794Y-100472000D01*
X151244807Y-100673027D01*
X151156158Y-100887045D01*
X151156157Y-100887046D01*
X151027461Y-101079654D01*
X150863654Y-101243461D01*
X150745107Y-101322671D01*
X150671045Y-101372158D01*
X150457027Y-101460807D01*
X150305560Y-101490936D01*
X150229827Y-101506000D01*
X149998173Y-101506000D01*
X149922440Y-101490936D01*
X149770973Y-101460807D01*
X149556955Y-101372158D01*
X149482893Y-101322671D01*
X149364346Y-101243461D01*
X149200539Y-101079654D01*
X149071843Y-100887046D01*
X149071842Y-100887045D01*
X148983193Y-100673027D01*
X148943206Y-100472000D01*
X148938000Y-100445827D01*
X148938000Y-100214173D01*
X148983193Y-99986975D01*
X148983193Y-99986973D01*
X149071842Y-99772955D01*
X149134962Y-99678489D01*
X149200539Y-99580346D01*
X149364346Y-99416539D01*
X149526444Y-99308229D01*
X149556955Y-99287842D01*
X149770973Y-99199193D01*
X149922440Y-99169064D01*
X149998173Y-99154000D01*
X150229827Y-99154000D01*
X150305560Y-99169064D01*
X150305560Y-99169064D01*
G37*
G36*
X118358228Y-98241703D02*
G01*
X118513100Y-98305853D01*
X118652481Y-98398985D01*
X118771015Y-98517519D01*
X118864147Y-98656900D01*
X118928297Y-98811772D01*
X118961000Y-98976184D01*
X118961000Y-99143816D01*
X118928297Y-99308228D01*
X118864147Y-99463100D01*
X118771015Y-99602481D01*
X118652481Y-99721015D01*
X118513100Y-99814147D01*
X118358228Y-99878297D01*
X118193816Y-99911000D01*
X118026184Y-99911000D01*
X117861772Y-99878297D01*
X117706900Y-99814147D01*
X117567519Y-99721015D01*
X117448985Y-99602481D01*
X117355853Y-99463100D01*
X117291703Y-99308228D01*
X117259000Y-99143816D01*
X117259000Y-98976184D01*
X117291703Y-98811772D01*
X117355853Y-98656900D01*
X117448985Y-98517519D01*
X117567519Y-98398985D01*
X117706900Y-98305853D01*
X117861772Y-98241703D01*
X118026184Y-98209000D01*
X118193816Y-98209000D01*
X118358228Y-98241703D01*
X118358228Y-98241703D01*
G37*
G36*
X108116823Y-98221313D02*
G01*
X108277242Y-98269976D01*
X108332810Y-98299678D01*
X108425078Y-98348996D01*
X108554659Y-98455341D01*
X108661004Y-98584922D01*
X108661005Y-98584924D01*
X108740024Y-98732758D01*
X108788687Y-98893177D01*
X108805117Y-99060000D01*
X108788687Y-99226823D01*
X108740024Y-99387242D01*
X108679495Y-99500484D01*
X108661004Y-99535078D01*
X108554659Y-99664659D01*
X108425078Y-99771004D01*
X108425076Y-99771005D01*
X108277242Y-99850024D01*
X108116823Y-99898687D01*
X107991804Y-99911000D01*
X107908196Y-99911000D01*
X107783177Y-99898687D01*
X107622758Y-99850024D01*
X107474924Y-99771005D01*
X107474922Y-99771004D01*
X107345341Y-99664659D01*
X107238996Y-99535078D01*
X107220505Y-99500484D01*
X107159976Y-99387242D01*
X107111313Y-99226823D01*
X107094883Y-99060000D01*
X107111313Y-98893177D01*
X107159976Y-98732758D01*
X107238995Y-98584924D01*
X107238996Y-98584922D01*
X107345341Y-98455341D01*
X107474922Y-98348996D01*
X107567190Y-98299678D01*
X107622758Y-98269976D01*
X107783177Y-98221313D01*
X107908196Y-98209000D01*
X107991804Y-98209000D01*
X108116823Y-98221313D01*
X108116823Y-98221313D01*
G37*
G36*
X99494548Y-97541326D02*
G01*
X99668157Y-97593990D01*
X99828156Y-97679511D01*
X99864957Y-97709713D01*
X99968397Y-97794603D01*
X100011397Y-97847000D01*
X100083489Y-97934844D01*
X100169010Y-98094843D01*
X100221674Y-98268452D01*
X100235000Y-98403757D01*
X100235000Y-98954244D01*
X100221674Y-99089548D01*
X100169010Y-99263157D01*
X100083489Y-99423156D01*
X100047928Y-99466487D01*
X99968397Y-99563397D01*
X99828155Y-99678489D01*
X99668156Y-99764010D01*
X99494547Y-99816674D01*
X99314000Y-99834456D01*
X99133452Y-99816674D01*
X98959843Y-99764010D01*
X98799844Y-99678489D01*
X98756271Y-99642729D01*
X98659603Y-99563397D01*
X98544511Y-99423155D01*
X98458991Y-99263158D01*
X98447969Y-99226825D01*
X98406326Y-99089547D01*
X98393000Y-98954243D01*
X98393000Y-98403756D01*
X98406326Y-98268452D01*
X98458990Y-98094843D01*
X98544512Y-97934844D01*
X98574479Y-97898329D01*
X98659604Y-97794603D01*
X98763044Y-97709713D01*
X98799845Y-97679511D01*
X98959844Y-97593990D01*
X99133453Y-97541326D01*
X99314000Y-97523544D01*
X99494548Y-97541326D01*
X99494548Y-97541326D01*
G37*
G36*
X102633561Y-97531966D02*
G01*
X102666383Y-97541923D01*
X102696632Y-97558092D01*
X102723148Y-97579852D01*
X102744908Y-97606368D01*
X102761077Y-97636617D01*
X102771034Y-97669439D01*
X102775000Y-97709713D01*
X102775000Y-99648287D01*
X102771034Y-99688561D01*
X102761077Y-99721383D01*
X102744908Y-99751632D01*
X102723148Y-99778148D01*
X102696632Y-99799908D01*
X102666383Y-99816077D01*
X102633561Y-99826034D01*
X102593287Y-99830000D01*
X101114713Y-99830000D01*
X101074439Y-99826034D01*
X101041617Y-99816077D01*
X101011368Y-99799908D01*
X100984852Y-99778148D01*
X100963092Y-99751632D01*
X100946923Y-99721383D01*
X100936966Y-99688561D01*
X100933000Y-99648287D01*
X100933000Y-97709713D01*
X100936966Y-97669439D01*
X100946923Y-97636617D01*
X100963092Y-97606368D01*
X100984852Y-97579852D01*
X101011368Y-97558092D01*
X101041617Y-97541923D01*
X101074439Y-97531966D01*
X101114713Y-97528000D01*
X102593287Y-97528000D01*
X102633561Y-97531966D01*
X102633561Y-97531966D01*
G37*
G36*
X147749271Y-96727783D02*
G01*
X147887858Y-96755350D01*
X148083677Y-96836461D01*
X148259910Y-96954216D01*
X148409784Y-97104090D01*
X148527539Y-97280323D01*
X148608650Y-97476142D01*
X148622972Y-97548146D01*
X148650000Y-97684022D01*
X148650000Y-97895978D01*
X148639601Y-97948256D01*
X148608650Y-98103858D01*
X148527539Y-98299677D01*
X148409784Y-98475910D01*
X148259910Y-98625784D01*
X148083677Y-98743539D01*
X147887858Y-98824650D01*
X147749271Y-98852217D01*
X147679978Y-98866000D01*
X147468022Y-98866000D01*
X147398729Y-98852217D01*
X147260142Y-98824650D01*
X147064323Y-98743539D01*
X146888090Y-98625784D01*
X146738216Y-98475910D01*
X146620461Y-98299677D01*
X146539350Y-98103858D01*
X146508399Y-97948256D01*
X146498000Y-97895978D01*
X146498000Y-97684022D01*
X146525028Y-97548146D01*
X146539350Y-97476142D01*
X146620461Y-97280323D01*
X146738216Y-97104090D01*
X146888090Y-96954216D01*
X147064323Y-96836461D01*
X147260142Y-96755350D01*
X147398729Y-96727783D01*
X147468022Y-96714000D01*
X147679978Y-96714000D01*
X147749271Y-96727783D01*
X147749271Y-96727783D01*
G37*
G36*
X58924730Y-94442599D02*
G01*
X59232179Y-94535863D01*
X59515518Y-94687311D01*
X59763871Y-94891129D01*
X59967689Y-95139482D01*
X60119137Y-95422821D01*
X60212401Y-95730270D01*
X60236000Y-95969879D01*
X60236000Y-97070122D01*
X60212401Y-97309730D01*
X60161920Y-97476142D01*
X60122417Y-97606368D01*
X60119137Y-97617179D01*
X59967689Y-97900518D01*
X59910702Y-97969956D01*
X59763871Y-98148871D01*
X59515518Y-98352688D01*
X59515514Y-98352691D01*
X59232178Y-98504137D01*
X58924729Y-98597401D01*
X58605000Y-98628891D01*
X58285270Y-98597401D01*
X57977821Y-98504137D01*
X57694482Y-98352689D01*
X57591843Y-98268455D01*
X57446129Y-98148871D01*
X57242312Y-97900518D01*
X57242311Y-97900517D01*
X57242309Y-97900514D01*
X57090863Y-97617178D01*
X56997599Y-97309729D01*
X56974000Y-97070121D01*
X56974000Y-95969878D01*
X56997599Y-95730270D01*
X57090863Y-95422821D01*
X57236078Y-95151144D01*
X57242312Y-95139481D01*
X57446130Y-94891129D01*
X57694482Y-94687312D01*
X57694481Y-94687312D01*
X57694483Y-94687311D01*
X57977822Y-94535863D01*
X58285271Y-94442599D01*
X58605000Y-94411109D01*
X58924730Y-94442599D01*
X58924730Y-94442599D01*
G37*
G36*
X66844730Y-94442599D02*
G01*
X67152179Y-94535863D01*
X67435518Y-94687311D01*
X67683871Y-94891129D01*
X67887689Y-95139482D01*
X68039137Y-95422821D01*
X68132401Y-95730270D01*
X68156000Y-95969879D01*
X68156000Y-97070122D01*
X68132401Y-97309730D01*
X68081920Y-97476142D01*
X68042417Y-97606368D01*
X68039137Y-97617179D01*
X67887689Y-97900518D01*
X67830702Y-97969956D01*
X67683871Y-98148871D01*
X67435518Y-98352688D01*
X67435514Y-98352691D01*
X67152178Y-98504137D01*
X66844729Y-98597401D01*
X66525000Y-98628891D01*
X66205270Y-98597401D01*
X65897821Y-98504137D01*
X65614482Y-98352689D01*
X65511843Y-98268455D01*
X65366129Y-98148871D01*
X65162312Y-97900518D01*
X65162311Y-97900517D01*
X65162309Y-97900514D01*
X65010863Y-97617178D01*
X64917599Y-97309729D01*
X64894000Y-97070121D01*
X64894000Y-95969878D01*
X64917599Y-95730270D01*
X65010863Y-95422821D01*
X65156078Y-95151144D01*
X65162312Y-95139481D01*
X65366130Y-94891129D01*
X65614482Y-94687312D01*
X65614481Y-94687312D01*
X65614483Y-94687311D01*
X65897822Y-94535863D01*
X66205271Y-94442599D01*
X66525000Y-94411109D01*
X66844730Y-94442599D01*
X66844730Y-94442599D01*
G37*
G36*
X62884730Y-94442599D02*
G01*
X63192179Y-94535863D01*
X63475518Y-94687311D01*
X63723871Y-94891129D01*
X63927689Y-95139482D01*
X64079137Y-95422821D01*
X64172401Y-95730270D01*
X64196000Y-95969879D01*
X64196000Y-97070122D01*
X64172401Y-97309730D01*
X64121920Y-97476142D01*
X64082417Y-97606368D01*
X64079137Y-97617179D01*
X63927689Y-97900518D01*
X63870702Y-97969956D01*
X63723871Y-98148871D01*
X63475518Y-98352688D01*
X63475514Y-98352691D01*
X63192178Y-98504137D01*
X62884729Y-98597401D01*
X62565000Y-98628891D01*
X62245270Y-98597401D01*
X61937821Y-98504137D01*
X61654482Y-98352689D01*
X61551843Y-98268455D01*
X61406129Y-98148871D01*
X61202312Y-97900518D01*
X61202311Y-97900517D01*
X61202309Y-97900514D01*
X61050863Y-97617178D01*
X60957599Y-97309729D01*
X60934000Y-97070121D01*
X60934000Y-95969878D01*
X60957599Y-95730270D01*
X61050863Y-95422821D01*
X61196078Y-95151144D01*
X61202312Y-95139481D01*
X61406130Y-94891129D01*
X61654482Y-94687312D01*
X61654481Y-94687312D01*
X61654483Y-94687311D01*
X61937822Y-94535863D01*
X62245271Y-94442599D01*
X62565000Y-94411109D01*
X62884730Y-94442599D01*
X62884730Y-94442599D01*
G37*
G36*
X71992850Y-94422530D02*
G01*
X72021413Y-94431194D01*
X72047734Y-94445263D01*
X72070804Y-94464196D01*
X72089737Y-94487266D01*
X72103806Y-94513587D01*
X72112470Y-94542150D01*
X72116000Y-94577990D01*
X72116000Y-98462010D01*
X72112470Y-98497850D01*
X72103806Y-98526413D01*
X72089737Y-98552734D01*
X72070804Y-98575804D01*
X72047734Y-98594737D01*
X72021413Y-98608806D01*
X71992850Y-98617470D01*
X71957010Y-98621000D01*
X69012990Y-98621000D01*
X68977150Y-98617470D01*
X68948587Y-98608806D01*
X68922266Y-98594737D01*
X68899196Y-98575804D01*
X68880263Y-98552734D01*
X68866194Y-98526413D01*
X68857530Y-98497850D01*
X68854000Y-98462010D01*
X68854000Y-94577990D01*
X68857530Y-94542150D01*
X68866194Y-94513587D01*
X68880263Y-94487266D01*
X68899196Y-94464196D01*
X68922266Y-94445263D01*
X68948587Y-94431194D01*
X68977150Y-94422530D01*
X69012990Y-94419000D01*
X71957010Y-94419000D01*
X71992850Y-94422530D01*
X71992850Y-94422530D01*
G37*
G36*
X165036905Y-94533694D02*
G01*
X165212410Y-94568604D01*
X165494674Y-94685521D01*
X165748705Y-94855259D01*
X165964741Y-95071295D01*
X166134479Y-95325326D01*
X166251396Y-95607590D01*
X166311000Y-95907240D01*
X166311000Y-96212760D01*
X166251396Y-96512410D01*
X166134479Y-96794674D01*
X165964741Y-97048705D01*
X165748705Y-97264741D01*
X165494674Y-97434479D01*
X165212410Y-97551396D01*
X165105800Y-97572602D01*
X164912761Y-97611000D01*
X164607239Y-97611000D01*
X164414200Y-97572602D01*
X164307590Y-97551396D01*
X164025326Y-97434479D01*
X163771295Y-97264741D01*
X163555259Y-97048705D01*
X163385521Y-96794674D01*
X163268604Y-96512410D01*
X163209000Y-96212760D01*
X163209000Y-95907240D01*
X163268604Y-95607590D01*
X163385521Y-95325326D01*
X163555259Y-95071295D01*
X163771295Y-94855259D01*
X164025326Y-94685521D01*
X164307590Y-94568604D01*
X164483095Y-94533694D01*
X164607239Y-94509000D01*
X164912761Y-94509000D01*
X165036905Y-94533694D01*
X165036905Y-94533694D01*
G37*
G36*
X150305560Y-94089064D02*
G01*
X150457027Y-94119193D01*
X150671045Y-94207842D01*
X150671046Y-94207843D01*
X150863654Y-94336539D01*
X151027461Y-94500346D01*
X151099028Y-94607454D01*
X151156158Y-94692955D01*
X151244807Y-94906973D01*
X151290000Y-95134174D01*
X151290000Y-95365826D01*
X151244807Y-95593027D01*
X151156158Y-95807045D01*
X151114093Y-95870000D01*
X151027461Y-95999654D01*
X150863654Y-96163461D01*
X150789871Y-96212761D01*
X150671045Y-96292158D01*
X150457027Y-96380807D01*
X150305560Y-96410936D01*
X150229827Y-96426000D01*
X149998173Y-96426000D01*
X149922440Y-96410936D01*
X149770973Y-96380807D01*
X149556955Y-96292158D01*
X149438129Y-96212761D01*
X149364346Y-96163461D01*
X149200539Y-95999654D01*
X149113907Y-95870000D01*
X149071842Y-95807045D01*
X148983193Y-95593027D01*
X148938000Y-95365826D01*
X148938000Y-95134174D01*
X148983193Y-94906973D01*
X149071842Y-94692955D01*
X149128972Y-94607454D01*
X149200539Y-94500346D01*
X149364346Y-94336539D01*
X149556954Y-94207843D01*
X149556955Y-94207842D01*
X149770973Y-94119193D01*
X149922440Y-94089064D01*
X149998173Y-94074000D01*
X150229827Y-94074000D01*
X150305560Y-94089064D01*
X150305560Y-94089064D01*
G37*
G36*
X145225560Y-94089064D02*
G01*
X145377027Y-94119193D01*
X145591045Y-94207842D01*
X145591046Y-94207843D01*
X145783654Y-94336539D01*
X145947461Y-94500346D01*
X146019028Y-94607454D01*
X146076158Y-94692955D01*
X146164807Y-94906973D01*
X146210000Y-95134174D01*
X146210000Y-95365826D01*
X146164807Y-95593027D01*
X146076158Y-95807045D01*
X146034093Y-95870000D01*
X145947461Y-95999654D01*
X145783654Y-96163461D01*
X145709871Y-96212761D01*
X145591045Y-96292158D01*
X145377027Y-96380807D01*
X145225560Y-96410936D01*
X145149827Y-96426000D01*
X144918173Y-96426000D01*
X144842440Y-96410936D01*
X144690973Y-96380807D01*
X144476955Y-96292158D01*
X144358129Y-96212761D01*
X144284346Y-96163461D01*
X144120539Y-95999654D01*
X144033907Y-95870000D01*
X143991842Y-95807045D01*
X143903193Y-95593027D01*
X143858000Y-95365826D01*
X143858000Y-95134174D01*
X143903193Y-94906973D01*
X143991842Y-94692955D01*
X144048972Y-94607454D01*
X144120539Y-94500346D01*
X144284346Y-94336539D01*
X144476954Y-94207843D01*
X144476955Y-94207842D01*
X144690973Y-94119193D01*
X144842440Y-94089064D01*
X144918173Y-94074000D01*
X145149827Y-94074000D01*
X145225560Y-94089064D01*
X145225560Y-94089064D01*
G37*
G36*
X117013665Y-93232622D02*
G01*
X117087222Y-93239867D01*
X117228786Y-93282810D01*
X117359252Y-93352546D01*
X117389040Y-93376992D01*
X117473607Y-93446393D01*
X117543008Y-93530960D01*
X117567454Y-93560748D01*
X117637190Y-93691214D01*
X117680133Y-93832778D01*
X117694633Y-93980000D01*
X117680133Y-94127222D01*
X117637190Y-94268786D01*
X117567454Y-94399252D01*
X117557723Y-94411109D01*
X117473607Y-94513607D01*
X117406591Y-94568604D01*
X117359252Y-94607454D01*
X117359250Y-94607455D01*
X117229013Y-94677069D01*
X117228786Y-94677190D01*
X117087222Y-94720133D01*
X117013665Y-94727378D01*
X116976888Y-94731000D01*
X116703112Y-94731000D01*
X116666335Y-94727378D01*
X116592778Y-94720133D01*
X116451214Y-94677190D01*
X116450988Y-94677069D01*
X116320750Y-94607455D01*
X116320748Y-94607454D01*
X116273409Y-94568604D01*
X116206393Y-94513607D01*
X116122277Y-94411109D01*
X116112546Y-94399252D01*
X116042810Y-94268786D01*
X115999867Y-94127222D01*
X115985367Y-93980000D01*
X115999867Y-93832778D01*
X116042810Y-93691214D01*
X116112546Y-93560748D01*
X116136992Y-93530960D01*
X116206393Y-93446393D01*
X116290960Y-93376992D01*
X116320748Y-93352546D01*
X116451214Y-93282810D01*
X116592778Y-93239867D01*
X116666335Y-93232622D01*
X116703112Y-93229000D01*
X116976888Y-93229000D01*
X117013665Y-93232622D01*
X117013665Y-93232622D01*
G37*
G36*
X109393665Y-93232622D02*
G01*
X109467222Y-93239867D01*
X109608786Y-93282810D01*
X109739252Y-93352546D01*
X109769040Y-93376992D01*
X109853607Y-93446393D01*
X109923008Y-93530960D01*
X109947454Y-93560748D01*
X110017190Y-93691214D01*
X110060133Y-93832778D01*
X110074633Y-93980000D01*
X110060133Y-94127222D01*
X110017190Y-94268786D01*
X109947454Y-94399252D01*
X109937723Y-94411109D01*
X109853607Y-94513607D01*
X109786591Y-94568604D01*
X109739252Y-94607454D01*
X109739250Y-94607455D01*
X109609013Y-94677069D01*
X109608786Y-94677190D01*
X109467222Y-94720133D01*
X109393665Y-94727378D01*
X109356888Y-94731000D01*
X109083112Y-94731000D01*
X109046335Y-94727378D01*
X108972778Y-94720133D01*
X108831214Y-94677190D01*
X108830988Y-94677069D01*
X108700750Y-94607455D01*
X108700748Y-94607454D01*
X108653409Y-94568604D01*
X108586393Y-94513607D01*
X108502277Y-94411109D01*
X108492546Y-94399252D01*
X108422810Y-94268786D01*
X108379867Y-94127222D01*
X108365367Y-93980000D01*
X108379867Y-93832778D01*
X108422810Y-93691214D01*
X108492546Y-93560748D01*
X108516992Y-93530960D01*
X108586393Y-93446393D01*
X108670960Y-93376992D01*
X108700748Y-93352546D01*
X108831214Y-93282810D01*
X108972778Y-93239867D01*
X109046335Y-93232622D01*
X109083112Y-93229000D01*
X109356888Y-93229000D01*
X109393665Y-93232622D01*
X109393665Y-93232622D01*
G37*
G36*
X109393665Y-90692622D02*
G01*
X109467222Y-90699867D01*
X109608786Y-90742810D01*
X109739252Y-90812546D01*
X109769040Y-90836992D01*
X109853607Y-90906393D01*
X109923008Y-90990960D01*
X109947454Y-91020748D01*
X110017190Y-91151214D01*
X110060133Y-91292778D01*
X110074633Y-91440000D01*
X110060133Y-91587222D01*
X110017190Y-91728786D01*
X109947454Y-91859252D01*
X109923008Y-91889040D01*
X109853607Y-91973607D01*
X109769040Y-92043008D01*
X109739252Y-92067454D01*
X109608786Y-92137190D01*
X109467222Y-92180133D01*
X109393665Y-92187378D01*
X109356888Y-92191000D01*
X109083112Y-92191000D01*
X109046335Y-92187378D01*
X108972778Y-92180133D01*
X108831214Y-92137190D01*
X108700748Y-92067454D01*
X108670960Y-92043008D01*
X108586393Y-91973607D01*
X108516992Y-91889040D01*
X108492546Y-91859252D01*
X108422810Y-91728786D01*
X108379867Y-91587222D01*
X108365367Y-91440000D01*
X108379867Y-91292778D01*
X108422810Y-91151214D01*
X108492546Y-91020748D01*
X108516992Y-90990960D01*
X108586393Y-90906393D01*
X108670960Y-90836992D01*
X108700748Y-90812546D01*
X108831214Y-90742810D01*
X108972778Y-90699867D01*
X109046335Y-90692622D01*
X109083112Y-90689000D01*
X109356888Y-90689000D01*
X109393665Y-90692622D01*
X109393665Y-90692622D01*
G37*
G36*
X117013665Y-90692622D02*
G01*
X117087222Y-90699867D01*
X117228786Y-90742810D01*
X117359252Y-90812546D01*
X117389040Y-90836992D01*
X117473607Y-90906393D01*
X117543008Y-90990960D01*
X117567454Y-91020748D01*
X117637190Y-91151214D01*
X117680133Y-91292778D01*
X117694633Y-91440000D01*
X117680133Y-91587222D01*
X117637190Y-91728786D01*
X117567454Y-91859252D01*
X117543008Y-91889040D01*
X117473607Y-91973607D01*
X117389040Y-92043008D01*
X117359252Y-92067454D01*
X117228786Y-92137190D01*
X117087222Y-92180133D01*
X117013665Y-92187378D01*
X116976888Y-92191000D01*
X116703112Y-92191000D01*
X116666335Y-92187378D01*
X116592778Y-92180133D01*
X116451214Y-92137190D01*
X116320748Y-92067454D01*
X116290960Y-92043008D01*
X116206393Y-91973607D01*
X116136992Y-91889040D01*
X116112546Y-91859252D01*
X116042810Y-91728786D01*
X115999867Y-91587222D01*
X115985367Y-91440000D01*
X115999867Y-91292778D01*
X116042810Y-91151214D01*
X116112546Y-91020748D01*
X116136992Y-90990960D01*
X116206393Y-90906393D01*
X116290960Y-90836992D01*
X116320748Y-90812546D01*
X116451214Y-90742810D01*
X116592778Y-90699867D01*
X116666335Y-90692622D01*
X116703112Y-90689000D01*
X116976888Y-90689000D01*
X117013665Y-90692622D01*
X117013665Y-90692622D01*
G37*
G36*
X147911142Y-89672242D02*
G01*
X148059101Y-89733529D01*
X148192255Y-89822499D01*
X148305501Y-89935745D01*
X148394471Y-90068899D01*
X148455758Y-90216858D01*
X148487000Y-90373925D01*
X148487000Y-90534075D01*
X148455758Y-90691142D01*
X148394471Y-90839101D01*
X148305501Y-90972255D01*
X148192255Y-91085501D01*
X148059101Y-91174471D01*
X147911142Y-91235758D01*
X147754075Y-91267000D01*
X147593925Y-91267000D01*
X147436858Y-91235758D01*
X147288899Y-91174471D01*
X147155745Y-91085501D01*
X147042499Y-90972255D01*
X146953529Y-90839101D01*
X146892242Y-90691142D01*
X146861000Y-90534075D01*
X146861000Y-90373925D01*
X146892242Y-90216858D01*
X146953529Y-90068899D01*
X147042499Y-89935745D01*
X147155745Y-89822499D01*
X147288899Y-89733529D01*
X147436858Y-89672242D01*
X147593925Y-89641000D01*
X147754075Y-89641000D01*
X147911142Y-89672242D01*
X147911142Y-89672242D01*
G37*
G36*
X134095142Y-89672242D02*
G01*
X134243101Y-89733529D01*
X134376255Y-89822499D01*
X134489501Y-89935745D01*
X134578471Y-90068899D01*
X134639758Y-90216858D01*
X134671000Y-90373925D01*
X134671000Y-90534075D01*
X134639758Y-90691142D01*
X134578471Y-90839101D01*
X134489501Y-90972255D01*
X134376255Y-91085501D01*
X134243101Y-91174471D01*
X134095142Y-91235758D01*
X133938075Y-91267000D01*
X133777925Y-91267000D01*
X133620858Y-91235758D01*
X133472899Y-91174471D01*
X133339745Y-91085501D01*
X133226499Y-90972255D01*
X133137529Y-90839101D01*
X133076242Y-90691142D01*
X133045000Y-90534075D01*
X133045000Y-90373925D01*
X133076242Y-90216858D01*
X133137529Y-90068899D01*
X133226499Y-89935745D01*
X133339745Y-89822499D01*
X133472899Y-89733529D01*
X133620858Y-89672242D01*
X133777925Y-89641000D01*
X133938075Y-89641000D01*
X134095142Y-89672242D01*
X134095142Y-89672242D01*
G37*
G36*
X109393665Y-88152622D02*
G01*
X109467222Y-88159867D01*
X109608786Y-88202810D01*
X109739252Y-88272546D01*
X109769040Y-88296992D01*
X109853607Y-88366393D01*
X109914834Y-88441000D01*
X109947454Y-88480748D01*
X110017190Y-88611214D01*
X110060133Y-88752778D01*
X110074633Y-88900000D01*
X110060133Y-89047222D01*
X110017190Y-89188786D01*
X109947454Y-89319252D01*
X109923008Y-89349040D01*
X109853607Y-89433607D01*
X109769040Y-89503008D01*
X109739252Y-89527454D01*
X109608786Y-89597190D01*
X109467222Y-89640133D01*
X109393665Y-89647378D01*
X109356888Y-89651000D01*
X109083112Y-89651000D01*
X109046335Y-89647378D01*
X108972778Y-89640133D01*
X108831214Y-89597190D01*
X108700748Y-89527454D01*
X108670960Y-89503008D01*
X108586393Y-89433607D01*
X108516992Y-89349040D01*
X108492546Y-89319252D01*
X108422810Y-89188786D01*
X108379867Y-89047222D01*
X108365367Y-88900000D01*
X108379867Y-88752778D01*
X108422810Y-88611214D01*
X108492546Y-88480748D01*
X108525166Y-88441000D01*
X108586393Y-88366393D01*
X108670960Y-88296992D01*
X108700748Y-88272546D01*
X108831214Y-88202810D01*
X108972778Y-88159867D01*
X109046335Y-88152622D01*
X109083112Y-88149000D01*
X109356888Y-88149000D01*
X109393665Y-88152622D01*
X109393665Y-88152622D01*
G37*
G36*
X117013665Y-88152622D02*
G01*
X117087222Y-88159867D01*
X117228786Y-88202810D01*
X117359252Y-88272546D01*
X117389040Y-88296992D01*
X117473607Y-88366393D01*
X117534834Y-88441000D01*
X117567454Y-88480748D01*
X117637190Y-88611214D01*
X117680133Y-88752778D01*
X117694633Y-88900000D01*
X117680133Y-89047222D01*
X117637190Y-89188786D01*
X117567454Y-89319252D01*
X117543008Y-89349040D01*
X117473607Y-89433607D01*
X117389040Y-89503008D01*
X117359252Y-89527454D01*
X117228786Y-89597190D01*
X117087222Y-89640133D01*
X117013665Y-89647378D01*
X116976888Y-89651000D01*
X116703112Y-89651000D01*
X116666335Y-89647378D01*
X116592778Y-89640133D01*
X116451214Y-89597190D01*
X116320748Y-89527454D01*
X116290960Y-89503008D01*
X116206393Y-89433607D01*
X116136992Y-89349040D01*
X116112546Y-89319252D01*
X116042810Y-89188786D01*
X115999867Y-89047222D01*
X115985367Y-88900000D01*
X115999867Y-88752778D01*
X116042810Y-88611214D01*
X116112546Y-88480748D01*
X116145166Y-88441000D01*
X116206393Y-88366393D01*
X116290960Y-88296992D01*
X116320748Y-88272546D01*
X116451214Y-88202810D01*
X116592778Y-88159867D01*
X116666335Y-88152622D01*
X116703112Y-88149000D01*
X116976888Y-88149000D01*
X117013665Y-88152622D01*
X117013665Y-88152622D01*
G37*
G36*
X147911142Y-87672242D02*
G01*
X148059101Y-87733529D01*
X148192255Y-87822499D01*
X148305501Y-87935745D01*
X148394471Y-88068899D01*
X148455758Y-88216858D01*
X148487000Y-88373925D01*
X148487000Y-88534075D01*
X148455758Y-88691142D01*
X148394471Y-88839101D01*
X148305501Y-88972255D01*
X148192255Y-89085501D01*
X148059101Y-89174471D01*
X147911142Y-89235758D01*
X147754075Y-89267000D01*
X147593925Y-89267000D01*
X147436858Y-89235758D01*
X147288899Y-89174471D01*
X147155745Y-89085501D01*
X147042499Y-88972255D01*
X146953529Y-88839101D01*
X146892242Y-88691142D01*
X146861000Y-88534075D01*
X146861000Y-88373925D01*
X146892242Y-88216858D01*
X146953529Y-88068899D01*
X147042499Y-87935745D01*
X147155745Y-87822499D01*
X147288899Y-87733529D01*
X147436858Y-87672242D01*
X147593925Y-87641000D01*
X147754075Y-87641000D01*
X147911142Y-87672242D01*
X147911142Y-87672242D01*
G37*
G36*
X134095142Y-87672242D02*
G01*
X134243101Y-87733529D01*
X134376255Y-87822499D01*
X134489501Y-87935745D01*
X134578471Y-88068899D01*
X134639758Y-88216858D01*
X134671000Y-88373925D01*
X134671000Y-88534075D01*
X134639758Y-88691142D01*
X134578471Y-88839101D01*
X134489501Y-88972255D01*
X134376255Y-89085501D01*
X134243101Y-89174471D01*
X134095142Y-89235758D01*
X133938075Y-89267000D01*
X133777925Y-89267000D01*
X133620858Y-89235758D01*
X133472899Y-89174471D01*
X133339745Y-89085501D01*
X133226499Y-88972255D01*
X133137529Y-88839101D01*
X133076242Y-88691142D01*
X133045000Y-88534075D01*
X133045000Y-88373925D01*
X133076242Y-88216858D01*
X133137529Y-88068899D01*
X133226499Y-87935745D01*
X133339745Y-87822499D01*
X133472899Y-87733529D01*
X133620858Y-87672242D01*
X133777925Y-87641000D01*
X133938075Y-87641000D01*
X134095142Y-87672242D01*
X134095142Y-87672242D01*
G37*
G36*
X104642228Y-86771703D02*
G01*
X104797100Y-86835853D01*
X104936481Y-86928985D01*
X105055015Y-87047519D01*
X105148147Y-87186900D01*
X105212297Y-87341772D01*
X105245000Y-87506184D01*
X105245000Y-87673816D01*
X105212297Y-87838228D01*
X105148147Y-87993100D01*
X105055015Y-88132481D01*
X104936481Y-88251015D01*
X104797100Y-88344147D01*
X104642228Y-88408297D01*
X104477816Y-88441000D01*
X104310184Y-88441000D01*
X104145772Y-88408297D01*
X103990900Y-88344147D01*
X103851519Y-88251015D01*
X103732985Y-88132481D01*
X103639853Y-87993100D01*
X103575703Y-87838228D01*
X103543000Y-87673816D01*
X103543000Y-87506184D01*
X103575703Y-87341772D01*
X103639853Y-87186900D01*
X103732985Y-87047519D01*
X103851519Y-86928985D01*
X103990900Y-86835853D01*
X104145772Y-86771703D01*
X104310184Y-86739000D01*
X104477816Y-86739000D01*
X104642228Y-86771703D01*
X104642228Y-86771703D01*
G37*
G36*
X134095142Y-85672242D02*
G01*
X134243101Y-85733529D01*
X134376255Y-85822499D01*
X134489501Y-85935745D01*
X134578471Y-86068899D01*
X134639758Y-86216858D01*
X134671000Y-86373925D01*
X134671000Y-86534075D01*
X134639758Y-86691142D01*
X134578471Y-86839101D01*
X134489501Y-86972255D01*
X134376255Y-87085501D01*
X134243101Y-87174471D01*
X134095142Y-87235758D01*
X133938075Y-87267000D01*
X133777925Y-87267000D01*
X133620858Y-87235758D01*
X133472899Y-87174471D01*
X133339745Y-87085501D01*
X133226499Y-86972255D01*
X133137529Y-86839101D01*
X133076242Y-86691142D01*
X133045000Y-86534075D01*
X133045000Y-86373925D01*
X133076242Y-86216858D01*
X133137529Y-86068899D01*
X133226499Y-85935745D01*
X133339745Y-85822499D01*
X133472899Y-85733529D01*
X133620858Y-85672242D01*
X133777925Y-85641000D01*
X133938075Y-85641000D01*
X134095142Y-85672242D01*
X134095142Y-85672242D01*
G37*
G36*
X147911142Y-85672242D02*
G01*
X148059101Y-85733529D01*
X148192255Y-85822499D01*
X148305501Y-85935745D01*
X148394471Y-86068899D01*
X148455758Y-86216858D01*
X148487000Y-86373925D01*
X148487000Y-86534075D01*
X148455758Y-86691142D01*
X148394471Y-86839101D01*
X148305501Y-86972255D01*
X148192255Y-87085501D01*
X148059101Y-87174471D01*
X147911142Y-87235758D01*
X147754075Y-87267000D01*
X147593925Y-87267000D01*
X147436858Y-87235758D01*
X147288899Y-87174471D01*
X147155745Y-87085501D01*
X147042499Y-86972255D01*
X146953529Y-86839101D01*
X146892242Y-86691142D01*
X146861000Y-86534075D01*
X146861000Y-86373925D01*
X146892242Y-86216858D01*
X146953529Y-86068899D01*
X147042499Y-85935745D01*
X147155745Y-85822499D01*
X147288899Y-85733529D01*
X147436858Y-85672242D01*
X147593925Y-85641000D01*
X147754075Y-85641000D01*
X147911142Y-85672242D01*
X147911142Y-85672242D01*
G37*
G36*
X117013665Y-85612622D02*
G01*
X117087222Y-85619867D01*
X117228786Y-85662810D01*
X117359252Y-85732546D01*
X117389040Y-85756992D01*
X117473607Y-85826393D01*
X117540822Y-85908297D01*
X117567454Y-85940748D01*
X117637190Y-86071214D01*
X117680133Y-86212778D01*
X117694633Y-86360000D01*
X117680133Y-86507222D01*
X117637190Y-86648786D01*
X117567454Y-86779252D01*
X117543008Y-86809040D01*
X117473607Y-86893607D01*
X117389040Y-86963008D01*
X117359252Y-86987454D01*
X117228786Y-87057190D01*
X117087222Y-87100133D01*
X117013665Y-87107378D01*
X116976888Y-87111000D01*
X116703112Y-87111000D01*
X116666335Y-87107378D01*
X116592778Y-87100133D01*
X116451214Y-87057190D01*
X116320748Y-86987454D01*
X116290960Y-86963008D01*
X116206393Y-86893607D01*
X116136992Y-86809040D01*
X116112546Y-86779252D01*
X116042810Y-86648786D01*
X115999867Y-86507222D01*
X115985367Y-86360000D01*
X115999867Y-86212778D01*
X116042810Y-86071214D01*
X116112546Y-85940748D01*
X116139178Y-85908297D01*
X116206393Y-85826393D01*
X116290960Y-85756992D01*
X116320748Y-85732546D01*
X116451214Y-85662810D01*
X116592778Y-85619867D01*
X116666335Y-85612622D01*
X116703112Y-85609000D01*
X116976888Y-85609000D01*
X117013665Y-85612622D01*
X117013665Y-85612622D01*
G37*
G36*
X109393665Y-85612622D02*
G01*
X109467222Y-85619867D01*
X109608786Y-85662810D01*
X109739252Y-85732546D01*
X109769040Y-85756992D01*
X109853607Y-85826393D01*
X109920822Y-85908297D01*
X109947454Y-85940748D01*
X110017190Y-86071214D01*
X110060133Y-86212778D01*
X110074633Y-86360000D01*
X110060133Y-86507222D01*
X110017190Y-86648786D01*
X109947454Y-86779252D01*
X109923008Y-86809040D01*
X109853607Y-86893607D01*
X109769040Y-86963008D01*
X109739252Y-86987454D01*
X109608786Y-87057190D01*
X109467222Y-87100133D01*
X109393665Y-87107378D01*
X109356888Y-87111000D01*
X109083112Y-87111000D01*
X109046335Y-87107378D01*
X108972778Y-87100133D01*
X108831214Y-87057190D01*
X108700748Y-86987454D01*
X108670960Y-86963008D01*
X108586393Y-86893607D01*
X108516992Y-86809040D01*
X108492546Y-86779252D01*
X108422810Y-86648786D01*
X108379867Y-86507222D01*
X108365367Y-86360000D01*
X108379867Y-86212778D01*
X108422810Y-86071214D01*
X108492546Y-85940748D01*
X108519178Y-85908297D01*
X108586393Y-85826393D01*
X108670960Y-85756992D01*
X108700748Y-85732546D01*
X108831214Y-85662810D01*
X108972778Y-85619867D01*
X109046335Y-85612622D01*
X109083112Y-85609000D01*
X109356888Y-85609000D01*
X109393665Y-85612622D01*
X109393665Y-85612622D01*
G37*
G36*
X104642228Y-84271703D02*
G01*
X104797100Y-84335853D01*
X104936481Y-84428985D01*
X105055015Y-84547519D01*
X105148147Y-84686900D01*
X105212297Y-84841772D01*
X105245000Y-85006184D01*
X105245000Y-85173816D01*
X105212297Y-85338228D01*
X105148147Y-85493100D01*
X105055015Y-85632481D01*
X104936481Y-85751015D01*
X104797100Y-85844147D01*
X104642228Y-85908297D01*
X104477816Y-85941000D01*
X104310184Y-85941000D01*
X104145772Y-85908297D01*
X103990900Y-85844147D01*
X103851519Y-85751015D01*
X103732985Y-85632481D01*
X103639853Y-85493100D01*
X103575703Y-85338228D01*
X103543000Y-85173816D01*
X103543000Y-85006184D01*
X103575703Y-84841772D01*
X103639853Y-84686900D01*
X103732985Y-84547519D01*
X103851519Y-84428985D01*
X103990900Y-84335853D01*
X104145772Y-84271703D01*
X104310184Y-84239000D01*
X104477816Y-84239000D01*
X104642228Y-84271703D01*
X104642228Y-84271703D01*
G37*
G36*
X98023642Y-84119781D02*
G01*
X98169414Y-84180162D01*
X98169416Y-84180163D01*
X98300608Y-84267822D01*
X98412178Y-84379392D01*
X98499837Y-84510584D01*
X98499838Y-84510586D01*
X98560219Y-84656358D01*
X98591000Y-84811107D01*
X98591000Y-84968893D01*
X98560219Y-85123642D01*
X98513779Y-85235757D01*
X98499837Y-85269416D01*
X98412178Y-85400608D01*
X98300608Y-85512178D01*
X98169416Y-85599837D01*
X98169415Y-85599838D01*
X98169414Y-85599838D01*
X98023642Y-85660219D01*
X97868893Y-85691000D01*
X97711107Y-85691000D01*
X97556358Y-85660219D01*
X97410586Y-85599838D01*
X97410585Y-85599838D01*
X97410584Y-85599837D01*
X97279392Y-85512178D01*
X97167822Y-85400608D01*
X97080163Y-85269416D01*
X97066221Y-85235757D01*
X97019781Y-85123642D01*
X96989000Y-84968893D01*
X96989000Y-84811107D01*
X97019781Y-84656358D01*
X97080162Y-84510586D01*
X97080163Y-84510584D01*
X97167822Y-84379392D01*
X97279392Y-84267822D01*
X97410584Y-84180163D01*
X97410586Y-84180162D01*
X97556358Y-84119781D01*
X97711107Y-84089000D01*
X97868893Y-84089000D01*
X98023642Y-84119781D01*
X98023642Y-84119781D01*
G37*
G36*
X134095142Y-83672242D02*
G01*
X134243101Y-83733529D01*
X134376255Y-83822499D01*
X134489501Y-83935745D01*
X134578471Y-84068899D01*
X134639758Y-84216858D01*
X134671000Y-84373925D01*
X134671000Y-84534075D01*
X134639758Y-84691142D01*
X134578471Y-84839101D01*
X134489501Y-84972255D01*
X134376255Y-85085501D01*
X134243101Y-85174471D01*
X134095142Y-85235758D01*
X133938075Y-85267000D01*
X133777925Y-85267000D01*
X133620858Y-85235758D01*
X133472899Y-85174471D01*
X133339745Y-85085501D01*
X133226499Y-84972255D01*
X133137529Y-84839101D01*
X133076242Y-84691142D01*
X133045000Y-84534075D01*
X133045000Y-84373925D01*
X133076242Y-84216858D01*
X133137529Y-84068899D01*
X133226499Y-83935745D01*
X133339745Y-83822499D01*
X133472899Y-83733529D01*
X133620858Y-83672242D01*
X133777925Y-83641000D01*
X133938075Y-83641000D01*
X134095142Y-83672242D01*
X134095142Y-83672242D01*
G37*
G36*
X147911142Y-83672242D02*
G01*
X148059101Y-83733529D01*
X148192255Y-83822499D01*
X148305501Y-83935745D01*
X148394471Y-84068899D01*
X148455758Y-84216858D01*
X148487000Y-84373925D01*
X148487000Y-84534075D01*
X148455758Y-84691142D01*
X148394471Y-84839101D01*
X148305501Y-84972255D01*
X148192255Y-85085501D01*
X148059101Y-85174471D01*
X147911142Y-85235758D01*
X147754075Y-85267000D01*
X147593925Y-85267000D01*
X147436858Y-85235758D01*
X147288899Y-85174471D01*
X147155745Y-85085501D01*
X147042499Y-84972255D01*
X146953529Y-84839101D01*
X146892242Y-84691142D01*
X146861000Y-84534075D01*
X146861000Y-84373925D01*
X146892242Y-84216858D01*
X146953529Y-84068899D01*
X147042499Y-83935745D01*
X147155745Y-83822499D01*
X147288899Y-83733529D01*
X147436858Y-83672242D01*
X147593925Y-83641000D01*
X147754075Y-83641000D01*
X147911142Y-83672242D01*
X147911142Y-83672242D01*
G37*
G36*
X109393665Y-83072622D02*
G01*
X109467222Y-83079867D01*
X109608786Y-83122810D01*
X109739252Y-83192546D01*
X109769040Y-83216992D01*
X109853607Y-83286393D01*
X109923008Y-83370960D01*
X109947454Y-83400748D01*
X110017190Y-83531214D01*
X110060133Y-83672778D01*
X110074633Y-83820000D01*
X110060133Y-83967222D01*
X110029289Y-84068900D01*
X110017189Y-84108788D01*
X109982322Y-84174019D01*
X109947454Y-84239252D01*
X109924007Y-84267822D01*
X109853607Y-84353607D01*
X109769040Y-84423008D01*
X109739252Y-84447454D01*
X109608786Y-84517190D01*
X109467222Y-84560133D01*
X109393665Y-84567378D01*
X109356888Y-84571000D01*
X109083112Y-84571000D01*
X109046335Y-84567378D01*
X108972778Y-84560133D01*
X108831214Y-84517190D01*
X108700748Y-84447454D01*
X108670960Y-84423008D01*
X108586393Y-84353607D01*
X108515993Y-84267822D01*
X108492546Y-84239252D01*
X108457678Y-84174019D01*
X108422811Y-84108788D01*
X108410711Y-84068900D01*
X108379867Y-83967222D01*
X108365367Y-83820000D01*
X108379867Y-83672778D01*
X108422810Y-83531214D01*
X108492546Y-83400748D01*
X108516992Y-83370960D01*
X108586393Y-83286393D01*
X108670960Y-83216992D01*
X108700748Y-83192546D01*
X108831214Y-83122810D01*
X108972778Y-83079867D01*
X109046335Y-83072622D01*
X109083112Y-83069000D01*
X109356888Y-83069000D01*
X109393665Y-83072622D01*
X109393665Y-83072622D01*
G37*
G36*
X117013665Y-83072622D02*
G01*
X117087222Y-83079867D01*
X117228786Y-83122810D01*
X117359252Y-83192546D01*
X117389040Y-83216992D01*
X117473607Y-83286393D01*
X117543008Y-83370960D01*
X117567454Y-83400748D01*
X117637190Y-83531214D01*
X117680133Y-83672778D01*
X117694633Y-83820000D01*
X117680133Y-83967222D01*
X117649289Y-84068900D01*
X117637189Y-84108788D01*
X117602322Y-84174019D01*
X117567454Y-84239252D01*
X117544007Y-84267822D01*
X117473607Y-84353607D01*
X117389040Y-84423008D01*
X117359252Y-84447454D01*
X117228786Y-84517190D01*
X117087222Y-84560133D01*
X117013665Y-84567378D01*
X116976888Y-84571000D01*
X116703112Y-84571000D01*
X116666335Y-84567378D01*
X116592778Y-84560133D01*
X116451214Y-84517190D01*
X116320748Y-84447454D01*
X116290960Y-84423008D01*
X116206393Y-84353607D01*
X116135993Y-84267822D01*
X116112546Y-84239252D01*
X116077678Y-84174019D01*
X116042811Y-84108788D01*
X116030711Y-84068900D01*
X115999867Y-83967222D01*
X115985367Y-83820000D01*
X115999867Y-83672778D01*
X116042810Y-83531214D01*
X116112546Y-83400748D01*
X116136992Y-83370960D01*
X116206393Y-83286393D01*
X116290960Y-83216992D01*
X116320748Y-83192546D01*
X116451214Y-83122810D01*
X116592778Y-83079867D01*
X116666335Y-83072622D01*
X116703112Y-83069000D01*
X116976888Y-83069000D01*
X117013665Y-83072622D01*
X117013665Y-83072622D01*
G37*
G36*
X147911142Y-81672242D02*
G01*
X148059101Y-81733529D01*
X148192255Y-81822499D01*
X148305501Y-81935745D01*
X148394471Y-82068899D01*
X148455758Y-82216858D01*
X148487000Y-82373925D01*
X148487000Y-82534075D01*
X148455758Y-82691142D01*
X148394471Y-82839101D01*
X148305501Y-82972255D01*
X148192255Y-83085501D01*
X148059101Y-83174471D01*
X147911142Y-83235758D01*
X147754075Y-83267000D01*
X147593925Y-83267000D01*
X147436858Y-83235758D01*
X147288899Y-83174471D01*
X147155745Y-83085501D01*
X147042499Y-82972255D01*
X146953529Y-82839101D01*
X146892242Y-82691142D01*
X146861000Y-82534075D01*
X146861000Y-82373925D01*
X146892242Y-82216858D01*
X146953529Y-82068899D01*
X147042499Y-81935745D01*
X147155745Y-81822499D01*
X147288899Y-81733529D01*
X147436858Y-81672242D01*
X147593925Y-81641000D01*
X147754075Y-81641000D01*
X147911142Y-81672242D01*
X147911142Y-81672242D01*
G37*
G36*
X134095142Y-81672242D02*
G01*
X134243101Y-81733529D01*
X134376255Y-81822499D01*
X134489501Y-81935745D01*
X134578471Y-82068899D01*
X134639758Y-82216858D01*
X134671000Y-82373925D01*
X134671000Y-82534075D01*
X134639758Y-82691142D01*
X134578471Y-82839101D01*
X134489501Y-82972255D01*
X134376255Y-83085501D01*
X134243101Y-83174471D01*
X134095142Y-83235758D01*
X133938075Y-83267000D01*
X133777925Y-83267000D01*
X133620858Y-83235758D01*
X133472899Y-83174471D01*
X133339745Y-83085501D01*
X133226499Y-82972255D01*
X133137529Y-82839101D01*
X133076242Y-82691142D01*
X133045000Y-82534075D01*
X133045000Y-82373925D01*
X133076242Y-82216858D01*
X133137529Y-82068899D01*
X133226499Y-81935745D01*
X133339745Y-81822499D01*
X133472899Y-81733529D01*
X133620858Y-81672242D01*
X133777925Y-81641000D01*
X133938075Y-81641000D01*
X134095142Y-81672242D01*
X134095142Y-81672242D01*
G37*
G36*
X123398228Y-81096703D02*
G01*
X123553100Y-81160853D01*
X123692481Y-81253985D01*
X123811015Y-81372519D01*
X123904147Y-81511900D01*
X123968297Y-81666772D01*
X124001000Y-81831184D01*
X124001000Y-81998816D01*
X123968297Y-82163228D01*
X123904147Y-82318100D01*
X123811015Y-82457481D01*
X123692481Y-82576015D01*
X123553100Y-82669147D01*
X123398228Y-82733297D01*
X123233816Y-82766000D01*
X123066184Y-82766000D01*
X122901772Y-82733297D01*
X122746900Y-82669147D01*
X122607519Y-82576015D01*
X122488985Y-82457481D01*
X122395853Y-82318100D01*
X122331703Y-82163228D01*
X122299000Y-81998816D01*
X122299000Y-81831184D01*
X122331703Y-81666772D01*
X122395853Y-81511900D01*
X122488985Y-81372519D01*
X122607519Y-81253985D01*
X122746900Y-81160853D01*
X122901772Y-81096703D01*
X123066184Y-81064000D01*
X123233816Y-81064000D01*
X123398228Y-81096703D01*
X123398228Y-81096703D01*
G37*
G36*
X120898228Y-81096703D02*
G01*
X121053100Y-81160853D01*
X121192481Y-81253985D01*
X121311015Y-81372519D01*
X121404147Y-81511900D01*
X121468297Y-81666772D01*
X121501000Y-81831184D01*
X121501000Y-81998816D01*
X121468297Y-82163228D01*
X121404147Y-82318100D01*
X121311015Y-82457481D01*
X121192481Y-82576015D01*
X121053100Y-82669147D01*
X120898228Y-82733297D01*
X120733816Y-82766000D01*
X120566184Y-82766000D01*
X120401772Y-82733297D01*
X120246900Y-82669147D01*
X120107519Y-82576015D01*
X119988985Y-82457481D01*
X119895853Y-82318100D01*
X119831703Y-82163228D01*
X119799000Y-81998816D01*
X119799000Y-81831184D01*
X119831703Y-81666772D01*
X119895853Y-81511900D01*
X119988985Y-81372519D01*
X120107519Y-81253985D01*
X120246900Y-81160853D01*
X120401772Y-81096703D01*
X120566184Y-81064000D01*
X120733816Y-81064000D01*
X120898228Y-81096703D01*
X120898228Y-81096703D01*
G37*
G36*
X117013665Y-80532622D02*
G01*
X117087222Y-80539867D01*
X117228786Y-80582810D01*
X117359252Y-80652546D01*
X117389040Y-80676992D01*
X117473607Y-80746393D01*
X117526627Y-80811000D01*
X117567454Y-80860748D01*
X117637190Y-80991214D01*
X117680133Y-81132778D01*
X117694633Y-81280000D01*
X117680133Y-81427222D01*
X117637190Y-81568786D01*
X117567454Y-81699252D01*
X117543008Y-81729040D01*
X117473607Y-81813607D01*
X117389040Y-81883008D01*
X117359252Y-81907454D01*
X117228786Y-81977190D01*
X117087222Y-82020133D01*
X117013665Y-82027378D01*
X116976888Y-82031000D01*
X116703112Y-82031000D01*
X116666335Y-82027378D01*
X116592778Y-82020133D01*
X116451214Y-81977190D01*
X116320748Y-81907454D01*
X116290960Y-81883008D01*
X116206393Y-81813607D01*
X116136992Y-81729040D01*
X116112546Y-81699252D01*
X116042810Y-81568786D01*
X115999867Y-81427222D01*
X115985367Y-81280000D01*
X115999867Y-81132778D01*
X116042810Y-80991214D01*
X116112546Y-80860748D01*
X116153373Y-80811000D01*
X116206393Y-80746393D01*
X116290960Y-80676992D01*
X116320748Y-80652546D01*
X116451214Y-80582810D01*
X116592778Y-80539867D01*
X116666335Y-80532622D01*
X116703112Y-80529000D01*
X116976888Y-80529000D01*
X117013665Y-80532622D01*
X117013665Y-80532622D01*
G37*
G36*
X109393665Y-80532622D02*
G01*
X109467222Y-80539867D01*
X109608786Y-80582810D01*
X109739252Y-80652546D01*
X109769040Y-80676992D01*
X109853607Y-80746393D01*
X109906627Y-80811000D01*
X109947454Y-80860748D01*
X110017190Y-80991214D01*
X110060133Y-81132778D01*
X110074633Y-81280000D01*
X110060133Y-81427222D01*
X110017190Y-81568786D01*
X109947454Y-81699252D01*
X109923008Y-81729040D01*
X109853607Y-81813607D01*
X109769040Y-81883008D01*
X109739252Y-81907454D01*
X109608786Y-81977190D01*
X109467222Y-82020133D01*
X109393665Y-82027378D01*
X109356888Y-82031000D01*
X109083112Y-82031000D01*
X109046335Y-82027378D01*
X108972778Y-82020133D01*
X108831214Y-81977190D01*
X108700748Y-81907454D01*
X108670960Y-81883008D01*
X108586393Y-81813607D01*
X108516992Y-81729040D01*
X108492546Y-81699252D01*
X108422810Y-81568786D01*
X108379867Y-81427222D01*
X108365367Y-81280000D01*
X108379867Y-81132778D01*
X108422810Y-80991214D01*
X108492546Y-80860748D01*
X108533373Y-80811000D01*
X108586393Y-80746393D01*
X108670960Y-80676992D01*
X108700748Y-80652546D01*
X108831214Y-80582810D01*
X108972778Y-80539867D01*
X109046335Y-80532622D01*
X109083112Y-80529000D01*
X109356888Y-80529000D01*
X109393665Y-80532622D01*
X109393665Y-80532622D01*
G37*
G36*
X134095142Y-79672242D02*
G01*
X134243101Y-79733529D01*
X134376255Y-79822499D01*
X134489501Y-79935745D01*
X134578471Y-80068899D01*
X134639758Y-80216858D01*
X134671000Y-80373925D01*
X134671000Y-80534075D01*
X134639758Y-80691142D01*
X134578471Y-80839101D01*
X134489501Y-80972255D01*
X134376255Y-81085501D01*
X134243101Y-81174471D01*
X134095142Y-81235758D01*
X133938075Y-81267000D01*
X133777925Y-81267000D01*
X133620858Y-81235758D01*
X133472899Y-81174471D01*
X133339745Y-81085501D01*
X133226499Y-80972255D01*
X133137529Y-80839101D01*
X133076242Y-80691142D01*
X133045000Y-80534075D01*
X133045000Y-80373925D01*
X133076242Y-80216858D01*
X133137529Y-80068899D01*
X133226499Y-79935745D01*
X133339745Y-79822499D01*
X133472899Y-79733529D01*
X133620858Y-79672242D01*
X133777925Y-79641000D01*
X133938075Y-79641000D01*
X134095142Y-79672242D01*
X134095142Y-79672242D01*
G37*
G36*
X147911142Y-79672242D02*
G01*
X148059101Y-79733529D01*
X148192255Y-79822499D01*
X148305501Y-79935745D01*
X148394471Y-80068899D01*
X148455758Y-80216858D01*
X148487000Y-80373925D01*
X148487000Y-80534075D01*
X148455758Y-80691142D01*
X148394471Y-80839101D01*
X148305501Y-80972255D01*
X148192255Y-81085501D01*
X148059101Y-81174471D01*
X147911142Y-81235758D01*
X147754075Y-81267000D01*
X147593925Y-81267000D01*
X147436858Y-81235758D01*
X147288899Y-81174471D01*
X147155745Y-81085501D01*
X147042499Y-80972255D01*
X146953529Y-80839101D01*
X146892242Y-80691142D01*
X146861000Y-80534075D01*
X146861000Y-80373925D01*
X146892242Y-80216858D01*
X146953529Y-80068899D01*
X147042499Y-79935745D01*
X147155745Y-79822499D01*
X147288899Y-79733529D01*
X147436858Y-79672242D01*
X147593925Y-79641000D01*
X147754075Y-79641000D01*
X147911142Y-79672242D01*
X147911142Y-79672242D01*
G37*
G36*
X104642228Y-79151703D02*
G01*
X104797100Y-79215853D01*
X104936481Y-79308985D01*
X105055015Y-79427519D01*
X105148147Y-79566900D01*
X105212297Y-79721772D01*
X105245000Y-79886184D01*
X105245000Y-80053816D01*
X105212297Y-80218228D01*
X105148147Y-80373100D01*
X105055015Y-80512481D01*
X104936481Y-80631015D01*
X104797100Y-80724147D01*
X104642228Y-80788297D01*
X104477816Y-80821000D01*
X104310184Y-80821000D01*
X104145772Y-80788297D01*
X103990900Y-80724147D01*
X103851519Y-80631015D01*
X103732985Y-80512481D01*
X103639853Y-80373100D01*
X103575703Y-80218228D01*
X103543000Y-80053816D01*
X103543000Y-79886184D01*
X103575703Y-79721772D01*
X103639853Y-79566900D01*
X103732985Y-79427519D01*
X103851519Y-79308985D01*
X103990900Y-79215853D01*
X104145772Y-79151703D01*
X104310184Y-79119000D01*
X104477816Y-79119000D01*
X104642228Y-79151703D01*
X104642228Y-79151703D01*
G37*
G36*
X98023642Y-79239781D02*
G01*
X98126728Y-79282481D01*
X98169416Y-79300163D01*
X98300608Y-79387822D01*
X98412178Y-79499392D01*
X98457285Y-79566900D01*
X98499838Y-79630586D01*
X98560219Y-79776358D01*
X98591000Y-79931107D01*
X98591000Y-80088893D01*
X98560219Y-80243642D01*
X98506254Y-80373925D01*
X98499837Y-80389416D01*
X98412178Y-80520608D01*
X98300608Y-80632178D01*
X98169416Y-80719837D01*
X98169415Y-80719838D01*
X98169414Y-80719838D01*
X98023642Y-80780219D01*
X97868893Y-80811000D01*
X97711107Y-80811000D01*
X97556358Y-80780219D01*
X97410586Y-80719838D01*
X97410585Y-80719838D01*
X97410584Y-80719837D01*
X97279392Y-80632178D01*
X97167822Y-80520608D01*
X97080163Y-80389416D01*
X97073746Y-80373925D01*
X97019781Y-80243642D01*
X96989000Y-80088893D01*
X96989000Y-79931107D01*
X97019781Y-79776358D01*
X97080162Y-79630586D01*
X97122715Y-79566900D01*
X97167822Y-79499392D01*
X97279392Y-79387822D01*
X97410584Y-79300163D01*
X97453272Y-79282481D01*
X97556358Y-79239781D01*
X97711107Y-79209000D01*
X97868893Y-79209000D01*
X98023642Y-79239781D01*
X98023642Y-79239781D01*
G37*
G36*
X123398228Y-77921703D02*
G01*
X123553100Y-77985853D01*
X123692481Y-78078985D01*
X123811015Y-78197519D01*
X123904147Y-78336900D01*
X123968297Y-78491772D01*
X124001000Y-78656184D01*
X124001000Y-78823816D01*
X123968297Y-78988228D01*
X123904147Y-79143100D01*
X123811015Y-79282481D01*
X123692481Y-79401015D01*
X123553100Y-79494147D01*
X123398228Y-79558297D01*
X123233816Y-79591000D01*
X123066184Y-79591000D01*
X122901772Y-79558297D01*
X122746900Y-79494147D01*
X122607519Y-79401015D01*
X122488985Y-79282481D01*
X122395853Y-79143100D01*
X122331703Y-78988228D01*
X122299000Y-78823816D01*
X122299000Y-78656184D01*
X122331703Y-78491772D01*
X122395853Y-78336900D01*
X122488985Y-78197519D01*
X122607519Y-78078985D01*
X122746900Y-77985853D01*
X122901772Y-77921703D01*
X123066184Y-77889000D01*
X123233816Y-77889000D01*
X123398228Y-77921703D01*
X123398228Y-77921703D01*
G37*
G36*
X120898228Y-77921703D02*
G01*
X121053100Y-77985853D01*
X121192481Y-78078985D01*
X121311015Y-78197519D01*
X121404147Y-78336900D01*
X121468297Y-78491772D01*
X121501000Y-78656184D01*
X121501000Y-78823816D01*
X121468297Y-78988228D01*
X121404147Y-79143100D01*
X121311015Y-79282481D01*
X121192481Y-79401015D01*
X121053100Y-79494147D01*
X120898228Y-79558297D01*
X120733816Y-79591000D01*
X120566184Y-79591000D01*
X120401772Y-79558297D01*
X120246900Y-79494147D01*
X120107519Y-79401015D01*
X119988985Y-79282481D01*
X119895853Y-79143100D01*
X119831703Y-78988228D01*
X119799000Y-78823816D01*
X119799000Y-78656184D01*
X119831703Y-78491772D01*
X119895853Y-78336900D01*
X119988985Y-78197519D01*
X120107519Y-78078985D01*
X120246900Y-77985853D01*
X120401772Y-77921703D01*
X120566184Y-77889000D01*
X120733816Y-77889000D01*
X120898228Y-77921703D01*
X120898228Y-77921703D01*
G37*
G36*
X109393665Y-77992622D02*
G01*
X109467222Y-77999867D01*
X109608786Y-78042810D01*
X109739252Y-78112546D01*
X109769040Y-78136992D01*
X109853607Y-78206393D01*
X109920822Y-78288297D01*
X109947454Y-78320748D01*
X110017190Y-78451214D01*
X110060133Y-78592778D01*
X110074633Y-78740000D01*
X110060133Y-78887222D01*
X110017190Y-79028786D01*
X109947454Y-79159252D01*
X109934964Y-79174471D01*
X109853607Y-79273607D01*
X109769040Y-79343008D01*
X109739252Y-79367454D01*
X109608786Y-79437190D01*
X109467222Y-79480133D01*
X109393665Y-79487378D01*
X109356888Y-79491000D01*
X109083112Y-79491000D01*
X109046335Y-79487378D01*
X108972778Y-79480133D01*
X108831214Y-79437190D01*
X108700748Y-79367454D01*
X108670960Y-79343008D01*
X108586393Y-79273607D01*
X108505036Y-79174471D01*
X108492546Y-79159252D01*
X108422810Y-79028786D01*
X108379867Y-78887222D01*
X108365367Y-78740000D01*
X108379867Y-78592778D01*
X108422810Y-78451214D01*
X108492546Y-78320748D01*
X108519178Y-78288297D01*
X108586393Y-78206393D01*
X108670960Y-78136992D01*
X108700748Y-78112546D01*
X108831214Y-78042810D01*
X108972778Y-77999867D01*
X109046335Y-77992622D01*
X109083112Y-77989000D01*
X109356888Y-77989000D01*
X109393665Y-77992622D01*
X109393665Y-77992622D01*
G37*
G36*
X117013665Y-77992622D02*
G01*
X117087222Y-77999867D01*
X117228786Y-78042810D01*
X117359252Y-78112546D01*
X117389040Y-78136992D01*
X117473607Y-78206393D01*
X117540822Y-78288297D01*
X117567454Y-78320748D01*
X117637190Y-78451214D01*
X117680133Y-78592778D01*
X117694633Y-78740000D01*
X117680133Y-78887222D01*
X117637190Y-79028786D01*
X117567454Y-79159252D01*
X117554964Y-79174471D01*
X117473607Y-79273607D01*
X117389040Y-79343008D01*
X117359252Y-79367454D01*
X117228786Y-79437190D01*
X117087222Y-79480133D01*
X117013665Y-79487378D01*
X116976888Y-79491000D01*
X116703112Y-79491000D01*
X116666335Y-79487378D01*
X116592778Y-79480133D01*
X116451214Y-79437190D01*
X116320748Y-79367454D01*
X116290960Y-79343008D01*
X116206393Y-79273607D01*
X116125036Y-79174471D01*
X116112546Y-79159252D01*
X116042810Y-79028786D01*
X115999867Y-78887222D01*
X115985367Y-78740000D01*
X115999867Y-78592778D01*
X116042810Y-78451214D01*
X116112546Y-78320748D01*
X116139178Y-78288297D01*
X116206393Y-78206393D01*
X116290960Y-78136992D01*
X116320748Y-78112546D01*
X116451214Y-78042810D01*
X116592778Y-77999867D01*
X116666335Y-77992622D01*
X116703112Y-77989000D01*
X116976888Y-77989000D01*
X117013665Y-77992622D01*
X117013665Y-77992622D01*
G37*
G36*
X134095142Y-77672242D02*
G01*
X134243101Y-77733529D01*
X134376255Y-77822499D01*
X134489501Y-77935745D01*
X134578471Y-78068899D01*
X134639758Y-78216858D01*
X134671000Y-78373925D01*
X134671000Y-78534075D01*
X134639758Y-78691142D01*
X134578471Y-78839101D01*
X134489501Y-78972255D01*
X134376255Y-79085501D01*
X134243101Y-79174471D01*
X134095142Y-79235758D01*
X133938075Y-79267000D01*
X133777925Y-79267000D01*
X133620858Y-79235758D01*
X133472899Y-79174471D01*
X133339745Y-79085501D01*
X133226499Y-78972255D01*
X133137529Y-78839101D01*
X133076242Y-78691142D01*
X133045000Y-78534075D01*
X133045000Y-78373925D01*
X133076242Y-78216858D01*
X133137529Y-78068899D01*
X133226499Y-77935745D01*
X133339745Y-77822499D01*
X133472899Y-77733529D01*
X133620858Y-77672242D01*
X133777925Y-77641000D01*
X133938075Y-77641000D01*
X134095142Y-77672242D01*
X134095142Y-77672242D01*
G37*
G36*
X147911142Y-77672242D02*
G01*
X148059101Y-77733529D01*
X148192255Y-77822499D01*
X148305501Y-77935745D01*
X148394471Y-78068899D01*
X148455758Y-78216858D01*
X148487000Y-78373925D01*
X148487000Y-78534075D01*
X148455758Y-78691142D01*
X148394471Y-78839101D01*
X148305501Y-78972255D01*
X148192255Y-79085501D01*
X148059101Y-79174471D01*
X147911142Y-79235758D01*
X147754075Y-79267000D01*
X147593925Y-79267000D01*
X147436858Y-79235758D01*
X147288899Y-79174471D01*
X147155745Y-79085501D01*
X147042499Y-78972255D01*
X146953529Y-78839101D01*
X146892242Y-78691142D01*
X146861000Y-78534075D01*
X146861000Y-78373925D01*
X146892242Y-78216858D01*
X146953529Y-78068899D01*
X147042499Y-77935745D01*
X147155745Y-77822499D01*
X147288899Y-77733529D01*
X147436858Y-77672242D01*
X147593925Y-77641000D01*
X147754075Y-77641000D01*
X147911142Y-77672242D01*
X147911142Y-77672242D01*
G37*
G36*
X104642228Y-76651703D02*
G01*
X104797100Y-76715853D01*
X104936481Y-76808985D01*
X105055015Y-76927519D01*
X105148147Y-77066900D01*
X105212297Y-77221772D01*
X105245000Y-77386184D01*
X105245000Y-77553816D01*
X105212297Y-77718228D01*
X105148147Y-77873100D01*
X105055015Y-78012481D01*
X104936481Y-78131015D01*
X104797100Y-78224147D01*
X104642228Y-78288297D01*
X104477816Y-78321000D01*
X104310184Y-78321000D01*
X104145772Y-78288297D01*
X103990900Y-78224147D01*
X103851519Y-78131015D01*
X103732985Y-78012481D01*
X103639853Y-77873100D01*
X103575703Y-77718228D01*
X103543000Y-77553816D01*
X103543000Y-77386184D01*
X103575703Y-77221772D01*
X103639853Y-77066900D01*
X103732985Y-76927519D01*
X103851519Y-76808985D01*
X103990900Y-76715853D01*
X104145772Y-76651703D01*
X104310184Y-76619000D01*
X104477816Y-76619000D01*
X104642228Y-76651703D01*
X104642228Y-76651703D01*
G37*
G36*
X134095142Y-75672242D02*
G01*
X134243101Y-75733529D01*
X134376255Y-75822499D01*
X134489501Y-75935745D01*
X134578471Y-76068899D01*
X134639758Y-76216858D01*
X134671000Y-76373925D01*
X134671000Y-76534075D01*
X134639758Y-76691142D01*
X134578471Y-76839101D01*
X134489501Y-76972255D01*
X134376255Y-77085501D01*
X134243101Y-77174471D01*
X134095142Y-77235758D01*
X133938075Y-77267000D01*
X133777925Y-77267000D01*
X133620858Y-77235758D01*
X133472899Y-77174471D01*
X133339745Y-77085501D01*
X133226499Y-76972255D01*
X133137529Y-76839101D01*
X133076242Y-76691142D01*
X133045000Y-76534075D01*
X133045000Y-76373925D01*
X133076242Y-76216858D01*
X133137529Y-76068899D01*
X133226499Y-75935745D01*
X133339745Y-75822499D01*
X133472899Y-75733529D01*
X133620858Y-75672242D01*
X133777925Y-75641000D01*
X133938075Y-75641000D01*
X134095142Y-75672242D01*
X134095142Y-75672242D01*
G37*
G36*
X147911142Y-75672242D02*
G01*
X148059101Y-75733529D01*
X148192255Y-75822499D01*
X148305501Y-75935745D01*
X148394471Y-76068899D01*
X148455758Y-76216858D01*
X148487000Y-76373925D01*
X148487000Y-76534075D01*
X148455758Y-76691142D01*
X148394471Y-76839101D01*
X148305501Y-76972255D01*
X148192255Y-77085501D01*
X148059101Y-77174471D01*
X147911142Y-77235758D01*
X147754075Y-77267000D01*
X147593925Y-77267000D01*
X147436858Y-77235758D01*
X147288899Y-77174471D01*
X147155745Y-77085501D01*
X147042499Y-76972255D01*
X146953529Y-76839101D01*
X146892242Y-76691142D01*
X146861000Y-76534075D01*
X146861000Y-76373925D01*
X146892242Y-76216858D01*
X146953529Y-76068899D01*
X147042499Y-75935745D01*
X147155745Y-75822499D01*
X147288899Y-75733529D01*
X147436858Y-75672242D01*
X147593925Y-75641000D01*
X147754075Y-75641000D01*
X147911142Y-75672242D01*
X147911142Y-75672242D01*
G37*
G36*
X109393665Y-75452622D02*
G01*
X109467222Y-75459867D01*
X109608786Y-75502810D01*
X109739252Y-75572546D01*
X109769040Y-75596992D01*
X109853607Y-75666393D01*
X109923008Y-75750960D01*
X109947454Y-75780748D01*
X110017190Y-75911214D01*
X110060133Y-76052778D01*
X110074633Y-76200000D01*
X110060133Y-76347222D01*
X110017190Y-76488786D01*
X109947454Y-76619252D01*
X109923008Y-76649040D01*
X109853607Y-76733607D01*
X109769040Y-76803008D01*
X109739252Y-76827454D01*
X109608786Y-76897190D01*
X109467222Y-76940133D01*
X109393665Y-76947378D01*
X109356888Y-76951000D01*
X109083112Y-76951000D01*
X109046335Y-76947378D01*
X108972778Y-76940133D01*
X108831214Y-76897190D01*
X108700748Y-76827454D01*
X108670960Y-76803008D01*
X108586393Y-76733607D01*
X108516992Y-76649040D01*
X108492546Y-76619252D01*
X108422810Y-76488786D01*
X108379867Y-76347222D01*
X108365367Y-76200000D01*
X108379867Y-76052778D01*
X108422810Y-75911214D01*
X108492546Y-75780748D01*
X108516992Y-75750960D01*
X108586393Y-75666393D01*
X108670960Y-75596992D01*
X108700748Y-75572546D01*
X108831214Y-75502810D01*
X108972778Y-75459867D01*
X109046335Y-75452622D01*
X109083112Y-75449000D01*
X109356888Y-75449000D01*
X109393665Y-75452622D01*
X109393665Y-75452622D01*
G37*
G36*
X117013665Y-75452622D02*
G01*
X117087222Y-75459867D01*
X117228786Y-75502810D01*
X117359252Y-75572546D01*
X117389040Y-75596992D01*
X117473607Y-75666393D01*
X117543008Y-75750960D01*
X117567454Y-75780748D01*
X117637190Y-75911214D01*
X117680133Y-76052778D01*
X117694633Y-76200000D01*
X117680133Y-76347222D01*
X117637190Y-76488786D01*
X117567454Y-76619252D01*
X117543008Y-76649040D01*
X117473607Y-76733607D01*
X117389040Y-76803008D01*
X117359252Y-76827454D01*
X117228786Y-76897190D01*
X117087222Y-76940133D01*
X117013665Y-76947378D01*
X116976888Y-76951000D01*
X116703112Y-76951000D01*
X116666335Y-76947378D01*
X116592778Y-76940133D01*
X116451214Y-76897190D01*
X116320748Y-76827454D01*
X116290960Y-76803008D01*
X116206393Y-76733607D01*
X116136992Y-76649040D01*
X116112546Y-76619252D01*
X116042810Y-76488786D01*
X115999867Y-76347222D01*
X115985367Y-76200000D01*
X115999867Y-76052778D01*
X116042810Y-75911214D01*
X116112546Y-75780748D01*
X116136992Y-75750960D01*
X116206393Y-75666393D01*
X116290960Y-75596992D01*
X116320748Y-75572546D01*
X116451214Y-75502810D01*
X116592778Y-75459867D01*
X116666335Y-75452622D01*
X116703112Y-75449000D01*
X116976888Y-75449000D01*
X117013665Y-75452622D01*
X117013665Y-75452622D01*
G37*
G36*
X65921000Y-76081000D02*
G01*
X63619000Y-76081000D01*
X63619000Y-73779000D01*
X65921000Y-73779000D01*
X65921000Y-76081000D01*
X65921000Y-76081000D01*
G37*
G36*
X59571000Y-76081000D02*
G01*
X57269000Y-76081000D01*
X57269000Y-73779000D01*
X59571000Y-73779000D01*
X59571000Y-76081000D01*
X59571000Y-76081000D01*
G37*
G36*
X117013665Y-72912622D02*
G01*
X117087222Y-72919867D01*
X117228786Y-72962810D01*
X117228788Y-72962811D01*
X117294019Y-72997678D01*
X117359252Y-73032546D01*
X117389040Y-73056992D01*
X117473607Y-73126393D01*
X117534834Y-73201000D01*
X117567454Y-73240748D01*
X117637190Y-73371214D01*
X117680133Y-73512778D01*
X117694633Y-73660000D01*
X117680133Y-73807222D01*
X117637190Y-73948786D01*
X117567454Y-74079252D01*
X117543008Y-74109040D01*
X117473607Y-74193607D01*
X117389040Y-74263008D01*
X117359252Y-74287454D01*
X117228786Y-74357190D01*
X117087222Y-74400133D01*
X117013665Y-74407378D01*
X116976888Y-74411000D01*
X116703112Y-74411000D01*
X116666335Y-74407378D01*
X116592778Y-74400133D01*
X116451214Y-74357190D01*
X116320748Y-74287454D01*
X116290960Y-74263008D01*
X116206393Y-74193607D01*
X116136992Y-74109040D01*
X116112546Y-74079252D01*
X116042810Y-73948786D01*
X115999867Y-73807222D01*
X115985367Y-73660000D01*
X115999867Y-73512778D01*
X116042810Y-73371214D01*
X116112546Y-73240748D01*
X116145166Y-73201000D01*
X116206393Y-73126393D01*
X116290960Y-73056992D01*
X116320748Y-73032546D01*
X116385981Y-72997678D01*
X116451212Y-72962811D01*
X116451214Y-72962810D01*
X116592778Y-72919867D01*
X116666335Y-72912622D01*
X116703112Y-72909000D01*
X116976888Y-72909000D01*
X117013665Y-72912622D01*
X117013665Y-72912622D01*
G37*
G36*
X109393665Y-72912622D02*
G01*
X109467222Y-72919867D01*
X109608786Y-72962810D01*
X109608788Y-72962811D01*
X109674019Y-72997678D01*
X109739252Y-73032546D01*
X109769040Y-73056992D01*
X109853607Y-73126393D01*
X109914834Y-73201000D01*
X109947454Y-73240748D01*
X110017190Y-73371214D01*
X110060133Y-73512778D01*
X110074633Y-73660000D01*
X110060133Y-73807222D01*
X110017190Y-73948786D01*
X109947454Y-74079252D01*
X109923008Y-74109040D01*
X109853607Y-74193607D01*
X109769040Y-74263008D01*
X109739252Y-74287454D01*
X109608786Y-74357190D01*
X109467222Y-74400133D01*
X109393665Y-74407378D01*
X109356888Y-74411000D01*
X109083112Y-74411000D01*
X109046335Y-74407378D01*
X108972778Y-74400133D01*
X108831214Y-74357190D01*
X108700748Y-74287454D01*
X108670960Y-74263008D01*
X108586393Y-74193607D01*
X108516992Y-74109040D01*
X108492546Y-74079252D01*
X108422810Y-73948786D01*
X108379867Y-73807222D01*
X108365367Y-73660000D01*
X108379867Y-73512778D01*
X108422810Y-73371214D01*
X108492546Y-73240748D01*
X108525166Y-73201000D01*
X108586393Y-73126393D01*
X108670960Y-73056992D01*
X108700748Y-73032546D01*
X108765981Y-72997678D01*
X108831212Y-72962811D01*
X108831214Y-72962810D01*
X108972778Y-72919867D01*
X109046335Y-72912622D01*
X109083112Y-72909000D01*
X109356888Y-72909000D01*
X109393665Y-72912622D01*
X109393665Y-72912622D01*
G37*
G36*
X102610228Y-72079703D02*
G01*
X102765100Y-72143853D01*
X102904481Y-72236985D01*
X103023015Y-72355519D01*
X103116147Y-72494900D01*
X103180297Y-72649772D01*
X103213000Y-72814184D01*
X103213000Y-72981816D01*
X103180297Y-73146228D01*
X103116147Y-73301100D01*
X103023015Y-73440481D01*
X102904481Y-73559015D01*
X102765100Y-73652147D01*
X102610228Y-73716297D01*
X102445816Y-73749000D01*
X102278184Y-73749000D01*
X102113772Y-73716297D01*
X101958900Y-73652147D01*
X101819519Y-73559015D01*
X101700985Y-73440481D01*
X101607853Y-73301100D01*
X101543703Y-73146228D01*
X101511000Y-72981816D01*
X101511000Y-72814184D01*
X101543703Y-72649772D01*
X101607853Y-72494900D01*
X101700985Y-72355519D01*
X101819519Y-72236985D01*
X101958900Y-72143853D01*
X102113772Y-72079703D01*
X102278184Y-72047000D01*
X102445816Y-72047000D01*
X102610228Y-72079703D01*
X102610228Y-72079703D01*
G37*
G36*
X148624228Y-72079703D02*
G01*
X148779100Y-72143853D01*
X148918481Y-72236985D01*
X149037015Y-72355519D01*
X149130147Y-72494900D01*
X149194297Y-72649772D01*
X149227000Y-72814184D01*
X149227000Y-72981816D01*
X149194297Y-73146228D01*
X149130147Y-73301100D01*
X149037015Y-73440481D01*
X148918481Y-73559015D01*
X148779100Y-73652147D01*
X148624228Y-73716297D01*
X148459816Y-73749000D01*
X148292184Y-73749000D01*
X148127772Y-73716297D01*
X147972900Y-73652147D01*
X147833519Y-73559015D01*
X147714985Y-73440481D01*
X147621853Y-73301100D01*
X147557703Y-73146228D01*
X147525000Y-72981816D01*
X147525000Y-72814184D01*
X147557703Y-72649772D01*
X147621853Y-72494900D01*
X147714985Y-72355519D01*
X147833519Y-72236985D01*
X147972900Y-72143853D01*
X148127772Y-72079703D01*
X148292184Y-72047000D01*
X148459816Y-72047000D01*
X148624228Y-72079703D01*
X148624228Y-72079703D01*
G37*
G36*
X100110228Y-72079703D02*
G01*
X100265100Y-72143853D01*
X100404481Y-72236985D01*
X100523015Y-72355519D01*
X100616147Y-72494900D01*
X100680297Y-72649772D01*
X100713000Y-72814184D01*
X100713000Y-72981816D01*
X100680297Y-73146228D01*
X100616147Y-73301100D01*
X100523015Y-73440481D01*
X100404481Y-73559015D01*
X100265100Y-73652147D01*
X100110228Y-73716297D01*
X99945816Y-73749000D01*
X99778184Y-73749000D01*
X99613772Y-73716297D01*
X99458900Y-73652147D01*
X99319519Y-73559015D01*
X99200985Y-73440481D01*
X99107853Y-73301100D01*
X99043703Y-73146228D01*
X99011000Y-72981816D01*
X99011000Y-72814184D01*
X99043703Y-72649772D01*
X99107853Y-72494900D01*
X99200985Y-72355519D01*
X99319519Y-72236985D01*
X99458900Y-72143853D01*
X99613772Y-72079703D01*
X99778184Y-72047000D01*
X99945816Y-72047000D01*
X100110228Y-72079703D01*
X100110228Y-72079703D01*
G37*
G36*
X151124228Y-72079703D02*
G01*
X151279100Y-72143853D01*
X151418481Y-72236985D01*
X151537015Y-72355519D01*
X151630147Y-72494900D01*
X151694297Y-72649772D01*
X151727000Y-72814184D01*
X151727000Y-72981816D01*
X151694297Y-73146228D01*
X151630147Y-73301100D01*
X151537015Y-73440481D01*
X151418481Y-73559015D01*
X151279100Y-73652147D01*
X151124228Y-73716297D01*
X150959816Y-73749000D01*
X150792184Y-73749000D01*
X150627772Y-73716297D01*
X150472900Y-73652147D01*
X150333519Y-73559015D01*
X150214985Y-73440481D01*
X150121853Y-73301100D01*
X150057703Y-73146228D01*
X150025000Y-72981816D01*
X150025000Y-72814184D01*
X150057703Y-72649772D01*
X150121853Y-72494900D01*
X150214985Y-72355519D01*
X150333519Y-72236985D01*
X150472900Y-72143853D01*
X150627772Y-72079703D01*
X150792184Y-72047000D01*
X150959816Y-72047000D01*
X151124228Y-72079703D01*
X151124228Y-72079703D01*
G37*
G36*
X71289271Y-71250103D02*
G01*
X71345635Y-71255654D01*
X71562600Y-71321470D01*
X71562602Y-71321471D01*
X71762555Y-71428347D01*
X71937818Y-71572182D01*
X72081653Y-71747445D01*
X72188263Y-71946900D01*
X72188530Y-71947400D01*
X72254346Y-72164365D01*
X72276569Y-72390000D01*
X72254346Y-72615635D01*
X72243991Y-72649772D01*
X72188529Y-72832602D01*
X72081653Y-73032555D01*
X71937818Y-73207818D01*
X71762555Y-73351653D01*
X71562602Y-73458529D01*
X71562600Y-73458530D01*
X71345635Y-73524346D01*
X71289271Y-73529897D01*
X71176545Y-73541000D01*
X71063455Y-73541000D01*
X70950729Y-73529897D01*
X70894365Y-73524346D01*
X70677400Y-73458530D01*
X70677398Y-73458529D01*
X70477445Y-73351653D01*
X70302182Y-73207818D01*
X70158347Y-73032555D01*
X70051471Y-72832602D01*
X69996010Y-72649772D01*
X69985654Y-72615635D01*
X69963431Y-72390000D01*
X69985654Y-72164365D01*
X70051470Y-71947400D01*
X70051737Y-71946900D01*
X70158347Y-71747445D01*
X70302182Y-71572182D01*
X70477445Y-71428347D01*
X70677398Y-71321471D01*
X70677400Y-71321470D01*
X70894365Y-71255654D01*
X70950729Y-71250103D01*
X71063455Y-71239000D01*
X71176545Y-71239000D01*
X71289271Y-71250103D01*
X71289271Y-71250103D01*
G37*
G36*
X52239271Y-71250103D02*
G01*
X52295635Y-71255654D01*
X52512600Y-71321470D01*
X52512602Y-71321471D01*
X52712555Y-71428347D01*
X52887818Y-71572182D01*
X53031653Y-71747445D01*
X53138263Y-71946900D01*
X53138530Y-71947400D01*
X53204346Y-72164365D01*
X53226569Y-72390000D01*
X53204346Y-72615635D01*
X53193991Y-72649772D01*
X53138529Y-72832602D01*
X53031653Y-73032555D01*
X52887818Y-73207818D01*
X52712555Y-73351653D01*
X52512602Y-73458529D01*
X52512600Y-73458530D01*
X52295635Y-73524346D01*
X52239271Y-73529897D01*
X52126545Y-73541000D01*
X52013455Y-73541000D01*
X51900729Y-73529897D01*
X51844365Y-73524346D01*
X51627400Y-73458530D01*
X51627398Y-73458529D01*
X51427445Y-73351653D01*
X51252182Y-73207818D01*
X51108347Y-73032555D01*
X51001471Y-72832602D01*
X50946010Y-72649772D01*
X50935654Y-72615635D01*
X50913431Y-72390000D01*
X50935654Y-72164365D01*
X51001470Y-71947400D01*
X51001737Y-71946900D01*
X51108347Y-71747445D01*
X51252182Y-71572182D01*
X51427445Y-71428347D01*
X51627398Y-71321471D01*
X51627400Y-71321470D01*
X51844365Y-71255654D01*
X51900729Y-71250103D01*
X52013455Y-71239000D01*
X52126545Y-71239000D01*
X52239271Y-71250103D01*
X52239271Y-71250103D01*
G37*
G36*
X122168228Y-71531703D02*
G01*
X122323100Y-71595853D01*
X122462481Y-71688985D01*
X122581015Y-71807519D01*
X122674147Y-71946900D01*
X122738297Y-72101772D01*
X122771000Y-72266184D01*
X122771000Y-72433816D01*
X122738297Y-72598228D01*
X122674147Y-72753100D01*
X122581015Y-72892481D01*
X122462481Y-73011015D01*
X122323100Y-73104147D01*
X122168228Y-73168297D01*
X122003816Y-73201000D01*
X121836184Y-73201000D01*
X121671772Y-73168297D01*
X121516900Y-73104147D01*
X121377519Y-73011015D01*
X121258985Y-72892481D01*
X121165853Y-72753100D01*
X121101703Y-72598228D01*
X121069000Y-72433816D01*
X121069000Y-72266184D01*
X121101703Y-72101772D01*
X121165853Y-71946900D01*
X121258985Y-71807519D01*
X121377519Y-71688985D01*
X121516900Y-71595853D01*
X121671772Y-71531703D01*
X121836184Y-71499000D01*
X122003816Y-71499000D01*
X122168228Y-71531703D01*
X122168228Y-71531703D01*
G37*
G36*
X109393665Y-70372622D02*
G01*
X109467222Y-70379867D01*
X109608786Y-70422810D01*
X109739252Y-70492546D01*
X109769040Y-70516992D01*
X109853607Y-70586393D01*
X109920822Y-70668297D01*
X109947454Y-70700748D01*
X110017190Y-70831214D01*
X110060133Y-70972778D01*
X110074633Y-71120000D01*
X110060133Y-71267222D01*
X110017190Y-71408786D01*
X109947454Y-71539252D01*
X109923008Y-71569040D01*
X109853607Y-71653607D01*
X109769040Y-71723008D01*
X109739252Y-71747454D01*
X109608786Y-71817190D01*
X109467222Y-71860133D01*
X109393665Y-71867378D01*
X109356888Y-71871000D01*
X109083112Y-71871000D01*
X109046335Y-71867378D01*
X108972778Y-71860133D01*
X108831214Y-71817190D01*
X108700748Y-71747454D01*
X108670960Y-71723008D01*
X108586393Y-71653607D01*
X108516992Y-71569040D01*
X108492546Y-71539252D01*
X108422810Y-71408786D01*
X108379867Y-71267222D01*
X108365367Y-71120000D01*
X108379867Y-70972778D01*
X108422810Y-70831214D01*
X108492546Y-70700748D01*
X108519178Y-70668297D01*
X108586393Y-70586393D01*
X108670960Y-70516992D01*
X108700748Y-70492546D01*
X108831214Y-70422810D01*
X108972778Y-70379867D01*
X109046335Y-70372622D01*
X109083112Y-70369000D01*
X109356888Y-70369000D01*
X109393665Y-70372622D01*
X109393665Y-70372622D01*
G37*
G36*
X117013665Y-70372622D02*
G01*
X117087222Y-70379867D01*
X117228786Y-70422810D01*
X117359252Y-70492546D01*
X117389040Y-70516992D01*
X117473607Y-70586393D01*
X117540822Y-70668297D01*
X117567454Y-70700748D01*
X117637190Y-70831214D01*
X117680133Y-70972778D01*
X117694633Y-71120000D01*
X117680133Y-71267222D01*
X117637190Y-71408786D01*
X117567454Y-71539252D01*
X117543008Y-71569040D01*
X117473607Y-71653607D01*
X117389040Y-71723008D01*
X117359252Y-71747454D01*
X117228786Y-71817190D01*
X117087222Y-71860133D01*
X117013665Y-71867378D01*
X116976888Y-71871000D01*
X116703112Y-71871000D01*
X116666335Y-71867378D01*
X116592778Y-71860133D01*
X116451214Y-71817190D01*
X116320748Y-71747454D01*
X116290960Y-71723008D01*
X116206393Y-71653607D01*
X116136992Y-71569040D01*
X116112546Y-71539252D01*
X116042810Y-71408786D01*
X115999867Y-71267222D01*
X115985367Y-71120000D01*
X115999867Y-70972778D01*
X116042810Y-70831214D01*
X116112546Y-70700748D01*
X116139178Y-70668297D01*
X116206393Y-70586393D01*
X116290960Y-70516992D01*
X116320748Y-70492546D01*
X116451214Y-70422810D01*
X116592778Y-70379867D01*
X116666335Y-70372622D01*
X116703112Y-70369000D01*
X116976888Y-70369000D01*
X117013665Y-70372622D01*
X117013665Y-70372622D01*
G37*
G36*
X122168228Y-69031703D02*
G01*
X122323100Y-69095853D01*
X122462481Y-69188985D01*
X122581015Y-69307519D01*
X122674147Y-69446900D01*
X122738297Y-69601772D01*
X122771000Y-69766184D01*
X122771000Y-69933816D01*
X122738297Y-70098228D01*
X122674147Y-70253100D01*
X122581015Y-70392481D01*
X122462481Y-70511015D01*
X122323100Y-70604147D01*
X122168228Y-70668297D01*
X122003816Y-70701000D01*
X121836184Y-70701000D01*
X121671772Y-70668297D01*
X121516900Y-70604147D01*
X121377519Y-70511015D01*
X121258985Y-70392481D01*
X121165853Y-70253100D01*
X121101703Y-70098228D01*
X121069000Y-69933816D01*
X121069000Y-69766184D01*
X121101703Y-69601772D01*
X121165853Y-69446900D01*
X121258985Y-69307519D01*
X121377519Y-69188985D01*
X121516900Y-69095853D01*
X121671772Y-69031703D01*
X121836184Y-68999000D01*
X122003816Y-68999000D01*
X122168228Y-69031703D01*
X122168228Y-69031703D01*
G37*
G36*
X105139443Y-67685519D02*
G01*
X105205627Y-67692037D01*
X105375466Y-67743557D01*
X105531991Y-67827222D01*
X105567729Y-67856552D01*
X105669186Y-67939814D01*
X105752448Y-68041271D01*
X105781778Y-68077009D01*
X105865443Y-68233534D01*
X105916963Y-68403373D01*
X105934359Y-68580000D01*
X105916963Y-68756627D01*
X105865443Y-68926466D01*
X105781778Y-69082991D01*
X105771223Y-69095852D01*
X105669186Y-69220186D01*
X105599725Y-69277190D01*
X105531991Y-69332778D01*
X105375466Y-69416443D01*
X105205627Y-69467963D01*
X105139442Y-69474482D01*
X105073260Y-69481000D01*
X104984740Y-69481000D01*
X104918558Y-69474482D01*
X104852373Y-69467963D01*
X104682534Y-69416443D01*
X104526009Y-69332778D01*
X104458275Y-69277190D01*
X104388814Y-69220186D01*
X104286777Y-69095852D01*
X104276222Y-69082991D01*
X104192557Y-68926466D01*
X104141037Y-68756627D01*
X104123641Y-68580000D01*
X104141037Y-68403373D01*
X104192557Y-68233534D01*
X104276222Y-68077009D01*
X104305552Y-68041271D01*
X104388814Y-67939814D01*
X104490271Y-67856552D01*
X104526009Y-67827222D01*
X104682534Y-67743557D01*
X104852373Y-67692037D01*
X104918557Y-67685519D01*
X104984740Y-67679000D01*
X105073260Y-67679000D01*
X105139443Y-67685519D01*
X105139443Y-67685519D01*
G37*
G36*
X109393665Y-67832622D02*
G01*
X109467222Y-67839867D01*
X109608786Y-67882810D01*
X109739252Y-67952546D01*
X109769040Y-67976992D01*
X109853607Y-68046393D01*
X109923008Y-68130960D01*
X109947454Y-68160748D01*
X110017190Y-68291214D01*
X110060133Y-68432778D01*
X110074633Y-68580000D01*
X110060133Y-68727222D01*
X110017190Y-68868786D01*
X109947454Y-68999252D01*
X109923008Y-69029040D01*
X109853607Y-69113607D01*
X109769040Y-69183008D01*
X109739252Y-69207454D01*
X109608786Y-69277190D01*
X109467222Y-69320133D01*
X109393665Y-69327378D01*
X109356888Y-69331000D01*
X109083112Y-69331000D01*
X109046335Y-69327378D01*
X108972778Y-69320133D01*
X108831214Y-69277190D01*
X108700748Y-69207454D01*
X108670960Y-69183008D01*
X108586393Y-69113607D01*
X108516992Y-69029040D01*
X108492546Y-68999252D01*
X108422810Y-68868786D01*
X108379867Y-68727222D01*
X108365367Y-68580000D01*
X108379867Y-68432778D01*
X108422810Y-68291214D01*
X108492546Y-68160748D01*
X108516992Y-68130960D01*
X108586393Y-68046393D01*
X108670960Y-67976992D01*
X108700748Y-67952546D01*
X108831214Y-67882810D01*
X108972778Y-67839867D01*
X109046335Y-67832622D01*
X109083112Y-67829000D01*
X109356888Y-67829000D01*
X109393665Y-67832622D01*
X109393665Y-67832622D01*
G37*
G36*
X117013665Y-67832622D02*
G01*
X117087222Y-67839867D01*
X117228786Y-67882810D01*
X117359252Y-67952546D01*
X117389040Y-67976992D01*
X117473607Y-68046393D01*
X117543008Y-68130960D01*
X117567454Y-68160748D01*
X117637190Y-68291214D01*
X117680133Y-68432778D01*
X117694633Y-68580000D01*
X117680133Y-68727222D01*
X117637190Y-68868786D01*
X117567454Y-68999252D01*
X117543008Y-69029040D01*
X117473607Y-69113607D01*
X117389040Y-69183008D01*
X117359252Y-69207454D01*
X117228786Y-69277190D01*
X117087222Y-69320133D01*
X117013665Y-69327378D01*
X116976888Y-69331000D01*
X116703112Y-69331000D01*
X116666335Y-69327378D01*
X116592778Y-69320133D01*
X116451214Y-69277190D01*
X116320748Y-69207454D01*
X116290960Y-69183008D01*
X116206393Y-69113607D01*
X116136992Y-69029040D01*
X116112546Y-68999252D01*
X116042810Y-68868786D01*
X115999867Y-68727222D01*
X115985367Y-68580000D01*
X115999867Y-68432778D01*
X116042810Y-68291214D01*
X116112546Y-68160748D01*
X116136992Y-68130960D01*
X116206393Y-68046393D01*
X116290960Y-67976992D01*
X116320748Y-67952546D01*
X116451214Y-67882810D01*
X116592778Y-67839867D01*
X116666335Y-67832622D01*
X116703112Y-67829000D01*
X116976888Y-67829000D01*
X117013665Y-67832622D01*
X117013665Y-67832622D01*
G37*
G36*
X105139442Y-65145518D02*
G01*
X105205627Y-65152037D01*
X105375466Y-65203557D01*
X105531991Y-65287222D01*
X105562768Y-65312480D01*
X105669186Y-65399814D01*
X105752448Y-65501271D01*
X105781778Y-65537009D01*
X105865443Y-65693534D01*
X105916963Y-65863373D01*
X105934359Y-66040000D01*
X105916963Y-66216627D01*
X105865443Y-66386466D01*
X105781778Y-66542991D01*
X105756653Y-66573606D01*
X105669186Y-66680186D01*
X105599725Y-66737190D01*
X105531991Y-66792778D01*
X105375466Y-66876443D01*
X105205627Y-66927963D01*
X105139442Y-66934482D01*
X105073260Y-66941000D01*
X104984740Y-66941000D01*
X104918558Y-66934482D01*
X104852373Y-66927963D01*
X104682534Y-66876443D01*
X104526009Y-66792778D01*
X104458275Y-66737190D01*
X104388814Y-66680186D01*
X104301347Y-66573606D01*
X104276222Y-66542991D01*
X104192557Y-66386466D01*
X104141037Y-66216627D01*
X104123641Y-66040000D01*
X104141037Y-65863373D01*
X104192557Y-65693534D01*
X104276222Y-65537009D01*
X104305552Y-65501271D01*
X104388814Y-65399814D01*
X104495232Y-65312480D01*
X104526009Y-65287222D01*
X104682534Y-65203557D01*
X104852373Y-65152037D01*
X104918558Y-65145518D01*
X104984740Y-65139000D01*
X105073260Y-65139000D01*
X105139442Y-65145518D01*
X105139442Y-65145518D01*
G37*
G36*
X109393665Y-65292622D02*
G01*
X109467222Y-65299867D01*
X109608786Y-65342810D01*
X109739252Y-65412546D01*
X109769040Y-65436992D01*
X109853607Y-65506393D01*
X109920822Y-65588297D01*
X109947454Y-65620748D01*
X110017190Y-65751214D01*
X110060133Y-65892778D01*
X110074633Y-66040000D01*
X110060133Y-66187222D01*
X110017190Y-66328786D01*
X109947454Y-66459252D01*
X109923008Y-66489040D01*
X109853607Y-66573607D01*
X109769040Y-66643008D01*
X109739252Y-66667454D01*
X109608786Y-66737190D01*
X109467222Y-66780133D01*
X109393665Y-66787378D01*
X109356888Y-66791000D01*
X109083112Y-66791000D01*
X109046335Y-66787378D01*
X108972778Y-66780133D01*
X108831214Y-66737190D01*
X108700748Y-66667454D01*
X108670960Y-66643008D01*
X108586393Y-66573607D01*
X108516992Y-66489040D01*
X108492546Y-66459252D01*
X108422810Y-66328786D01*
X108379867Y-66187222D01*
X108365367Y-66040000D01*
X108379867Y-65892778D01*
X108422810Y-65751214D01*
X108492546Y-65620748D01*
X108519178Y-65588297D01*
X108586393Y-65506393D01*
X108670960Y-65436992D01*
X108700748Y-65412546D01*
X108831214Y-65342810D01*
X108972778Y-65299867D01*
X109046335Y-65292622D01*
X109083112Y-65289000D01*
X109356888Y-65289000D01*
X109393665Y-65292622D01*
X109393665Y-65292622D01*
G37*
G36*
X117013665Y-65292622D02*
G01*
X117087222Y-65299867D01*
X117228786Y-65342810D01*
X117359252Y-65412546D01*
X117389040Y-65436992D01*
X117473607Y-65506393D01*
X117540822Y-65588297D01*
X117567454Y-65620748D01*
X117637190Y-65751214D01*
X117680133Y-65892778D01*
X117694633Y-66040000D01*
X117680133Y-66187222D01*
X117637190Y-66328786D01*
X117567454Y-66459252D01*
X117543008Y-66489040D01*
X117473607Y-66573607D01*
X117389040Y-66643008D01*
X117359252Y-66667454D01*
X117228786Y-66737190D01*
X117087222Y-66780133D01*
X117013665Y-66787378D01*
X116976888Y-66791000D01*
X116703112Y-66791000D01*
X116666335Y-66787378D01*
X116592778Y-66780133D01*
X116451214Y-66737190D01*
X116320748Y-66667454D01*
X116290960Y-66643008D01*
X116206393Y-66573607D01*
X116136992Y-66489040D01*
X116112546Y-66459252D01*
X116042810Y-66328786D01*
X115999867Y-66187222D01*
X115985367Y-66040000D01*
X115999867Y-65892778D01*
X116042810Y-65751214D01*
X116112546Y-65620748D01*
X116139178Y-65588297D01*
X116206393Y-65506393D01*
X116290960Y-65436992D01*
X116320748Y-65412546D01*
X116451214Y-65342810D01*
X116592778Y-65299867D01*
X116666335Y-65292622D01*
X116703112Y-65289000D01*
X116976888Y-65289000D01*
X117013665Y-65292622D01*
X117013665Y-65292622D01*
G37*
G36*
X64939271Y-63630103D02*
G01*
X64995635Y-63635654D01*
X65212600Y-63701470D01*
X65212602Y-63701471D01*
X65412555Y-63808347D01*
X65587818Y-63952182D01*
X65731653Y-64127445D01*
X65821170Y-64294922D01*
X65838530Y-64327400D01*
X65904346Y-64544365D01*
X65926569Y-64770000D01*
X65904346Y-64995635D01*
X65841273Y-65203558D01*
X65838529Y-65212602D01*
X65731653Y-65412555D01*
X65587818Y-65587818D01*
X65412555Y-65731653D01*
X65212602Y-65838529D01*
X65212600Y-65838530D01*
X64995635Y-65904346D01*
X64939271Y-65909897D01*
X64826545Y-65921000D01*
X64713455Y-65921000D01*
X64600729Y-65909897D01*
X64544365Y-65904346D01*
X64327400Y-65838530D01*
X64327398Y-65838529D01*
X64127445Y-65731653D01*
X63952182Y-65587818D01*
X63808347Y-65412555D01*
X63701471Y-65212602D01*
X63698728Y-65203558D01*
X63635654Y-64995635D01*
X63613431Y-64770000D01*
X63635654Y-64544365D01*
X63701470Y-64327400D01*
X63718830Y-64294922D01*
X63808347Y-64127445D01*
X63952182Y-63952182D01*
X64127445Y-63808347D01*
X64327398Y-63701471D01*
X64327400Y-63701470D01*
X64544365Y-63635654D01*
X64600729Y-63630103D01*
X64713455Y-63619000D01*
X64826545Y-63619000D01*
X64939271Y-63630103D01*
X64939271Y-63630103D01*
G37*
G36*
X58589271Y-63630103D02*
G01*
X58645635Y-63635654D01*
X58862600Y-63701470D01*
X58862602Y-63701471D01*
X59062555Y-63808347D01*
X59237818Y-63952182D01*
X59381653Y-64127445D01*
X59471170Y-64294922D01*
X59488530Y-64327400D01*
X59554346Y-64544365D01*
X59576569Y-64770000D01*
X59554346Y-64995635D01*
X59491273Y-65203558D01*
X59488529Y-65212602D01*
X59381653Y-65412555D01*
X59237818Y-65587818D01*
X59062555Y-65731653D01*
X58862602Y-65838529D01*
X58862600Y-65838530D01*
X58645635Y-65904346D01*
X58589271Y-65909897D01*
X58476545Y-65921000D01*
X58363455Y-65921000D01*
X58250729Y-65909897D01*
X58194365Y-65904346D01*
X57977400Y-65838530D01*
X57977398Y-65838529D01*
X57777445Y-65731653D01*
X57602182Y-65587818D01*
X57458347Y-65412555D01*
X57351471Y-65212602D01*
X57348728Y-65203558D01*
X57285654Y-64995635D01*
X57263431Y-64770000D01*
X57285654Y-64544365D01*
X57351470Y-64327400D01*
X57368830Y-64294922D01*
X57458347Y-64127445D01*
X57602182Y-63952182D01*
X57777445Y-63808347D01*
X57977398Y-63701471D01*
X57977400Y-63701470D01*
X58194365Y-63635654D01*
X58250729Y-63630103D01*
X58363455Y-63619000D01*
X58476545Y-63619000D01*
X58589271Y-63630103D01*
X58589271Y-63630103D01*
G37*
G36*
X150026823Y-63931313D02*
G01*
X150187242Y-63979976D01*
X150287578Y-64033607D01*
X150335078Y-64058996D01*
X150464659Y-64165341D01*
X150571004Y-64294922D01*
X150571005Y-64294924D01*
X150650024Y-64442758D01*
X150698687Y-64603177D01*
X150715117Y-64770000D01*
X150698687Y-64936823D01*
X150650024Y-65097242D01*
X150609477Y-65173100D01*
X150571004Y-65245078D01*
X150464659Y-65374659D01*
X150335078Y-65481004D01*
X150335076Y-65481005D01*
X150187242Y-65560024D01*
X150026823Y-65608687D01*
X149901804Y-65621000D01*
X149818196Y-65621000D01*
X149693177Y-65608687D01*
X149532758Y-65560024D01*
X149384924Y-65481005D01*
X149384922Y-65481004D01*
X149255341Y-65374659D01*
X149148996Y-65245078D01*
X149110523Y-65173100D01*
X149069976Y-65097242D01*
X149021313Y-64936823D01*
X149004883Y-64770000D01*
X149021313Y-64603177D01*
X149069976Y-64442758D01*
X149148995Y-64294924D01*
X149148996Y-64294922D01*
X149255341Y-64165341D01*
X149384922Y-64058996D01*
X149432422Y-64033607D01*
X149532758Y-63979976D01*
X149693177Y-63931313D01*
X149818196Y-63919000D01*
X149901804Y-63919000D01*
X150026823Y-63931313D01*
X150026823Y-63931313D01*
G37*
G36*
X139948228Y-63951703D02*
G01*
X140103100Y-64015853D01*
X140242481Y-64108985D01*
X140361015Y-64227519D01*
X140454147Y-64366900D01*
X140518297Y-64521772D01*
X140551000Y-64686184D01*
X140551000Y-64853816D01*
X140518297Y-65018228D01*
X140454147Y-65173100D01*
X140361015Y-65312481D01*
X140242481Y-65431015D01*
X140103100Y-65524147D01*
X139948228Y-65588297D01*
X139783816Y-65621000D01*
X139616184Y-65621000D01*
X139451772Y-65588297D01*
X139296900Y-65524147D01*
X139157519Y-65431015D01*
X139038985Y-65312481D01*
X138945853Y-65173100D01*
X138881703Y-65018228D01*
X138849000Y-64853816D01*
X138849000Y-64686184D01*
X138881703Y-64521772D01*
X138945853Y-64366900D01*
X139038985Y-64227519D01*
X139157519Y-64108985D01*
X139296900Y-64015853D01*
X139451772Y-63951703D01*
X139616184Y-63919000D01*
X139783816Y-63919000D01*
X139948228Y-63951703D01*
X139948228Y-63951703D01*
G37*
G36*
X105139442Y-62605518D02*
G01*
X105205627Y-62612037D01*
X105375466Y-62663557D01*
X105531991Y-62747222D01*
X105567729Y-62776552D01*
X105669186Y-62859814D01*
X105752448Y-62961271D01*
X105781778Y-62997009D01*
X105865443Y-63153534D01*
X105916963Y-63323373D01*
X105934359Y-63500000D01*
X105916963Y-63676627D01*
X105865443Y-63846466D01*
X105781778Y-64002991D01*
X105771223Y-64015852D01*
X105669186Y-64140186D01*
X105599725Y-64197190D01*
X105531991Y-64252778D01*
X105375466Y-64336443D01*
X105205627Y-64387963D01*
X105139442Y-64394482D01*
X105073260Y-64401000D01*
X104984740Y-64401000D01*
X104918558Y-64394482D01*
X104852373Y-64387963D01*
X104682534Y-64336443D01*
X104526009Y-64252778D01*
X104458275Y-64197190D01*
X104388814Y-64140186D01*
X104286777Y-64015852D01*
X104276222Y-64002991D01*
X104192557Y-63846466D01*
X104141037Y-63676627D01*
X104123641Y-63500000D01*
X104141037Y-63323373D01*
X104192557Y-63153534D01*
X104276222Y-62997009D01*
X104305552Y-62961271D01*
X104388814Y-62859814D01*
X104490271Y-62776552D01*
X104526009Y-62747222D01*
X104682534Y-62663557D01*
X104852373Y-62612037D01*
X104918558Y-62605518D01*
X104984740Y-62599000D01*
X105073260Y-62599000D01*
X105139442Y-62605518D01*
X105139442Y-62605518D01*
G37*
G36*
X109393665Y-62752622D02*
G01*
X109467222Y-62759867D01*
X109608786Y-62802810D01*
X109739252Y-62872546D01*
X109769040Y-62896992D01*
X109853607Y-62966393D01*
X109923008Y-63050960D01*
X109947454Y-63080748D01*
X110017190Y-63211214D01*
X110060133Y-63352778D01*
X110074633Y-63500000D01*
X110060133Y-63647222D01*
X110017190Y-63788786D01*
X109947454Y-63919252D01*
X109937555Y-63931314D01*
X109853607Y-64033607D01*
X109769040Y-64103008D01*
X109739252Y-64127454D01*
X109608786Y-64197190D01*
X109467222Y-64240133D01*
X109393665Y-64247378D01*
X109356888Y-64251000D01*
X109083112Y-64251000D01*
X109046335Y-64247378D01*
X108972778Y-64240133D01*
X108831214Y-64197190D01*
X108700748Y-64127454D01*
X108670960Y-64103008D01*
X108586393Y-64033607D01*
X108502445Y-63931314D01*
X108492546Y-63919252D01*
X108422810Y-63788786D01*
X108379867Y-63647222D01*
X108365367Y-63500000D01*
X108379867Y-63352778D01*
X108422810Y-63211214D01*
X108492546Y-63080748D01*
X108516992Y-63050960D01*
X108586393Y-62966393D01*
X108670960Y-62896992D01*
X108700748Y-62872546D01*
X108831214Y-62802810D01*
X108972778Y-62759867D01*
X109046335Y-62752622D01*
X109083112Y-62749000D01*
X109356888Y-62749000D01*
X109393665Y-62752622D01*
X109393665Y-62752622D01*
G37*
G36*
X117013665Y-62752622D02*
G01*
X117087222Y-62759867D01*
X117228786Y-62802810D01*
X117359252Y-62872546D01*
X117389040Y-62896992D01*
X117473607Y-62966393D01*
X117543008Y-63050960D01*
X117567454Y-63080748D01*
X117637190Y-63211214D01*
X117680133Y-63352778D01*
X117694633Y-63500000D01*
X117680133Y-63647222D01*
X117637190Y-63788786D01*
X117567454Y-63919252D01*
X117557555Y-63931314D01*
X117473607Y-64033607D01*
X117389040Y-64103008D01*
X117359252Y-64127454D01*
X117228786Y-64197190D01*
X117087222Y-64240133D01*
X117013665Y-64247378D01*
X116976888Y-64251000D01*
X116703112Y-64251000D01*
X116666335Y-64247378D01*
X116592778Y-64240133D01*
X116451214Y-64197190D01*
X116320748Y-64127454D01*
X116290960Y-64103008D01*
X116206393Y-64033607D01*
X116122445Y-63931314D01*
X116112546Y-63919252D01*
X116042810Y-63788786D01*
X115999867Y-63647222D01*
X115985367Y-63500000D01*
X115999867Y-63352778D01*
X116042810Y-63211214D01*
X116112546Y-63080748D01*
X116136992Y-63050960D01*
X116206393Y-62966393D01*
X116290960Y-62896992D01*
X116320748Y-62872546D01*
X116451214Y-62802810D01*
X116592778Y-62759867D01*
X116666335Y-62752622D01*
X116703112Y-62749000D01*
X116976888Y-62749000D01*
X117013665Y-62752622D01*
X117013665Y-62752622D01*
G37*
G36*
X53221000Y-63381000D02*
G01*
X50919000Y-63381000D01*
X50919000Y-61079000D01*
X53221000Y-61079000D01*
X53221000Y-63381000D01*
X53221000Y-63381000D01*
G37*
G36*
X72271000Y-63381000D02*
G01*
X69969000Y-63381000D01*
X69969000Y-61079000D01*
X72271000Y-61079000D01*
X72271000Y-63381000D01*
X72271000Y-63381000D01*
G37*
G36*
X105930000Y-61861000D02*
G01*
X104128000Y-61861000D01*
X104128000Y-60059000D01*
X105930000Y-60059000D01*
X105930000Y-61861000D01*
X105930000Y-61861000D01*
G37*
G36*
X110071000Y-61811000D02*
G01*
X108369000Y-61811000D01*
X108369000Y-60109000D01*
X110071000Y-60109000D01*
X110071000Y-61811000D01*
X110071000Y-61811000D01*
G37*
G36*
X117013665Y-60212622D02*
G01*
X117087222Y-60219867D01*
X117228786Y-60262810D01*
X117359252Y-60332546D01*
X117389040Y-60356992D01*
X117473607Y-60426393D01*
X117543008Y-60510960D01*
X117567454Y-60540748D01*
X117637190Y-60671214D01*
X117680133Y-60812778D01*
X117694633Y-60960000D01*
X117680133Y-61107222D01*
X117637190Y-61248786D01*
X117567454Y-61379252D01*
X117543008Y-61409040D01*
X117473607Y-61493607D01*
X117389040Y-61563008D01*
X117359252Y-61587454D01*
X117228786Y-61657190D01*
X117087222Y-61700133D01*
X117013665Y-61707378D01*
X116976888Y-61711000D01*
X116703112Y-61711000D01*
X116666335Y-61707378D01*
X116592778Y-61700133D01*
X116451214Y-61657190D01*
X116320748Y-61587454D01*
X116290960Y-61563008D01*
X116206393Y-61493607D01*
X116136992Y-61409040D01*
X116112546Y-61379252D01*
X116042810Y-61248786D01*
X115999867Y-61107222D01*
X115985367Y-60960000D01*
X115999867Y-60812778D01*
X116042810Y-60671214D01*
X116112546Y-60540748D01*
X116136992Y-60510960D01*
X116206393Y-60426393D01*
X116290960Y-60356992D01*
X116320748Y-60332546D01*
X116451214Y-60262810D01*
X116592778Y-60219867D01*
X116666335Y-60212622D01*
X116703112Y-60209000D01*
X116976888Y-60209000D01*
X117013665Y-60212622D01*
X117013665Y-60212622D01*
G37*
G36*
X147536000Y-59271000D02*
G01*
X145834000Y-59271000D01*
X145834000Y-57569000D01*
X147536000Y-57569000D01*
X147536000Y-59271000D01*
X147536000Y-59271000D01*
G37*
G36*
X144933228Y-57601703D02*
G01*
X145088100Y-57665853D01*
X145227481Y-57758985D01*
X145346015Y-57877519D01*
X145439147Y-58016900D01*
X145503297Y-58171772D01*
X145536000Y-58336184D01*
X145536000Y-58503816D01*
X145503297Y-58668228D01*
X145439147Y-58823100D01*
X145346015Y-58962481D01*
X145227481Y-59081015D01*
X145088100Y-59174147D01*
X144933228Y-59238297D01*
X144768816Y-59271000D01*
X144601184Y-59271000D01*
X144436772Y-59238297D01*
X144281900Y-59174147D01*
X144142519Y-59081015D01*
X144023985Y-58962481D01*
X143930853Y-58823100D01*
X143866703Y-58668228D01*
X143834000Y-58503816D01*
X143834000Y-58336184D01*
X143866703Y-58171772D01*
X143930853Y-58016900D01*
X144023985Y-57877519D01*
X144142519Y-57758985D01*
X144281900Y-57665853D01*
X144436772Y-57601703D01*
X144601184Y-57569000D01*
X144768816Y-57569000D01*
X144933228Y-57601703D01*
X144933228Y-57601703D01*
G37*
G36*
X107481823Y-55041313D02*
G01*
X107642242Y-55089976D01*
X107774906Y-55160886D01*
X107790078Y-55168996D01*
X107919659Y-55275341D01*
X108026004Y-55404922D01*
X108026005Y-55404924D01*
X108105024Y-55552758D01*
X108153687Y-55713177D01*
X108170117Y-55880000D01*
X108153687Y-56046823D01*
X108105024Y-56207242D01*
X108034114Y-56339906D01*
X108026004Y-56355078D01*
X107919659Y-56484659D01*
X107790078Y-56591004D01*
X107790076Y-56591005D01*
X107642242Y-56670024D01*
X107481823Y-56718687D01*
X107356804Y-56731000D01*
X107273196Y-56731000D01*
X107148177Y-56718687D01*
X106987758Y-56670024D01*
X106839924Y-56591005D01*
X106839922Y-56591004D01*
X106710341Y-56484659D01*
X106603996Y-56355078D01*
X106595886Y-56339906D01*
X106524976Y-56207242D01*
X106476313Y-56046823D01*
X106459883Y-55880000D01*
X106476313Y-55713177D01*
X106524976Y-55552758D01*
X106603995Y-55404924D01*
X106603996Y-55404922D01*
X106710341Y-55275341D01*
X106839922Y-55168996D01*
X106855094Y-55160886D01*
X106987758Y-55089976D01*
X107148177Y-55041313D01*
X107273196Y-55029000D01*
X107356804Y-55029000D01*
X107481823Y-55041313D01*
X107481823Y-55041313D01*
G37*
G36*
X70095239Y-53377101D02*
G01*
X70331053Y-53448634D01*
X70548381Y-53564799D01*
X70738871Y-53721129D01*
X70895201Y-53911619D01*
X71011366Y-54128947D01*
X71082899Y-54364761D01*
X71107053Y-54610000D01*
X71082899Y-54855239D01*
X71011366Y-55091053D01*
X70895201Y-55308381D01*
X70738871Y-55498871D01*
X70548381Y-55655201D01*
X70331053Y-55771366D01*
X70095239Y-55842899D01*
X69911457Y-55861000D01*
X69788543Y-55861000D01*
X69604761Y-55842899D01*
X69368947Y-55771366D01*
X69151619Y-55655201D01*
X68961129Y-55498871D01*
X68804799Y-55308381D01*
X68688634Y-55091053D01*
X68617101Y-54855239D01*
X68592947Y-54610000D01*
X68617101Y-54364761D01*
X68688634Y-54128947D01*
X68804799Y-53911619D01*
X68961129Y-53721129D01*
X69151619Y-53564799D01*
X69368947Y-53448634D01*
X69604761Y-53377101D01*
X69788543Y-53359000D01*
X69911457Y-53359000D01*
X70095239Y-53377101D01*
X70095239Y-53377101D01*
G37*
G36*
X55861000Y-55861000D02*
G01*
X53359000Y-55861000D01*
X53359000Y-53359000D01*
X55861000Y-53359000D01*
X55861000Y-55861000D01*
X55861000Y-55861000D01*
G37*
G36*
X146881719Y-51033520D02*
G01*
X147070880Y-51090901D01*
X147070883Y-51090902D01*
X147163333Y-51140318D01*
X147245212Y-51184083D01*
X147398015Y-51309485D01*
X147523417Y-51462288D01*
X147616599Y-51636619D01*
X147673980Y-51825780D01*
X147688500Y-51973206D01*
X147688500Y-52166793D01*
X147673980Y-52314219D01*
X147625785Y-52473097D01*
X147616598Y-52503383D01*
X147567182Y-52595833D01*
X147523417Y-52677712D01*
X147398015Y-52830515D01*
X147245212Y-52955917D01*
X147070881Y-53049099D01*
X146881720Y-53106480D01*
X146685000Y-53125855D01*
X146488281Y-53106480D01*
X146299120Y-53049099D01*
X146124788Y-52955917D01*
X145971985Y-52830515D01*
X145846583Y-52677712D01*
X145753401Y-52503381D01*
X145696020Y-52314220D01*
X145681500Y-52166794D01*
X145681500Y-51973207D01*
X145696020Y-51825781D01*
X145753401Y-51636620D01*
X145753402Y-51636617D01*
X145811716Y-51527520D01*
X145846583Y-51462288D01*
X145971985Y-51309485D01*
X146124788Y-51184083D01*
X146299119Y-51090901D01*
X146488280Y-51033520D01*
X146685000Y-51014145D01*
X146881719Y-51033520D01*
X146881719Y-51033520D01*
G37*
G36*
X144341719Y-51033520D02*
G01*
X144530880Y-51090901D01*
X144530883Y-51090902D01*
X144623333Y-51140318D01*
X144705212Y-51184083D01*
X144858015Y-51309485D01*
X144983417Y-51462288D01*
X145076599Y-51636619D01*
X145133980Y-51825780D01*
X145148500Y-51973206D01*
X145148500Y-52166793D01*
X145133980Y-52314219D01*
X145085785Y-52473097D01*
X145076598Y-52503383D01*
X145027182Y-52595833D01*
X144983417Y-52677712D01*
X144858015Y-52830515D01*
X144705212Y-52955917D01*
X144530881Y-53049099D01*
X144341720Y-53106480D01*
X144145000Y-53125855D01*
X143948281Y-53106480D01*
X143759120Y-53049099D01*
X143584788Y-52955917D01*
X143431985Y-52830515D01*
X143306583Y-52677712D01*
X143213401Y-52503381D01*
X143156020Y-52314220D01*
X143141500Y-52166794D01*
X143141500Y-51973207D01*
X143156020Y-51825781D01*
X143213401Y-51636620D01*
X143213402Y-51636617D01*
X143271716Y-51527520D01*
X143306583Y-51462288D01*
X143431985Y-51309485D01*
X143584788Y-51184083D01*
X143759119Y-51090901D01*
X143948280Y-51033520D01*
X144145000Y-51014145D01*
X144341719Y-51033520D01*
X144341719Y-51033520D01*
G37*
G36*
X142608500Y-53121000D02*
G01*
X140601500Y-53121000D01*
X140601500Y-51019000D01*
X142608500Y-51019000D01*
X142608500Y-53121000D01*
X142608500Y-53121000D01*
G37*
G36*
X117088228Y-51251703D02*
G01*
X117243100Y-51315853D01*
X117382481Y-51408985D01*
X117501015Y-51527519D01*
X117594147Y-51666900D01*
X117658297Y-51821772D01*
X117691000Y-51986184D01*
X117691000Y-52153816D01*
X117658297Y-52318228D01*
X117594147Y-52473100D01*
X117501015Y-52612481D01*
X117382481Y-52731015D01*
X117243100Y-52824147D01*
X117088228Y-52888297D01*
X116923816Y-52921000D01*
X116756184Y-52921000D01*
X116591772Y-52888297D01*
X116436900Y-52824147D01*
X116297519Y-52731015D01*
X116178985Y-52612481D01*
X116085853Y-52473100D01*
X116021703Y-52318228D01*
X115989000Y-52153816D01*
X115989000Y-51986184D01*
X116021703Y-51821772D01*
X116085853Y-51666900D01*
X116178985Y-51527519D01*
X116297519Y-51408985D01*
X116436900Y-51315853D01*
X116591772Y-51251703D01*
X116756184Y-51219000D01*
X116923816Y-51219000D01*
X117088228Y-51251703D01*
X117088228Y-51251703D01*
G37*
G36*
X86470443Y-45079519D02*
G01*
X86536627Y-45086037D01*
X86706466Y-45137557D01*
X86862991Y-45221222D01*
X86891869Y-45244922D01*
X87000186Y-45333814D01*
X87083448Y-45435271D01*
X87112778Y-45471009D01*
X87196443Y-45627534D01*
X87247963Y-45797373D01*
X87265359Y-45974000D01*
X87247963Y-46150627D01*
X87196443Y-46320466D01*
X87112778Y-46476991D01*
X87083448Y-46512729D01*
X87000186Y-46614186D01*
X86898729Y-46697448D01*
X86862991Y-46726778D01*
X86706466Y-46810443D01*
X86536627Y-46861963D01*
X86470442Y-46868482D01*
X86404260Y-46875000D01*
X86315740Y-46875000D01*
X86249558Y-46868482D01*
X86183373Y-46861963D01*
X86013534Y-46810443D01*
X85857009Y-46726778D01*
X85821271Y-46697448D01*
X85719814Y-46614186D01*
X85636552Y-46512729D01*
X85607222Y-46476991D01*
X85523557Y-46320466D01*
X85472037Y-46150627D01*
X85454641Y-45974000D01*
X85472037Y-45797373D01*
X85523557Y-45627534D01*
X85607222Y-45471009D01*
X85636552Y-45435271D01*
X85719814Y-45333814D01*
X85828131Y-45244922D01*
X85857009Y-45221222D01*
X86013534Y-45137557D01*
X86183373Y-45086037D01*
X86249557Y-45079519D01*
X86315740Y-45073000D01*
X86404260Y-45073000D01*
X86470443Y-45079519D01*
X86470443Y-45079519D01*
G37*
G36*
X89010443Y-45079519D02*
G01*
X89076627Y-45086037D01*
X89246466Y-45137557D01*
X89402991Y-45221222D01*
X89431869Y-45244922D01*
X89540186Y-45333814D01*
X89623448Y-45435271D01*
X89652778Y-45471009D01*
X89736443Y-45627534D01*
X89787963Y-45797373D01*
X89805359Y-45974000D01*
X89787963Y-46150627D01*
X89736443Y-46320466D01*
X89652778Y-46476991D01*
X89623448Y-46512729D01*
X89540186Y-46614186D01*
X89438729Y-46697448D01*
X89402991Y-46726778D01*
X89246466Y-46810443D01*
X89076627Y-46861963D01*
X89010442Y-46868482D01*
X88944260Y-46875000D01*
X88855740Y-46875000D01*
X88789558Y-46868482D01*
X88723373Y-46861963D01*
X88553534Y-46810443D01*
X88397009Y-46726778D01*
X88361271Y-46697448D01*
X88259814Y-46614186D01*
X88176552Y-46512729D01*
X88147222Y-46476991D01*
X88063557Y-46320466D01*
X88012037Y-46150627D01*
X87994641Y-45974000D01*
X88012037Y-45797373D01*
X88063557Y-45627534D01*
X88147222Y-45471009D01*
X88176552Y-45435271D01*
X88259814Y-45333814D01*
X88368131Y-45244922D01*
X88397009Y-45221222D01*
X88553534Y-45137557D01*
X88723373Y-45086037D01*
X88789557Y-45079519D01*
X88855740Y-45073000D01*
X88944260Y-45073000D01*
X89010443Y-45079519D01*
X89010443Y-45079519D01*
G37*
G36*
X91550443Y-45079519D02*
G01*
X91616627Y-45086037D01*
X91786466Y-45137557D01*
X91942991Y-45221222D01*
X91971869Y-45244922D01*
X92080186Y-45333814D01*
X92163448Y-45435271D01*
X92192778Y-45471009D01*
X92276443Y-45627534D01*
X92327963Y-45797373D01*
X92345359Y-45974000D01*
X92327963Y-46150627D01*
X92276443Y-46320466D01*
X92192778Y-46476991D01*
X92163448Y-46512729D01*
X92080186Y-46614186D01*
X91978729Y-46697448D01*
X91942991Y-46726778D01*
X91786466Y-46810443D01*
X91616627Y-46861963D01*
X91550442Y-46868482D01*
X91484260Y-46875000D01*
X91395740Y-46875000D01*
X91329558Y-46868482D01*
X91263373Y-46861963D01*
X91093534Y-46810443D01*
X90937009Y-46726778D01*
X90901271Y-46697448D01*
X90799814Y-46614186D01*
X90716552Y-46512729D01*
X90687222Y-46476991D01*
X90603557Y-46320466D01*
X90552037Y-46150627D01*
X90534641Y-45974000D01*
X90552037Y-45797373D01*
X90603557Y-45627534D01*
X90687222Y-45471009D01*
X90716552Y-45435271D01*
X90799814Y-45333814D01*
X90908131Y-45244922D01*
X90937009Y-45221222D01*
X91093534Y-45137557D01*
X91263373Y-45086037D01*
X91329557Y-45079519D01*
X91395740Y-45073000D01*
X91484260Y-45073000D01*
X91550443Y-45079519D01*
X91550443Y-45079519D01*
G37*
G36*
X84721000Y-46875000D02*
G01*
X82919000Y-46875000D01*
X82919000Y-45073000D01*
X84721000Y-45073000D01*
X84721000Y-46875000D01*
X84721000Y-46875000D01*
G37*
G36*
X111926823Y-44881313D02*
G01*
X112087242Y-44929976D01*
X112154361Y-44965852D01*
X112235078Y-45008996D01*
X112364659Y-45115341D01*
X112471004Y-45244922D01*
X112471005Y-45244924D01*
X112550024Y-45392758D01*
X112598687Y-45553177D01*
X112615117Y-45720000D01*
X112598687Y-45886823D01*
X112550024Y-46047242D01*
X112479114Y-46179906D01*
X112471004Y-46195078D01*
X112364659Y-46324659D01*
X112235078Y-46431004D01*
X112235076Y-46431005D01*
X112087242Y-46510024D01*
X111926823Y-46558687D01*
X111801804Y-46571000D01*
X111718196Y-46571000D01*
X111593177Y-46558687D01*
X111432758Y-46510024D01*
X111284924Y-46431005D01*
X111284922Y-46431004D01*
X111155341Y-46324659D01*
X111048996Y-46195078D01*
X111040886Y-46179906D01*
X110969976Y-46047242D01*
X110921313Y-45886823D01*
X110904883Y-45720000D01*
X110921313Y-45553177D01*
X110969976Y-45392758D01*
X111048995Y-45244924D01*
X111048996Y-45244922D01*
X111155341Y-45115341D01*
X111284922Y-45008996D01*
X111365639Y-44965852D01*
X111432758Y-44929976D01*
X111593177Y-44881313D01*
X111718196Y-44869000D01*
X111801804Y-44869000D01*
X111926823Y-44881313D01*
X111926823Y-44881313D01*
G37*
G36*
X107563228Y-44901703D02*
G01*
X107718100Y-44965853D01*
X107857481Y-45058985D01*
X107976015Y-45177519D01*
X108069147Y-45316900D01*
X108133297Y-45471772D01*
X108166000Y-45636184D01*
X108166000Y-45803816D01*
X108133297Y-45968228D01*
X108069147Y-46123100D01*
X107976015Y-46262481D01*
X107857481Y-46381015D01*
X107718100Y-46474147D01*
X107563228Y-46538297D01*
X107398816Y-46571000D01*
X107231184Y-46571000D01*
X107066772Y-46538297D01*
X106911900Y-46474147D01*
X106772519Y-46381015D01*
X106653985Y-46262481D01*
X106560853Y-46123100D01*
X106496703Y-45968228D01*
X106464000Y-45803816D01*
X106464000Y-45636184D01*
X106496703Y-45471772D01*
X106560853Y-45316900D01*
X106653985Y-45177519D01*
X106772519Y-45058985D01*
X106911900Y-44965853D01*
X107066772Y-44901703D01*
X107231184Y-44869000D01*
X107398816Y-44869000D01*
X107563228Y-44901703D01*
X107563228Y-44901703D01*
G37*
G36*
X146853228Y-44901703D02*
G01*
X147008100Y-44965853D01*
X147147481Y-45058985D01*
X147266015Y-45177519D01*
X147359147Y-45316900D01*
X147423297Y-45471772D01*
X147456000Y-45636184D01*
X147456000Y-45803816D01*
X147423297Y-45968228D01*
X147359147Y-46123100D01*
X147266015Y-46262481D01*
X147147481Y-46381015D01*
X147008100Y-46474147D01*
X146853228Y-46538297D01*
X146688816Y-46571000D01*
X146521184Y-46571000D01*
X146356772Y-46538297D01*
X146201900Y-46474147D01*
X146062519Y-46381015D01*
X145943985Y-46262481D01*
X145850853Y-46123100D01*
X145786703Y-45968228D01*
X145754000Y-45803816D01*
X145754000Y-45636184D01*
X145786703Y-45471772D01*
X145850853Y-45316900D01*
X145943985Y-45177519D01*
X146062519Y-45058985D01*
X146201900Y-44965853D01*
X146356772Y-44901703D01*
X146521184Y-44869000D01*
X146688816Y-44869000D01*
X146853228Y-44901703D01*
X146853228Y-44901703D01*
G37*
G36*
X141853228Y-44901703D02*
G01*
X142008100Y-44965853D01*
X142147481Y-45058985D01*
X142266015Y-45177519D01*
X142359147Y-45316900D01*
X142423297Y-45471772D01*
X142456000Y-45636184D01*
X142456000Y-45803816D01*
X142423297Y-45968228D01*
X142359147Y-46123100D01*
X142266015Y-46262481D01*
X142147481Y-46381015D01*
X142008100Y-46474147D01*
X141853228Y-46538297D01*
X141688816Y-46571000D01*
X141521184Y-46571000D01*
X141356772Y-46538297D01*
X141201900Y-46474147D01*
X141062519Y-46381015D01*
X140943985Y-46262481D01*
X140850853Y-46123100D01*
X140786703Y-45968228D01*
X140754000Y-45803816D01*
X140754000Y-45636184D01*
X140786703Y-45471772D01*
X140850853Y-45316900D01*
X140943985Y-45177519D01*
X141062519Y-45058985D01*
X141201900Y-44965853D01*
X141356772Y-44901703D01*
X141521184Y-44869000D01*
X141688816Y-44869000D01*
X141853228Y-44901703D01*
X141853228Y-44901703D01*
G37*
G36*
X55661000Y-45501000D02*
G01*
X53559000Y-45501000D01*
X53559000Y-43399000D01*
X55661000Y-43399000D01*
X55661000Y-45501000D01*
X55661000Y-45501000D01*
G37*
G36*
X59916564Y-43439389D02*
G01*
X60107833Y-43518615D01*
X60107835Y-43518616D01*
X60279973Y-43633635D01*
X60426365Y-43780027D01*
X60541385Y-43952167D01*
X60620611Y-44143436D01*
X60661000Y-44346484D01*
X60661000Y-44553516D01*
X60620611Y-44756564D01*
X60541385Y-44947833D01*
X60541384Y-44947835D01*
X60426365Y-45119973D01*
X60279973Y-45266365D01*
X60107835Y-45381384D01*
X60107834Y-45381385D01*
X60107833Y-45381385D01*
X59916564Y-45460611D01*
X59713516Y-45501000D01*
X59506484Y-45501000D01*
X59303436Y-45460611D01*
X59112167Y-45381385D01*
X59112166Y-45381385D01*
X59112165Y-45381384D01*
X58940027Y-45266365D01*
X58793635Y-45119973D01*
X58678616Y-44947835D01*
X58678615Y-44947833D01*
X58599389Y-44756564D01*
X58559000Y-44553516D01*
X58559000Y-44346484D01*
X58599389Y-44143436D01*
X58678615Y-43952167D01*
X58793635Y-43780027D01*
X58940027Y-43633635D01*
X59112165Y-43518616D01*
X59112167Y-43518615D01*
X59303436Y-43439389D01*
X59506484Y-43399000D01*
X59713516Y-43399000D01*
X59916564Y-43439389D01*
X59916564Y-43439389D01*
G37*
G36*
X84108228Y-41091703D02*
G01*
X84263100Y-41155853D01*
X84402481Y-41248985D01*
X84521015Y-41367519D01*
X84614147Y-41506900D01*
X84678297Y-41661772D01*
X84711000Y-41826184D01*
X84711000Y-41993816D01*
X84678297Y-42158228D01*
X84614147Y-42313100D01*
X84521015Y-42452481D01*
X84402481Y-42571015D01*
X84263100Y-42664147D01*
X84108228Y-42728297D01*
X83943816Y-42761000D01*
X83776184Y-42761000D01*
X83611772Y-42728297D01*
X83456900Y-42664147D01*
X83317519Y-42571015D01*
X83198985Y-42452481D01*
X83105853Y-42313100D01*
X83041703Y-42158228D01*
X83009000Y-41993816D01*
X83009000Y-41826184D01*
X83041703Y-41661772D01*
X83105853Y-41506900D01*
X83198985Y-41367519D01*
X83317519Y-41248985D01*
X83456900Y-41155853D01*
X83611772Y-41091703D01*
X83776184Y-41059000D01*
X83943816Y-41059000D01*
X84108228Y-41091703D01*
X84108228Y-41091703D01*
G37*
G36*
X86608228Y-41091703D02*
G01*
X86763100Y-41155853D01*
X86902481Y-41248985D01*
X87021015Y-41367519D01*
X87114147Y-41506900D01*
X87178297Y-41661772D01*
X87211000Y-41826184D01*
X87211000Y-41993816D01*
X87178297Y-42158228D01*
X87114147Y-42313100D01*
X87021015Y-42452481D01*
X86902481Y-42571015D01*
X86763100Y-42664147D01*
X86608228Y-42728297D01*
X86443816Y-42761000D01*
X86276184Y-42761000D01*
X86111772Y-42728297D01*
X85956900Y-42664147D01*
X85817519Y-42571015D01*
X85698985Y-42452481D01*
X85605853Y-42313100D01*
X85541703Y-42158228D01*
X85509000Y-41993816D01*
X85509000Y-41826184D01*
X85541703Y-41661772D01*
X85605853Y-41506900D01*
X85698985Y-41367519D01*
X85817519Y-41248985D01*
X85956900Y-41155853D01*
X86111772Y-41091703D01*
X86276184Y-41059000D01*
X86443816Y-41059000D01*
X86608228Y-41091703D01*
X86608228Y-41091703D01*
G37*
G36*
X117006823Y-41071313D02*
G01*
X117167242Y-41119976D01*
X117234361Y-41155852D01*
X117315078Y-41198996D01*
X117444659Y-41305341D01*
X117551004Y-41434922D01*
X117551005Y-41434924D01*
X117630024Y-41582758D01*
X117678687Y-41743177D01*
X117695117Y-41910000D01*
X117678687Y-42076823D01*
X117630024Y-42237242D01*
X117589477Y-42313100D01*
X117551004Y-42385078D01*
X117444659Y-42514659D01*
X117315078Y-42621004D01*
X117315076Y-42621005D01*
X117167242Y-42700024D01*
X117006823Y-42748687D01*
X116881804Y-42761000D01*
X116798196Y-42761000D01*
X116673177Y-42748687D01*
X116512758Y-42700024D01*
X116364924Y-42621005D01*
X116364922Y-42621004D01*
X116235341Y-42514659D01*
X116128996Y-42385078D01*
X116090523Y-42313100D01*
X116049976Y-42237242D01*
X116001313Y-42076823D01*
X115984883Y-41910000D01*
X116001313Y-41743177D01*
X116049976Y-41582758D01*
X116128995Y-41434924D01*
X116128996Y-41434922D01*
X116235341Y-41305341D01*
X116364922Y-41198996D01*
X116445639Y-41155852D01*
X116512758Y-41119976D01*
X116673177Y-41071313D01*
X116798196Y-41059000D01*
X116881804Y-41059000D01*
X117006823Y-41071313D01*
X117006823Y-41071313D01*
G37*
G36*
X105555936Y-39641340D02*
G01*
X105654220Y-39651020D01*
X105843381Y-39708401D01*
X106017712Y-39801583D01*
X106170515Y-39926985D01*
X106295917Y-40079788D01*
X106389099Y-40254119D01*
X106446480Y-40443280D01*
X106465855Y-40640000D01*
X106446480Y-40836720D01*
X106389099Y-41025881D01*
X106295917Y-41200212D01*
X106170515Y-41353015D01*
X106017712Y-41478417D01*
X105843381Y-41571599D01*
X105654220Y-41628980D01*
X105555936Y-41638660D01*
X105506795Y-41643500D01*
X105313205Y-41643500D01*
X105264064Y-41638660D01*
X105165780Y-41628980D01*
X104976619Y-41571599D01*
X104802288Y-41478417D01*
X104649485Y-41353015D01*
X104524083Y-41200212D01*
X104430901Y-41025881D01*
X104373520Y-40836720D01*
X104354145Y-40640000D01*
X104373520Y-40443280D01*
X104430901Y-40254119D01*
X104524083Y-40079788D01*
X104649485Y-39926985D01*
X104802288Y-39801583D01*
X104976619Y-39708401D01*
X105165780Y-39651020D01*
X105264064Y-39641340D01*
X105313205Y-39636500D01*
X105506795Y-39636500D01*
X105555936Y-39641340D01*
X105555936Y-39641340D01*
G37*
G36*
X135503228Y-38511703D02*
G01*
X135658100Y-38575853D01*
X135797481Y-38668985D01*
X135916015Y-38787519D01*
X136009147Y-38926900D01*
X136073297Y-39081772D01*
X136106000Y-39246184D01*
X136106000Y-39413816D01*
X136073297Y-39578228D01*
X136009147Y-39733100D01*
X135916015Y-39872481D01*
X135797481Y-39991015D01*
X135658100Y-40084147D01*
X135503228Y-40148297D01*
X135338816Y-40181000D01*
X135171184Y-40181000D01*
X135006772Y-40148297D01*
X134851900Y-40084147D01*
X134712519Y-39991015D01*
X134593985Y-39872481D01*
X134500853Y-39733100D01*
X134436703Y-39578228D01*
X134404000Y-39413816D01*
X134404000Y-39246184D01*
X134436703Y-39081772D01*
X134500853Y-38926900D01*
X134593985Y-38787519D01*
X134712519Y-38668985D01*
X134851900Y-38575853D01*
X135006772Y-38511703D01*
X135171184Y-38479000D01*
X135338816Y-38479000D01*
X135503228Y-38511703D01*
X135503228Y-38511703D01*
G37*
G36*
X105555936Y-37101340D02*
G01*
X105654220Y-37111020D01*
X105843381Y-37168401D01*
X106017712Y-37261583D01*
X106170515Y-37386985D01*
X106295917Y-37539788D01*
X106389099Y-37714119D01*
X106446480Y-37903280D01*
X106465855Y-38100000D01*
X106446480Y-38296720D01*
X106389099Y-38485881D01*
X106295917Y-38660212D01*
X106170515Y-38813015D01*
X106017712Y-38938417D01*
X105843381Y-39031599D01*
X105654220Y-39088980D01*
X105555936Y-39098660D01*
X105506795Y-39103500D01*
X105313205Y-39103500D01*
X105264064Y-39098660D01*
X105165780Y-39088980D01*
X104976619Y-39031599D01*
X104802288Y-38938417D01*
X104649485Y-38813015D01*
X104524083Y-38660212D01*
X104430901Y-38485881D01*
X104373520Y-38296720D01*
X104354145Y-38100000D01*
X104373520Y-37903280D01*
X104430901Y-37714119D01*
X104524083Y-37539788D01*
X104649485Y-37386985D01*
X104802288Y-37261583D01*
X104976619Y-37168401D01*
X105165780Y-37111020D01*
X105264064Y-37101340D01*
X105313205Y-37096500D01*
X105506795Y-37096500D01*
X105555936Y-37101340D01*
X105555936Y-37101340D01*
G37*
G36*
X130285442Y-35935518D02*
G01*
X130351627Y-35942037D01*
X130521466Y-35993557D01*
X130521468Y-35993558D01*
X130545669Y-36006494D01*
X130677991Y-36077222D01*
X130708768Y-36102480D01*
X130815186Y-36189814D01*
X130895369Y-36287519D01*
X130927778Y-36327009D01*
X131011443Y-36483534D01*
X131062963Y-36653373D01*
X131080359Y-36830000D01*
X131062963Y-37006627D01*
X131011443Y-37176466D01*
X130927778Y-37332991D01*
X130898448Y-37368729D01*
X130815186Y-37470186D01*
X130730374Y-37539788D01*
X130677991Y-37582778D01*
X130521466Y-37666443D01*
X130351627Y-37717963D01*
X130285443Y-37724481D01*
X130219260Y-37731000D01*
X130130740Y-37731000D01*
X130064557Y-37724481D01*
X129998373Y-37717963D01*
X129828534Y-37666443D01*
X129672009Y-37582778D01*
X129619626Y-37539788D01*
X129534814Y-37470186D01*
X129451552Y-37368729D01*
X129422222Y-37332991D01*
X129338557Y-37176466D01*
X129287037Y-37006627D01*
X129269641Y-36830000D01*
X129287037Y-36653373D01*
X129338557Y-36483534D01*
X129422222Y-36327009D01*
X129454631Y-36287519D01*
X129534814Y-36189814D01*
X129641232Y-36102480D01*
X129672009Y-36077222D01*
X129804331Y-36006494D01*
X129828532Y-35993558D01*
X129828534Y-35993557D01*
X129998373Y-35942037D01*
X130064558Y-35935518D01*
X130130740Y-35929000D01*
X130219260Y-35929000D01*
X130285442Y-35935518D01*
X130285442Y-35935518D01*
G37*
G36*
X141186000Y-37681000D02*
G01*
X139484000Y-37681000D01*
X139484000Y-35979000D01*
X141186000Y-35979000D01*
X141186000Y-37681000D01*
X141186000Y-37681000D01*
G37*
G36*
X135503228Y-36011703D02*
G01*
X135658100Y-36075853D01*
X135797481Y-36168985D01*
X135916015Y-36287519D01*
X136009147Y-36426900D01*
X136073297Y-36581772D01*
X136106000Y-36746184D01*
X136106000Y-36913816D01*
X136073297Y-37078228D01*
X136009147Y-37233100D01*
X135916015Y-37372481D01*
X135797481Y-37491015D01*
X135658100Y-37584147D01*
X135503228Y-37648297D01*
X135338816Y-37681000D01*
X135171184Y-37681000D01*
X135006772Y-37648297D01*
X134851900Y-37584147D01*
X134712519Y-37491015D01*
X134593985Y-37372481D01*
X134500853Y-37233100D01*
X134436703Y-37078228D01*
X134404000Y-36913816D01*
X134404000Y-36746184D01*
X134436703Y-36581772D01*
X134500853Y-36426900D01*
X134593985Y-36287519D01*
X134712519Y-36168985D01*
X134851900Y-36075853D01*
X135006772Y-36011703D01*
X135171184Y-35979000D01*
X135338816Y-35979000D01*
X135503228Y-36011703D01*
X135503228Y-36011703D01*
G37*
G36*
X106461000Y-36563500D02*
G01*
X104359000Y-36563500D01*
X104359000Y-34556500D01*
X106461000Y-34556500D01*
X106461000Y-36563500D01*
X106461000Y-36563500D01*
G37*
G36*
X112008228Y-34741703D02*
G01*
X112163100Y-34805853D01*
X112302481Y-34898985D01*
X112421015Y-35017519D01*
X112514147Y-35156900D01*
X112578297Y-35311772D01*
X112611000Y-35476184D01*
X112611000Y-35643816D01*
X112578297Y-35808228D01*
X112514147Y-35963100D01*
X112421015Y-36102481D01*
X112302481Y-36221015D01*
X112163100Y-36314147D01*
X112008228Y-36378297D01*
X111843816Y-36411000D01*
X111676184Y-36411000D01*
X111511772Y-36378297D01*
X111356900Y-36314147D01*
X111217519Y-36221015D01*
X111098985Y-36102481D01*
X111005853Y-35963100D01*
X110941703Y-35808228D01*
X110909000Y-35643816D01*
X110909000Y-35476184D01*
X110941703Y-35311772D01*
X111005853Y-35156900D01*
X111098985Y-35017519D01*
X111217519Y-34898985D01*
X111356900Y-34805853D01*
X111511772Y-34741703D01*
X111676184Y-34709000D01*
X111843816Y-34709000D01*
X112008228Y-34741703D01*
X112008228Y-34741703D01*
G37*
G36*
X116952916Y-34767334D02*
G01*
X117061492Y-34800271D01*
X117061495Y-34800272D01*
X117097601Y-34819571D01*
X117161557Y-34853756D01*
X117249264Y-34925736D01*
X117312383Y-35002646D01*
X117329702Y-35019965D01*
X117350077Y-35033579D01*
X117372716Y-35042957D01*
X117396749Y-35047737D01*
X117421253Y-35047737D01*
X117445286Y-35042957D01*
X117467925Y-35033579D01*
X117488299Y-35019966D01*
X117505626Y-35002639D01*
X117519240Y-34982264D01*
X117528618Y-34959625D01*
X117533398Y-34935592D01*
X117534000Y-34923340D01*
X117534000Y-34759000D01*
X118686000Y-34759000D01*
X118686000Y-36361000D01*
X117534000Y-36361000D01*
X117534000Y-36196660D01*
X117531598Y-36172274D01*
X117524485Y-36148825D01*
X117512934Y-36127214D01*
X117497389Y-36108272D01*
X117478447Y-36092727D01*
X117456836Y-36081176D01*
X117433387Y-36074063D01*
X117409001Y-36071661D01*
X117384615Y-36074063D01*
X117361166Y-36081176D01*
X117339555Y-36092727D01*
X117312381Y-36117356D01*
X117249264Y-36194264D01*
X117161556Y-36266244D01*
X117097600Y-36300429D01*
X117061494Y-36319728D01*
X117061491Y-36319729D01*
X116952915Y-36352666D01*
X116840000Y-36363787D01*
X116727084Y-36352666D01*
X116618508Y-36319729D01*
X116618505Y-36319728D01*
X116582399Y-36300429D01*
X116518443Y-36266244D01*
X116430736Y-36194264D01*
X116358756Y-36106556D01*
X116315239Y-36025140D01*
X116301625Y-36004766D01*
X116284298Y-35987439D01*
X116263924Y-35973825D01*
X116241285Y-35964448D01*
X116217251Y-35959668D01*
X116192747Y-35959668D01*
X116168714Y-35964449D01*
X116146075Y-35973826D01*
X116125701Y-35987440D01*
X116108374Y-36004767D01*
X116094762Y-36025140D01*
X116051244Y-36106557D01*
X115979264Y-36194264D01*
X115891556Y-36266244D01*
X115827600Y-36300429D01*
X115791494Y-36319728D01*
X115791491Y-36319729D01*
X115682915Y-36352666D01*
X115570000Y-36363787D01*
X115457084Y-36352666D01*
X115348508Y-36319729D01*
X115348505Y-36319728D01*
X115312399Y-36300429D01*
X115248443Y-36266244D01*
X115160736Y-36194264D01*
X115088756Y-36106556D01*
X115045239Y-36025140D01*
X115035272Y-36006494D01*
X115031348Y-35993558D01*
X115002334Y-35897915D01*
X114994000Y-35813297D01*
X114994000Y-35306702D01*
X115002334Y-35222084D01*
X115035271Y-35113508D01*
X115035272Y-35113505D01*
X115088756Y-35013445D01*
X115088757Y-35013443D01*
X115160737Y-34925736D01*
X115248444Y-34853756D01*
X115312400Y-34819571D01*
X115348506Y-34800272D01*
X115348509Y-34800271D01*
X115457085Y-34767334D01*
X115570000Y-34756213D01*
X115682916Y-34767334D01*
X115791492Y-34800271D01*
X115791495Y-34800272D01*
X115827601Y-34819571D01*
X115891557Y-34853756D01*
X115979264Y-34925736D01*
X116051244Y-35013443D01*
X116085872Y-35078229D01*
X116094761Y-35094859D01*
X116108375Y-35115234D01*
X116125702Y-35132561D01*
X116146076Y-35146174D01*
X116168715Y-35155552D01*
X116192748Y-35160332D01*
X116217252Y-35160332D01*
X116241285Y-35155552D01*
X116263924Y-35146174D01*
X116284299Y-35132560D01*
X116301626Y-35115233D01*
X116315239Y-35094859D01*
X116358756Y-35013445D01*
X116358757Y-35013443D01*
X116430737Y-34925736D01*
X116518444Y-34853756D01*
X116582400Y-34819571D01*
X116618506Y-34800272D01*
X116618509Y-34800271D01*
X116727085Y-34767334D01*
X116840000Y-34756213D01*
X116952916Y-34767334D01*
X116952916Y-34767334D01*
G37*
G36*
X140583228Y-34011703D02*
G01*
X140738100Y-34075853D01*
X140877481Y-34168985D01*
X140996015Y-34287519D01*
X141089147Y-34426900D01*
X141153297Y-34581772D01*
X141186000Y-34746184D01*
X141186000Y-34913816D01*
X141153297Y-35078228D01*
X141089147Y-35233100D01*
X140996015Y-35372481D01*
X140877481Y-35491015D01*
X140738100Y-35584147D01*
X140583228Y-35648297D01*
X140418816Y-35681000D01*
X140251184Y-35681000D01*
X140086772Y-35648297D01*
X139931900Y-35584147D01*
X139792519Y-35491015D01*
X139673985Y-35372481D01*
X139580853Y-35233100D01*
X139516703Y-35078228D01*
X139484000Y-34913816D01*
X139484000Y-34746184D01*
X139516703Y-34581772D01*
X139580853Y-34426900D01*
X139673985Y-34287519D01*
X139792519Y-34168985D01*
X139931900Y-34075853D01*
X140086772Y-34011703D01*
X140251184Y-33979000D01*
X140418816Y-33979000D01*
X140583228Y-34011703D01*
X140583228Y-34011703D01*
G37*
G36*
X95868142Y-34062242D02*
G01*
X96016101Y-34123529D01*
X96149255Y-34212499D01*
X96262501Y-34325745D01*
X96351471Y-34458899D01*
X96412758Y-34606858D01*
X96444000Y-34763925D01*
X96444000Y-34924075D01*
X96412758Y-35081142D01*
X96351471Y-35229101D01*
X96262501Y-35362255D01*
X96149255Y-35475501D01*
X96016101Y-35564471D01*
X95868142Y-35625758D01*
X95711075Y-35657000D01*
X95550925Y-35657000D01*
X95393858Y-35625758D01*
X95245899Y-35564471D01*
X95112745Y-35475501D01*
X94999499Y-35362255D01*
X94910529Y-35229101D01*
X94849242Y-35081142D01*
X94818000Y-34924075D01*
X94818000Y-34763925D01*
X94849242Y-34606858D01*
X94910529Y-34458899D01*
X94999499Y-34325745D01*
X95112745Y-34212499D01*
X95245899Y-34123529D01*
X95393858Y-34062242D01*
X95550925Y-34031000D01*
X95711075Y-34031000D01*
X95868142Y-34062242D01*
X95868142Y-34062242D01*
G37*
G36*
X77368142Y-34062242D02*
G01*
X77516101Y-34123529D01*
X77649255Y-34212499D01*
X77762501Y-34325745D01*
X77851471Y-34458899D01*
X77912758Y-34606858D01*
X77944000Y-34763925D01*
X77944000Y-34924075D01*
X77912758Y-35081142D01*
X77851471Y-35229101D01*
X77762501Y-35362255D01*
X77649255Y-35475501D01*
X77516101Y-35564471D01*
X77368142Y-35625758D01*
X77211075Y-35657000D01*
X77050925Y-35657000D01*
X76893858Y-35625758D01*
X76745899Y-35564471D01*
X76612745Y-35475501D01*
X76499499Y-35362255D01*
X76410529Y-35229101D01*
X76349242Y-35081142D01*
X76318000Y-34924075D01*
X76318000Y-34763925D01*
X76349242Y-34606858D01*
X76410529Y-34458899D01*
X76499499Y-34325745D01*
X76612745Y-34212499D01*
X76745899Y-34123529D01*
X76893858Y-34062242D01*
X77050925Y-34031000D01*
X77211075Y-34031000D01*
X77368142Y-34062242D01*
X77368142Y-34062242D01*
G37*
G36*
X130285442Y-33395518D02*
G01*
X130351627Y-33402037D01*
X130521466Y-33453557D01*
X130677991Y-33537222D01*
X130713729Y-33566552D01*
X130815186Y-33649814D01*
X130898448Y-33751271D01*
X130927778Y-33787009D01*
X131011443Y-33943534D01*
X131062963Y-34113373D01*
X131080359Y-34290000D01*
X131062963Y-34466627D01*
X131011443Y-34636466D01*
X130927778Y-34792991D01*
X130917223Y-34805852D01*
X130815186Y-34930186D01*
X130726900Y-35002639D01*
X130677991Y-35042778D01*
X130677989Y-35042779D01*
X130545666Y-35113508D01*
X130521466Y-35126443D01*
X130351627Y-35177963D01*
X130285442Y-35184482D01*
X130219260Y-35191000D01*
X130130740Y-35191000D01*
X130064558Y-35184482D01*
X129998373Y-35177963D01*
X129828534Y-35126443D01*
X129804335Y-35113508D01*
X129672011Y-35042779D01*
X129672009Y-35042778D01*
X129623100Y-35002639D01*
X129534814Y-34930186D01*
X129432777Y-34805852D01*
X129422222Y-34792991D01*
X129338557Y-34636466D01*
X129287037Y-34466627D01*
X129269641Y-34290000D01*
X129287037Y-34113373D01*
X129338557Y-33943534D01*
X129422222Y-33787009D01*
X129451552Y-33751271D01*
X129534814Y-33649814D01*
X129636271Y-33566552D01*
X129672009Y-33537222D01*
X129828534Y-33453557D01*
X129998373Y-33402037D01*
X130064558Y-33395518D01*
X130130740Y-33389000D01*
X130219260Y-33389000D01*
X130285442Y-33395518D01*
X130285442Y-33395518D01*
G37*
G36*
X77368142Y-31522242D02*
G01*
X77516101Y-31583529D01*
X77649255Y-31672499D01*
X77762501Y-31785745D01*
X77851471Y-31918899D01*
X77912758Y-32066858D01*
X77944000Y-32223925D01*
X77944000Y-32384075D01*
X77912758Y-32541142D01*
X77851471Y-32689101D01*
X77762501Y-32822255D01*
X77649255Y-32935501D01*
X77516101Y-33024471D01*
X77368142Y-33085758D01*
X77211075Y-33117000D01*
X77050925Y-33117000D01*
X76893858Y-33085758D01*
X76745899Y-33024471D01*
X76612745Y-32935501D01*
X76499499Y-32822255D01*
X76410529Y-32689101D01*
X76349242Y-32541142D01*
X76318000Y-32384075D01*
X76318000Y-32223925D01*
X76349242Y-32066858D01*
X76410529Y-31918899D01*
X76499499Y-31785745D01*
X76612745Y-31672499D01*
X76745899Y-31583529D01*
X76893858Y-31522242D01*
X77050925Y-31491000D01*
X77211075Y-31491000D01*
X77368142Y-31522242D01*
X77368142Y-31522242D01*
G37*
G36*
X95868142Y-31522242D02*
G01*
X96016101Y-31583529D01*
X96149255Y-31672499D01*
X96262501Y-31785745D01*
X96351471Y-31918899D01*
X96412758Y-32066858D01*
X96444000Y-32223925D01*
X96444000Y-32384075D01*
X96412758Y-32541142D01*
X96351471Y-32689101D01*
X96262501Y-32822255D01*
X96149255Y-32935501D01*
X96016101Y-33024471D01*
X95868142Y-33085758D01*
X95711075Y-33117000D01*
X95550925Y-33117000D01*
X95393858Y-33085758D01*
X95245899Y-33024471D01*
X95112745Y-32935501D01*
X94999499Y-32822255D01*
X94910529Y-32689101D01*
X94849242Y-32541142D01*
X94818000Y-32384075D01*
X94818000Y-32223925D01*
X94849242Y-32066858D01*
X94910529Y-31918899D01*
X94999499Y-31785745D01*
X95112745Y-31672499D01*
X95245899Y-31583529D01*
X95393858Y-31522242D01*
X95550925Y-31491000D01*
X95711075Y-31491000D01*
X95868142Y-31522242D01*
X95868142Y-31522242D01*
G37*
G36*
X131076000Y-32651000D02*
G01*
X129274000Y-32651000D01*
X129274000Y-30849000D01*
X131076000Y-30849000D01*
X131076000Y-32651000D01*
X131076000Y-32651000D01*
G37*
G36*
X64986000Y-32601000D02*
G01*
X63284000Y-32601000D01*
X63284000Y-30899000D01*
X64986000Y-30899000D01*
X64986000Y-32601000D01*
X64986000Y-32601000D01*
G37*
G36*
X71368228Y-30931703D02*
G01*
X71523100Y-30995853D01*
X71662481Y-31088985D01*
X71781015Y-31207519D01*
X71874147Y-31346900D01*
X71938297Y-31501772D01*
X71971000Y-31666184D01*
X71971000Y-31833816D01*
X71938297Y-31998228D01*
X71874147Y-32153100D01*
X71781015Y-32292481D01*
X71662481Y-32411015D01*
X71523100Y-32504147D01*
X71368228Y-32568297D01*
X71203816Y-32601000D01*
X71036184Y-32601000D01*
X70871772Y-32568297D01*
X70716900Y-32504147D01*
X70577519Y-32411015D01*
X70458985Y-32292481D01*
X70365853Y-32153100D01*
X70301703Y-31998228D01*
X70269000Y-31833816D01*
X70269000Y-31666184D01*
X70301703Y-31501772D01*
X70365853Y-31346900D01*
X70458985Y-31207519D01*
X70577519Y-31088985D01*
X70716900Y-30995853D01*
X70871772Y-30931703D01*
X71036184Y-30899000D01*
X71203816Y-30899000D01*
X71368228Y-30931703D01*
X71368228Y-30931703D01*
G37*
G36*
X64383228Y-28931703D02*
G01*
X64538100Y-28995853D01*
X64677481Y-29088985D01*
X64796015Y-29207519D01*
X64889147Y-29346900D01*
X64953297Y-29501772D01*
X64986000Y-29666184D01*
X64986000Y-29833816D01*
X64953297Y-29998228D01*
X64889147Y-30153100D01*
X64796015Y-30292481D01*
X64677481Y-30411015D01*
X64538100Y-30504147D01*
X64383228Y-30568297D01*
X64218816Y-30601000D01*
X64051184Y-30601000D01*
X63886772Y-30568297D01*
X63731900Y-30504147D01*
X63592519Y-30411015D01*
X63473985Y-30292481D01*
X63380853Y-30153100D01*
X63316703Y-29998228D01*
X63284000Y-29833816D01*
X63284000Y-29666184D01*
X63316703Y-29501772D01*
X63380853Y-29346900D01*
X63473985Y-29207519D01*
X63592519Y-29088985D01*
X63731900Y-28995853D01*
X63886772Y-28931703D01*
X64051184Y-28899000D01*
X64218816Y-28899000D01*
X64383228Y-28931703D01*
X64383228Y-28931703D01*
G37*
G36*
X71368228Y-28431703D02*
G01*
X71523100Y-28495853D01*
X71662481Y-28588985D01*
X71781015Y-28707519D01*
X71874147Y-28846900D01*
X71938297Y-29001772D01*
X71971000Y-29166184D01*
X71971000Y-29333816D01*
X71938297Y-29498228D01*
X71874147Y-29653100D01*
X71781015Y-29792481D01*
X71662481Y-29911015D01*
X71523100Y-30004147D01*
X71368228Y-30068297D01*
X71203816Y-30101000D01*
X71036184Y-30101000D01*
X70871772Y-30068297D01*
X70716900Y-30004147D01*
X70577519Y-29911015D01*
X70458985Y-29792481D01*
X70365853Y-29653100D01*
X70301703Y-29498228D01*
X70269000Y-29333816D01*
X70269000Y-29166184D01*
X70301703Y-29001772D01*
X70365853Y-28846900D01*
X70458985Y-28707519D01*
X70577519Y-28588985D01*
X70716900Y-28495853D01*
X70871772Y-28431703D01*
X71036184Y-28399000D01*
X71203816Y-28399000D01*
X71368228Y-28431703D01*
X71368228Y-28431703D01*
G37*
G36*
X99943228Y-25851703D02*
G01*
X100098100Y-25915853D01*
X100237481Y-26008985D01*
X100356015Y-26127519D01*
X100449147Y-26266900D01*
X100513297Y-26421772D01*
X100546000Y-26586184D01*
X100546000Y-26753816D01*
X100513297Y-26918228D01*
X100449147Y-27073100D01*
X100356015Y-27212481D01*
X100237481Y-27331015D01*
X100098100Y-27424147D01*
X99943228Y-27488297D01*
X99778816Y-27521000D01*
X99611184Y-27521000D01*
X99446772Y-27488297D01*
X99291900Y-27424147D01*
X99152519Y-27331015D01*
X99033985Y-27212481D01*
X98940853Y-27073100D01*
X98876703Y-26918228D01*
X98844000Y-26753816D01*
X98844000Y-26586184D01*
X98876703Y-26421772D01*
X98940853Y-26266900D01*
X99033985Y-26127519D01*
X99152519Y-26008985D01*
X99291900Y-25915853D01*
X99446772Y-25851703D01*
X99611184Y-25819000D01*
X99778816Y-25819000D01*
X99943228Y-25851703D01*
X99943228Y-25851703D01*
G37*
G36*
X125343228Y-25851703D02*
G01*
X125498100Y-25915853D01*
X125637481Y-26008985D01*
X125756015Y-26127519D01*
X125849147Y-26266900D01*
X125913297Y-26421772D01*
X125946000Y-26586184D01*
X125946000Y-26753816D01*
X125913297Y-26918228D01*
X125849147Y-27073100D01*
X125756015Y-27212481D01*
X125637481Y-27331015D01*
X125498100Y-27424147D01*
X125343228Y-27488297D01*
X125178816Y-27521000D01*
X125011184Y-27521000D01*
X124846772Y-27488297D01*
X124691900Y-27424147D01*
X124552519Y-27331015D01*
X124433985Y-27212481D01*
X124340853Y-27073100D01*
X124276703Y-26918228D01*
X124244000Y-26753816D01*
X124244000Y-26586184D01*
X124276703Y-26421772D01*
X124340853Y-26266900D01*
X124433985Y-26127519D01*
X124552519Y-26008985D01*
X124691900Y-25915853D01*
X124846772Y-25851703D01*
X125011184Y-25819000D01*
X125178816Y-25819000D01*
X125343228Y-25851703D01*
X125343228Y-25851703D01*
G37*
G36*
X119596000Y-27521000D02*
G01*
X117894000Y-27521000D01*
X117894000Y-25819000D01*
X119596000Y-25819000D01*
X119596000Y-27521000D01*
X119596000Y-27521000D01*
G37*
G36*
X106896000Y-27521000D02*
G01*
X105194000Y-27521000D01*
X105194000Y-25819000D01*
X106896000Y-25819000D01*
X106896000Y-27521000D01*
X106896000Y-27521000D01*
G37*
G36*
X136925787Y-19445462D02*
G01*
X136925790Y-19445463D01*
X136925789Y-19445463D01*
X137572029Y-19713144D01*
X138153631Y-20101758D01*
X138648242Y-20596369D01*
X139036856Y-21177971D01*
X139151541Y-21454845D01*
X139304538Y-21824213D01*
X139441000Y-22510256D01*
X139441000Y-23209744D01*
X139304538Y-23895787D01*
X139292302Y-23925328D01*
X139036856Y-24542029D01*
X138648242Y-25123631D01*
X138153631Y-25618242D01*
X137572029Y-26006856D01*
X137280722Y-26127519D01*
X136925787Y-26274538D01*
X136239744Y-26411000D01*
X135540256Y-26411000D01*
X134854213Y-26274538D01*
X134499278Y-26127519D01*
X134207971Y-26006856D01*
X133626369Y-25618242D01*
X133131758Y-25123631D01*
X132743144Y-24542029D01*
X132487698Y-23925328D01*
X132475462Y-23895787D01*
X132339000Y-23209744D01*
X132339000Y-22510256D01*
X132475462Y-21824213D01*
X132628459Y-21454845D01*
X132743144Y-21177971D01*
X133131758Y-20596369D01*
X133626369Y-20101758D01*
X134207971Y-19713144D01*
X134854211Y-19445463D01*
X134854210Y-19445463D01*
X134854213Y-19445462D01*
X135540256Y-19309000D01*
X136239744Y-19309000D01*
X136925787Y-19445462D01*
X136925787Y-19445462D01*
G37*
G36*
X165062585Y-23138802D02*
G01*
X165212410Y-23168604D01*
X165494674Y-23285521D01*
X165748705Y-23455259D01*
X165964741Y-23671295D01*
X166134479Y-23925326D01*
X166251396Y-24207590D01*
X166251396Y-24207591D01*
X166311000Y-24507239D01*
X166311000Y-24812761D01*
X166304049Y-24847707D01*
X166251396Y-25112410D01*
X166134479Y-25394674D01*
X165964741Y-25648705D01*
X165748705Y-25864741D01*
X165494674Y-26034479D01*
X165212410Y-26151396D01*
X165062585Y-26181198D01*
X164912761Y-26211000D01*
X164607239Y-26211000D01*
X164457415Y-26181198D01*
X164307590Y-26151396D01*
X164025326Y-26034479D01*
X163771295Y-25864741D01*
X163555259Y-25648705D01*
X163385521Y-25394674D01*
X163268604Y-25112410D01*
X163215951Y-24847707D01*
X163209000Y-24812761D01*
X163209000Y-24507239D01*
X163268604Y-24207591D01*
X163268604Y-24207590D01*
X163385521Y-23925326D01*
X163555259Y-23671295D01*
X163771295Y-23455259D01*
X164025326Y-23285521D01*
X164307590Y-23168604D01*
X164457415Y-23138802D01*
X164607239Y-23109000D01*
X164912761Y-23109000D01*
X165062585Y-23138802D01*
X165062585Y-23138802D01*
G37*
G36*
X52597787Y-19191462D02*
G01*
X52597790Y-19191463D01*
X52597789Y-19191463D01*
X53244029Y-19459144D01*
X53825631Y-19847758D01*
X54320242Y-20342369D01*
X54708856Y-20923971D01*
X54823541Y-21200845D01*
X54976538Y-21570213D01*
X55113000Y-22256256D01*
X55113000Y-22955744D01*
X54976538Y-23641787D01*
X54976537Y-23641789D01*
X54708856Y-24288029D01*
X54320242Y-24869631D01*
X53825631Y-25364242D01*
X53244029Y-25752856D01*
X52973914Y-25864741D01*
X52597787Y-26020538D01*
X51911744Y-26157000D01*
X51212256Y-26157000D01*
X50526213Y-26020538D01*
X50150086Y-25864741D01*
X49879971Y-25752856D01*
X49298369Y-25364242D01*
X48803758Y-24869631D01*
X48415144Y-24288029D01*
X48147463Y-23641789D01*
X48147462Y-23641787D01*
X48011000Y-22955744D01*
X48011000Y-22256256D01*
X48147462Y-21570213D01*
X48300459Y-21200845D01*
X48415144Y-20923971D01*
X48803758Y-20342369D01*
X49298369Y-19847758D01*
X49879971Y-19459144D01*
X50526211Y-19191463D01*
X50526210Y-19191463D01*
X50526213Y-19191462D01*
X51212256Y-19055000D01*
X51911744Y-19055000D01*
X52597787Y-19191462D01*
X52597787Y-19191462D01*
G37*
G36*
X118993228Y-23851703D02*
G01*
X119148100Y-23915853D01*
X119287481Y-24008985D01*
X119406015Y-24127519D01*
X119499147Y-24266900D01*
X119563297Y-24421772D01*
X119596000Y-24586184D01*
X119596000Y-24753816D01*
X119563297Y-24918228D01*
X119499147Y-25073100D01*
X119406015Y-25212481D01*
X119287481Y-25331015D01*
X119148100Y-25424147D01*
X118993228Y-25488297D01*
X118828816Y-25521000D01*
X118661184Y-25521000D01*
X118496772Y-25488297D01*
X118341900Y-25424147D01*
X118202519Y-25331015D01*
X118083985Y-25212481D01*
X117990853Y-25073100D01*
X117926703Y-24918228D01*
X117894000Y-24753816D01*
X117894000Y-24586184D01*
X117926703Y-24421772D01*
X117990853Y-24266900D01*
X118083985Y-24127519D01*
X118202519Y-24008985D01*
X118341900Y-23915853D01*
X118496772Y-23851703D01*
X118661184Y-23819000D01*
X118828816Y-23819000D01*
X118993228Y-23851703D01*
X118993228Y-23851703D01*
G37*
G36*
X106293228Y-23851703D02*
G01*
X106448100Y-23915853D01*
X106587481Y-24008985D01*
X106706015Y-24127519D01*
X106799147Y-24266900D01*
X106863297Y-24421772D01*
X106896000Y-24586184D01*
X106896000Y-24753816D01*
X106863297Y-24918228D01*
X106799147Y-25073100D01*
X106706015Y-25212481D01*
X106587481Y-25331015D01*
X106448100Y-25424147D01*
X106293228Y-25488297D01*
X106128816Y-25521000D01*
X105961184Y-25521000D01*
X105796772Y-25488297D01*
X105641900Y-25424147D01*
X105502519Y-25331015D01*
X105383985Y-25212481D01*
X105290853Y-25073100D01*
X105226703Y-24918228D01*
X105194000Y-24753816D01*
X105194000Y-24586184D01*
X105226703Y-24421772D01*
X105290853Y-24266900D01*
X105383985Y-24127519D01*
X105502519Y-24008985D01*
X105641900Y-23915853D01*
X105796772Y-23851703D01*
X105961184Y-23819000D01*
X106128816Y-23819000D01*
X106293228Y-23851703D01*
X106293228Y-23851703D01*
G37*
G36*
X125343228Y-23351703D02*
G01*
X125498100Y-23415853D01*
X125637481Y-23508985D01*
X125756015Y-23627519D01*
X125849147Y-23766900D01*
X125913297Y-23921772D01*
X125946000Y-24086184D01*
X125946000Y-24253816D01*
X125913297Y-24418228D01*
X125849147Y-24573100D01*
X125756015Y-24712481D01*
X125637481Y-24831015D01*
X125498100Y-24924147D01*
X125343228Y-24988297D01*
X125178816Y-25021000D01*
X125011184Y-25021000D01*
X124846772Y-24988297D01*
X124691900Y-24924147D01*
X124552519Y-24831015D01*
X124433985Y-24712481D01*
X124340853Y-24573100D01*
X124276703Y-24418228D01*
X124244000Y-24253816D01*
X124244000Y-24086184D01*
X124276703Y-23921772D01*
X124340853Y-23766900D01*
X124433985Y-23627519D01*
X124552519Y-23508985D01*
X124691900Y-23415853D01*
X124846772Y-23351703D01*
X125011184Y-23319000D01*
X125178816Y-23319000D01*
X125343228Y-23351703D01*
X125343228Y-23351703D01*
G37*
G36*
X99943228Y-23351703D02*
G01*
X100098100Y-23415853D01*
X100237481Y-23508985D01*
X100356015Y-23627519D01*
X100449147Y-23766900D01*
X100513297Y-23921772D01*
X100546000Y-24086184D01*
X100546000Y-24253816D01*
X100513297Y-24418228D01*
X100449147Y-24573100D01*
X100356015Y-24712481D01*
X100237481Y-24831015D01*
X100098100Y-24924147D01*
X99943228Y-24988297D01*
X99778816Y-25021000D01*
X99611184Y-25021000D01*
X99446772Y-24988297D01*
X99291900Y-24924147D01*
X99152519Y-24831015D01*
X99033985Y-24712481D01*
X98940853Y-24573100D01*
X98876703Y-24418228D01*
X98844000Y-24253816D01*
X98844000Y-24086184D01*
X98876703Y-23921772D01*
X98940853Y-23766900D01*
X99033985Y-23627519D01*
X99152519Y-23508985D01*
X99291900Y-23415853D01*
X99446772Y-23351703D01*
X99611184Y-23319000D01*
X99778816Y-23319000D01*
X99943228Y-23351703D01*
X99943228Y-23351703D01*
G37*
G36*
X77368142Y-23302242D02*
G01*
X77516101Y-23363529D01*
X77649255Y-23452499D01*
X77762501Y-23565745D01*
X77851471Y-23698899D01*
X77912758Y-23846858D01*
X77944000Y-24003925D01*
X77944000Y-24164075D01*
X77912758Y-24321142D01*
X77851471Y-24469101D01*
X77762501Y-24602255D01*
X77649255Y-24715501D01*
X77516101Y-24804471D01*
X77368142Y-24865758D01*
X77211075Y-24897000D01*
X77050925Y-24897000D01*
X76893858Y-24865758D01*
X76745899Y-24804471D01*
X76612745Y-24715501D01*
X76499499Y-24602255D01*
X76410529Y-24469101D01*
X76349242Y-24321142D01*
X76318000Y-24164075D01*
X76318000Y-24003925D01*
X76349242Y-23846858D01*
X76410529Y-23698899D01*
X76499499Y-23565745D01*
X76612745Y-23452499D01*
X76745899Y-23363529D01*
X76893858Y-23302242D01*
X77050925Y-23271000D01*
X77211075Y-23271000D01*
X77368142Y-23302242D01*
X77368142Y-23302242D01*
G37*
G36*
X95868142Y-23302242D02*
G01*
X96016101Y-23363529D01*
X96149255Y-23452499D01*
X96262501Y-23565745D01*
X96351471Y-23698899D01*
X96412758Y-23846858D01*
X96444000Y-24003925D01*
X96444000Y-24164075D01*
X96412758Y-24321142D01*
X96351471Y-24469101D01*
X96262501Y-24602255D01*
X96149255Y-24715501D01*
X96016101Y-24804471D01*
X95868142Y-24865758D01*
X95711075Y-24897000D01*
X95550925Y-24897000D01*
X95393858Y-24865758D01*
X95245899Y-24804471D01*
X95112745Y-24715501D01*
X94999499Y-24602255D01*
X94910529Y-24469101D01*
X94849242Y-24321142D01*
X94818000Y-24164075D01*
X94818000Y-24003925D01*
X94849242Y-23846858D01*
X94910529Y-23698899D01*
X94999499Y-23565745D01*
X95112745Y-23452499D01*
X95245899Y-23363529D01*
X95393858Y-23302242D01*
X95550925Y-23271000D01*
X95711075Y-23271000D01*
X95868142Y-23302242D01*
X95868142Y-23302242D01*
G37*
G36*
X95868142Y-20762242D02*
G01*
X96016101Y-20823529D01*
X96149255Y-20912499D01*
X96262501Y-21025745D01*
X96351471Y-21158899D01*
X96412758Y-21306858D01*
X96444000Y-21463925D01*
X96444000Y-21624075D01*
X96412758Y-21781142D01*
X96351471Y-21929101D01*
X96262501Y-22062255D01*
X96149255Y-22175501D01*
X96016101Y-22264471D01*
X95868142Y-22325758D01*
X95711075Y-22357000D01*
X95550925Y-22357000D01*
X95393858Y-22325758D01*
X95245899Y-22264471D01*
X95112745Y-22175501D01*
X94999499Y-22062255D01*
X94910529Y-21929101D01*
X94849242Y-21781142D01*
X94818000Y-21624075D01*
X94818000Y-21463925D01*
X94849242Y-21306858D01*
X94910529Y-21158899D01*
X94999499Y-21025745D01*
X95112745Y-20912499D01*
X95245899Y-20823529D01*
X95393858Y-20762242D01*
X95550925Y-20731000D01*
X95711075Y-20731000D01*
X95868142Y-20762242D01*
X95868142Y-20762242D01*
G37*
G36*
X77368142Y-20762242D02*
G01*
X77516101Y-20823529D01*
X77649255Y-20912499D01*
X77762501Y-21025745D01*
X77851471Y-21158899D01*
X77912758Y-21306858D01*
X77944000Y-21463925D01*
X77944000Y-21624075D01*
X77912758Y-21781142D01*
X77851471Y-21929101D01*
X77762501Y-22062255D01*
X77649255Y-22175501D01*
X77516101Y-22264471D01*
X77368142Y-22325758D01*
X77211075Y-22357000D01*
X77050925Y-22357000D01*
X76893858Y-22325758D01*
X76745899Y-22264471D01*
X76612745Y-22175501D01*
X76499499Y-22062255D01*
X76410529Y-21929101D01*
X76349242Y-21781142D01*
X76318000Y-21624075D01*
X76318000Y-21463925D01*
X76349242Y-21306858D01*
X76410529Y-21158899D01*
X76499499Y-21025745D01*
X76612745Y-20912499D01*
X76745899Y-20823529D01*
X76893858Y-20762242D01*
X77050925Y-20731000D01*
X77211075Y-20731000D01*
X77368142Y-20762242D01*
X77368142Y-20762242D01*
G37*
M02*
